ISO-10303-21;
HEADER;
/* Generated by software containing ST-Developer
 * from STEP Tools, Inc. (www.steptools.com) 
 */
/* OPTION: using custom renumber hook */

FILE_DESCRIPTION(
/* description */ ('STEP AP242 Edition 2',
'CAx-IF Rec.Pracs.---Representation and Presentation of Product Manufa
cturing Information (PMI)---4.0---2014-10-13',
'CAx-IF Rec.Pracs.---3D Tessellated Geometry---0.4---2014-09-14','2;1',
'CAx-IF Rec.Pracs.---User Defined Attributes---1.5---2016-08-15'),
/* implementation_level */ '2;1');

FILE_NAME(
/* name */ 'Part Studio 4',
/* time_stamp */ '2026-05-14T21:49:10Z',
/* author */ (''),
/* organization */ (''),
/* preprocessor_version */ 'ST-DEVELOPER v20',
/* originating_system */ 'ONSHAPE BY PTC INC, 1.214',
/* authorisation */ '  ');

FILE_SCHEMA (('AP242_MANAGED_MODEL_BASED_3D_ENGINEERING_MIM_LF { 1 0 10303 442 3 1 4 }'));
ENDSEC;

DATA;
#10=SHAPE_REPRESENTATION_RELATIONSHIP('','',#260,#12);
#11=SHAPE_REPRESENTATION_RELATIONSHIP('','',#261,#13);
#12=ADVANCED_BREP_SHAPE_REPRESENTATION('',(#256),#412);
#13=ADVANCED_BREP_SHAPE_REPRESENTATION('',(#257),#413);
#14=CYLINDRICAL_SURFACE('',#271,0.00285);
#15=CYLINDRICAL_SURFACE('',#281,0.00285);
#16=CIRCLE('',#268,0.00285);
#17=CIRCLE('',#270,0.00285);
#18=CIRCLE('',#278,0.00285);
#19=CIRCLE('',#280,0.00285);
#20=ORIENTED_EDGE('',*,*,#76,.F.);
#21=ORIENTED_EDGE('',*,*,#77,.F.);
#22=ORIENTED_EDGE('',*,*,#78,.T.);
#23=ORIENTED_EDGE('',*,*,#79,.T.);
#24=ORIENTED_EDGE('',*,*,#80,.T.);
#25=ORIENTED_EDGE('',*,*,#81,.F.);
#26=ORIENTED_EDGE('',*,*,#82,.F.);
#27=ORIENTED_EDGE('',*,*,#77,.T.);
#28=ORIENTED_EDGE('',*,*,#83,.T.);
#29=ORIENTED_EDGE('',*,*,#84,.F.);
#30=ORIENTED_EDGE('',*,*,#85,.F.);
#31=ORIENTED_EDGE('',*,*,#81,.T.);
#32=ORIENTED_EDGE('',*,*,#86,.F.);
#33=ORIENTED_EDGE('',*,*,#79,.F.);
#34=ORIENTED_EDGE('',*,*,#87,.T.);
#35=ORIENTED_EDGE('',*,*,#84,.T.);
#36=ORIENTED_EDGE('',*,*,#88,.F.);
#37=ORIENTED_EDGE('',*,*,#78,.F.);
#38=ORIENTED_EDGE('',*,*,#82,.T.);
#39=ORIENTED_EDGE('',*,*,#85,.T.);
#40=ORIENTED_EDGE('',*,*,#87,.F.);
#41=ORIENTED_EDGE('',*,*,#89,.F.);
#42=ORIENTED_EDGE('',*,*,#76,.T.);
#43=ORIENTED_EDGE('',*,*,#86,.T.);
#44=ORIENTED_EDGE('',*,*,#83,.F.);
#45=ORIENTED_EDGE('',*,*,#80,.F.);
#46=ORIENTED_EDGE('',*,*,#88,.T.);
#47=ORIENTED_EDGE('',*,*,#89,.T.);
#48=ORIENTED_EDGE('',*,*,#90,.F.);
#49=ORIENTED_EDGE('',*,*,#91,.F.);
#50=ORIENTED_EDGE('',*,*,#92,.T.);
#51=ORIENTED_EDGE('',*,*,#93,.T.);
#52=ORIENTED_EDGE('',*,*,#94,.T.);
#53=ORIENTED_EDGE('',*,*,#95,.F.);
#54=ORIENTED_EDGE('',*,*,#96,.F.);
#55=ORIENTED_EDGE('',*,*,#91,.T.);
#56=ORIENTED_EDGE('',*,*,#97,.T.);
#57=ORIENTED_EDGE('',*,*,#98,.F.);
#58=ORIENTED_EDGE('',*,*,#99,.F.);
#59=ORIENTED_EDGE('',*,*,#95,.T.);
#60=ORIENTED_EDGE('',*,*,#100,.F.);
#61=ORIENTED_EDGE('',*,*,#93,.F.);
#62=ORIENTED_EDGE('',*,*,#101,.T.);
#63=ORIENTED_EDGE('',*,*,#98,.T.);
#64=ORIENTED_EDGE('',*,*,#102,.F.);
#65=ORIENTED_EDGE('',*,*,#92,.F.);
#66=ORIENTED_EDGE('',*,*,#96,.T.);
#67=ORIENTED_EDGE('',*,*,#99,.T.);
#68=ORIENTED_EDGE('',*,*,#101,.F.);
#69=ORIENTED_EDGE('',*,*,#103,.T.);
#70=ORIENTED_EDGE('',*,*,#90,.T.);
#71=ORIENTED_EDGE('',*,*,#100,.T.);
#72=ORIENTED_EDGE('',*,*,#97,.F.);
#73=ORIENTED_EDGE('',*,*,#94,.F.);
#74=ORIENTED_EDGE('',*,*,#102,.T.);
#75=ORIENTED_EDGE('',*,*,#103,.F.);
#76=EDGE_CURVE('',#104,#105,#124,.T.);
#77=EDGE_CURVE('',#106,#104,#125,.T.);
#78=EDGE_CURVE('',#106,#107,#126,.T.);
#79=EDGE_CURVE('',#107,#105,#127,.T.);
#80=EDGE_CURVE('',#104,#108,#128,.T.);
#81=EDGE_CURVE('',#109,#108,#129,.T.);
#82=EDGE_CURVE('',#106,#109,#130,.T.);
#83=EDGE_CURVE('',#108,#110,#131,.T.);
#84=EDGE_CURVE('',#111,#110,#132,.T.);
#85=EDGE_CURVE('',#109,#111,#133,.T.);
#86=EDGE_CURVE('',#105,#110,#134,.T.);
#87=EDGE_CURVE('',#107,#111,#135,.T.);
#88=EDGE_CURVE('',#112,#112,#16,.T.);
#89=EDGE_CURVE('',#113,#113,#17,.T.);
#90=EDGE_CURVE('',#114,#115,#136,.T.);
#91=EDGE_CURVE('',#116,#114,#137,.T.);
#92=EDGE_CURVE('',#116,#117,#138,.T.);
#93=EDGE_CURVE('',#117,#115,#139,.T.);
#94=EDGE_CURVE('',#114,#118,#140,.T.);
#95=EDGE_CURVE('',#119,#118,#141,.T.);
#96=EDGE_CURVE('',#116,#119,#142,.T.);
#97=EDGE_CURVE('',#118,#120,#143,.T.);
#98=EDGE_CURVE('',#121,#120,#144,.T.);
#99=EDGE_CURVE('',#119,#121,#145,.T.);
#100=EDGE_CURVE('',#115,#120,#146,.T.);
#101=EDGE_CURVE('',#117,#121,#147,.T.);
#102=EDGE_CURVE('',#122,#122,#18,.T.);
#103=EDGE_CURVE('',#123,#123,#19,.T.);
#104=VERTEX_POINT('',#349);
#105=VERTEX_POINT('',#350);
#106=VERTEX_POINT('',#352);
#107=VERTEX_POINT('',#354);
#108=VERTEX_POINT('',#358);
#109=VERTEX_POINT('',#360);
#110=VERTEX_POINT('',#364);
#111=VERTEX_POINT('',#366);
#112=VERTEX_POINT('',#373);
#113=VERTEX_POINT('',#376);
#114=VERTEX_POINT('',#381);
#115=VERTEX_POINT('',#382);
#116=VERTEX_POINT('',#384);
#117=VERTEX_POINT('',#386);
#118=VERTEX_POINT('',#390);
#119=VERTEX_POINT('',#392);
#120=VERTEX_POINT('',#396);
#121=VERTEX_POINT('',#398);
#122=VERTEX_POINT('',#405);
#123=VERTEX_POINT('',#408);
#124=LINE('',#348,#148);
#125=LINE('',#351,#149);
#126=LINE('',#353,#150);
#127=LINE('',#355,#151);
#128=LINE('',#357,#152);
#129=LINE('',#359,#153);
#130=LINE('',#361,#154);
#131=LINE('',#363,#155);
#132=LINE('',#365,#156);
#133=LINE('',#367,#157);
#134=LINE('',#369,#158);
#135=LINE('',#370,#159);
#136=LINE('',#380,#160);
#137=LINE('',#383,#161);
#138=LINE('',#385,#162);
#139=LINE('',#387,#163);
#140=LINE('',#389,#164);
#141=LINE('',#391,#165);
#142=LINE('',#393,#166);
#143=LINE('',#395,#167);
#144=LINE('',#397,#168);
#145=LINE('',#399,#169);
#146=LINE('',#401,#170);
#147=LINE('',#402,#171);
#148=VECTOR('',#286,1.);
#149=VECTOR('',#287,1.);
#150=VECTOR('',#288,1.);
#151=VECTOR('',#289,1.);
#152=VECTOR('',#292,1.);
#153=VECTOR('',#293,1.);
#154=VECTOR('',#294,1.);
#155=VECTOR('',#297,1.);
#156=VECTOR('',#298,1.);
#157=VECTOR('',#299,1.);
#158=VECTOR('',#302,1.);
#159=VECTOR('',#303,1.);
#160=VECTOR('',#318,1.);
#161=VECTOR('',#319,1.);
#162=VECTOR('',#320,1.);
#163=VECTOR('',#321,1.);
#164=VECTOR('',#324,1.);
#165=VECTOR('',#325,1.);
#166=VECTOR('',#326,1.);
#167=VECTOR('',#329,1.);
#168=VECTOR('',#330,1.);
#169=VECTOR('',#331,1.);
#170=VECTOR('',#334,1.);
#171=VECTOR('',#335,1.);
#172=EDGE_LOOP('',(#20,#21,#22,#23));
#173=EDGE_LOOP('',(#24,#25,#26,#27));
#174=EDGE_LOOP('',(#28,#29,#30,#31));
#175=EDGE_LOOP('',(#32,#33,#34,#35));
#176=EDGE_LOOP('',(#36));
#177=EDGE_LOOP('',(#37,#38,#39,#40));
#178=EDGE_LOOP('',(#41));
#179=EDGE_LOOP('',(#42,#43,#44,#45));
#180=EDGE_LOOP('',(#46));
#181=EDGE_LOOP('',(#47));
#182=EDGE_LOOP('',(#48,#49,#50,#51));
#183=EDGE_LOOP('',(#52,#53,#54,#55));
#184=EDGE_LOOP('',(#56,#57,#58,#59));
#185=EDGE_LOOP('',(#60,#61,#62,#63));
#186=EDGE_LOOP('',(#64));
#187=EDGE_LOOP('',(#65,#66,#67,#68));
#188=EDGE_LOOP('',(#69));
#189=EDGE_LOOP('',(#70,#71,#72,#73));
#190=EDGE_LOOP('',(#74));
#191=EDGE_LOOP('',(#75));
#192=FACE_BOUND('',#172,.T.);
#193=FACE_BOUND('',#173,.T.);
#194=FACE_BOUND('',#174,.T.);
#195=FACE_BOUND('',#175,.T.);
#196=FACE_BOUND('',#176,.T.);
#197=FACE_BOUND('',#177,.T.);
#198=FACE_BOUND('',#178,.T.);
#199=FACE_BOUND('',#179,.T.);
#200=FACE_BOUND('',#180,.T.);
#201=FACE_BOUND('',#181,.T.);
#202=FACE_BOUND('',#182,.T.);
#203=FACE_BOUND('',#183,.T.);
#204=FACE_BOUND('',#184,.T.);
#205=FACE_BOUND('',#185,.T.);
#206=FACE_BOUND('',#186,.T.);
#207=FACE_BOUND('',#187,.T.);
#208=FACE_BOUND('',#188,.T.);
#209=FACE_BOUND('',#189,.T.);
#210=FACE_BOUND('',#190,.T.);
#211=FACE_BOUND('',#191,.T.);
#212=PLANE('',#263);
#213=PLANE('',#264);
#214=PLANE('',#265);
#215=PLANE('',#266);
#216=PLANE('',#267);
#217=PLANE('',#269);
#218=PLANE('',#273);
#219=PLANE('',#274);
#220=PLANE('',#275);
#221=PLANE('',#276);
#222=PLANE('',#277);
#223=PLANE('',#279);
#224=ADVANCED_FACE('',(#192),#212,.T.);
#225=ADVANCED_FACE('',(#193),#213,.F.);
#226=ADVANCED_FACE('',(#194),#214,.F.);
#227=ADVANCED_FACE('',(#195),#215,.T.);
#228=ADVANCED_FACE('',(#196,#197),#216,.T.);
#229=ADVANCED_FACE('',(#198,#199),#217,.F.);
#230=ADVANCED_FACE('',(#200,#201),#14,.F.);
#231=ADVANCED_FACE('',(#202),#218,.T.);
#232=ADVANCED_FACE('',(#203),#219,.F.);
#233=ADVANCED_FACE('',(#204),#220,.F.);
#234=ADVANCED_FACE('',(#205),#221,.T.);
#235=ADVANCED_FACE('',(#206,#207),#222,.T.);
#236=ADVANCED_FACE('',(#208,#209),#223,.F.);
#237=ADVANCED_FACE('',(#210,#211),#15,.F.);
#238=CLOSED_SHELL('',(#224,#225,#226,#227,#228,#229,#230));
#239=CLOSED_SHELL('',(#231,#232,#233,#234,#235,#236,#237));
#240=STYLED_ITEM('',(#242),#256);
#241=STYLED_ITEM('',(#243),#257);
#242=PRESENTATION_STYLE_ASSIGNMENT((#244));
#243=PRESENTATION_STYLE_ASSIGNMENT((#245));
#244=SURFACE_STYLE_USAGE(.BOTH.,#246);
#245=SURFACE_STYLE_USAGE(.BOTH.,#247);
#246=SURFACE_SIDE_STYLE('',(#248));
#247=SURFACE_SIDE_STYLE('',(#249));
#248=SURFACE_STYLE_FILL_AREA(#250);
#249=SURFACE_STYLE_FILL_AREA(#251);
#250=FILL_AREA_STYLE('',(#252));
#251=FILL_AREA_STYLE('',(#253));
#252=FILL_AREA_STYLE_COLOUR('',#254);
#253=FILL_AREA_STYLE_COLOUR('',#255);
#254=COLOUR_RGB('',0.615686274509804,0.811764705882353,0.929411764705882);
#255=COLOUR_RGB('',0.647058823529412,0.647058823529412,0.647058823529412);
#256=MANIFOLD_SOLID_BREP('Part 1',#238);
#257=MANIFOLD_SOLID_BREP('Part 2',#239);
#258=SHAPE_DEFINITION_REPRESENTATION(#422,#260);
#259=SHAPE_DEFINITION_REPRESENTATION(#423,#261);
#260=SHAPE_REPRESENTATION('Part 1',(#262),#412);
#261=SHAPE_REPRESENTATION('Part 2',(#272),#413);
#262=AXIS2_PLACEMENT_3D('',#346,#282,#283);
#263=AXIS2_PLACEMENT_3D('',#347,#284,#285);
#264=AXIS2_PLACEMENT_3D('',#356,#290,#291);
#265=AXIS2_PLACEMENT_3D('',#362,#295,#296);
#266=AXIS2_PLACEMENT_3D('',#368,#300,#301);
#267=AXIS2_PLACEMENT_3D('',#371,#304,#305);
#268=AXIS2_PLACEMENT_3D('',#372,#306,#307);
#269=AXIS2_PLACEMENT_3D('',#374,#308,#309);
#270=AXIS2_PLACEMENT_3D('',#375,#310,#311);
#271=AXIS2_PLACEMENT_3D('',#377,#312,#313);
#272=AXIS2_PLACEMENT_3D('',#378,#314,#315);
#273=AXIS2_PLACEMENT_3D('',#379,#316,#317);
#274=AXIS2_PLACEMENT_3D('',#388,#322,#323);
#275=AXIS2_PLACEMENT_3D('',#394,#327,#328);
#276=AXIS2_PLACEMENT_3D('',#400,#332,#333);
#277=AXIS2_PLACEMENT_3D('',#403,#336,#337);
#278=AXIS2_PLACEMENT_3D('',#404,#338,#339);
#279=AXIS2_PLACEMENT_3D('',#406,#340,#341);
#280=AXIS2_PLACEMENT_3D('',#407,#342,#343);
#281=AXIS2_PLACEMENT_3D('',#409,#344,#345);
#282=DIRECTION('',(0.,0.,1.));
#283=DIRECTION('',(1.,0.,0.));
#284=DIRECTION('',(0.,0.,1.));
#285=DIRECTION('',(1.,0.,0.));
#286=DIRECTION('',(1.,0.,0.));
#287=DIRECTION('',(0.,1.,0.));
#288=DIRECTION('',(1.,0.,0.));
#289=DIRECTION('',(0.,1.,0.));
#290=DIRECTION('',(1.,0.,0.));
#291=DIRECTION('',(0.,0.,-1.));
#292=DIRECTION('',(0.,0.,-1.));
#293=DIRECTION('',(0.,1.,0.));
#294=DIRECTION('',(0.,0.,-1.));
#295=DIRECTION('',(0.,0.,1.));
#296=DIRECTION('',(1.,0.,0.));
#297=DIRECTION('',(1.,0.,0.));
#298=DIRECTION('',(0.,1.,0.));
#299=DIRECTION('',(1.,0.,0.));
#300=DIRECTION('',(1.,0.,5.10212787052002E-17));
#301=DIRECTION('',(5.10212787052002E-17,0.,-1.));
#302=DIRECTION('',(5.10212787052002E-17,0.,-1.));
#303=DIRECTION('',(5.10212787052002E-17,0.,-1.));
#304=DIRECTION('',(0.,-1.,0.));
#305=DIRECTION('',(1.,0.,0.));
#306=DIRECTION('',(0.,-1.,0.));
#307=DIRECTION('',(0.,0.,-1.));
#308=DIRECTION('',(0.,-1.,0.));
#309=DIRECTION('',(1.,0.,0.));
#310=DIRECTION('',(0.,1.,0.));
#311=DIRECTION('',(0.,0.,1.));
#312=DIRECTION('',(0.,1.,0.));
#313=DIRECTION('',(0.,0.,1.));
#314=DIRECTION('',(0.,0.,1.));
#315=DIRECTION('',(1.,0.,0.));
#316=DIRECTION('',(0.,0.,1.));
#317=DIRECTION('',(1.,0.,0.));
#318=DIRECTION('',(0.,1.,0.));
#319=DIRECTION('',(-1.,0.,0.));
#320=DIRECTION('',(0.,1.,0.));
#321=DIRECTION('',(-1.,0.,0.));
#322=DIRECTION('',(0.,1.,0.));
#323=DIRECTION('',(0.,0.,1.));
#324=DIRECTION('',(0.,0.,-1.));
#325=DIRECTION('',(-1.,0.,0.));
#326=DIRECTION('',(0.,0.,-1.));
#327=DIRECTION('',(0.,0.,1.));
#328=DIRECTION('',(1.,0.,0.));
#329=DIRECTION('',(0.,1.,0.));
#330=DIRECTION('',(-1.,0.,0.));
#331=DIRECTION('',(0.,1.,0.));
#332=DIRECTION('',(0.,1.,0.));
#333=DIRECTION('',(0.,0.,1.));
#334=DIRECTION('',(0.,0.,-1.));
#335=DIRECTION('',(0.,0.,-1.));
#336=DIRECTION('',(1.,0.,0.));
#337=DIRECTION('',(0.,1.,0.));
#338=DIRECTION('',(1.,0.,0.));
#339=DIRECTION('',(0.,0.,-1.));
#340=DIRECTION('',(1.,0.,0.));
#341=DIRECTION('',(0.,1.,0.));
#342=DIRECTION('',(1.,0.,0.));
#343=DIRECTION('',(0.,0.,-1.));
#344=DIRECTION('',(1.,0.,0.));
#345=DIRECTION('',(0.,0.,-1.));
#346=CARTESIAN_POINT('',(0.,0.,0.));
#347=CARTESIAN_POINT('',(0.00295,-0.003,0.));
#348=CARTESIAN_POINT('',(0.00295,0.,0.));
#349=CARTESIAN_POINT('',(0.,0.,0.));
#350=CARTESIAN_POINT('',(0.0059,0.,0.));
#351=CARTESIAN_POINT('',(0.,-0.003,0.));
#352=CARTESIAN_POINT('',(0.,-0.003,0.));
#353=CARTESIAN_POINT('',(0.00295,-0.003,0.));
#354=CARTESIAN_POINT('',(0.0059,-0.003,0.));
#355=CARTESIAN_POINT('',(0.0059,-0.003,0.));
#356=CARTESIAN_POINT('',(0.,-0.003,-0.0085));
#357=CARTESIAN_POINT('',(0.,0.,-0.0085));
#358=CARTESIAN_POINT('',(8.67361737988404E-19,0.,-0.017));
#359=CARTESIAN_POINT('',(8.67361737988404E-19,-0.003,-0.017));
#360=CARTESIAN_POINT('',(8.67361737988404E-19,-0.003,-0.017));
#361=CARTESIAN_POINT('',(0.,-0.003,-0.0085));
#362=CARTESIAN_POINT('',(0.00295,-0.003,-0.017));
#363=CARTESIAN_POINT('',(0.00295,0.,-0.017));
#364=CARTESIAN_POINT('',(0.0059,0.,-0.017));
#365=CARTESIAN_POINT('',(0.0059,-0.003,-0.017));
#366=CARTESIAN_POINT('',(0.0059,-0.003,-0.017));
#367=CARTESIAN_POINT('',(0.00295,-0.003,-0.017));
#368=CARTESIAN_POINT('',(0.0059,-0.003,-0.0085));
#369=CARTESIAN_POINT('',(0.0059,0.,-0.0085));
#370=CARTESIAN_POINT('',(0.0059,-0.003,-0.0085));
#371=CARTESIAN_POINT('',(0.00295,-0.003,-0.0085));
#372=CARTESIAN_POINT('',(0.00295,-0.003,-0.00305));
#373=CARTESIAN_POINT('',(0.00295,-0.003,-0.0059));
#374=CARTESIAN_POINT('',(0.00295,0.,-0.0085));
#375=CARTESIAN_POINT('',(0.00295,0.,-0.00305));
#376=CARTESIAN_POINT('',(0.00295,0.,-0.0002));
#377=CARTESIAN_POINT('',(0.00295,-0.014,-0.00305));
#378=CARTESIAN_POINT('',(0.,0.,0.));
#379=CARTESIAN_POINT('',(0.003,-0.0451595082163811,0.0292420543241645));
#380=CARTESIAN_POINT('',(0.,-0.0451595082163811,0.0292420543241645));
#381=CARTESIAN_POINT('',(0.,-0.0481095082163811,0.0292420543241645));
#382=CARTESIAN_POINT('',(0.,-0.0422095082163811,0.0292420543241645));
#383=CARTESIAN_POINT('',(0.003,-0.0481095082163811,0.0292420543241645));
#384=CARTESIAN_POINT('',(0.003,-0.0481095082163811,0.0292420543241645));
#385=CARTESIAN_POINT('',(0.003,-0.0451595082163811,0.0292420543241645));
#386=CARTESIAN_POINT('',(0.003,-0.0422095082163811,0.0292420543241645));
#387=CARTESIAN_POINT('',(0.003,-0.0422095082163811,0.0292420543241645));
#388=CARTESIAN_POINT('',(0.003,-0.0481095082163811,0.0207420543241645));
#389=CARTESIAN_POINT('',(0.,-0.0481095082163811,0.0207420543241645));
#390=CARTESIAN_POINT('',(0.,-0.0481095082163811,0.0122420543241644));
#391=CARTESIAN_POINT('',(0.003,-0.0481095082163811,0.0122420543241644));
#392=CARTESIAN_POINT('',(0.003,-0.0481095082163811,0.0122420543241644));
#393=CARTESIAN_POINT('',(0.003,-0.0481095082163811,0.0207420543241645));
#394=CARTESIAN_POINT('',(0.003,-0.0451595082163811,0.0122420543241644));
#395=CARTESIAN_POINT('',(0.,-0.0451595082163811,0.0122420543241644));
#396=CARTESIAN_POINT('',(0.,-0.0422095082163811,0.0122420543241644));
#397=CARTESIAN_POINT('',(0.003,-0.0422095082163811,0.0122420543241644));
#398=CARTESIAN_POINT('',(0.003,-0.0422095082163811,0.0122420543241644));
#399=CARTESIAN_POINT('',(0.003,-0.0451595082163811,0.0122420543241644));
#400=CARTESIAN_POINT('',(0.003,-0.0422095082163811,0.0207420543241645));
#401=CARTESIAN_POINT('',(0.,-0.0422095082163811,0.0207420543241645));
#402=CARTESIAN_POINT('',(0.003,-0.0422095082163811,0.0207420543241645));
#403=CARTESIAN_POINT('',(0.003,-0.0451595082163811,0.0207420543241645));
#404=CARTESIAN_POINT('',(0.003,-0.0451595082163811,0.0261920543241645));
#405=CARTESIAN_POINT('',(0.003,-0.0451595082163811,0.0233420543241645));
#406=CARTESIAN_POINT('',(0.,-0.0451595082163811,0.0207420543241645));
#407=CARTESIAN_POINT('',(0.,-0.0451595082163811,0.0261920543241645));
#408=CARTESIAN_POINT('',(0.,-0.0451595082163811,0.0233420543241645));
#409=CARTESIAN_POINT('',(-0.022,-0.0451595082163811,0.0261920543241645));
#410=MECHANICAL_DESIGN_GEOMETRIC_PRESENTATION_REPRESENTATION('',(#240),
#412);
#411=MECHANICAL_DESIGN_GEOMETRIC_PRESENTATION_REPRESENTATION('',(#241),
#413);
#412=(
GEOMETRIC_REPRESENTATION_CONTEXT(3)
GLOBAL_UNCERTAINTY_ASSIGNED_CONTEXT((#414))
GLOBAL_UNIT_ASSIGNED_CONTEXT((#420,#418,#416))
REPRESENTATION_CONTEXT('Part 1','TOP_LEVEL_ASSEMBLY_PART')
);
#413=(
GEOMETRIC_REPRESENTATION_CONTEXT(3)
GLOBAL_UNCERTAINTY_ASSIGNED_CONTEXT((#415))
GLOBAL_UNIT_ASSIGNED_CONTEXT((#421,#419,#417))
REPRESENTATION_CONTEXT('Part 2','TOP_LEVEL_ASSEMBLY_PART')
);
#414=UNCERTAINTY_MEASURE_WITH_UNIT(LENGTH_MEASURE(1.E-8),#420,
'DISTANCE_ACCURACY_VALUE','Maximum Tolerance applied to model');
#415=UNCERTAINTY_MEASURE_WITH_UNIT(LENGTH_MEASURE(1.E-8),#421,
'DISTANCE_ACCURACY_VALUE','Maximum Tolerance applied to model');
#416=(
NAMED_UNIT(*)
SI_UNIT($,.STERADIAN.)
SOLID_ANGLE_UNIT()
);
#417=(
NAMED_UNIT(*)
SI_UNIT($,.STERADIAN.)
SOLID_ANGLE_UNIT()
);
#418=(
NAMED_UNIT(*)
PLANE_ANGLE_UNIT()
SI_UNIT($,.RADIAN.)
);
#419=(
NAMED_UNIT(*)
PLANE_ANGLE_UNIT()
SI_UNIT($,.RADIAN.)
);
#420=(
LENGTH_UNIT()
NAMED_UNIT(*)
SI_UNIT($,.METRE.)
);
#421=(
LENGTH_UNIT()
NAMED_UNIT(*)
SI_UNIT($,.METRE.)
);
#422=PRODUCT_DEFINITION_SHAPE('','',#424);
#423=PRODUCT_DEFINITION_SHAPE('','',#425);
#424=PRODUCT_DEFINITION('','',#428,#426);
#425=PRODUCT_DEFINITION('','',#429,#427);
#426=PRODUCT_DEFINITION_CONTEXT('',#440,'design');
#427=PRODUCT_DEFINITION_CONTEXT('',#441,'design');
#428=PRODUCT_DEFINITION_FORMATION_WITH_SPECIFIED_SOURCE('','',#432,
 .NOT_KNOWN.);
#429=PRODUCT_DEFINITION_FORMATION_WITH_SPECIFIED_SOURCE('','',#433,
 .NOT_KNOWN.);
#430=PRODUCT_RELATED_PRODUCT_CATEGORY('','',(#432));
#431=PRODUCT_RELATED_PRODUCT_CATEGORY('','',(#433));
#432=PRODUCT('Part 1','Part 1','Part 1',(#436));
#433=PRODUCT('Part 2','Part 2','Part 2',(#437));
#434=PRODUCT_CATEGORY('','');
#435=PRODUCT_CATEGORY('','');
#436=PRODUCT_CONTEXT('',#440,'mechanical');
#437=PRODUCT_CONTEXT('',#441,'mechanical');
#438=APPLICATION_PROTOCOL_DEFINITION('international standard',
'ap242_managed_model_based_3d_engineering',2020,#440);
#439=APPLICATION_PROTOCOL_DEFINITION('international standard',
'ap242_managed_model_based_3d_engineering',2020,#441);
#440=APPLICATION_CONTEXT('managed model based 3d engineering');
#441=APPLICATION_CONTEXT('managed model based 3d engineering');
ENDSEC;
END-ISO-10303-21;
