ISO-10303-21;
HEADER;
/* Generated by software containing ST-Developer
 * from STEP Tools, Inc. (www.steptools.com) 
 */
/* OPTION: using custom renumber hook */

FILE_DESCRIPTION(
/* description */ ('STEP AP242 Edition 2',
'CAx-IF Rec.Pracs.---Representation and Presentation of Product Manufa
cturing Information (PMI)---4.0---2014-10-13',
'CAx-IF Rec.Pracs.---3D Tessellated Geometry---0.4---2014-09-14','2;1',
'CAx-IF Rec.Pracs.---User Defined Attributes---1.5---2016-08-15'),
/* implementation_level */ '2;1');

FILE_NAME(
/* name */ 'Part Studio 3',
/* time_stamp */ '2026-05-09T17:06:58Z',
/* author */ (''),
/* organization */ (''),
/* preprocessor_version */ 'ST-DEVELOPER v20',
/* originating_system */ 'ONSHAPE BY PTC INC, 1.214',
/* authorisation */ '  ');

FILE_SCHEMA (('AP242_MANAGED_MODEL_BASED_3D_ENGINEERING_MIM_LF { 1 0 10303 442 3 1 4 }'));
ENDSEC;

DATA;
#10=SHAPE_REPRESENTATION_RELATIONSHIP('','',#332,#11);
#11=ADVANCED_BREP_SHAPE_REPRESENTATION('',(#330),#550);
#12=SPHERICAL_SURFACE('',#359,0.001);
#13=ELLIPSE('',#358,0.00141421356237309,0.001);
#14=ELLIPSE('',#362,0.00141421356237309,0.001);
#15=ELLIPSE('',#364,0.00141421356237309,0.001);
#16=CYLINDRICAL_SURFACE('',#345,0.00223227489119315);
#17=CYLINDRICAL_SURFACE('',#354,0.001);
#18=CYLINDRICAL_SURFACE('',#356,0.001);
#19=CYLINDRICAL_SURFACE('',#361,0.001);
#20=CYLINDRICAL_SURFACE('',#363,0.001);
#21=CYLINDRICAL_SURFACE('',#365,0.001);
#22=TOROIDAL_SURFACE('',#341,0.0038570398464799,0.00234536740683466);
#23=CIRCLE('',#339,0.00234536740683466);
#24=CIRCLE('',#342,0.00234536740683466);
#25=CIRCLE('',#344,0.00223227489119315);
#26=CIRCLE('',#346,0.00223227489119315);
#27=CIRCLE('',#353,0.001);
#28=CIRCLE('',#355,0.001);
#29=CIRCLE('',#357,0.001);
#30=CIRCLE('',#360,0.001);
#31=ORIENTED_EDGE('',*,*,#111,.F.);
#32=ORIENTED_EDGE('',*,*,#112,.F.);
#33=ORIENTED_EDGE('',*,*,#113,.T.);
#34=ORIENTED_EDGE('',*,*,#114,.T.);
#35=ORIENTED_EDGE('',*,*,#115,.T.);
#36=ORIENTED_EDGE('',*,*,#116,.F.);
#37=ORIENTED_EDGE('',*,*,#117,.F.);
#38=ORIENTED_EDGE('',*,*,#112,.T.);
#39=ORIENTED_EDGE('',*,*,#118,.T.);
#40=ORIENTED_EDGE('',*,*,#119,.F.);
#41=ORIENTED_EDGE('',*,*,#120,.F.);
#42=ORIENTED_EDGE('',*,*,#116,.T.);
#43=ORIENTED_EDGE('',*,*,#121,.F.);
#44=ORIENTED_EDGE('',*,*,#114,.F.);
#45=ORIENTED_EDGE('',*,*,#122,.T.);
#46=ORIENTED_EDGE('',*,*,#119,.T.);
#47=ORIENTED_EDGE('',*,*,#123,.F.);
#48=ORIENTED_EDGE('',*,*,#113,.F.);
#49=ORIENTED_EDGE('',*,*,#117,.T.);
#50=ORIENTED_EDGE('',*,*,#120,.T.);
#51=ORIENTED_EDGE('',*,*,#122,.F.);
#52=ORIENTED_EDGE('',*,*,#111,.T.);
#53=ORIENTED_EDGE('',*,*,#121,.T.);
#54=ORIENTED_EDGE('',*,*,#118,.F.);
#55=ORIENTED_EDGE('',*,*,#115,.F.);
#56=ORIENTED_EDGE('',*,*,#124,.F.);
#57=ORIENTED_EDGE('',*,*,#123,.T.);
#58=ORIENTED_EDGE('',*,*,#125,.F.);
#59=ORIENTED_EDGE('',*,*,#124,.T.);
#60=ORIENTED_EDGE('',*,*,#126,.F.);
#61=ORIENTED_EDGE('',*,*,#125,.T.);
#62=ORIENTED_EDGE('',*,*,#127,.F.);
#63=ORIENTED_EDGE('',*,*,#128,.T.);
#64=ORIENTED_EDGE('',*,*,#129,.T.);
#65=ORIENTED_EDGE('',*,*,#130,.F.);
#66=ORIENTED_EDGE('',*,*,#131,.F.);
#67=ORIENTED_EDGE('',*,*,#132,.T.);
#68=ORIENTED_EDGE('',*,*,#127,.T.);
#69=ORIENTED_EDGE('',*,*,#133,.T.);
#70=ORIENTED_EDGE('',*,*,#134,.T.);
#71=ORIENTED_EDGE('',*,*,#135,.T.);
#72=ORIENTED_EDGE('',*,*,#131,.T.);
#73=ORIENTED_EDGE('',*,*,#136,.T.);
#74=ORIENTED_EDGE('',*,*,#137,.T.);
#75=ORIENTED_EDGE('',*,*,#138,.T.);
#76=ORIENTED_EDGE('',*,*,#139,.F.);
#77=ORIENTED_EDGE('',*,*,#129,.F.);
#78=ORIENTED_EDGE('',*,*,#140,.T.);
#79=ORIENTED_EDGE('',*,*,#141,.T.);
#80=ORIENTED_EDGE('',*,*,#142,.T.);
#81=ORIENTED_EDGE('',*,*,#143,.T.);
#82=ORIENTED_EDGE('',*,*,#126,.T.);
#83=ORIENTED_EDGE('',*,*,#139,.T.);
#84=ORIENTED_EDGE('',*,*,#144,.T.);
#85=ORIENTED_EDGE('',*,*,#136,.F.);
#86=ORIENTED_EDGE('',*,*,#133,.F.);
#87=ORIENTED_EDGE('',*,*,#130,.T.);
#88=ORIENTED_EDGE('',*,*,#144,.F.);
#89=ORIENTED_EDGE('',*,*,#138,.F.);
#90=ORIENTED_EDGE('',*,*,#145,.F.);
#91=ORIENTED_EDGE('',*,*,#134,.F.);
#92=ORIENTED_EDGE('',*,*,#146,.F.);
#93=ORIENTED_EDGE('',*,*,#137,.F.);
#94=ORIENTED_EDGE('',*,*,#147,.F.);
#95=ORIENTED_EDGE('',*,*,#143,.F.);
#96=ORIENTED_EDGE('',*,*,#145,.T.);
#97=ORIENTED_EDGE('',*,*,#146,.T.);
#98=ORIENTED_EDGE('',*,*,#148,.F.);
#99=ORIENTED_EDGE('',*,*,#147,.T.);
#100=ORIENTED_EDGE('',*,*,#128,.F.);
#101=ORIENTED_EDGE('',*,*,#149,.F.);
#102=ORIENTED_EDGE('',*,*,#140,.F.);
#103=ORIENTED_EDGE('',*,*,#148,.T.);
#104=ORIENTED_EDGE('',*,*,#142,.F.);
#105=ORIENTED_EDGE('',*,*,#150,.F.);
#106=ORIENTED_EDGE('',*,*,#135,.F.);
#107=ORIENTED_EDGE('',*,*,#149,.T.);
#108=ORIENTED_EDGE('',*,*,#132,.F.);
#109=ORIENTED_EDGE('',*,*,#150,.T.);
#110=ORIENTED_EDGE('',*,*,#141,.F.);
#111=EDGE_CURVE('',#151,#152,#177,.T.);
#112=EDGE_CURVE('',#153,#151,#178,.T.);
#113=EDGE_CURVE('',#153,#154,#179,.T.);
#114=EDGE_CURVE('',#154,#152,#180,.T.);
#115=EDGE_CURVE('',#151,#155,#181,.T.);
#116=EDGE_CURVE('',#156,#155,#182,.T.);
#117=EDGE_CURVE('',#153,#156,#183,.T.);
#118=EDGE_CURVE('',#155,#157,#184,.T.);
#119=EDGE_CURVE('',#158,#157,#185,.T.);
#120=EDGE_CURVE('',#156,#158,#186,.T.);
#121=EDGE_CURVE('',#152,#157,#187,.T.);
#122=EDGE_CURVE('',#154,#158,#188,.T.);
#123=EDGE_CURVE('',#159,#159,#23,.T.);
#124=EDGE_CURVE('',#160,#160,#24,.T.);
#125=EDGE_CURVE('',#161,#161,#25,.T.);
#126=EDGE_CURVE('',#162,#162,#26,.T.);
#127=EDGE_CURVE('',#163,#164,#189,.T.);
#128=EDGE_CURVE('',#163,#165,#190,.T.);
#129=EDGE_CURVE('',#165,#166,#191,.T.);
#130=EDGE_CURVE('',#164,#166,#192,.T.);
#131=EDGE_CURVE('',#167,#168,#193,.T.);
#132=EDGE_CURVE('',#167,#163,#194,.F.);
#133=EDGE_CURVE('',#164,#168,#195,.T.);
#134=EDGE_CURVE('',#169,#170,#196,.F.);
#135=EDGE_CURVE('',#170,#167,#197,.F.);
#136=EDGE_CURVE('',#168,#169,#198,.T.);
#137=EDGE_CURVE('',#165,#171,#199,.T.);
#138=EDGE_CURVE('',#171,#172,#200,.T.);
#139=EDGE_CURVE('',#166,#172,#201,.T.);
#140=EDGE_CURVE('',#173,#174,#202,.F.);
#141=EDGE_CURVE('',#174,#175,#203,.T.);
#142=EDGE_CURVE('',#175,#176,#204,.T.);
#143=EDGE_CURVE('',#176,#173,#205,.F.);
#144=EDGE_CURVE('',#172,#169,#27,.F.);
#145=EDGE_CURVE('',#170,#171,#28,.T.);
#146=EDGE_CURVE('',#171,#176,#29,.T.);
#147=EDGE_CURVE('',#173,#165,#13,.F.);
#148=EDGE_CURVE('',#170,#176,#30,.F.);
#149=EDGE_CURVE('',#174,#163,#14,.F.);
#150=EDGE_CURVE('',#167,#175,#15,.T.);
#151=VERTEX_POINT('',#464);
#152=VERTEX_POINT('',#465);
#153=VERTEX_POINT('',#467);
#154=VERTEX_POINT('',#469);
#155=VERTEX_POINT('',#473);
#156=VERTEX_POINT('',#475);
#157=VERTEX_POINT('',#479);
#158=VERTEX_POINT('',#481);
#159=VERTEX_POINT('',#488);
#160=VERTEX_POINT('',#492);
#161=VERTEX_POINT('',#495);
#162=VERTEX_POINT('',#498);
#163=VERTEX_POINT('',#501);
#164=VERTEX_POINT('',#502);
#165=VERTEX_POINT('',#504);
#166=VERTEX_POINT('',#506);
#167=VERTEX_POINT('',#510);
#168=VERTEX_POINT('',#511);
#169=VERTEX_POINT('',#516);
#170=VERTEX_POINT('',#517);
#171=VERTEX_POINT('',#522);
#172=VERTEX_POINT('',#524);
#173=VERTEX_POINT('',#528);
#174=VERTEX_POINT('',#529);
#175=VERTEX_POINT('',#531);
#176=VERTEX_POINT('',#533);
#177=LINE('',#463,#206);
#178=LINE('',#466,#207);
#179=LINE('',#468,#208);
#180=LINE('',#470,#209);
#181=LINE('',#472,#210);
#182=LINE('',#474,#211);
#183=LINE('',#476,#212);
#184=LINE('',#478,#213);
#185=LINE('',#480,#214);
#186=LINE('',#482,#215);
#187=LINE('',#484,#216);
#188=LINE('',#485,#217);
#189=LINE('',#500,#218);
#190=LINE('',#503,#219);
#191=LINE('',#505,#220);
#192=LINE('',#507,#221);
#193=LINE('',#509,#222);
#194=LINE('',#512,#223);
#195=LINE('',#513,#224);
#196=LINE('',#515,#225);
#197=LINE('',#518,#226);
#198=LINE('',#519,#227);
#199=LINE('',#521,#228);
#200=LINE('',#523,#229);
#201=LINE('',#525,#230);
#202=LINE('',#527,#231);
#203=LINE('',#530,#232);
#204=LINE('',#532,#233);
#205=LINE('',#534,#234);
#206=VECTOR('',#370,1.);
#207=VECTOR('',#371,1.);
#208=VECTOR('',#372,1.);
#209=VECTOR('',#373,1.);
#210=VECTOR('',#376,1.);
#211=VECTOR('',#377,1.);
#212=VECTOR('',#378,1.);
#213=VECTOR('',#381,1.);
#214=VECTOR('',#382,1.);
#215=VECTOR('',#383,1.);
#216=VECTOR('',#386,1.);
#217=VECTOR('',#387,1.);
#218=VECTOR('',#408,1.);
#219=VECTOR('',#409,1.);
#220=VECTOR('',#410,1.);
#221=VECTOR('',#411,1.);
#222=VECTOR('',#414,1.);
#223=VECTOR('',#415,1.);
#224=VECTOR('',#416,1.);
#225=VECTOR('',#419,1.);
#226=VECTOR('',#420,1.);
#227=VECTOR('',#421,1.);
#228=VECTOR('',#424,1.);
#229=VECTOR('',#425,1.);
#230=VECTOR('',#426,1.);
#231=VECTOR('',#429,1.);
#232=VECTOR('',#430,1.);
#233=VECTOR('',#431,1.);
#234=VECTOR('',#432,1.);
#235=EDGE_LOOP('',(#31,#32,#33,#34));
#236=EDGE_LOOP('',(#35,#36,#37,#38));
#237=EDGE_LOOP('',(#39,#40,#41,#42));
#238=EDGE_LOOP('',(#43,#44,#45,#46));
#239=EDGE_LOOP('',(#47));
#240=EDGE_LOOP('',(#48,#49,#50,#51));
#241=EDGE_LOOP('',(#52,#53,#54,#55));
#242=EDGE_LOOP('',(#56));
#243=EDGE_LOOP('',(#57));
#244=EDGE_LOOP('',(#58));
#245=EDGE_LOOP('',(#59));
#246=EDGE_LOOP('',(#60));
#247=EDGE_LOOP('',(#61));
#248=EDGE_LOOP('',(#62,#63,#64,#65));
#249=EDGE_LOOP('',(#66,#67,#68,#69));
#250=EDGE_LOOP('',(#70,#71,#72,#73));
#251=EDGE_LOOP('',(#74,#75,#76,#77));
#252=EDGE_LOOP('',(#78,#79,#80,#81));
#253=EDGE_LOOP('',(#82));
#254=EDGE_LOOP('',(#83,#84,#85,#86,#87));
#255=EDGE_LOOP('',(#88,#89,#90,#91));
#256=EDGE_LOOP('',(#92,#93,#94,#95));
#257=EDGE_LOOP('',(#96,#97,#98));
#258=EDGE_LOOP('',(#99,#100,#101,#102));
#259=EDGE_LOOP('',(#103,#104,#105,#106));
#260=EDGE_LOOP('',(#107,#108,#109,#110));
#261=FACE_BOUND('',#235,.T.);
#262=FACE_BOUND('',#236,.T.);
#263=FACE_BOUND('',#237,.T.);
#264=FACE_BOUND('',#238,.T.);
#265=FACE_BOUND('',#239,.T.);
#266=FACE_BOUND('',#240,.T.);
#267=FACE_BOUND('',#241,.T.);
#268=FACE_BOUND('',#242,.T.);
#269=FACE_BOUND('',#243,.T.);
#270=FACE_BOUND('',#244,.T.);
#271=FACE_BOUND('',#245,.T.);
#272=FACE_BOUND('',#246,.T.);
#273=FACE_BOUND('',#247,.T.);
#274=FACE_BOUND('',#248,.T.);
#275=FACE_BOUND('',#249,.T.);
#276=FACE_BOUND('',#250,.T.);
#277=FACE_BOUND('',#251,.T.);
#278=FACE_BOUND('',#252,.T.);
#279=FACE_BOUND('',#253,.T.);
#280=FACE_BOUND('',#254,.T.);
#281=FACE_BOUND('',#255,.T.);
#282=FACE_BOUND('',#256,.T.);
#283=FACE_BOUND('',#257,.T.);
#284=FACE_BOUND('',#258,.T.);
#285=FACE_BOUND('',#259,.T.);
#286=FACE_BOUND('',#260,.T.);
#287=PLANE('',#334);
#288=PLANE('',#335);
#289=PLANE('',#336);
#290=PLANE('',#337);
#291=PLANE('',#338);
#292=PLANE('',#340);
#293=PLANE('',#343);
#294=PLANE('',#347);
#295=PLANE('',#348);
#296=PLANE('',#349);
#297=PLANE('',#350);
#298=PLANE('',#351);
#299=PLANE('',#352);
#300=ADVANCED_FACE('',(#261),#287,.T.);
#301=ADVANCED_FACE('',(#262),#288,.F.);
#302=ADVANCED_FACE('',(#263),#289,.F.);
#303=ADVANCED_FACE('',(#264),#290,.T.);
#304=ADVANCED_FACE('',(#265,#266),#291,.T.);
#305=ADVANCED_FACE('',(#267),#292,.F.);
#306=ADVANCED_FACE('',(#268,#269),#22,.T.);
#307=ADVANCED_FACE('',(#270,#271),#293,.T.);
#308=ADVANCED_FACE('',(#272,#273),#16,.T.);
#309=ADVANCED_FACE('',(#274),#294,.T.);
#310=ADVANCED_FACE('',(#275),#295,.F.);
#311=ADVANCED_FACE('',(#276),#296,.F.);
#312=ADVANCED_FACE('',(#277),#297,.T.);
#313=ADVANCED_FACE('',(#278),#298,.T.);
#314=ADVANCED_FACE('',(#279,#280),#299,.F.);
#315=ADVANCED_FACE('',(#281),#17,.T.);
#316=ADVANCED_FACE('',(#282),#18,.T.);
#317=ADVANCED_FACE('',(#283),#12,.T.);
#318=ADVANCED_FACE('',(#284),#19,.T.);
#319=ADVANCED_FACE('',(#285),#20,.T.);
#320=ADVANCED_FACE('',(#286),#21,.T.);
#321=CLOSED_SHELL('',(#300,#301,#302,#303,#304,#305,#306,#307,#308,#309,
#310,#311,#312,#313,#314,#315,#316,#317,#318,#319,#320));
#322=STYLED_ITEM('',(#323),#330);
#323=PRESENTATION_STYLE_ASSIGNMENT((#324));
#324=SURFACE_STYLE_USAGE(.BOTH.,#325);
#325=SURFACE_SIDE_STYLE('',(#326));
#326=SURFACE_STYLE_FILL_AREA(#327);
#327=FILL_AREA_STYLE('',(#328));
#328=FILL_AREA_STYLE_COLOUR('',#329);
#329=COLOUR_RGB('',0.615686274509804,0.811764705882353,0.929411764705882);
#330=MANIFOLD_SOLID_BREP('Part 1',#321);
#331=SHAPE_DEFINITION_REPRESENTATION(#555,#332);
#332=SHAPE_REPRESENTATION('Part 1',(#333),#550);
#333=AXIS2_PLACEMENT_3D('',#461,#366,#367);
#334=AXIS2_PLACEMENT_3D('',#462,#368,#369);
#335=AXIS2_PLACEMENT_3D('',#471,#374,#375);
#336=AXIS2_PLACEMENT_3D('',#477,#379,#380);
#337=AXIS2_PLACEMENT_3D('',#483,#384,#385);
#338=AXIS2_PLACEMENT_3D('',#486,#388,#389);
#339=AXIS2_PLACEMENT_3D('',#487,#390,#391);
#340=AXIS2_PLACEMENT_3D('',#489,#392,#393);
#341=AXIS2_PLACEMENT_3D('',#490,#394,#395);
#342=AXIS2_PLACEMENT_3D('',#491,#396,#397);
#343=AXIS2_PLACEMENT_3D('',#493,#398,#399);
#344=AXIS2_PLACEMENT_3D('',#494,#400,#401);
#345=AXIS2_PLACEMENT_3D('',#496,#402,#403);
#346=AXIS2_PLACEMENT_3D('',#497,#404,#405);
#347=AXIS2_PLACEMENT_3D('',#499,#406,#407);
#348=AXIS2_PLACEMENT_3D('',#508,#412,#413);
#349=AXIS2_PLACEMENT_3D('',#514,#417,#418);
#350=AXIS2_PLACEMENT_3D('',#520,#422,#423);
#351=AXIS2_PLACEMENT_3D('',#526,#427,#428);
#352=AXIS2_PLACEMENT_3D('',#535,#433,#434);
#353=AXIS2_PLACEMENT_3D('',#536,#435,#436);
#354=AXIS2_PLACEMENT_3D('',#537,#437,#438);
#355=AXIS2_PLACEMENT_3D('',#538,#439,#440);
#356=AXIS2_PLACEMENT_3D('',#539,#441,#442);
#357=AXIS2_PLACEMENT_3D('',#540,#443,#444);
#358=AXIS2_PLACEMENT_3D('',#541,#445,#446);
#359=AXIS2_PLACEMENT_3D('',#542,#447,#448);
#360=AXIS2_PLACEMENT_3D('',#543,#449,#450);
#361=AXIS2_PLACEMENT_3D('',#544,#451,#452);
#362=AXIS2_PLACEMENT_3D('',#545,#453,#454);
#363=AXIS2_PLACEMENT_3D('',#546,#455,#456);
#364=AXIS2_PLACEMENT_3D('',#547,#457,#458);
#365=AXIS2_PLACEMENT_3D('',#548,#459,#460);
#366=DIRECTION('',(0.,0.,1.));
#367=DIRECTION('',(1.,0.,0.));
#368=DIRECTION('',(0.,0.,1.));
#369=DIRECTION('',(1.,0.,0.));
#370=DIRECTION('',(1.,0.,0.));
#371=DIRECTION('',(0.,1.,0.));
#372=DIRECTION('',(1.,0.,0.));
#373=DIRECTION('',(0.,1.,0.));
#374=DIRECTION('',(1.,0.,0.));
#375=DIRECTION('',(0.,0.,-1.));
#376=DIRECTION('',(0.,0.,-1.));
#377=DIRECTION('',(0.,1.,0.));
#378=DIRECTION('',(0.,0.,-1.));
#379=DIRECTION('',(0.,0.,1.));
#380=DIRECTION('',(1.,0.,0.));
#381=DIRECTION('',(1.,0.,0.));
#382=DIRECTION('',(0.,1.,0.));
#383=DIRECTION('',(1.,0.,0.));
#384=DIRECTION('',(1.,0.,0.));
#385=DIRECTION('',(0.,0.,-1.));
#386=DIRECTION('',(0.,0.,-1.));
#387=DIRECTION('',(0.,0.,-1.));
#388=DIRECTION('',(0.,-1.,0.));
#389=DIRECTION('',(1.,0.,0.));
#390=DIRECTION('',(0.,-1.,0.));
#391=DIRECTION('',(0.,0.,-1.));
#392=DIRECTION('',(0.,-1.,0.));
#393=DIRECTION('',(1.,0.,0.));
#394=DIRECTION('',(1.,0.,0.));
#395=DIRECTION('',(0.,0.,-1.));
#396=DIRECTION('',(0.,0.17364817766693,0.984807753012208));
#397=DIRECTION('',(0.,-0.984807753012208,0.17364817766693));
#398=DIRECTION('',(0.,0.17364817766693,0.984807753012208));
#399=DIRECTION('',(1.,0.,0.));
#400=DIRECTION('',(0.,0.17364817766693,0.984807753012208));
#401=DIRECTION('',(0.,-0.984807753012208,0.17364817766693));
#402=DIRECTION('',(0.,-0.17364817766693,-0.984807753012208));
#403=DIRECTION('',(0.,0.984807753012208,-0.17364817766693));
#404=DIRECTION('',(0.,0.17364817766693,0.984807753012208));
#405=DIRECTION('',(0.,-0.984807753012208,0.17364817766693));
#406=DIRECTION('',(-1.,-1.88663487276341E-16,3.32664630813672E-17));
#407=DIRECTION('',(1.88663487276341E-16,-1.,0.));
#408=DIRECTION('',(0.,-0.17364817766693,-0.984807753012208));
#409=DIRECTION('',(-1.91573925671565E-16,0.984807753012208,-0.17364817766693));
#410=DIRECTION('',(0.,-0.17364817766693,-0.984807753012208));
#411=DIRECTION('',(-1.91573925671565E-16,0.984807753012208,-0.17364817766693));
#412=DIRECTION('',(0.,0.984807753012208,-0.17364817766693));
#413=DIRECTION('',(0.,0.17364817766693,0.984807753012208));
#414=DIRECTION('',(0.,-0.17364817766693,-0.984807753012208));
#415=DIRECTION('',(1.,0.,0.));
#416=DIRECTION('',(1.,0.,0.));
#417=DIRECTION('',(-1.,-1.88663487276341E-16,3.32664630813672E-17));
#418=DIRECTION('',(1.88663487276341E-16,-1.,0.));
#419=DIRECTION('',(0.,-0.17364817766693,-0.984807753012208));
#420=DIRECTION('',(-1.91573925671565E-16,0.984807753012208,-0.17364817766693));
#421=DIRECTION('',(-1.91573925671565E-16,0.984807753012208,-0.17364817766693));
#422=DIRECTION('',(0.,0.984807753012208,-0.17364817766693));
#423=DIRECTION('',(0.,0.17364817766693,0.984807753012208));
#424=DIRECTION('',(1.,0.,0.));
#425=DIRECTION('',(0.,-0.17364817766693,-0.984807753012208));
#426=DIRECTION('',(1.,0.,0.));
#427=DIRECTION('',(0.,0.17364817766693,0.984807753012208));
#428=DIRECTION('',(1.,0.,0.));
#429=DIRECTION('',(-1.91573925671565E-16,0.984807753012208,-0.17364817766693));
#430=DIRECTION('',(1.,0.,0.));
#431=DIRECTION('',(-1.91573925671565E-16,0.984807753012208,-0.17364817766693));
#432=DIRECTION('',(1.,0.,0.));
#433=DIRECTION('',(0.,0.17364817766693,0.984807753012208));
#434=DIRECTION('',(1.,0.,0.));
#435=DIRECTION('',(0.,0.17364817766693,0.984807753012208));
#436=DIRECTION('',(0.,-0.984807753012208,0.17364817766693));
#437=DIRECTION('',(0.,0.17364817766693,0.984807753012208));
#438=DIRECTION('',(0.,-0.984807753012208,0.17364817766693));
#439=DIRECTION('',(0.,0.173648177666931,0.984807753012208));
#440=DIRECTION('',(0.,-0.984807753012208,0.173648177666931));
#441=DIRECTION('',(1.,0.,0.));
#442=DIRECTION('',(0.,0.,-1.));
#443=DIRECTION('',(1.,0.,0.));
#444=DIRECTION('',(0.,0.,-1.));
#445=DIRECTION('',(0.707106781186548,0.696364240320019,-0.122787803968973));
#446=DIRECTION('',(0.707106781186548,-0.696364240320019,0.122787803968973));
#447=DIRECTION('',(0.,0.984807753012208,-0.173648177666931));
#448=DIRECTION('',(0.,0.173648177666931,0.984807753012208));
#449=DIRECTION('',(-8.54184564237123E-16,0.984807753012208,-0.17364817766693));
#450=DIRECTION('',(0.,0.17364817766693,0.984807753012208));
#451=DIRECTION('',(-1.91573925671565E-16,0.984807753012208,-0.17364817766693));
#452=DIRECTION('',(0.,0.17364817766693,0.984807753012208));
#453=DIRECTION('',(-0.707106781186548,0.696364240320019,-0.122787803968973));
#454=DIRECTION('',(0.707106781186548,0.696364240320019,-0.122787803968973));
#455=DIRECTION('',(1.91573925671565E-16,-0.984807753012208,0.17364817766693));
#456=DIRECTION('',(0.,-0.17364817766693,-0.984807753012208));
#457=DIRECTION('',(-0.707106781186548,-0.696364240320019,0.122787803968973));
#458=DIRECTION('',(0.707106781186548,-0.696364240320019,0.122787803968973));
#459=DIRECTION('',(-1.,0.,0.));
#460=DIRECTION('',(0.,0.,1.));
#461=CARTESIAN_POINT('',(0.,0.,0.));
#462=CARTESIAN_POINT('',(0.00147071247920394,-0.006,0.0149745335802436));
#463=CARTESIAN_POINT('',(0.00147071247920394,0.,0.0149745335802436));
#464=CARTESIAN_POINT('',(-0.0124342115595937,0.,0.0149745335802436));
#465=CARTESIAN_POINT('',(0.0153756365180016,0.,0.0149745335802436));
#466=CARTESIAN_POINT('',(-0.0124342115595937,-0.006,0.0149745335802436));
#467=CARTESIAN_POINT('',(-0.0124342115595937,-0.006,0.0149745335802436));
#468=CARTESIAN_POINT('',(0.00147071247920394,-0.006,0.0149745335802436));
#469=CARTESIAN_POINT('',(0.0153756365180016,-0.006,0.0149745335802436));
#470=CARTESIAN_POINT('',(0.0153756365180016,-0.006,0.0149745335802436));
#471=CARTESIAN_POINT('',(-0.0124342115595937,-0.006,0.0110971990507096));
#472=CARTESIAN_POINT('',(-0.0124342115595937,0.,0.0110971990507096));
#473=CARTESIAN_POINT('',(-0.0124342115595937,0.,0.00721986452117562));
#474=CARTESIAN_POINT('',(-0.0124342115595937,-0.006,0.00721986452117562));
#475=CARTESIAN_POINT('',(-0.0124342115595937,-0.006,0.00721986452117562));
#476=CARTESIAN_POINT('',(-0.0124342115595937,-0.006,0.0110971990507096));
#477=CARTESIAN_POINT('',(0.00147071247920394,-0.006,0.00721986452117562));
#478=CARTESIAN_POINT('',(0.00147071247920394,0.,0.00721986452117562));
#479=CARTESIAN_POINT('',(0.0153756365180016,0.,0.00721986452117562));
#480=CARTESIAN_POINT('',(0.0153756365180016,-0.006,0.00721986452117562));
#481=CARTESIAN_POINT('',(0.0153756365180016,-0.006,0.00721986452117562));
#482=CARTESIAN_POINT('',(0.00147071247920394,-0.006,0.00721986452117562));
#483=CARTESIAN_POINT('',(0.0153756365180016,-0.006,0.0110971990507096));
#484=CARTESIAN_POINT('',(0.0153756365180016,0.,0.0110971990507096));
#485=CARTESIAN_POINT('',(0.0153756365180016,-0.006,0.0110971990507096));
#486=CARTESIAN_POINT('',(0.00147071247920394,-0.006,0.0110971990507096));
#487=CARTESIAN_POINT('',(0.,-0.006,0.0111174937337637));
#488=CARTESIAN_POINT('',(0.,-0.006,0.00877212632692904));
#489=CARTESIAN_POINT('',(0.00147071247920394,0.,0.0110971990507096));
#490=CARTESIAN_POINT('',(0.,-0.006,0.0149745335802436));
#491=CARTESIAN_POINT('',(0.,-0.00979844274449042,0.0156443015207736));
#492=CARTESIAN_POINT('',(0.,-0.0121081787504033,0.0160515702969298));
#493=CARTESIAN_POINT('',(0.00147071247920394,-0.00981842910570701,0.0156478256555023));
#494=CARTESIAN_POINT('',(0.,-0.00979844274449042,0.0156443015207736));
#495=CARTESIAN_POINT('',(0.,-0.0119968043641919,0.0160319319876809));
#496=CARTESIAN_POINT('',(0.,-0.00806196096782111,0.0254923790508956));
#497=CARTESIAN_POINT('',(0.,-0.00806196096782111,0.0254923790508956));
#498=CARTESIAN_POINT('',(0.,-0.0102603225875226,0.025880009517803));
#499=CARTESIAN_POINT('',(-0.00228087090434306,-0.00719556214131965,0.030416742621158));
#500=CARTESIAN_POINT('',(-0.00228087090434305,-0.00942494842455932,0.0308098435733145));
#501=CARTESIAN_POINT('',(-0.00228087090434305,-0.00959859660222625,0.0298250358203023));
#502=CARTESIAN_POINT('',(-0.00228087090434305,-0.010293189312894,0.0258858048082535));
#503=CARTESIAN_POINT('',(-0.00228087090434306,-0.00736921031898658,0.0294319348681458));
#504=CARTESIAN_POINT('',(-0.00228087090434306,-0.00513982403574692,0.0290388339159893));
#505=CARTESIAN_POINT('',(-0.00228087090434306,-0.00496617585807999,0.0300236416690015));
#506=CARTESIAN_POINT('',(-0.00228087090434306,-0.00583441674641464,0.0250996029039404));
#507=CARTESIAN_POINT('',(-0.00228087090434306,-0.00806380302965431,0.0254927038560969));
#508=CARTESIAN_POINT('',(5.09884320060291E-6,-0.00942494842455932,0.0308098435733145));
#509=CARTESIAN_POINT('',(0.00229106859074426,-0.00942494842455932,0.0308098435733145));
#510=CARTESIAN_POINT('',(0.00229106859074426,-0.00959859660222625,0.0298250358203023));
#511=CARTESIAN_POINT('',(0.00229106859074426,-0.010293189312894,0.0258858048082535));
#512=CARTESIAN_POINT('',(-0.00228087090434305,-0.00959859660222625,0.0298250358203023));
#513=CARTESIAN_POINT('',(5.09884320060291E-6,-0.010293189312894,0.0258858048082535));
#514=CARTESIAN_POINT('',(0.00229106859074426,-0.00719556214131965,0.030416742621158));
#515=CARTESIAN_POINT('',(0.00229106859074426,-0.0059509836110922,0.0301972898466684));
#516=CARTESIAN_POINT('',(0.00229106859074426,-0.00681922449942685,0.0252732510816074));
#517=CARTESIAN_POINT('',(0.00229106859074426,-0.00612463178875913,0.0292124820936562));
#518=CARTESIAN_POINT('',(0.00229106859074426,-0.00959859660222625,0.0298250358203023));
#519=CARTESIAN_POINT('',(0.00229106859074426,-0.00806380302965431,0.0254927038560969));
#520=CARTESIAN_POINT('',(5.09884320060204E-6,-0.00496617585807999,0.0300236416690015));
#521=CARTESIAN_POINT('',(5.09884320060204E-6,-0.00513982403574692,0.0290388339159893));
#522=CARTESIAN_POINT('',(0.00129106859074426,-0.00513982403574692,0.0290388339159893));
#523=CARTESIAN_POINT('',(0.00129106859074426,-0.00583441674641464,0.0250996029039404));
#524=CARTESIAN_POINT('',(0.00129106859074426,-0.00583441674641464,0.0250996029039404));
#525=CARTESIAN_POINT('',(5.09884320060204E-6,-0.00583441674641464,0.0250996029039404));
#526=CARTESIAN_POINT('',(5.09884320060248E-6,-0.00719556214131965,0.030416742621158));
#527=CARTESIAN_POINT('',(-0.00128087090434306,-0.00719556214131965,0.030416742621158));
#528=CARTESIAN_POINT('',(-0.00128087090434306,-0.0059509836110922,0.0301972898466684));
#529=CARTESIAN_POINT('',(-0.00128087090434306,-0.00844014067154711,0.0306361953956476));
#530=CARTESIAN_POINT('',(0.00229106859074426,-0.00844014067154711,0.0306361953956476));
#531=CARTESIAN_POINT('',(0.00129106859074426,-0.00844014067154711,0.0306361953956476));
#532=CARTESIAN_POINT('',(0.00129106859074426,-0.00496617585807999,0.0300236416690015));
#533=CARTESIAN_POINT('',(0.00129106859074426,-0.0059509836110922,0.0301972898466684));
#534=CARTESIAN_POINT('',(5.09884320060248E-6,-0.0059509836110922,0.0301972898466684));
#535=CARTESIAN_POINT('',(5.09884320060248E-6,-0.00806380302965431,0.0254927038560969));
#536=CARTESIAN_POINT('',(0.00129106859074426,-0.00681922449942685,0.0252732510816074));
#537=CARTESIAN_POINT('',(0.00129106859074426,-0.0059509836110922,0.0301972898466684));
#538=CARTESIAN_POINT('',(0.00129106859074426,-0.00612463178875913,0.0292124820936562));
#539=CARTESIAN_POINT('',(5.09884320060204E-6,-0.00612463178875913,0.0292124820936562));
#540=CARTESIAN_POINT('',(0.00129106859074426,-0.00612463178875913,0.0292124820936562));
#541=CARTESIAN_POINT('',(-0.00128087090434306,-0.00612463178875913,0.0292124820936562));
#542=CARTESIAN_POINT('',(0.00129106859074426,-0.00612463178875913,0.0292124820936562));
#543=CARTESIAN_POINT('',(0.00129106859074426,-0.00612463178875913,0.0292124820936562));
#544=CARTESIAN_POINT('',(-0.00128087090434306,-0.00736921031898658,0.0294319348681458));
#545=CARTESIAN_POINT('',(-0.00128087090434306,-0.00861378884921404,0.0296513876426354));
#546=CARTESIAN_POINT('',(0.00129106859074426,-0.00736921031898658,0.0294319348681458));
#547=CARTESIAN_POINT('',(0.00129106859074426,-0.00861378884921404,0.0296513876426354));
#548=CARTESIAN_POINT('',(5.09884320060248E-6,-0.00861378884921404,0.0296513876426354));
#549=MECHANICAL_DESIGN_GEOMETRIC_PRESENTATION_REPRESENTATION('',(#322),
#550);
#550=(
GEOMETRIC_REPRESENTATION_CONTEXT(3)
GLOBAL_UNCERTAINTY_ASSIGNED_CONTEXT((#551))
GLOBAL_UNIT_ASSIGNED_CONTEXT((#554,#553,#552))
REPRESENTATION_CONTEXT('Part 1','TOP_LEVEL_ASSEMBLY_PART')
);
#551=UNCERTAINTY_MEASURE_WITH_UNIT(LENGTH_MEASURE(1.E-8),#554,
'DISTANCE_ACCURACY_VALUE','Maximum Tolerance applied to model');
#552=(
NAMED_UNIT(*)
SI_UNIT($,.STERADIAN.)
SOLID_ANGLE_UNIT()
);
#553=(
NAMED_UNIT(*)
PLANE_ANGLE_UNIT()
SI_UNIT($,.RADIAN.)
);
#554=(
LENGTH_UNIT()
NAMED_UNIT(*)
SI_UNIT($,.METRE.)
);
#555=PRODUCT_DEFINITION_SHAPE('','',#556);
#556=PRODUCT_DEFINITION('','',#558,#557);
#557=PRODUCT_DEFINITION_CONTEXT('',#564,'design');
#558=PRODUCT_DEFINITION_FORMATION_WITH_SPECIFIED_SOURCE('','',#560,
 .NOT_KNOWN.);
#559=PRODUCT_RELATED_PRODUCT_CATEGORY('','',(#560));
#560=PRODUCT('Part 1','Part 1','Part 1',(#562));
#561=PRODUCT_CATEGORY('','');
#562=PRODUCT_CONTEXT('',#564,'mechanical');
#563=APPLICATION_PROTOCOL_DEFINITION('international standard',
'ap242_managed_model_based_3d_engineering',2020,#564);
#564=APPLICATION_CONTEXT('managed model based 3d engineering');
ENDSEC;
END-ISO-10303-21;
