ISO-10303-21;
HEADER;
/* Generated by software containing ST-Developer
 * from STEP Tools, Inc. (www.steptools.com) 
 */
/* OPTION: using custom renumber hook */

FILE_DESCRIPTION(
/* description */ ('STEP AP242 Edition 2',
'CAx-IF Rec.Pracs.---Representation and Presentation of Product Manufa
cturing Information (PMI)---4.0---2014-10-13',
'CAx-IF Rec.Pracs.---3D Tessellated Geometry---0.4---2014-09-14','2;1',
'CAx-IF Rec.Pracs.---User Defined Attributes---1.5---2016-08-15'),
/* implementation_level */ '2;1');

FILE_NAME(
/* name */ 'Part Studio 1',
/* time_stamp */ '2026-05-09T17:05:34Z',
/* author */ (''),
/* organization */ (''),
/* preprocessor_version */ 'ST-DEVELOPER v20',
/* originating_system */ 'ONSHAPE BY PTC INC, 1.214',
/* authorisation */ '  ');

FILE_SCHEMA (('AP242_MANAGED_MODEL_BASED_3D_ENGINEERING_MIM_LF { 1 0 10303 442 3 1 4 }'));
ENDSEC;

DATA;
#10=SHAPE_REPRESENTATION_RELATIONSHIP('','',#1133,#12);
#11=SHAPE_REPRESENTATION_RELATIONSHIP('','',#1134,#13);
#12=ADVANCED_BREP_SHAPE_REPRESENTATION('',(#1129),#1797);
#13=ADVANCED_BREP_SHAPE_REPRESENTATION('',(#1130),#1798);
#14=CIRCLE('',#1140,0.038863390475898);
#15=CIRCLE('',#1141,0.038863390475898);
#16=CIRCLE('',#1142,0.038863390475898);
#17=CIRCLE('',#1143,0.038863390475898);
#18=CIRCLE('',#1153,0.040027521172216);
#19=CIRCLE('',#1154,0.040027521172216);
#20=CIRCLE('',#1155,0.040027521172216);
#21=CIRCLE('',#1156,0.040027521172216);
#22=CYLINDRICAL_SURFACE('',#1139,0.038863390475898);
#23=CYLINDRICAL_SURFACE('',#1152,0.040027521172216);
#24=ORIENTED_EDGE('',*,*,#334,.F.);
#25=ORIENTED_EDGE('',*,*,#335,.T.);
#26=ORIENTED_EDGE('',*,*,#336,.T.);
#27=ORIENTED_EDGE('',*,*,#337,.F.);
#28=ORIENTED_EDGE('',*,*,#338,.T.);
#29=ORIENTED_EDGE('',*,*,#336,.F.);
#30=ORIENTED_EDGE('',*,*,#339,.T.);
#31=ORIENTED_EDGE('',*,*,#340,.T.);
#32=ORIENTED_EDGE('',*,*,#341,.T.);
#33=ORIENTED_EDGE('',*,*,#342,.F.);
#34=ORIENTED_EDGE('',*,*,#343,.F.);
#35=ORIENTED_EDGE('',*,*,#342,.T.);
#36=ORIENTED_EDGE('',*,*,#344,.F.);
#37=ORIENTED_EDGE('',*,*,#345,.T.);
#38=ORIENTED_EDGE('',*,*,#346,.T.);
#39=ORIENTED_EDGE('',*,*,#347,.F.);
#40=ORIENTED_EDGE('',*,*,#348,.F.);
#41=ORIENTED_EDGE('',*,*,#349,.F.);
#42=ORIENTED_EDGE('',*,*,#350,.F.);
#43=ORIENTED_EDGE('',*,*,#351,.T.);
#44=ORIENTED_EDGE('',*,*,#352,.T.);
#45=ORIENTED_EDGE('',*,*,#353,.F.);
#46=ORIENTED_EDGE('',*,*,#354,.F.);
#47=ORIENTED_EDGE('',*,*,#355,.T.);
#48=ORIENTED_EDGE('',*,*,#356,.F.);
#49=ORIENTED_EDGE('',*,*,#357,.T.);
#50=ORIENTED_EDGE('',*,*,#358,.T.);
#51=ORIENTED_EDGE('',*,*,#359,.F.);
#52=ORIENTED_EDGE('',*,*,#360,.T.);
#53=ORIENTED_EDGE('',*,*,#361,.T.);
#54=ORIENTED_EDGE('',*,*,#356,.T.);
#55=ORIENTED_EDGE('',*,*,#362,.F.);
#56=ORIENTED_EDGE('',*,*,#363,.F.);
#57=ORIENTED_EDGE('',*,*,#364,.F.);
#58=ORIENTED_EDGE('',*,*,#365,.F.);
#59=ORIENTED_EDGE('',*,*,#366,.F.);
#60=ORIENTED_EDGE('',*,*,#367,.T.);
#61=ORIENTED_EDGE('',*,*,#368,.T.);
#62=ORIENTED_EDGE('',*,*,#369,.T.);
#63=ORIENTED_EDGE('',*,*,#358,.F.);
#64=ORIENTED_EDGE('',*,*,#370,.F.);
#65=ORIENTED_EDGE('',*,*,#371,.F.);
#66=ORIENTED_EDGE('',*,*,#352,.F.);
#67=ORIENTED_EDGE('',*,*,#372,.T.);
#68=ORIENTED_EDGE('',*,*,#373,.F.);
#69=ORIENTED_EDGE('',*,*,#372,.F.);
#70=ORIENTED_EDGE('',*,*,#351,.F.);
#71=ORIENTED_EDGE('',*,*,#374,.F.);
#72=ORIENTED_EDGE('',*,*,#371,.T.);
#73=ORIENTED_EDGE('',*,*,#375,.T.);
#74=ORIENTED_EDGE('',*,*,#376,.T.);
#75=ORIENTED_EDGE('',*,*,#353,.T.);
#76=ORIENTED_EDGE('',*,*,#377,.F.);
#77=ORIENTED_EDGE('',*,*,#378,.F.);
#78=ORIENTED_EDGE('',*,*,#379,.F.);
#79=ORIENTED_EDGE('',*,*,#380,.T.);
#80=ORIENTED_EDGE('',*,*,#364,.T.);
#81=ORIENTED_EDGE('',*,*,#381,.F.);
#82=ORIENTED_EDGE('',*,*,#367,.F.);
#83=ORIENTED_EDGE('',*,*,#382,.T.);
#84=ORIENTED_EDGE('',*,*,#383,.T.);
#85=ORIENTED_EDGE('',*,*,#384,.F.);
#86=ORIENTED_EDGE('',*,*,#385,.T.);
#87=ORIENTED_EDGE('',*,*,#386,.T.);
#88=ORIENTED_EDGE('',*,*,#387,.T.);
#89=ORIENTED_EDGE('',*,*,#388,.F.);
#90=ORIENTED_EDGE('',*,*,#389,.T.);
#91=ORIENTED_EDGE('',*,*,#390,.T.);
#92=ORIENTED_EDGE('',*,*,#391,.F.);
#93=ORIENTED_EDGE('',*,*,#388,.T.);
#94=ORIENTED_EDGE('',*,*,#354,.T.);
#95=ORIENTED_EDGE('',*,*,#376,.F.);
#96=ORIENTED_EDGE('',*,*,#392,.F.);
#97=ORIENTED_EDGE('',*,*,#393,.F.);
#98=ORIENTED_EDGE('',*,*,#394,.F.);
#99=ORIENTED_EDGE('',*,*,#395,.F.);
#100=ORIENTED_EDGE('',*,*,#396,.T.);
#101=ORIENTED_EDGE('',*,*,#397,.T.);
#102=ORIENTED_EDGE('',*,*,#398,.F.);
#103=ORIENTED_EDGE('',*,*,#399,.T.);
#104=ORIENTED_EDGE('',*,*,#400,.F.);
#105=ORIENTED_EDGE('',*,*,#360,.F.);
#106=ORIENTED_EDGE('',*,*,#380,.F.);
#107=ORIENTED_EDGE('',*,*,#401,.F.);
#108=ORIENTED_EDGE('',*,*,#394,.T.);
#109=ORIENTED_EDGE('',*,*,#402,.F.);
#110=ORIENTED_EDGE('',*,*,#403,.F.);
#111=ORIENTED_EDGE('',*,*,#404,.F.);
#112=ORIENTED_EDGE('',*,*,#383,.F.);
#113=ORIENTED_EDGE('',*,*,#397,.F.);
#114=ORIENTED_EDGE('',*,*,#405,.T.);
#115=ORIENTED_EDGE('',*,*,#406,.T.);
#116=ORIENTED_EDGE('',*,*,#407,.F.);
#117=ORIENTED_EDGE('',*,*,#408,.F.);
#118=ORIENTED_EDGE('',*,*,#409,.T.);
#119=ORIENTED_EDGE('',*,*,#410,.T.);
#120=ORIENTED_EDGE('',*,*,#369,.F.);
#121=ORIENTED_EDGE('',*,*,#411,.F.);
#122=ORIENTED_EDGE('',*,*,#362,.T.);
#123=ORIENTED_EDGE('',*,*,#359,.T.);
#124=ORIENTED_EDGE('',*,*,#412,.F.);
#125=ORIENTED_EDGE('',*,*,#406,.F.);
#126=ORIENTED_EDGE('',*,*,#413,.F.);
#127=ORIENTED_EDGE('',*,*,#414,.T.);
#128=ORIENTED_EDGE('',*,*,#415,.T.);
#129=ORIENTED_EDGE('',*,*,#334,.T.);
#130=ORIENTED_EDGE('',*,*,#416,.F.);
#131=ORIENTED_EDGE('',*,*,#417,.T.);
#132=ORIENTED_EDGE('',*,*,#418,.T.);
#133=ORIENTED_EDGE('',*,*,#387,.F.);
#134=ORIENTED_EDGE('',*,*,#419,.T.);
#135=ORIENTED_EDGE('',*,*,#416,.T.);
#136=ORIENTED_EDGE('',*,*,#338,.F.);
#137=ORIENTED_EDGE('',*,*,#420,.F.);
#138=ORIENTED_EDGE('',*,*,#355,.F.);
#139=ORIENTED_EDGE('',*,*,#395,.T.);
#140=ORIENTED_EDGE('',*,*,#421,.T.);
#141=ORIENTED_EDGE('',*,*,#349,.T.);
#142=ORIENTED_EDGE('',*,*,#422,.T.);
#143=ORIENTED_EDGE('',*,*,#423,.T.);
#144=ORIENTED_EDGE('',*,*,#424,.F.);
#145=ORIENTED_EDGE('',*,*,#425,.F.);
#146=ORIENTED_EDGE('',*,*,#426,.F.);
#147=ORIENTED_EDGE('',*,*,#427,.F.);
#148=ORIENTED_EDGE('',*,*,#428,.T.);
#149=ORIENTED_EDGE('',*,*,#421,.F.);
#150=ORIENTED_EDGE('',*,*,#401,.T.);
#151=ORIENTED_EDGE('',*,*,#379,.T.);
#152=ORIENTED_EDGE('',*,*,#429,.F.);
#153=ORIENTED_EDGE('',*,*,#430,.T.);
#154=ORIENTED_EDGE('',*,*,#414,.F.);
#155=ORIENTED_EDGE('',*,*,#431,.F.);
#156=ORIENTED_EDGE('',*,*,#427,.T.);
#157=ORIENTED_EDGE('',*,*,#432,.T.);
#158=ORIENTED_EDGE('',*,*,#433,.T.);
#159=ORIENTED_EDGE('',*,*,#413,.T.);
#160=ORIENTED_EDGE('',*,*,#405,.F.);
#161=ORIENTED_EDGE('',*,*,#396,.F.);
#162=ORIENTED_EDGE('',*,*,#428,.F.);
#163=ORIENTED_EDGE('',*,*,#431,.T.);
#164=ORIENTED_EDGE('',*,*,#434,.F.);
#165=ORIENTED_EDGE('',*,*,#435,.F.);
#166=ORIENTED_EDGE('',*,*,#424,.T.);
#167=ORIENTED_EDGE('',*,*,#436,.T.);
#168=ORIENTED_EDGE('',*,*,#437,.F.);
#169=ORIENTED_EDGE('',*,*,#378,.T.);
#170=ORIENTED_EDGE('',*,*,#438,.T.);
#171=ORIENTED_EDGE('',*,*,#439,.T.);
#172=ORIENTED_EDGE('',*,*,#374,.T.);
#173=ORIENTED_EDGE('',*,*,#350,.T.);
#174=ORIENTED_EDGE('',*,*,#429,.T.);
#175=ORIENTED_EDGE('',*,*,#382,.F.);
#176=ORIENTED_EDGE('',*,*,#366,.T.);
#177=ORIENTED_EDGE('',*,*,#440,.T.);
#178=ORIENTED_EDGE('',*,*,#441,.T.);
#179=ORIENTED_EDGE('',*,*,#398,.T.);
#180=ORIENTED_EDGE('',*,*,#442,.T.);
#181=ORIENTED_EDGE('',*,*,#417,.F.);
#182=ORIENTED_EDGE('',*,*,#419,.F.);
#183=ORIENTED_EDGE('',*,*,#386,.F.);
#184=ORIENTED_EDGE('',*,*,#443,.T.);
#185=ORIENTED_EDGE('',*,*,#418,.F.);
#186=ORIENTED_EDGE('',*,*,#442,.F.);
#187=ORIENTED_EDGE('',*,*,#385,.F.);
#188=ORIENTED_EDGE('',*,*,#384,.T.);
#189=ORIENTED_EDGE('',*,*,#404,.T.);
#190=ORIENTED_EDGE('',*,*,#412,.T.);
#191=ORIENTED_EDGE('',*,*,#443,.F.);
#192=ORIENTED_EDGE('',*,*,#444,.F.);
#193=ORIENTED_EDGE('',*,*,#445,.F.);
#194=ORIENTED_EDGE('',*,*,#400,.T.);
#195=ORIENTED_EDGE('',*,*,#446,.T.);
#196=ORIENTED_EDGE('',*,*,#381,.T.);
#197=ORIENTED_EDGE('',*,*,#363,.T.);
#198=ORIENTED_EDGE('',*,*,#411,.T.);
#199=ORIENTED_EDGE('',*,*,#368,.F.);
#200=ORIENTED_EDGE('',*,*,#447,.F.);
#201=ORIENTED_EDGE('',*,*,#402,.T.);
#202=ORIENTED_EDGE('',*,*,#393,.T.);
#203=ORIENTED_EDGE('',*,*,#445,.T.);
#204=ORIENTED_EDGE('',*,*,#441,.F.);
#205=ORIENTED_EDGE('',*,*,#448,.T.);
#206=ORIENTED_EDGE('',*,*,#446,.F.);
#207=ORIENTED_EDGE('',*,*,#399,.F.);
#208=ORIENTED_EDGE('',*,*,#449,.F.);
#209=ORIENTED_EDGE('',*,*,#450,.T.);
#210=ORIENTED_EDGE('',*,*,#451,.T.);
#211=ORIENTED_EDGE('',*,*,#407,.T.);
#212=ORIENTED_EDGE('',*,*,#451,.F.);
#213=ORIENTED_EDGE('',*,*,#452,.T.);
#214=ORIENTED_EDGE('',*,*,#438,.F.);
#215=ORIENTED_EDGE('',*,*,#377,.T.);
#216=ORIENTED_EDGE('',*,*,#453,.T.);
#217=ORIENTED_EDGE('',*,*,#408,.T.);
#218=ORIENTED_EDGE('',*,*,#454,.T.);
#219=ORIENTED_EDGE('',*,*,#409,.F.);
#220=ORIENTED_EDGE('',*,*,#453,.F.);
#221=ORIENTED_EDGE('',*,*,#390,.F.);
#222=ORIENTED_EDGE('',*,*,#455,.F.);
#223=ORIENTED_EDGE('',*,*,#449,.T.);
#224=ORIENTED_EDGE('',*,*,#410,.F.);
#225=ORIENTED_EDGE('',*,*,#454,.F.);
#226=ORIENTED_EDGE('',*,*,#389,.F.);
#227=ORIENTED_EDGE('',*,*,#391,.T.);
#228=ORIENTED_EDGE('',*,*,#456,.T.);
#229=ORIENTED_EDGE('',*,*,#403,.T.);
#230=ORIENTED_EDGE('',*,*,#457,.F.);
#231=ORIENTED_EDGE('',*,*,#439,.F.);
#232=ORIENTED_EDGE('',*,*,#440,.F.);
#233=ORIENTED_EDGE('',*,*,#458,.F.);
#234=ORIENTED_EDGE('',*,*,#392,.T.);
#235=ORIENTED_EDGE('',*,*,#459,.T.);
#236=ORIENTED_EDGE('',*,*,#375,.F.);
#237=ORIENTED_EDGE('',*,*,#370,.T.);
#238=ORIENTED_EDGE('',*,*,#373,.T.);
#239=ORIENTED_EDGE('',*,*,#457,.T.);
#240=ORIENTED_EDGE('',*,*,#447,.T.);
#241=ORIENTED_EDGE('',*,*,#444,.T.);
#242=ORIENTED_EDGE('',*,*,#448,.F.);
#243=ORIENTED_EDGE('',*,*,#459,.F.);
#244=ORIENTED_EDGE('',*,*,#450,.F.);
#245=ORIENTED_EDGE('',*,*,#455,.T.);
#246=ORIENTED_EDGE('',*,*,#458,.T.);
#247=ORIENTED_EDGE('',*,*,#365,.T.);
#248=ORIENTED_EDGE('',*,*,#357,.F.);
#249=ORIENTED_EDGE('',*,*,#361,.F.);
#250=ORIENTED_EDGE('',*,*,#456,.F.);
#251=ORIENTED_EDGE('',*,*,#452,.F.);
#252=ORIENTED_EDGE('',*,*,#435,.T.);
#253=ORIENTED_EDGE('',*,*,#460,.F.);
#254=ORIENTED_EDGE('',*,*,#461,.F.);
#255=ORIENTED_EDGE('',*,*,#425,.T.);
#256=ORIENTED_EDGE('',*,*,#434,.T.);
#257=ORIENTED_EDGE('',*,*,#347,.T.);
#258=ORIENTED_EDGE('',*,*,#462,.F.);
#259=ORIENTED_EDGE('',*,*,#463,.F.);
#260=ORIENTED_EDGE('',*,*,#460,.T.);
#261=ORIENTED_EDGE('',*,*,#346,.F.);
#262=ORIENTED_EDGE('',*,*,#464,.F.);
#263=ORIENTED_EDGE('',*,*,#465,.T.);
#264=ORIENTED_EDGE('',*,*,#462,.T.);
#265=ORIENTED_EDGE('',*,*,#465,.F.);
#266=ORIENTED_EDGE('',*,*,#466,.F.);
#267=ORIENTED_EDGE('',*,*,#432,.F.);
#268=ORIENTED_EDGE('',*,*,#426,.T.);
#269=ORIENTED_EDGE('',*,*,#461,.T.);
#270=ORIENTED_EDGE('',*,*,#463,.T.);
#271=ORIENTED_EDGE('',*,*,#422,.F.);
#272=ORIENTED_EDGE('',*,*,#348,.T.);
#273=ORIENTED_EDGE('',*,*,#467,.T.);
#274=ORIENTED_EDGE('',*,*,#468,.F.);
#275=ORIENTED_EDGE('',*,*,#337,.T.);
#276=ORIENTED_EDGE('',*,*,#343,.T.);
#277=ORIENTED_EDGE('',*,*,#437,.T.);
#278=ORIENTED_EDGE('',*,*,#469,.F.);
#279=ORIENTED_EDGE('',*,*,#467,.F.);
#280=ORIENTED_EDGE('',*,*,#420,.T.);
#281=ORIENTED_EDGE('',*,*,#436,.F.);
#282=ORIENTED_EDGE('',*,*,#423,.F.);
#283=ORIENTED_EDGE('',*,*,#468,.T.);
#284=ORIENTED_EDGE('',*,*,#469,.T.);
#285=ORIENTED_EDGE('',*,*,#415,.F.);
#286=ORIENTED_EDGE('',*,*,#430,.F.);
#287=ORIENTED_EDGE('',*,*,#470,.T.);
#288=ORIENTED_EDGE('',*,*,#471,.T.);
#289=ORIENTED_EDGE('',*,*,#341,.F.);
#290=ORIENTED_EDGE('',*,*,#472,.F.);
#291=ORIENTED_EDGE('',*,*,#473,.T.);
#292=ORIENTED_EDGE('',*,*,#344,.T.);
#293=ORIENTED_EDGE('',*,*,#340,.F.);
#294=ORIENTED_EDGE('',*,*,#474,.F.);
#295=ORIENTED_EDGE('',*,*,#475,.T.);
#296=ORIENTED_EDGE('',*,*,#472,.T.);
#297=ORIENTED_EDGE('',*,*,#339,.F.);
#298=ORIENTED_EDGE('',*,*,#335,.F.);
#299=ORIENTED_EDGE('',*,*,#471,.F.);
#300=ORIENTED_EDGE('',*,*,#476,.T.);
#301=ORIENTED_EDGE('',*,*,#474,.T.);
#302=ORIENTED_EDGE('',*,*,#466,.T.);
#303=ORIENTED_EDGE('',*,*,#464,.T.);
#304=ORIENTED_EDGE('',*,*,#345,.F.);
#305=ORIENTED_EDGE('',*,*,#473,.F.);
#306=ORIENTED_EDGE('',*,*,#475,.F.);
#307=ORIENTED_EDGE('',*,*,#476,.F.);
#308=ORIENTED_EDGE('',*,*,#470,.F.);
#309=ORIENTED_EDGE('',*,*,#433,.F.);
#310=ORIENTED_EDGE('',*,*,#477,.F.);
#311=ORIENTED_EDGE('',*,*,#478,.F.);
#312=ORIENTED_EDGE('',*,*,#479,.T.);
#313=ORIENTED_EDGE('',*,*,#480,.T.);
#314=ORIENTED_EDGE('',*,*,#481,.T.);
#315=ORIENTED_EDGE('',*,*,#482,.F.);
#316=ORIENTED_EDGE('',*,*,#483,.F.);
#317=ORIENTED_EDGE('',*,*,#478,.T.);
#318=ORIENTED_EDGE('',*,*,#484,.F.);
#319=ORIENTED_EDGE('',*,*,#485,.F.);
#320=ORIENTED_EDGE('',*,*,#486,.T.);
#321=ORIENTED_EDGE('',*,*,#482,.T.);
#322=ORIENTED_EDGE('',*,*,#487,.T.);
#323=ORIENTED_EDGE('',*,*,#480,.F.);
#324=ORIENTED_EDGE('',*,*,#488,.F.);
#325=ORIENTED_EDGE('',*,*,#485,.T.);
#326=ORIENTED_EDGE('',*,*,#479,.F.);
#327=ORIENTED_EDGE('',*,*,#483,.T.);
#328=ORIENTED_EDGE('',*,*,#486,.F.);
#329=ORIENTED_EDGE('',*,*,#488,.T.);
#330=ORIENTED_EDGE('',*,*,#477,.T.);
#331=ORIENTED_EDGE('',*,*,#487,.F.);
#332=ORIENTED_EDGE('',*,*,#484,.T.);
#333=ORIENTED_EDGE('',*,*,#481,.F.);
#334=EDGE_CURVE('',#489,#490,#587,.T.);
#335=EDGE_CURVE('',#489,#491,#588,.T.);
#336=EDGE_CURVE('',#491,#492,#589,.T.);
#337=EDGE_CURVE('',#493,#492,#590,.T.);
#338=EDGE_CURVE('',#493,#490,#591,.T.);
#339=EDGE_CURVE('',#491,#494,#592,.T.);
#340=EDGE_CURVE('',#494,#495,#593,.T.);
#341=EDGE_CURVE('',#495,#496,#594,.T.);
#342=EDGE_CURVE('',#492,#496,#595,.T.);
#343=EDGE_CURVE('',#492,#497,#596,.T.);
#344=EDGE_CURVE('',#498,#496,#597,.T.);
#345=EDGE_CURVE('',#498,#499,#598,.T.);
#346=EDGE_CURVE('',#499,#500,#599,.T.);
#347=EDGE_CURVE('',#497,#500,#600,.T.);
#348=EDGE_CURVE('',#501,#502,#14,.F.);
#349=EDGE_CURVE('',#503,#501,#601,.T.);
#350=EDGE_CURVE('',#504,#503,#15,.T.);
#351=EDGE_CURVE('',#504,#505,#602,.T.);
#352=EDGE_CURVE('',#505,#506,#16,.F.);
#353=EDGE_CURVE('',#507,#506,#603,.T.);
#354=EDGE_CURVE('',#508,#507,#17,.T.);
#355=EDGE_CURVE('',#508,#502,#604,.T.);
#356=EDGE_CURVE('',#509,#510,#605,.T.);
#357=EDGE_CURVE('',#509,#511,#606,.T.);
#358=EDGE_CURVE('',#511,#512,#607,.T.);
#359=EDGE_CURVE('',#510,#512,#608,.T.);
#360=EDGE_CURVE('',#513,#514,#609,.T.);
#361=EDGE_CURVE('',#514,#509,#610,.T.);
#362=EDGE_CURVE('',#515,#510,#611,.T.);
#363=EDGE_CURVE('',#516,#515,#612,.T.);
#364=EDGE_CURVE('',#513,#516,#613,.T.);
#365=EDGE_CURVE('',#517,#511,#614,.T.);
#366=EDGE_CURVE('',#518,#517,#615,.T.);
#367=EDGE_CURVE('',#518,#519,#616,.T.);
#368=EDGE_CURVE('',#519,#520,#617,.T.);
#369=EDGE_CURVE('',#520,#512,#618,.T.);
#370=EDGE_CURVE('',#521,#522,#619,.T.);
#371=EDGE_CURVE('',#506,#521,#620,.T.);
#372=EDGE_CURVE('',#505,#522,#621,.T.);
#373=EDGE_CURVE('',#522,#523,#622,.T.);
#374=EDGE_CURVE('',#523,#504,#623,.T.);
#375=EDGE_CURVE('',#521,#524,#624,.T.);
#376=EDGE_CURVE('',#524,#507,#625,.T.);
#377=EDGE_CURVE('',#525,#526,#626,.T.);
#378=EDGE_CURVE('',#527,#525,#627,.T.);
#379=EDGE_CURVE('',#528,#527,#628,.T.);
#380=EDGE_CURVE('',#528,#513,#629,.T.);
#381=EDGE_CURVE('',#519,#516,#630,.T.);
#382=EDGE_CURVE('',#518,#529,#631,.T.);
#383=EDGE_CURVE('',#529,#530,#632,.T.);
#384=EDGE_CURVE('',#531,#530,#633,.T.);
#385=EDGE_CURVE('',#531,#532,#634,.T.);
#386=EDGE_CURVE('',#532,#533,#635,.T.);
#387=EDGE_CURVE('',#533,#508,#636,.T.);
#388=EDGE_CURVE('',#534,#508,#637,.T.);
#389=EDGE_CURVE('',#534,#535,#638,.T.);
#390=EDGE_CURVE('',#535,#526,#639,.T.);
#391=EDGE_CURVE('',#534,#536,#640,.T.);
#392=EDGE_CURVE('',#536,#524,#641,.T.);
#393=EDGE_CURVE('',#537,#538,#642,.T.);
#394=EDGE_CURVE('',#539,#537,#18,.T.);
#395=EDGE_CURVE('',#540,#539,#643,.T.);
#396=EDGE_CURVE('',#540,#541,#19,.T.);
#397=EDGE_CURVE('',#541,#529,#644,.T.);
#398=EDGE_CURVE('',#542,#529,#20,.T.);
#399=EDGE_CURVE('',#542,#543,#645,.T.);
#400=EDGE_CURVE('',#538,#543,#21,.F.);
#401=EDGE_CURVE('',#539,#528,#646,.T.);
#402=EDGE_CURVE('',#544,#537,#647,.T.);
#403=EDGE_CURVE('',#514,#544,#648,.T.);
#404=EDGE_CURVE('',#530,#545,#649,.T.);
#405=EDGE_CURVE('',#541,#546,#650,.T.);
#406=EDGE_CURVE('',#546,#545,#651,.T.);
#407=EDGE_CURVE('',#547,#548,#652,.T.);
#408=EDGE_CURVE('',#549,#547,#653,.T.);
#409=EDGE_CURVE('',#549,#550,#654,.T.);
#410=EDGE_CURVE('',#550,#548,#655,.T.);
#411=EDGE_CURVE('',#515,#520,#656,.T.);
#412=EDGE_CURVE('',#545,#551,#657,.T.);
#413=EDGE_CURVE('',#552,#546,#658,.T.);
#414=EDGE_CURVE('',#552,#553,#659,.T.);
#415=EDGE_CURVE('',#553,#489,#660,.T.);
#416=EDGE_CURVE('',#554,#490,#661,.T.);
#417=EDGE_CURVE('',#554,#555,#662,.T.);
#418=EDGE_CURVE('',#555,#551,#663,.T.);
#419=EDGE_CURVE('',#533,#554,#664,.T.);
#420=EDGE_CURVE('',#502,#493,#665,.T.);
#421=EDGE_CURVE('',#539,#503,#666,.T.);
#422=EDGE_CURVE('',#501,#556,#667,.T.);
#423=EDGE_CURVE('',#556,#557,#668,.T.);
#424=EDGE_CURVE('',#558,#557,#669,.T.);
#425=EDGE_CURVE('',#559,#558,#670,.T.);
#426=EDGE_CURVE('',#560,#559,#671,.T.);
#427=EDGE_CURVE('',#561,#560,#672,.T.);
#428=EDGE_CURVE('',#561,#540,#673,.T.);
#429=EDGE_CURVE('',#503,#527,#674,.T.);
#430=EDGE_CURVE('',#562,#553,#675,.T.);
#431=EDGE_CURVE('',#561,#552,#676,.T.);
#432=EDGE_CURVE('',#560,#563,#677,.T.);
#433=EDGE_CURVE('',#563,#562,#678,.T.);
#434=EDGE_CURVE('',#564,#497,#679,.T.);
#435=EDGE_CURVE('',#558,#564,#680,.T.);
#436=EDGE_CURVE('',#557,#565,#681,.T.);
#437=EDGE_CURVE('',#497,#565,#682,.T.);
#438=EDGE_CURVE('',#525,#566,#683,.T.);
#439=EDGE_CURVE('',#566,#523,#684,.T.);
#440=EDGE_CURVE('',#517,#567,#685,.T.);
#441=EDGE_CURVE('',#567,#542,#686,.T.);
#442=EDGE_CURVE('',#532,#555,#687,.T.);
#443=EDGE_CURVE('',#531,#551,#688,.T.);
#444=EDGE_CURVE('',#568,#569,#689,.T.);
#445=EDGE_CURVE('',#538,#568,#690,.T.);
#446=EDGE_CURVE('',#543,#569,#691,.T.);
#447=EDGE_CURVE('',#544,#568,#692,.T.);
#448=EDGE_CURVE('',#567,#569,#693,.T.);
#449=EDGE_CURVE('',#570,#548,#694,.T.);
#450=EDGE_CURVE('',#570,#571,#695,.T.);
#451=EDGE_CURVE('',#571,#547,#696,.T.);
#452=EDGE_CURVE('',#571,#566,#697,.T.);
#453=EDGE_CURVE('',#526,#549,#698,.T.);
#454=EDGE_CURVE('',#535,#550,#699,.T.);
#455=EDGE_CURVE('',#570,#536,#700,.T.);
#456=EDGE_CURVE('',#566,#514,#701,.T.);
#457=EDGE_CURVE('',#523,#544,#702,.T.);
#458=EDGE_CURVE('',#536,#517,#703,.T.);
#459=EDGE_CURVE('',#524,#567,#704,.T.);
#460=EDGE_CURVE('',#572,#564,#705,.T.);
#461=EDGE_CURVE('',#559,#572,#706,.T.);
#462=EDGE_CURVE('',#573,#500,#707,.T.);
#463=EDGE_CURVE('',#572,#573,#708,.T.);
#464=EDGE_CURVE('',#574,#499,#709,.T.);
#465=EDGE_CURVE('',#574,#573,#710,.T.);
#466=EDGE_CURVE('',#563,#574,#711,.T.);
#467=EDGE_CURVE('',#502,#575,#712,.T.);
#468=EDGE_CURVE('',#556,#575,#713,.T.);
#469=EDGE_CURVE('',#575,#565,#714,.T.);
#470=EDGE_CURVE('',#562,#576,#715,.T.);
#471=EDGE_CURVE('',#576,#489,#716,.T.);
#472=EDGE_CURVE('',#577,#495,#717,.T.);
#473=EDGE_CURVE('',#577,#498,#718,.T.);
#474=EDGE_CURVE('',#578,#494,#719,.T.);
#475=EDGE_CURVE('',#578,#577,#720,.T.);
#476=EDGE_CURVE('',#576,#578,#721,.T.);
#477=EDGE_CURVE('',#579,#580,#722,.T.);
#478=EDGE_CURVE('',#581,#579,#723,.T.);
#479=EDGE_CURVE('',#581,#582,#724,.T.);
#480=EDGE_CURVE('',#582,#580,#725,.T.);
#481=EDGE_CURVE('',#579,#583,#726,.T.);
#482=EDGE_CURVE('',#584,#583,#727,.T.);
#483=EDGE_CURVE('',#581,#584,#728,.T.);
#484=EDGE_CURVE('',#585,#583,#729,.T.);
#485=EDGE_CURVE('',#586,#585,#730,.T.);
#486=EDGE_CURVE('',#586,#584,#731,.T.);
#487=EDGE_CURVE('',#585,#580,#732,.T.);
#488=EDGE_CURVE('',#586,#582,#733,.T.);
#489=VERTEX_POINT('',#1486);
#490=VERTEX_POINT('',#1487);
#491=VERTEX_POINT('',#1489);
#492=VERTEX_POINT('',#1491);
#493=VERTEX_POINT('',#1493);
#494=VERTEX_POINT('',#1497);
#495=VERTEX_POINT('',#1499);
#496=VERTEX_POINT('',#1501);
#497=VERTEX_POINT('',#1505);
#498=VERTEX_POINT('',#1507);
#499=VERTEX_POINT('',#1509);
#500=VERTEX_POINT('',#1511);
#501=VERTEX_POINT('',#1515);
#502=VERTEX_POINT('',#1516);
#503=VERTEX_POINT('',#1518);
#504=VERTEX_POINT('',#1520);
#505=VERTEX_POINT('',#1522);
#506=VERTEX_POINT('',#1524);
#507=VERTEX_POINT('',#1526);
#508=VERTEX_POINT('',#1528);
#509=VERTEX_POINT('',#1532);
#510=VERTEX_POINT('',#1533);
#511=VERTEX_POINT('',#1535);
#512=VERTEX_POINT('',#1537);
#513=VERTEX_POINT('',#1541);
#514=VERTEX_POINT('',#1542);
#515=VERTEX_POINT('',#1545);
#516=VERTEX_POINT('',#1547);
#517=VERTEX_POINT('',#1551);
#518=VERTEX_POINT('',#1553);
#519=VERTEX_POINT('',#1555);
#520=VERTEX_POINT('',#1557);
#521=VERTEX_POINT('',#1561);
#522=VERTEX_POINT('',#1562);
#523=VERTEX_POINT('',#1567);
#524=VERTEX_POINT('',#1571);
#525=VERTEX_POINT('',#1575);
#526=VERTEX_POINT('',#1576);
#527=VERTEX_POINT('',#1578);
#528=VERTEX_POINT('',#1580);
#529=VERTEX_POINT('',#1584);
#530=VERTEX_POINT('',#1586);
#531=VERTEX_POINT('',#1588);
#532=VERTEX_POINT('',#1590);
#533=VERTEX_POINT('',#1592);
#534=VERTEX_POINT('',#1595);
#535=VERTEX_POINT('',#1597);
#536=VERTEX_POINT('',#1601);
#537=VERTEX_POINT('',#1605);
#538=VERTEX_POINT('',#1606);
#539=VERTEX_POINT('',#1608);
#540=VERTEX_POINT('',#1610);
#541=VERTEX_POINT('',#1612);
#542=VERTEX_POINT('',#1615);
#543=VERTEX_POINT('',#1617);
#544=VERTEX_POINT('',#1622);
#545=VERTEX_POINT('',#1626);
#546=VERTEX_POINT('',#1628);
#547=VERTEX_POINT('',#1632);
#548=VERTEX_POINT('',#1633);
#549=VERTEX_POINT('',#1635);
#550=VERTEX_POINT('',#1637);
#551=VERTEX_POINT('',#1641);
#552=VERTEX_POINT('',#1643);
#553=VERTEX_POINT('',#1645);
#554=VERTEX_POINT('',#1648);
#555=VERTEX_POINT('',#1650);
#556=VERTEX_POINT('',#1658);
#557=VERTEX_POINT('',#1660);
#558=VERTEX_POINT('',#1662);
#559=VERTEX_POINT('',#1664);
#560=VERTEX_POINT('',#1666);
#561=VERTEX_POINT('',#1668);
#562=VERTEX_POINT('',#1674);
#563=VERTEX_POINT('',#1677);
#564=VERTEX_POINT('',#1682);
#565=VERTEX_POINT('',#1685);
#566=VERTEX_POINT('',#1689);
#567=VERTEX_POINT('',#1693);
#568=VERTEX_POINT('',#1702);
#569=VERTEX_POINT('',#1703);
#570=VERTEX_POINT('',#1713);
#571=VERTEX_POINT('',#1715);
#572=VERTEX_POINT('',#1734);
#573=VERTEX_POINT('',#1738);
#574=VERTEX_POINT('',#1742);
#575=VERTEX_POINT('',#1748);
#576=VERTEX_POINT('',#1755);
#577=VERTEX_POINT('',#1759);
#578=VERTEX_POINT('',#1763);
#579=VERTEX_POINT('',#1771);
#580=VERTEX_POINT('',#1772);
#581=VERTEX_POINT('',#1774);
#582=VERTEX_POINT('',#1776);
#583=VERTEX_POINT('',#1780);
#584=VERTEX_POINT('',#1782);
#585=VERTEX_POINT('',#1786);
#586=VERTEX_POINT('',#1788);
#587=LINE('',#1485,#734);
#588=LINE('',#1488,#735);
#589=LINE('',#1490,#736);
#590=LINE('',#1492,#737);
#591=LINE('',#1494,#738);
#592=LINE('',#1496,#739);
#593=LINE('',#1498,#740);
#594=LINE('',#1500,#741);
#595=LINE('',#1502,#742);
#596=LINE('',#1504,#743);
#597=LINE('',#1506,#744);
#598=LINE('',#1508,#745);
#599=LINE('',#1510,#746);
#600=LINE('',#1512,#747);
#601=LINE('',#1517,#748);
#602=LINE('',#1521,#749);
#603=LINE('',#1525,#750);
#604=LINE('',#1529,#751);
#605=LINE('',#1531,#752);
#606=LINE('',#1534,#753);
#607=LINE('',#1536,#754);
#608=LINE('',#1538,#755);
#609=LINE('',#1540,#756);
#610=LINE('',#1543,#757);
#611=LINE('',#1544,#758);
#612=LINE('',#1546,#759);
#613=LINE('',#1548,#760);
#614=LINE('',#1550,#761);
#615=LINE('',#1552,#762);
#616=LINE('',#1554,#763);
#617=LINE('',#1556,#764);
#618=LINE('',#1558,#765);
#619=LINE('',#1560,#766);
#620=LINE('',#1563,#767);
#621=LINE('',#1564,#768);
#622=LINE('',#1566,#769);
#623=LINE('',#1568,#770);
#624=LINE('',#1570,#771);
#625=LINE('',#1572,#772);
#626=LINE('',#1574,#773);
#627=LINE('',#1577,#774);
#628=LINE('',#1579,#775);
#629=LINE('',#1581,#776);
#630=LINE('',#1582,#777);
#631=LINE('',#1583,#778);
#632=LINE('',#1585,#779);
#633=LINE('',#1587,#780);
#634=LINE('',#1589,#781);
#635=LINE('',#1591,#782);
#636=LINE('',#1593,#783);
#637=LINE('',#1594,#784);
#638=LINE('',#1596,#785);
#639=LINE('',#1598,#786);
#640=LINE('',#1600,#787);
#641=LINE('',#1602,#788);
#642=LINE('',#1604,#789);
#643=LINE('',#1609,#790);
#644=LINE('',#1613,#791);
#645=LINE('',#1616,#792);
#646=LINE('',#1620,#793);
#647=LINE('',#1621,#794);
#648=LINE('',#1623,#795);
#649=LINE('',#1625,#796);
#650=LINE('',#1627,#797);
#651=LINE('',#1629,#798);
#652=LINE('',#1631,#799);
#653=LINE('',#1634,#800);
#654=LINE('',#1636,#801);
#655=LINE('',#1638,#802);
#656=LINE('',#1639,#803);
#657=LINE('',#1640,#804);
#658=LINE('',#1642,#805);
#659=LINE('',#1644,#806);
#660=LINE('',#1646,#807);
#661=LINE('',#1647,#808);
#662=LINE('',#1649,#809);
#663=LINE('',#1651,#810);
#664=LINE('',#1653,#811);
#665=LINE('',#1654,#812);
#666=LINE('',#1656,#813);
#667=LINE('',#1657,#814);
#668=LINE('',#1659,#815);
#669=LINE('',#1661,#816);
#670=LINE('',#1663,#817);
#671=LINE('',#1665,#818);
#672=LINE('',#1667,#819);
#673=LINE('',#1669,#820);
#674=LINE('',#1671,#821);
#675=LINE('',#1673,#822);
#676=LINE('',#1675,#823);
#677=LINE('',#1676,#824);
#678=LINE('',#1678,#825);
#679=LINE('',#1681,#826);
#680=LINE('',#1683,#827);
#681=LINE('',#1684,#828);
#682=LINE('',#1686,#829);
#683=LINE('',#1688,#830);
#684=LINE('',#1690,#831);
#685=LINE('',#1692,#832);
#686=LINE('',#1694,#833);
#687=LINE('',#1696,#834);
#688=LINE('',#1698,#835);
#689=LINE('',#1701,#836);
#690=LINE('',#1704,#837);
#691=LINE('',#1705,#838);
#692=LINE('',#1708,#839);
#693=LINE('',#1710,#840);
#694=LINE('',#1712,#841);
#695=LINE('',#1714,#842);
#696=LINE('',#1716,#843);
#697=LINE('',#1718,#844);
#698=LINE('',#1719,#845);
#699=LINE('',#1721,#846);
#700=LINE('',#1723,#847);
#701=LINE('',#1725,#848);
#702=LINE('',#1726,#849);
#703=LINE('',#1728,#850);
#704=LINE('',#1729,#851);
#705=LINE('',#1733,#852);
#706=LINE('',#1735,#853);
#707=LINE('',#1737,#854);
#708=LINE('',#1739,#855);
#709=LINE('',#1741,#856);
#710=LINE('',#1743,#857);
#711=LINE('',#1745,#858);
#712=LINE('',#1747,#859);
#713=LINE('',#1749,#860);
#714=LINE('',#1751,#861);
#715=LINE('',#1754,#862);
#716=LINE('',#1756,#863);
#717=LINE('',#1758,#864);
#718=LINE('',#1760,#865);
#719=LINE('',#1762,#866);
#720=LINE('',#1764,#867);
#721=LINE('',#1766,#868);
#722=LINE('',#1770,#869);
#723=LINE('',#1773,#870);
#724=LINE('',#1775,#871);
#725=LINE('',#1777,#872);
#726=LINE('',#1779,#873);
#727=LINE('',#1781,#874);
#728=LINE('',#1783,#875);
#729=LINE('',#1785,#876);
#730=LINE('',#1787,#877);
#731=LINE('',#1789,#878);
#732=LINE('',#1791,#879);
#733=LINE('',#1792,#880);
#734=VECTOR('',#1206,1.);
#735=VECTOR('',#1207,1.);
#736=VECTOR('',#1208,1.);
#737=VECTOR('',#1209,1.);
#738=VECTOR('',#1210,1.);
#739=VECTOR('',#1213,1.);
#740=VECTOR('',#1214,1.);
#741=VECTOR('',#1215,1.);
#742=VECTOR('',#1216,1.);
#743=VECTOR('',#1219,1.);
#744=VECTOR('',#1220,1.);
#745=VECTOR('',#1221,1.);
#746=VECTOR('',#1222,1.);
#747=VECTOR('',#1223,1.);
#748=VECTOR('',#1228,1.);
#749=VECTOR('',#1231,1.);
#750=VECTOR('',#1234,1.);
#751=VECTOR('',#1237,1.);
#752=VECTOR('',#1240,1.);
#753=VECTOR('',#1241,1.);
#754=VECTOR('',#1242,1.);
#755=VECTOR('',#1243,1.);
#756=VECTOR('',#1246,1.);
#757=VECTOR('',#1247,1.);
#758=VECTOR('',#1248,1.);
#759=VECTOR('',#1249,1.);
#760=VECTOR('',#1250,1.);
#761=VECTOR('',#1253,1.);
#762=VECTOR('',#1254,1.);
#763=VECTOR('',#1255,1.);
#764=VECTOR('',#1256,1.);
#765=VECTOR('',#1257,1.);
#766=VECTOR('',#1260,1.);
#767=VECTOR('',#1261,1.);
#768=VECTOR('',#1262,1.);
#769=VECTOR('',#1265,1.);
#770=VECTOR('',#1266,1.);
#771=VECTOR('',#1269,1.);
#772=VECTOR('',#1270,1.);
#773=VECTOR('',#1273,1.);
#774=VECTOR('',#1274,1.);
#775=VECTOR('',#1275,1.);
#776=VECTOR('',#1276,1.);
#777=VECTOR('',#1277,1.);
#778=VECTOR('',#1278,1.);
#779=VECTOR('',#1279,1.);
#780=VECTOR('',#1280,1.);
#781=VECTOR('',#1281,1.);
#782=VECTOR('',#1282,1.);
#783=VECTOR('',#1283,1.);
#784=VECTOR('',#1284,1.);
#785=VECTOR('',#1285,1.);
#786=VECTOR('',#1286,1.);
#787=VECTOR('',#1289,1.);
#788=VECTOR('',#1290,1.);
#789=VECTOR('',#1293,1.);
#790=VECTOR('',#1296,1.);
#791=VECTOR('',#1299,1.);
#792=VECTOR('',#1302,1.);
#793=VECTOR('',#1307,1.);
#794=VECTOR('',#1308,1.);
#795=VECTOR('',#1309,1.);
#796=VECTOR('',#1312,1.);
#797=VECTOR('',#1313,1.);
#798=VECTOR('',#1314,1.);
#799=VECTOR('',#1317,1.);
#800=VECTOR('',#1318,1.);
#801=VECTOR('',#1319,1.);
#802=VECTOR('',#1320,1.);
#803=VECTOR('',#1321,1.);
#804=VECTOR('',#1322,1.);
#805=VECTOR('',#1323,1.);
#806=VECTOR('',#1324,1.);
#807=VECTOR('',#1325,1.);
#808=VECTOR('',#1326,1.);
#809=VECTOR('',#1327,1.);
#810=VECTOR('',#1328,1.);
#811=VECTOR('',#1331,1.);
#812=VECTOR('',#1332,1.);
#813=VECTOR('',#1335,1.);
#814=VECTOR('',#1336,1.);
#815=VECTOR('',#1337,1.);
#816=VECTOR('',#1338,1.);
#817=VECTOR('',#1339,1.);
#818=VECTOR('',#1340,1.);
#819=VECTOR('',#1341,1.);
#820=VECTOR('',#1342,1.);
#821=VECTOR('',#1345,1.);
#822=VECTOR('',#1348,1.);
#823=VECTOR('',#1349,1.);
#824=VECTOR('',#1350,1.);
#825=VECTOR('',#1351,1.);
#826=VECTOR('',#1356,1.);
#827=VECTOR('',#1357,1.);
#828=VECTOR('',#1358,1.);
#829=VECTOR('',#1359,1.);
#830=VECTOR('',#1362,1.);
#831=VECTOR('',#1363,1.);
#832=VECTOR('',#1366,1.);
#833=VECTOR('',#1367,1.);
#834=VECTOR('',#1370,1.);
#835=VECTOR('',#1373,1.);
#836=VECTOR('',#1378,1.);
#837=VECTOR('',#1379,1.);
#838=VECTOR('',#1380,1.);
#839=VECTOR('',#1385,1.);
#840=VECTOR('',#1388,1.);
#841=VECTOR('',#1391,1.);
#842=VECTOR('',#1392,1.);
#843=VECTOR('',#1393,1.);
#844=VECTOR('',#1396,1.);
#845=VECTOR('',#1397,1.);
#846=VECTOR('',#1400,1.);
#847=VECTOR('',#1403,1.);
#848=VECTOR('',#1406,1.);
#849=VECTOR('',#1407,1.);
#850=VECTOR('',#1410,1.);
#851=VECTOR('',#1411,1.);
#852=VECTOR('',#1418,1.);
#853=VECTOR('',#1419,1.);
#854=VECTOR('',#1422,1.);
#855=VECTOR('',#1423,1.);
#856=VECTOR('',#1426,1.);
#857=VECTOR('',#1427,1.);
#858=VECTOR('',#1430,1.);
#859=VECTOR('',#1433,1.);
#860=VECTOR('',#1434,1.);
#861=VECTOR('',#1437,1.);
#862=VECTOR('',#1442,1.);
#863=VECTOR('',#1443,1.);
#864=VECTOR('',#1446,1.);
#865=VECTOR('',#1447,1.);
#866=VECTOR('',#1450,1.);
#867=VECTOR('',#1451,1.);
#868=VECTOR('',#1454,1.);
#869=VECTOR('',#1461,1.);
#870=VECTOR('',#1462,1.);
#871=VECTOR('',#1463,1.);
#872=VECTOR('',#1464,1.);
#873=VECTOR('',#1467,1.);
#874=VECTOR('',#1468,1.);
#875=VECTOR('',#1469,1.);
#876=VECTOR('',#1472,1.);
#877=VECTOR('',#1473,1.);
#878=VECTOR('',#1474,1.);
#879=VECTOR('',#1477,1.);
#880=VECTOR('',#1478,1.);
#881=EDGE_LOOP('',(#24,#25,#26,#27,#28));
#882=EDGE_LOOP('',(#29,#30,#31,#32,#33));
#883=EDGE_LOOP('',(#34,#35,#36,#37,#38,#39));
#884=EDGE_LOOP('',(#40,#41,#42,#43,#44,#45,#46,#47));
#885=EDGE_LOOP('',(#48,#49,#50,#51));
#886=EDGE_LOOP('',(#52,#53,#54,#55,#56,#57));
#887=EDGE_LOOP('',(#58,#59,#60,#61,#62,#63));
#888=EDGE_LOOP('',(#64,#65,#66,#67));
#889=EDGE_LOOP('',(#68,#69,#70,#71));
#890=EDGE_LOOP('',(#72,#73,#74,#75));
#891=EDGE_LOOP('',(#76,#77,#78,#79,#80,#81,#82,#83,#84,#85,#86,#87,#88,
#89,#90,#91));
#892=EDGE_LOOP('',(#92,#93,#94,#95,#96));
#893=EDGE_LOOP('',(#97,#98,#99,#100,#101,#102,#103,#104));
#894=EDGE_LOOP('',(#105,#106,#107,#108,#109,#110));
#895=EDGE_LOOP('',(#111,#112,#113,#114,#115));
#896=EDGE_LOOP('',(#116,#117,#118,#119));
#897=EDGE_LOOP('',(#120,#121,#122,#123));
#898=EDGE_LOOP('',(#124,#125,#126,#127,#128,#129,#130,#131,#132));
#899=EDGE_LOOP('',(#133,#134,#135,#136,#137,#138));
#900=EDGE_LOOP('',(#139,#140,#141,#142,#143,#144,#145,#146,#147,#148));
#901=EDGE_LOOP('',(#149,#150,#151,#152));
#902=EDGE_LOOP('',(#153,#154,#155,#156,#157,#158));
#903=EDGE_LOOP('',(#159,#160,#161,#162,#163));
#904=EDGE_LOOP('',(#164,#165,#166,#167,#168));
#905=EDGE_LOOP('',(#169,#170,#171,#172,#173,#174));
#906=EDGE_LOOP('',(#175,#176,#177,#178,#179));
#907=EDGE_LOOP('',(#180,#181,#182,#183));
#908=EDGE_LOOP('',(#184,#185,#186,#187));
#909=EDGE_LOOP('',(#188,#189,#190,#191));
#910=EDGE_LOOP('',(#192,#193,#194,#195));
#911=EDGE_LOOP('',(#196,#197,#198,#199));
#912=EDGE_LOOP('',(#200,#201,#202,#203));
#913=EDGE_LOOP('',(#204,#205,#206,#207));
#914=EDGE_LOOP('',(#208,#209,#210,#211));
#915=EDGE_LOOP('',(#212,#213,#214,#215,#216,#217));
#916=EDGE_LOOP('',(#218,#219,#220,#221));
#917=EDGE_LOOP('',(#222,#223,#224,#225,#226,#227));
#918=EDGE_LOOP('',(#228,#229,#230,#231));
#919=EDGE_LOOP('',(#232,#233,#234,#235));
#920=EDGE_LOOP('',(#236,#237,#238,#239,#240,#241,#242,#243));
#921=EDGE_LOOP('',(#244,#245,#246,#247,#248,#249,#250,#251));
#922=EDGE_LOOP('',(#252,#253,#254,#255));
#923=EDGE_LOOP('',(#256,#257,#258,#259,#260));
#924=EDGE_LOOP('',(#261,#262,#263,#264));
#925=EDGE_LOOP('',(#265,#266,#267,#268,#269,#270));
#926=EDGE_LOOP('',(#271,#272,#273,#274));
#927=EDGE_LOOP('',(#275,#276,#277,#278,#279,#280));
#928=EDGE_LOOP('',(#281,#282,#283,#284));
#929=EDGE_LOOP('',(#285,#286,#287,#288));
#930=EDGE_LOOP('',(#289,#290,#291,#292));
#931=EDGE_LOOP('',(#293,#294,#295,#296));
#932=EDGE_LOOP('',(#297,#298,#299,#300,#301));
#933=EDGE_LOOP('',(#302,#303,#304,#305,#306,#307,#308,#309));
#934=EDGE_LOOP('',(#310,#311,#312,#313));
#935=EDGE_LOOP('',(#314,#315,#316,#317));
#936=EDGE_LOOP('',(#318,#319,#320,#321));
#937=EDGE_LOOP('',(#322,#323,#324,#325));
#938=EDGE_LOOP('',(#326,#327,#328,#329));
#939=EDGE_LOOP('',(#330,#331,#332,#333));
#940=FACE_BOUND('',#881,.T.);
#941=FACE_BOUND('',#882,.T.);
#942=FACE_BOUND('',#883,.T.);
#943=FACE_BOUND('',#884,.T.);
#944=FACE_BOUND('',#885,.T.);
#945=FACE_BOUND('',#886,.T.);
#946=FACE_BOUND('',#887,.T.);
#947=FACE_BOUND('',#888,.T.);
#948=FACE_BOUND('',#889,.T.);
#949=FACE_BOUND('',#890,.T.);
#950=FACE_BOUND('',#891,.T.);
#951=FACE_BOUND('',#892,.T.);
#952=FACE_BOUND('',#893,.T.);
#953=FACE_BOUND('',#894,.T.);
#954=FACE_BOUND('',#895,.T.);
#955=FACE_BOUND('',#896,.T.);
#956=FACE_BOUND('',#897,.T.);
#957=FACE_BOUND('',#898,.T.);
#958=FACE_BOUND('',#899,.T.);
#959=FACE_BOUND('',#900,.T.);
#960=FACE_BOUND('',#901,.T.);
#961=FACE_BOUND('',#902,.T.);
#962=FACE_BOUND('',#903,.T.);
#963=FACE_BOUND('',#904,.T.);
#964=FACE_BOUND('',#905,.T.);
#965=FACE_BOUND('',#906,.T.);
#966=FACE_BOUND('',#907,.T.);
#967=FACE_BOUND('',#908,.T.);
#968=FACE_BOUND('',#909,.T.);
#969=FACE_BOUND('',#910,.T.);
#970=FACE_BOUND('',#911,.T.);
#971=FACE_BOUND('',#912,.T.);
#972=FACE_BOUND('',#913,.T.);
#973=FACE_BOUND('',#914,.T.);
#974=FACE_BOUND('',#915,.T.);
#975=FACE_BOUND('',#916,.T.);
#976=FACE_BOUND('',#917,.T.);
#977=FACE_BOUND('',#918,.T.);
#978=FACE_BOUND('',#919,.T.);
#979=FACE_BOUND('',#920,.T.);
#980=FACE_BOUND('',#921,.T.);
#981=FACE_BOUND('',#922,.T.);
#982=FACE_BOUND('',#923,.T.);
#983=FACE_BOUND('',#924,.T.);
#984=FACE_BOUND('',#925,.T.);
#985=FACE_BOUND('',#926,.T.);
#986=FACE_BOUND('',#927,.T.);
#987=FACE_BOUND('',#928,.T.);
#988=FACE_BOUND('',#929,.T.);
#989=FACE_BOUND('',#930,.T.);
#990=FACE_BOUND('',#931,.T.);
#991=FACE_BOUND('',#932,.T.);
#992=FACE_BOUND('',#933,.T.);
#993=FACE_BOUND('',#934,.T.);
#994=FACE_BOUND('',#935,.T.);
#995=FACE_BOUND('',#936,.T.);
#996=FACE_BOUND('',#937,.T.);
#997=FACE_BOUND('',#938,.T.);
#998=FACE_BOUND('',#939,.T.);
#999=PLANE('',#1136);
#1000=PLANE('',#1137);
#1001=PLANE('',#1138);
#1002=PLANE('',#1144);
#1003=PLANE('',#1145);
#1004=PLANE('',#1146);
#1005=PLANE('',#1147);
#1006=PLANE('',#1148);
#1007=PLANE('',#1149);
#1008=PLANE('',#1150);
#1009=PLANE('',#1151);
#1010=PLANE('',#1157);
#1011=PLANE('',#1158);
#1012=PLANE('',#1159);
#1013=PLANE('',#1160);
#1014=PLANE('',#1161);
#1015=PLANE('',#1162);
#1016=PLANE('',#1163);
#1017=PLANE('',#1164);
#1018=PLANE('',#1165);
#1019=PLANE('',#1166);
#1020=PLANE('',#1167);
#1021=PLANE('',#1168);
#1022=PLANE('',#1169);
#1023=PLANE('',#1170);
#1024=PLANE('',#1171);
#1025=PLANE('',#1172);
#1026=PLANE('',#1173);
#1027=PLANE('',#1174);
#1028=PLANE('',#1175);
#1029=PLANE('',#1176);
#1030=PLANE('',#1177);
#1031=PLANE('',#1178);
#1032=PLANE('',#1179);
#1033=PLANE('',#1180);
#1034=PLANE('',#1181);
#1035=PLANE('',#1182);
#1036=PLANE('',#1183);
#1037=PLANE('',#1184);
#1038=PLANE('',#1185);
#1039=PLANE('',#1186);
#1040=PLANE('',#1187);
#1041=PLANE('',#1188);
#1042=PLANE('',#1189);
#1043=PLANE('',#1190);
#1044=PLANE('',#1191);
#1045=PLANE('',#1192);
#1046=PLANE('',#1193);
#1047=PLANE('',#1194);
#1048=PLANE('',#1196);
#1049=PLANE('',#1197);
#1050=PLANE('',#1198);
#1051=PLANE('',#1199);
#1052=PLANE('',#1200);
#1053=PLANE('',#1201);
#1054=ADVANCED_FACE('',(#940),#999,.T.);
#1055=ADVANCED_FACE('',(#941),#1000,.T.);
#1056=ADVANCED_FACE('',(#942),#1001,.F.);
#1057=ADVANCED_FACE('',(#943),#22,.F.);
#1058=ADVANCED_FACE('',(#944),#1002,.T.);
#1059=ADVANCED_FACE('',(#945),#1003,.T.);
#1060=ADVANCED_FACE('',(#946),#1004,.F.);
#1061=ADVANCED_FACE('',(#947),#1005,.F.);
#1062=ADVANCED_FACE('',(#948),#1006,.F.);
#1063=ADVANCED_FACE('',(#949),#1007,.T.);
#1064=ADVANCED_FACE('',(#950),#1008,.T.);
#1065=ADVANCED_FACE('',(#951),#1009,.F.);
#1066=ADVANCED_FACE('',(#952),#23,.F.);
#1067=ADVANCED_FACE('',(#953),#1010,.F.);
#1068=ADVANCED_FACE('',(#954),#1011,.F.);
#1069=ADVANCED_FACE('',(#955,#956,#957),#1012,.F.);
#1070=ADVANCED_FACE('',(#958),#1013,.F.);
#1071=ADVANCED_FACE('',(#959),#1014,.T.);
#1072=ADVANCED_FACE('',(#960),#1015,.F.);
#1073=ADVANCED_FACE('',(#961),#1016,.T.);
#1074=ADVANCED_FACE('',(#962),#1017,.F.);
#1075=ADVANCED_FACE('',(#963),#1018,.T.);
#1076=ADVANCED_FACE('',(#964),#1019,.F.);
#1077=ADVANCED_FACE('',(#965),#1020,.F.);
#1078=ADVANCED_FACE('',(#966),#1021,.T.);
#1079=ADVANCED_FACE('',(#967),#1022,.T.);
#1080=ADVANCED_FACE('',(#968),#1023,.F.);
#1081=ADVANCED_FACE('',(#969),#1024,.T.);
#1082=ADVANCED_FACE('',(#970),#1025,.F.);
#1083=ADVANCED_FACE('',(#971),#1026,.T.);
#1084=ADVANCED_FACE('',(#972),#1027,.F.);
#1085=ADVANCED_FACE('',(#973),#1028,.F.);
#1086=ADVANCED_FACE('',(#974),#1029,.F.);
#1087=ADVANCED_FACE('',(#975),#1030,.T.);
#1088=ADVANCED_FACE('',(#976),#1031,.T.);
#1089=ADVANCED_FACE('',(#977),#1032,.T.);
#1090=ADVANCED_FACE('',(#978),#1033,.F.);
#1091=ADVANCED_FACE('',(#979),#1034,.F.);
#1092=ADVANCED_FACE('',(#980),#1035,.T.);
#1093=ADVANCED_FACE('',(#981),#1036,.F.);
#1094=ADVANCED_FACE('',(#982),#1037,.F.);
#1095=ADVANCED_FACE('',(#983),#1038,.T.);
#1096=ADVANCED_FACE('',(#984),#1039,.T.);
#1097=ADVANCED_FACE('',(#985),#1040,.F.);
#1098=ADVANCED_FACE('',(#986),#1041,.F.);
#1099=ADVANCED_FACE('',(#987),#1042,.T.);
#1100=ADVANCED_FACE('',(#988),#1043,.T.);
#1101=ADVANCED_FACE('',(#989),#1044,.T.);
#1102=ADVANCED_FACE('',(#990),#1045,.T.);
#1103=ADVANCED_FACE('',(#991),#1046,.T.);
#1104=ADVANCED_FACE('',(#992),#1047,.T.);
#1105=ADVANCED_FACE('',(#993),#1048,.T.);
#1106=ADVANCED_FACE('',(#994),#1049,.F.);
#1107=ADVANCED_FACE('',(#995),#1050,.T.);
#1108=ADVANCED_FACE('',(#996),#1051,.F.);
#1109=ADVANCED_FACE('',(#997),#1052,.T.);
#1110=ADVANCED_FACE('',(#998),#1053,.F.);
#1111=CLOSED_SHELL('',(#1054,#1055,#1056,#1057,#1058,#1059,#1060,#1061,
#1062,#1063,#1064,#1065,#1066,#1067,#1068,#1069,#1070,#1071,#1072,#1073,
#1074,#1075,#1076,#1077,#1078,#1079,#1080,#1081,#1082,#1083,#1084,#1085,
#1086,#1087,#1088,#1089,#1090,#1091,#1092,#1093,#1094,#1095,#1096,#1097,
#1098,#1099,#1100,#1101,#1102,#1103,#1104));
#1112=CLOSED_SHELL('',(#1105,#1106,#1107,#1108,#1109,#1110));
#1113=STYLED_ITEM('',(#1115),#1129);
#1114=STYLED_ITEM('',(#1116),#1130);
#1115=PRESENTATION_STYLE_ASSIGNMENT((#1117));
#1116=PRESENTATION_STYLE_ASSIGNMENT((#1118));
#1117=SURFACE_STYLE_USAGE(.BOTH.,#1119);
#1118=SURFACE_STYLE_USAGE(.BOTH.,#1120);
#1119=SURFACE_SIDE_STYLE('',(#1121));
#1120=SURFACE_SIDE_STYLE('',(#1122));
#1121=SURFACE_STYLE_FILL_AREA(#1123);
#1122=SURFACE_STYLE_FILL_AREA(#1124);
#1123=FILL_AREA_STYLE('',(#1125));
#1124=FILL_AREA_STYLE('',(#1126));
#1125=FILL_AREA_STYLE_COLOUR('',#1127);
#1126=FILL_AREA_STYLE_COLOUR('',#1128);
#1127=COLOUR_RGB('',0.615686274509804,0.811764705882353,0.929411764705882);
#1128=COLOUR_RGB('',0.647058823529412,0.647058823529412,0.647058823529412);
#1129=MANIFOLD_SOLID_BREP('Part 1',#1111);
#1130=MANIFOLD_SOLID_BREP('Part 2',#1112);
#1131=SHAPE_DEFINITION_REPRESENTATION(#1807,#1133);
#1132=SHAPE_DEFINITION_REPRESENTATION(#1808,#1134);
#1133=SHAPE_REPRESENTATION('Part 1',(#1135),#1797);
#1134=SHAPE_REPRESENTATION('Part 2',(#1195),#1798);
#1135=AXIS2_PLACEMENT_3D('',#1483,#1202,#1203);
#1136=AXIS2_PLACEMENT_3D('',#1484,#1204,#1205);
#1137=AXIS2_PLACEMENT_3D('',#1495,#1211,#1212);
#1138=AXIS2_PLACEMENT_3D('',#1503,#1217,#1218);
#1139=AXIS2_PLACEMENT_3D('',#1513,#1224,#1225);
#1140=AXIS2_PLACEMENT_3D('',#1514,#1226,#1227);
#1141=AXIS2_PLACEMENT_3D('',#1519,#1229,#1230);
#1142=AXIS2_PLACEMENT_3D('',#1523,#1232,#1233);
#1143=AXIS2_PLACEMENT_3D('',#1527,#1235,#1236);
#1144=AXIS2_PLACEMENT_3D('',#1530,#1238,#1239);
#1145=AXIS2_PLACEMENT_3D('',#1539,#1244,#1245);
#1146=AXIS2_PLACEMENT_3D('',#1549,#1251,#1252);
#1147=AXIS2_PLACEMENT_3D('',#1559,#1258,#1259);
#1148=AXIS2_PLACEMENT_3D('',#1565,#1263,#1264);
#1149=AXIS2_PLACEMENT_3D('',#1569,#1267,#1268);
#1150=AXIS2_PLACEMENT_3D('',#1573,#1271,#1272);
#1151=AXIS2_PLACEMENT_3D('',#1599,#1287,#1288);
#1152=AXIS2_PLACEMENT_3D('',#1603,#1291,#1292);
#1153=AXIS2_PLACEMENT_3D('',#1607,#1294,#1295);
#1154=AXIS2_PLACEMENT_3D('',#1611,#1297,#1298);
#1155=AXIS2_PLACEMENT_3D('',#1614,#1300,#1301);
#1156=AXIS2_PLACEMENT_3D('',#1618,#1303,#1304);
#1157=AXIS2_PLACEMENT_3D('',#1619,#1305,#1306);
#1158=AXIS2_PLACEMENT_3D('',#1624,#1310,#1311);
#1159=AXIS2_PLACEMENT_3D('',#1630,#1315,#1316);
#1160=AXIS2_PLACEMENT_3D('',#1652,#1329,#1330);
#1161=AXIS2_PLACEMENT_3D('',#1655,#1333,#1334);
#1162=AXIS2_PLACEMENT_3D('',#1670,#1343,#1344);
#1163=AXIS2_PLACEMENT_3D('',#1672,#1346,#1347);
#1164=AXIS2_PLACEMENT_3D('',#1679,#1352,#1353);
#1165=AXIS2_PLACEMENT_3D('',#1680,#1354,#1355);
#1166=AXIS2_PLACEMENT_3D('',#1687,#1360,#1361);
#1167=AXIS2_PLACEMENT_3D('',#1691,#1364,#1365);
#1168=AXIS2_PLACEMENT_3D('',#1695,#1368,#1369);
#1169=AXIS2_PLACEMENT_3D('',#1697,#1371,#1372);
#1170=AXIS2_PLACEMENT_3D('',#1699,#1374,#1375);
#1171=AXIS2_PLACEMENT_3D('',#1700,#1376,#1377);
#1172=AXIS2_PLACEMENT_3D('',#1706,#1381,#1382);
#1173=AXIS2_PLACEMENT_3D('',#1707,#1383,#1384);
#1174=AXIS2_PLACEMENT_3D('',#1709,#1386,#1387);
#1175=AXIS2_PLACEMENT_3D('',#1711,#1389,#1390);
#1176=AXIS2_PLACEMENT_3D('',#1717,#1394,#1395);
#1177=AXIS2_PLACEMENT_3D('',#1720,#1398,#1399);
#1178=AXIS2_PLACEMENT_3D('',#1722,#1401,#1402);
#1179=AXIS2_PLACEMENT_3D('',#1724,#1404,#1405);
#1180=AXIS2_PLACEMENT_3D('',#1727,#1408,#1409);
#1181=AXIS2_PLACEMENT_3D('',#1730,#1412,#1413);
#1182=AXIS2_PLACEMENT_3D('',#1731,#1414,#1415);
#1183=AXIS2_PLACEMENT_3D('',#1732,#1416,#1417);
#1184=AXIS2_PLACEMENT_3D('',#1736,#1420,#1421);
#1185=AXIS2_PLACEMENT_3D('',#1740,#1424,#1425);
#1186=AXIS2_PLACEMENT_3D('',#1744,#1428,#1429);
#1187=AXIS2_PLACEMENT_3D('',#1746,#1431,#1432);
#1188=AXIS2_PLACEMENT_3D('',#1750,#1435,#1436);
#1189=AXIS2_PLACEMENT_3D('',#1752,#1438,#1439);
#1190=AXIS2_PLACEMENT_3D('',#1753,#1440,#1441);
#1191=AXIS2_PLACEMENT_3D('',#1757,#1444,#1445);
#1192=AXIS2_PLACEMENT_3D('',#1761,#1448,#1449);
#1193=AXIS2_PLACEMENT_3D('',#1765,#1452,#1453);
#1194=AXIS2_PLACEMENT_3D('',#1767,#1455,#1456);
#1195=AXIS2_PLACEMENT_3D('',#1768,#1457,#1458);
#1196=AXIS2_PLACEMENT_3D('',#1769,#1459,#1460);
#1197=AXIS2_PLACEMENT_3D('',#1778,#1465,#1466);
#1198=AXIS2_PLACEMENT_3D('',#1784,#1470,#1471);
#1199=AXIS2_PLACEMENT_3D('',#1790,#1475,#1476);
#1200=AXIS2_PLACEMENT_3D('',#1793,#1479,#1480);
#1201=AXIS2_PLACEMENT_3D('',#1794,#1481,#1482);
#1202=DIRECTION('',(0.,0.,1.));
#1203=DIRECTION('',(1.,0.,0.));
#1204=DIRECTION('',(1.,0.,0.));
#1205=DIRECTION('',(0.,0.,-1.));
#1206=DIRECTION('',(0.,0.,-1.));
#1207=DIRECTION('',(0.,-1.,0.));
#1208=DIRECTION('',(0.,0.,-1.));
#1209=DIRECTION('',(0.,-0.89914555315704,-0.437649716369063));
#1210=DIRECTION('',(0.,1.,0.));
#1211=DIRECTION('',(0.,1.,0.));
#1212=DIRECTION('',(0.,0.,1.));
#1213=DIRECTION('',(1.,0.,-1.07164384616328E-16));
#1214=DIRECTION('',(0.,0.,-1.));
#1215=DIRECTION('',(-1.,0.,0.));
#1216=DIRECTION('',(0.,0.,-1.));
#1217=DIRECTION('',(1.,0.,0.));
#1218=DIRECTION('',(0.,1.,0.));
#1219=DIRECTION('',(0.,-0.89914555315704,-0.437649716369063));
#1220=DIRECTION('',(0.,-1.,0.));
#1221=DIRECTION('',(0.,0.,-1.));
#1222=DIRECTION('',(0.,-1.,0.));
#1223=DIRECTION('',(0.,0.,-1.));
#1224=DIRECTION('',(1.,0.,0.));
#1225=DIRECTION('',(0.,0.,-1.));
#1226=DIRECTION('',(1.,0.,0.));
#1227=DIRECTION('',(0.,0.,-1.));
#1228=DIRECTION('',(1.,0.,0.));
#1229=DIRECTION('',(1.,0.,0.));
#1230=DIRECTION('',(0.,0.,-1.));
#1231=DIRECTION('',(1.,0.,0.));
#1232=DIRECTION('',(1.,0.,0.));
#1233=DIRECTION('',(0.,0.,-1.));
#1234=DIRECTION('',(1.,0.,0.));
#1235=DIRECTION('',(1.,0.,0.));
#1236=DIRECTION('',(0.,0.,-1.));
#1237=DIRECTION('',(1.,0.,0.));
#1238=DIRECTION('',(1.,0.,0.));
#1239=DIRECTION('',(0.,0.,-1.));
#1240=DIRECTION('',(0.,1.,0.));
#1241=DIRECTION('',(0.,0.,-1.));
#1242=DIRECTION('',(0.,1.,0.));
#1243=DIRECTION('',(0.,0.,-1.));
#1244=DIRECTION('',(0.,0.,-1.));
#1245=DIRECTION('',(-1.,0.,0.));
#1246=DIRECTION('',(0.,-1.,0.));
#1247=DIRECTION('',(-1.,0.,0.));
#1248=DIRECTION('',(-1.,0.,0.));
#1249=DIRECTION('',(0.,1.,0.));
#1250=DIRECTION('',(1.,0.,0.));
#1251=DIRECTION('',(0.,0.,-1.));
#1252=DIRECTION('',(-1.,0.,0.));
#1253=DIRECTION('',(-1.,0.,0.));
#1254=DIRECTION('',(0.,-1.,0.));
#1255=DIRECTION('',(1.,0.,0.));
#1256=DIRECTION('',(0.,1.,0.));
#1257=DIRECTION('',(-1.,0.,0.));
#1258=DIRECTION('',(1.,0.,0.));
#1259=DIRECTION('',(0.,0.,-1.));
#1260=DIRECTION('',(0.,0.,1.));
#1261=DIRECTION('',(0.,1.,0.));
#1262=DIRECTION('',(0.,1.,0.));
#1263=DIRECTION('',(0.,0.,1.));
#1264=DIRECTION('',(1.,0.,0.));
#1265=DIRECTION('',(-1.,0.,0.));
#1266=DIRECTION('',(0.,-1.,0.));
#1267=DIRECTION('',(0.,0.,1.));
#1268=DIRECTION('',(1.,0.,0.));
#1269=DIRECTION('',(-1.,0.,0.));
#1270=DIRECTION('',(0.,-1.,0.));
#1271=DIRECTION('',(0.,-1.,0.));
#1272=DIRECTION('',(1.,0.,0.));
#1273=DIRECTION('',(-1.,0.,0.));
#1274=DIRECTION('',(0.,0.,-1.));
#1275=DIRECTION('',(1.,0.,0.));
#1276=DIRECTION('',(0.,0.,-1.));
#1277=DIRECTION('',(0.,0.,1.));
#1278=DIRECTION('',(0.,0.,-1.));
#1279=DIRECTION('',(1.,0.,0.));
#1280=DIRECTION('',(0.,0.,-1.));
#1281=DIRECTION('',(1.,0.,0.));
#1282=DIRECTION('',(0.,0.,-1.));
#1283=DIRECTION('',(1.,0.,0.));
#1284=DIRECTION('',(0.,0.,-1.));
#1285=DIRECTION('',(-1.,0.,0.));
#1286=DIRECTION('',(0.,0.,1.));
#1287=DIRECTION('',(1.,0.,0.));
#1288=DIRECTION('',(0.,1.,0.));
#1289=DIRECTION('',(0.,-1.,0.));
#1290=DIRECTION('',(0.,-1.,0.));
#1291=DIRECTION('',(-1.,0.,0.));
#1292=DIRECTION('',(0.,0.,1.));
#1293=DIRECTION('',(-1.,0.,0.));
#1294=DIRECTION('',(-1.,0.,0.));
#1295=DIRECTION('',(0.,0.,1.));
#1296=DIRECTION('',(1.,0.,0.));
#1297=DIRECTION('',(-1.,0.,0.));
#1298=DIRECTION('',(0.,0.,1.));
#1299=DIRECTION('',(1.,0.,0.));
#1300=DIRECTION('',(-1.,0.,0.));
#1301=DIRECTION('',(0.,0.,1.));
#1302=DIRECTION('',(-1.,0.,0.));
#1303=DIRECTION('',(1.,0.,0.));
#1304=DIRECTION('',(0.,0.,-1.));
#1305=DIRECTION('',(-1.,0.,0.));
#1306=DIRECTION('',(0.,-1.,0.));
#1307=DIRECTION('',(0.,1.,0.));
#1308=DIRECTION('',(0.,-1.,0.));
#1309=DIRECTION('',(0.,-1.,0.));
#1310=DIRECTION('',(0.,0.,1.));
#1311=DIRECTION('',(1.,0.,0.));
#1312=DIRECTION('',(0.,1.,0.));
#1313=DIRECTION('',(0.,1.,0.));
#1314=DIRECTION('',(1.,0.,0.));
#1315=DIRECTION('',(0.,-1.,0.));
#1316=DIRECTION('',(1.,0.,0.));
#1317=DIRECTION('',(0.,0.,-1.));
#1318=DIRECTION('',(1.,0.,0.));
#1319=DIRECTION('',(0.,0.,-1.));
#1320=DIRECTION('',(1.,0.,0.));
#1321=DIRECTION('',(0.,0.,-1.));
#1322=DIRECTION('',(0.,0.,1.));
#1323=DIRECTION('',(0.,0.,-1.));
#1324=DIRECTION('',(1.,0.,0.));
#1325=DIRECTION('',(0.,0.,-1.));
#1326=DIRECTION('',(1.,0.,0.));
#1327=DIRECTION('',(0.,0.,1.));
#1328=DIRECTION('',(-1.,0.,0.));
#1329=DIRECTION('',(0.,0.,1.));
#1330=DIRECTION('',(1.,0.,0.));
#1331=DIRECTION('',(0.,1.,0.));
#1332=DIRECTION('',(1.,0.,0.));
#1333=DIRECTION('',(0.,-1.,0.));
#1334=DIRECTION('',(1.,0.,0.));
#1335=DIRECTION('',(1.,0.,0.));
#1336=DIRECTION('',(0.,0.,-1.));
#1337=DIRECTION('',(1.,0.,0.));
#1338=DIRECTION('',(0.,0.,-1.));
#1339=DIRECTION('',(-1.,0.,0.));
#1340=DIRECTION('',(0.,0.,-1.));
#1341=DIRECTION('',(1.,0.,0.));
#1342=DIRECTION('',(0.,0.,-1.));
#1343=DIRECTION('',(0.,0.,1.));
#1344=DIRECTION('',(1.,0.,0.));
#1345=DIRECTION('',(0.,1.,0.));
#1346=DIRECTION('',(0.,0.,1.));
#1347=DIRECTION('',(1.,0.,0.));
#1348=DIRECTION('',(0.,-1.,0.));
#1349=DIRECTION('',(0.,1.,0.));
#1350=DIRECTION('',(0.,1.,0.));
#1351=DIRECTION('',(-1.,0.,0.));
#1352=DIRECTION('',(1.,0.,0.));
#1353=DIRECTION('',(0.,0.,-1.));
#1354=DIRECTION('',(1.,0.,0.));
#1355=DIRECTION('',(0.,0.,-1.));
#1356=DIRECTION('',(0.,0.,-1.));
#1357=DIRECTION('',(0.,1.,0.));
#1358=DIRECTION('',(0.,-0.462384693202331,-0.886679420925165));
#1359=DIRECTION('',(0.,-0.89914555315704,-0.437649716369063));
#1360=DIRECTION('',(1.,0.,0.));
#1361=DIRECTION('',(0.,1.,0.));
#1362=DIRECTION('',(0.,-1.,0.));
#1363=DIRECTION('',(0.,-1.,0.));
#1364=DIRECTION('',(-1.,0.,0.));
#1365=DIRECTION('',(0.,-1.,0.));
#1366=DIRECTION('',(0.,-1.,0.));
#1367=DIRECTION('',(0.,-1.,0.));
#1368=DIRECTION('',(-1.,0.,0.));
#1369=DIRECTION('',(0.,0.,1.));
#1370=DIRECTION('',(0.,1.,0.));
#1371=DIRECTION('',(0.,0.,-1.));
#1372=DIRECTION('',(-1.,0.,0.));
#1373=DIRECTION('',(0.,1.,0.));
#1374=DIRECTION('',(-1.,0.,0.));
#1375=DIRECTION('',(0.,0.,1.));
#1376=DIRECTION('',(1.,0.,0.));
#1377=DIRECTION('',(0.,0.,-1.));
#1378=DIRECTION('',(0.,0.,-1.));
#1379=DIRECTION('',(0.,1.,0.));
#1380=DIRECTION('',(0.,1.,0.));
#1381=DIRECTION('',(1.,0.,0.));
#1382=DIRECTION('',(0.,0.,-1.));
#1383=DIRECTION('',(0.,0.,-1.));
#1384=DIRECTION('',(-1.,0.,0.));
#1385=DIRECTION('',(-1.,0.,0.));
#1386=DIRECTION('',(0.,0.,-1.));
#1387=DIRECTION('',(-1.,0.,0.));
#1388=DIRECTION('',(-1.,0.,0.));
#1389=DIRECTION('',(1.,0.,0.));
#1390=DIRECTION('',(0.,0.,-1.));
#1391=DIRECTION('',(0.,1.,0.));
#1392=DIRECTION('',(0.,0.,1.));
#1393=DIRECTION('',(0.,1.,0.));
#1394=DIRECTION('',(0.,0.,1.));
#1395=DIRECTION('',(1.,0.,0.));
#1396=DIRECTION('',(-1.,0.,0.));
#1397=DIRECTION('',(0.,1.,0.));
#1398=DIRECTION('',(1.,0.,0.));
#1399=DIRECTION('',(0.,0.,-1.));
#1400=DIRECTION('',(0.,1.,0.));
#1401=DIRECTION('',(0.,0.,1.));
#1402=DIRECTION('',(1.,0.,0.));
#1403=DIRECTION('',(-1.,0.,0.));
#1404=DIRECTION('',(0.,0.,1.));
#1405=DIRECTION('',(1.,0.,0.));
#1406=DIRECTION('',(-1.,0.,0.));
#1407=DIRECTION('',(-1.,0.,0.));
#1408=DIRECTION('',(0.,0.,1.));
#1409=DIRECTION('',(1.,0.,0.));
#1410=DIRECTION('',(-1.,0.,0.));
#1411=DIRECTION('',(-1.,0.,0.));
#1412=DIRECTION('',(0.,1.,0.));
#1413=DIRECTION('',(0.,0.,1.));
#1414=DIRECTION('',(0.,1.,0.));
#1415=DIRECTION('',(0.,0.,1.));
#1416=DIRECTION('',(0.,0.,1.));
#1417=DIRECTION('',(1.,0.,0.));
#1418=DIRECTION('',(-1.,0.,0.));
#1419=DIRECTION('',(0.,1.,0.));
#1420=DIRECTION('',(0.,1.,0.));
#1421=DIRECTION('',(0.,0.,1.));
#1422=DIRECTION('',(-1.,0.,0.));
#1423=DIRECTION('',(0.,0.,-1.));
#1424=DIRECTION('',(0.,0.,-1.));
#1425=DIRECTION('',(-1.,0.,0.));
#1426=DIRECTION('',(-1.,0.,0.));
#1427=DIRECTION('',(0.,-1.,0.));
#1428=DIRECTION('',(1.,0.,0.));
#1429=DIRECTION('',(0.,1.,0.));
#1430=DIRECTION('',(0.,0.,-1.));
#1431=DIRECTION('',(1.,0.,0.));
#1432=DIRECTION('',(0.,1.,0.));
#1433=DIRECTION('',(0.,-0.89914555315704,-0.437649716369063));
#1434=DIRECTION('',(0.,-0.462384693202331,-0.886679420925165));
#1435=DIRECTION('',(0.,-0.437649716369063,0.89914555315704));
#1436=DIRECTION('',(0.,-0.89914555315704,-0.437649716369063));
#1437=DIRECTION('',(1.,0.,0.));
#1438=DIRECTION('',(0.,-0.886679420925165,0.462384693202331));
#1439=DIRECTION('',(0.,-0.462384693202331,-0.886679420925165));
#1440=DIRECTION('',(-1.,0.,0.));
#1441=DIRECTION('',(0.,0.,1.));
#1442=DIRECTION('',(0.,0.,-1.));
#1443=DIRECTION('',(0.,-1.,0.));
#1444=DIRECTION('',(0.,0.,1.));
#1445=DIRECTION('',(1.,0.,0.));
#1446=DIRECTION('',(0.,-1.,0.));
#1447=DIRECTION('',(-1.,0.,0.));
#1448=DIRECTION('',(-1.,0.,0.));
#1449=DIRECTION('',(0.,0.,1.));
#1450=DIRECTION('',(0.,-1.,0.));
#1451=DIRECTION('',(0.,0.,-1.));
#1452=DIRECTION('',(-1.07164384616328E-16,0.,-1.));
#1453=DIRECTION('',(-1.,0.,1.07164384616328E-16));
#1454=DIRECTION('',(1.,0.,-1.07164384616328E-16));
#1455=DIRECTION('',(0.,1.,0.));
#1456=DIRECTION('',(-1.,0.,0.));
#1457=DIRECTION('',(0.,0.,1.));
#1458=DIRECTION('',(1.,0.,0.));
#1459=DIRECTION('',(1.,0.,0.));
#1460=DIRECTION('',(0.,0.,-1.));
#1461=DIRECTION('',(0.,0.,1.));
#1462=DIRECTION('',(0.,-1.,0.));
#1463=DIRECTION('',(0.,0.,1.));
#1464=DIRECTION('',(0.,-1.,0.));
#1465=DIRECTION('',(0.,0.,1.));
#1466=DIRECTION('',(1.,0.,0.));
#1467=DIRECTION('',(-1.,0.,0.));
#1468=DIRECTION('',(0.,-1.,0.));
#1469=DIRECTION('',(-1.,0.,0.));
#1470=DIRECTION('',(-1.,0.,0.));
#1471=DIRECTION('',(0.,0.,1.));
#1472=DIRECTION('',(0.,0.,-1.));
#1473=DIRECTION('',(0.,-1.,0.));
#1474=DIRECTION('',(0.,0.,-1.));
#1475=DIRECTION('',(-1.07164384616328E-16,0.,-1.));
#1476=DIRECTION('',(-1.,0.,1.07164384616328E-16));
#1477=DIRECTION('',(1.,0.,-1.07164384616328E-16));
#1478=DIRECTION('',(1.,0.,-1.07164384616328E-16));
#1479=DIRECTION('',(0.,1.,0.));
#1480=DIRECTION('',(-1.,0.,0.));
#1481=DIRECTION('',(0.,1.,0.));
#1482=DIRECTION('',(-1.,0.,0.));
#1483=CARTESIAN_POINT('',(0.,0.,0.));
#1484=CARTESIAN_POINT('',(-0.00521434657275677,-0.005,0.0227292028721422));
#1485=CARTESIAN_POINT('',(-0.00521434657275677,0.,0.0227292028721422));
#1486=CARTESIAN_POINT('',(-0.00521434657275677,0.,0.0374711389541626));
#1487=CARTESIAN_POINT('',(-0.00521434657275677,0.,0.00748726679012179));
#1488=CARTESIAN_POINT('',(-0.00521434657275677,0.0275,0.0374711389541626));
#1489=CARTESIAN_POINT('',(-0.00521434657275677,-0.0125,0.0374711389541626));
#1490=CARTESIAN_POINT('',(-0.00521434657275677,-0.0125,0.0029711389541626));
#1491=CARTESIAN_POINT('',(-0.00521434657275677,-0.0125,0.00383672004466656));
#1492=CARTESIAN_POINT('',(-0.00521434657275677,-0.0217520902582482,-0.00066663835278757));
#1493=CARTESIAN_POINT('',(-0.00521434657275677,-0.005,0.00748726679012179));
#1494=CARTESIAN_POINT('',(-0.00521434657275677,-0.005,0.00748726679012179));
#1495=CARTESIAN_POINT('',(0.124785653427243,-0.0125,0.0029711389541626));
#1496=CARTESIAN_POINT('',(0.0595356534272432,-0.0125,0.0374711389541626));
#1497=CARTESIAN_POINT('',(0.124285653427243,-0.0125,0.0374711389541626));
#1498=CARTESIAN_POINT('',(0.124285653427243,-0.0125,0.00297113895416259));
#1499=CARTESIAN_POINT('',(0.124285653427243,-0.0125,-0.0315288610458374));
#1500=CARTESIAN_POINT('',(0.0595356534272432,-0.0125,-0.0315288610458374));
#1501=CARTESIAN_POINT('',(-0.00521434657275677,-0.0125,-0.0315288610458374));
#1502=CARTESIAN_POINT('',(-0.00521434657275677,-0.0125,0.0029711389541626));
#1503=CARTESIAN_POINT('',(-0.00521434657275677,-0.015,0.0029711389541626));
#1504=CARTESIAN_POINT('',(-0.00521434657275677,-0.0217520902582482,-0.00066663835278757));
#1505=CARTESIAN_POINT('',(-0.00521434657275677,-0.014,0.00310661069557552));
#1506=CARTESIAN_POINT('',(-0.00521434657275677,0.0275,-0.0315288610458374));
#1507=CARTESIAN_POINT('',(-0.00521434657275677,0.0275,-0.0315288610458374));
#1508=CARTESIAN_POINT('',(-0.00521434657275677,0.0275,0.0029711389541626));
#1509=CARTESIAN_POINT('',(-0.00521434657275677,0.0275,-0.0320288610458374));
#1510=CARTESIAN_POINT('',(-0.00521434657275677,-0.01325,-0.0320288610458374));
#1511=CARTESIAN_POINT('',(-0.00521434657275677,-0.014,-0.0320288610458374));
#1512=CARTESIAN_POINT('',(-0.00521434657275677,-0.014,0.0029711389541626));
#1513=CARTESIAN_POINT('',(-0.0302143465727567,-0.0414891208368047,-0.00588835206805373));
#1514=CARTESIAN_POINT('',(-0.00621434657275677,-0.0414891208368047,-0.00588835206805373));
#1515=CARTESIAN_POINT('',(-0.00621434657275677,-0.03,0.0312379623420708));
#1516=CARTESIAN_POINT('',(-0.00621434657275677,-0.005,0.00748726679012179));
#1517=CARTESIAN_POINT('',(-0.0302143465727567,-0.03,0.0312379623420708));
#1518=CARTESIAN_POINT('',(-0.0162143465727567,-0.03,0.0312379623420708));
#1519=CARTESIAN_POINT('',(-0.0162143465727567,-0.0414891208368047,-0.00588835206805373));
#1520=CARTESIAN_POINT('',(-0.0162143465727567,-0.0131131293889177,0.0206666141083803));
#1521=CARTESIAN_POINT('',(-0.0302143465727567,-0.0131131293889177,0.0206666141083803));
#1522=CARTESIAN_POINT('',(-0.0157750892937183,-0.0131131293889177,0.0206666141083803));
#1523=CARTESIAN_POINT('',(-0.0157750892937183,-0.0414891208368047,-0.00588835206805373));
#1524=CARTESIAN_POINT('',(-0.0157750892937183,-0.00856898275185008,0.0147666141083804));
#1525=CARTESIAN_POINT('',(-0.0302143465727567,-0.00856898275185008,0.0147666141083804));
#1526=CARTESIAN_POINT('',(-0.0162143465727567,-0.00856898275185008,0.0147666141083804));
#1527=CARTESIAN_POINT('',(-0.0162143465727567,-0.0414891208368047,-0.00588835206805373));
#1528=CARTESIAN_POINT('',(-0.0162143465727567,-0.005,0.00748726679012179));
#1529=CARTESIAN_POINT('',(-0.0302143465727567,-0.005,0.00748726679012179));
#1530=CARTESIAN_POINT('',(-0.0297750892937183,-0.025,0.0177166141083803));
#1531=CARTESIAN_POINT('',(-0.0297750892937183,-0.025,0.0206666141083803));
#1532=CARTESIAN_POINT('',(-0.0297750892937183,-0.00661018370748286,0.0206666141083803));
#1533=CARTESIAN_POINT('',(-0.0297750892937183,0.,0.0206666141083803));
#1534=CARTESIAN_POINT('',(-0.0297750892937183,-0.00661018370748286,0.0177166141083803));
#1535=CARTESIAN_POINT('',(-0.0297750892937183,-0.00661018370748286,0.0147666141083804));
#1536=CARTESIAN_POINT('',(-0.0297750892937183,-0.025,0.0147666141083804));
#1537=CARTESIAN_POINT('',(-0.0297750892937183,0.,0.0147666141083804));
#1538=CARTESIAN_POINT('',(-0.0297750892937183,0.,0.0177166141083803));
#1539=CARTESIAN_POINT('',(-0.0282750892937183,-0.025,0.0206666141083803));
#1540=CARTESIAN_POINT('',(-0.0292440577745437,-0.015,0.0206666141083803));
#1541=CARTESIAN_POINT('',(-0.0292440577745437,-0.005,0.0206666141083803));
#1542=CARTESIAN_POINT('',(-0.0292440577745437,-0.00661018370748286,0.0206666141083803));
#1543=CARTESIAN_POINT('',(-0.0147750892937183,-0.00661018370748286,0.0206666141083803));
#1544=CARTESIAN_POINT('',(-0.0282750892937183,0.,0.0206666141083803));
#1545=CARTESIAN_POINT('',(-0.0267750892937184,0.,0.0206666141083803));
#1546=CARTESIAN_POINT('',(-0.0267750892937184,-0.025,0.0206666141083803));
#1547=CARTESIAN_POINT('',(-0.0267750892937184,-0.005,0.0206666141083803));
#1548=CARTESIAN_POINT('',(-0.0227292021736502,-0.005,0.0206666141083803));
#1549=CARTESIAN_POINT('',(-0.0282750892937183,-0.025,0.0147666141083804));
#1550=CARTESIAN_POINT('',(-0.0147750892937183,-0.00661018370748286,0.0147666141083804));
#1551=CARTESIAN_POINT('',(-0.0292440577745437,-0.00661018370748286,0.0147666141083804));
#1552=CARTESIAN_POINT('',(-0.0292440577745437,-0.015,0.0147666141083804));
#1553=CARTESIAN_POINT('',(-0.0292440577745437,-0.005,0.0147666141083804));
#1554=CARTESIAN_POINT('',(-0.0227292021736502,-0.005,0.0147666141083804));
#1555=CARTESIAN_POINT('',(-0.0267750892937184,-0.005,0.0147666141083804));
#1556=CARTESIAN_POINT('',(-0.0267750892937184,-0.025,0.0147666141083804));
#1557=CARTESIAN_POINT('',(-0.0267750892937184,0.,0.0147666141083804));
#1558=CARTESIAN_POINT('',(-0.0282750892937183,0.,0.0147666141083804));
#1559=CARTESIAN_POINT('',(-0.0157750892937183,-0.025,0.0177166141083803));
#1560=CARTESIAN_POINT('',(-0.0157750892937183,-0.00844717833143015,0.0177166141083803));
#1561=CARTESIAN_POINT('',(-0.0157750892937183,-0.00844717833143015,0.0147666141083804));
#1562=CARTESIAN_POINT('',(-0.0157750892937183,-0.00844717833143015,0.0206666141083803));
#1563=CARTESIAN_POINT('',(-0.0157750892937183,-0.025,0.0147666141083804));
#1564=CARTESIAN_POINT('',(-0.0157750892937183,-0.025,0.0206666141083803));
#1565=CARTESIAN_POINT('',(-0.0172750892937183,-0.025,0.0206666141083803));
#1566=CARTESIAN_POINT('',(-0.0147750892937183,-0.00844717833143015,0.0206666141083803));
#1567=CARTESIAN_POINT('',(-0.0162143465727567,-0.00844717833143015,0.0206666141083803));
#1568=CARTESIAN_POINT('',(-0.0162143465727567,-0.0175,0.0206666141083803));
#1569=CARTESIAN_POINT('',(-0.0172750892937183,-0.025,0.0147666141083804));
#1570=CARTESIAN_POINT('',(-0.0147750892937183,-0.00844717833143015,0.0147666141083804));
#1571=CARTESIAN_POINT('',(-0.0162143465727567,-0.00844717833143015,0.0147666141083804));
#1572=CARTESIAN_POINT('',(-0.0162143465727567,-0.0175,0.0147666141083804));
#1573=CARTESIAN_POINT('',(-0.0227292021736502,-0.005,0.0227292028721422));
#1574=CARTESIAN_POINT('',(-0.0227292021736502,-0.005,0.0206666141083803));
#1575=CARTESIAN_POINT('',(-0.0162143465727567,-0.005,0.0206666141083803));
#1576=CARTESIAN_POINT('',(-0.0187750892937184,-0.005,0.0206666141083803));
#1577=CARTESIAN_POINT('',(-0.0162143465727567,-0.005,0.0227292028721422));
#1578=CARTESIAN_POINT('',(-0.0162143465727567,-0.005,0.0312379623420708));
#1579=CARTESIAN_POINT('',(-0.0227292021736502,-0.005,0.0312379623420708));
#1580=CARTESIAN_POINT('',(-0.0292440577745437,-0.005,0.0312379623420708));
#1581=CARTESIAN_POINT('',(-0.0292440577745437,-0.005,0.0227292028721422));
#1582=CARTESIAN_POINT('',(-0.0267750892937184,-0.005,0.0227292028721422));
#1583=CARTESIAN_POINT('',(-0.0292440577745437,-0.005,0.0227292028721422));
#1584=CARTESIAN_POINT('',(-0.0292440577745437,-0.005,0.00748726679012179));
#1585=CARTESIAN_POINT('',(-0.0227292021736502,-0.005,0.00748726679012179));
#1586=CARTESIAN_POINT('',(-0.0262143465727567,-0.005,0.00748726679012179));
#1587=CARTESIAN_POINT('',(-0.0262143465727567,-0.005,0.0227292028721422));
#1588=CARTESIAN_POINT('',(-0.0262143465727567,-0.005,0.0234872667901218));
#1589=CARTESIAN_POINT('',(-0.0227292021736502,-0.005,0.0234872667901218));
#1590=CARTESIAN_POINT('',(-0.0192143465727567,-0.005,0.0234872667901218));
#1591=CARTESIAN_POINT('',(-0.0192143465727567,-0.005,0.0227292028721422));
#1592=CARTESIAN_POINT('',(-0.0192143465727567,-0.005,0.00748726679012179));
#1593=CARTESIAN_POINT('',(-0.0227292021736502,-0.005,0.00748726679012179));
#1594=CARTESIAN_POINT('',(-0.0162143465727567,-0.005,0.0227292028721422));
#1595=CARTESIAN_POINT('',(-0.0162143465727567,-0.005,0.0147666141083804));
#1596=CARTESIAN_POINT('',(-0.0227292021736502,-0.005,0.0147666141083804));
#1597=CARTESIAN_POINT('',(-0.0187750892937184,-0.005,0.0147666141083804));
#1598=CARTESIAN_POINT('',(-0.0187750892937184,-0.005,0.0227292028721422));
#1599=CARTESIAN_POINT('',(-0.0162143465727567,-0.0175,0.0193626145660962));
#1600=CARTESIAN_POINT('',(-0.0162143465727567,-0.0175,0.0147666141083804));
#1601=CARTESIAN_POINT('',(-0.0162143465727567,-0.00661018370748286,0.0147666141083804));
#1602=CARTESIAN_POINT('',(-0.0162143465727567,-0.0175,0.0147666141083804));
#1603=CARTESIAN_POINT('',(-0.0292440577745437,-0.042380627369424,-0.00682675251475785));
#1604=CARTESIAN_POINT('',(-0.0292440577745437,-0.0132890952179902,0.0206666141083803));
#1605=CARTESIAN_POINT('',(-0.0292440577745437,-0.0132890952179902,0.0206666141083803));
#1606=CARTESIAN_POINT('',(-0.0297750892937183,-0.0132890952179902,0.0206666141083803));
#1607=CARTESIAN_POINT('',(-0.0292440577745437,-0.042380627369424,-0.00682675251475785));
#1608=CARTESIAN_POINT('',(-0.0292440577745437,-0.03,0.0312379623420708));
#1609=CARTESIAN_POINT('',(-0.0227292021736502,-0.03,0.0312379623420708));
#1610=CARTESIAN_POINT('',(-0.0402440577745438,-0.03,0.0312379623420708));
#1611=CARTESIAN_POINT('',(-0.0402440577745438,-0.042380627369424,-0.00682675251475785));
#1612=CARTESIAN_POINT('',(-0.0402440577745438,-0.005,0.00748726679012179));
#1613=CARTESIAN_POINT('',(-0.0227292021736502,-0.005,0.00748726679012179));
#1614=CARTESIAN_POINT('',(-0.0292440577745437,-0.042380627369424,-0.00682675251475785));
#1615=CARTESIAN_POINT('',(-0.0292440577745437,-0.00867708202073792,0.0147666141083804));
#1616=CARTESIAN_POINT('',(-0.0292440577745437,-0.00867708202073792,0.0147666141083804));
#1617=CARTESIAN_POINT('',(-0.0297750892937183,-0.00867708202073792,0.0147666141083804));
#1618=CARTESIAN_POINT('',(-0.0297750892937183,-0.042380627369424,-0.00682675251475785));
#1619=CARTESIAN_POINT('',(-0.0292440577745437,-0.015,0.0227292028721422));
#1620=CARTESIAN_POINT('',(-0.0292440577745437,-0.03,0.0312379623420708));
#1621=CARTESIAN_POINT('',(-0.0292440577745437,-0.015,0.0206666141083803));
#1622=CARTESIAN_POINT('',(-0.0292440577745437,-0.00844717833143015,0.0206666141083803));
#1623=CARTESIAN_POINT('',(-0.0292440577745437,-0.015,0.0206666141083803));
#1624=CARTESIAN_POINT('',(-0.0227292021736502,-0.005,0.00748726679012179));
#1625=CARTESIAN_POINT('',(-0.0262143465727567,-0.025,0.00748726679012179));
#1626=CARTESIAN_POINT('',(-0.0262143465727567,0.,0.00748726679012179));
#1627=CARTESIAN_POINT('',(-0.0402440577745438,-0.005,0.00748726679012179));
#1628=CARTESIAN_POINT('',(-0.0402440577745438,0.,0.00748726679012179));
#1629=CARTESIAN_POINT('',(-0.0227292021736502,0.,0.00748726679012179));
#1630=CARTESIAN_POINT('',(-0.0227292021736502,0.,0.0227292028721422));
#1631=CARTESIAN_POINT('',(-0.0157750892937183,0.,0.0177166141083803));
#1632=CARTESIAN_POINT('',(-0.0157750892937183,0.,0.0206666141083803));
#1633=CARTESIAN_POINT('',(-0.0157750892937183,0.,0.0147666141083804));
#1634=CARTESIAN_POINT('',(-0.0172750892937183,0.,0.0206666141083803));
#1635=CARTESIAN_POINT('',(-0.0187750892937184,0.,0.0206666141083803));
#1636=CARTESIAN_POINT('',(-0.0187750892937184,0.,0.0177166141083803));
#1637=CARTESIAN_POINT('',(-0.0187750892937184,0.,0.0147666141083804));
#1638=CARTESIAN_POINT('',(-0.0172750892937183,0.,0.0147666141083804));
#1639=CARTESIAN_POINT('',(-0.0267750892937184,0.,0.0177166141083803));
#1640=CARTESIAN_POINT('',(-0.0262143465727567,0.,0.0154872667901218));
#1641=CARTESIAN_POINT('',(-0.0262143465727567,0.,0.0234872667901218));
#1642=CARTESIAN_POINT('',(-0.0402440577745438,0.,0.0227292028721422));
#1643=CARTESIAN_POINT('',(-0.0402440577745438,0.,0.0379711389541626));
#1644=CARTESIAN_POINT('',(-0.0227292021736502,0.,0.0379711389541626));
#1645=CARTESIAN_POINT('',(-0.00521434657275677,0.,0.0379711389541626));
#1646=CARTESIAN_POINT('',(-0.00521434657275677,0.,0.0227292028721422));
#1647=CARTESIAN_POINT('',(-0.0227292021736502,0.,0.00748726679012179));
#1648=CARTESIAN_POINT('',(-0.0192143465727567,0.,0.00748726679012179));
#1649=CARTESIAN_POINT('',(-0.0192143465727567,0.,0.0154872667901218));
#1650=CARTESIAN_POINT('',(-0.0192143465727567,0.,0.0234872667901218));
#1651=CARTESIAN_POINT('',(-0.0227143465727567,0.,0.0234872667901218));
#1652=CARTESIAN_POINT('',(-0.0227292021736502,-0.005,0.00748726679012179));
#1653=CARTESIAN_POINT('',(-0.0192143465727567,-0.025,0.00748726679012179));
#1654=CARTESIAN_POINT('',(-0.00621434657275677,-0.005,0.00748726679012179));
#1655=CARTESIAN_POINT('',(-0.0227292021736502,-0.03,0.0227292028721422));
#1656=CARTESIAN_POINT('',(-0.0227292021736502,-0.03,0.0312379623420708));
#1657=CARTESIAN_POINT('',(-0.00621434657275677,-0.03,0.0193626145660962));
#1658=CARTESIAN_POINT('',(-0.00621434657275677,-0.03,0.00748726679012179));
#1659=CARTESIAN_POINT('',(-0.00621434657275677,-0.03,0.00748726679012179));
#1660=CARTESIAN_POINT('',(-0.00521434657275677,-0.03,0.00748726679012179));
#1661=CARTESIAN_POINT('',(-0.00521434657275677,-0.03,0.0193626145660962));
#1662=CARTESIAN_POINT('',(-0.00521434657275677,-0.03,0.0312379623420708));
#1663=CARTESIAN_POINT('',(0.124785653427243,-0.03,0.0312379623420708));
#1664=CARTESIAN_POINT('',(0.124785653427243,-0.03,0.0312379623420708));
#1665=CARTESIAN_POINT('',(0.124785653427243,-0.03,0.0227292028721422));
#1666=CARTESIAN_POINT('',(0.124785653427243,-0.03,0.0379711389541626));
#1667=CARTESIAN_POINT('',(-0.0227292021736502,-0.03,0.0379711389541626));
#1668=CARTESIAN_POINT('',(-0.0402440577745438,-0.03,0.0379711389541626));
#1669=CARTESIAN_POINT('',(-0.0402440577745438,-0.03,0.0227292028721422));
#1670=CARTESIAN_POINT('',(-0.0227292021736502,-0.03,0.0312379623420708));
#1671=CARTESIAN_POINT('',(-0.0162143465727567,-0.03,0.0312379623420708));
#1672=CARTESIAN_POINT('',(-0.0227292021736502,-0.005,0.0379711389541626));
#1673=CARTESIAN_POINT('',(-0.00521434657275677,0.0275,0.0379711389541626));
#1674=CARTESIAN_POINT('',(-0.00521434657275677,0.0275,0.0379711389541626));
#1675=CARTESIAN_POINT('',(-0.0402440577745438,-0.005,0.0379711389541626));
#1676=CARTESIAN_POINT('',(0.124785653427243,-0.005,0.0379711389541626));
#1677=CARTESIAN_POINT('',(0.124785653427243,0.0275,0.0379711389541626));
#1678=CARTESIAN_POINT('',(0.124785653427243,0.0275,0.0379711389541626));
#1679=CARTESIAN_POINT('',(-0.0402440577745438,-0.005,0.0227292028721422));
#1680=CARTESIAN_POINT('',(-0.00521434657275677,-0.005,0.0227292028721422));
#1681=CARTESIAN_POINT('',(-0.00521434657275677,-0.014,0.0029711389541626));
#1682=CARTESIAN_POINT('',(-0.00521434657275677,-0.014,0.0312379623420708));
#1683=CARTESIAN_POINT('',(-0.00521434657275677,-0.03,0.0312379623420708));
#1684=CARTESIAN_POINT('',(-0.00521434657275677,-0.0342520902582482,-0.000666638352787546));
#1685=CARTESIAN_POINT('',(-0.00521434657275677,-0.0385041805164964,-0.00882054349569693));
#1686=CARTESIAN_POINT('',(-0.00521434657275677,-0.0217520902582482,-0.00066663835278757));
#1687=CARTESIAN_POINT('',(-0.0162143465727567,-0.0175,0.0193626145660962));
#1688=CARTESIAN_POINT('',(-0.0162143465727567,-0.0175,0.0206666141083803));
#1689=CARTESIAN_POINT('',(-0.0162143465727567,-0.00661018370748286,0.0206666141083803));
#1690=CARTESIAN_POINT('',(-0.0162143465727567,-0.0175,0.0206666141083803));
#1691=CARTESIAN_POINT('',(-0.0292440577745437,-0.015,0.0227292028721422));
#1692=CARTESIAN_POINT('',(-0.0292440577745437,-0.015,0.0147666141083804));
#1693=CARTESIAN_POINT('',(-0.0292440577745437,-0.00844717833143015,0.0147666141083804));
#1694=CARTESIAN_POINT('',(-0.0292440577745437,-0.015,0.0147666141083804));
#1695=CARTESIAN_POINT('',(-0.0192143465727567,-0.025,0.0154872667901218));
#1696=CARTESIAN_POINT('',(-0.0192143465727567,-0.025,0.0234872667901218));
#1697=CARTESIAN_POINT('',(-0.0227143465727567,-0.025,0.0234872667901218));
#1698=CARTESIAN_POINT('',(-0.0262143465727567,-0.025,0.0234872667901218));
#1699=CARTESIAN_POINT('',(-0.0262143465727567,-0.025,0.0154872667901218));
#1700=CARTESIAN_POINT('',(-0.0297750892937183,-0.025,0.0177166141083803));
#1701=CARTESIAN_POINT('',(-0.0297750892937183,-0.00844717833143015,0.0177166141083803));
#1702=CARTESIAN_POINT('',(-0.0297750892937183,-0.00844717833143015,0.0206666141083803));
#1703=CARTESIAN_POINT('',(-0.0297750892937183,-0.00844717833143015,0.0147666141083804));
#1704=CARTESIAN_POINT('',(-0.0297750892937183,-0.025,0.0206666141083803));
#1705=CARTESIAN_POINT('',(-0.0297750892937183,-0.025,0.0147666141083804));
#1706=CARTESIAN_POINT('',(-0.0267750892937184,-0.025,0.0177166141083803));
#1707=CARTESIAN_POINT('',(-0.0282750892937183,-0.025,0.0206666141083803));
#1708=CARTESIAN_POINT('',(-0.0147750892937183,-0.00844717833143015,0.0206666141083803));
#1709=CARTESIAN_POINT('',(-0.0282750892937183,-0.025,0.0147666141083804));
#1710=CARTESIAN_POINT('',(-0.0147750892937183,-0.00844717833143015,0.0147666141083804));
#1711=CARTESIAN_POINT('',(-0.0157750892937183,-0.025,0.0177166141083803));
#1712=CARTESIAN_POINT('',(-0.0157750892937183,-0.025,0.0147666141083804));
#1713=CARTESIAN_POINT('',(-0.0157750892937183,-0.00661018370748286,0.0147666141083804));
#1714=CARTESIAN_POINT('',(-0.0157750892937183,-0.00661018370748286,0.0177166141083803));
#1715=CARTESIAN_POINT('',(-0.0157750892937183,-0.00661018370748286,0.0206666141083803));
#1716=CARTESIAN_POINT('',(-0.0157750892937183,-0.025,0.0206666141083803));
#1717=CARTESIAN_POINT('',(-0.0172750892937183,-0.025,0.0206666141083803));
#1718=CARTESIAN_POINT('',(-0.0147750892937183,-0.00661018370748286,0.0206666141083803));
#1719=CARTESIAN_POINT('',(-0.0187750892937184,-0.025,0.0206666141083803));
#1720=CARTESIAN_POINT('',(-0.0187750892937184,-0.025,0.0177166141083803));
#1721=CARTESIAN_POINT('',(-0.0187750892937184,-0.025,0.0147666141083804));
#1722=CARTESIAN_POINT('',(-0.0172750892937183,-0.025,0.0147666141083804));
#1723=CARTESIAN_POINT('',(-0.0147750892937183,-0.00661018370748286,0.0147666141083804));
#1724=CARTESIAN_POINT('',(-0.0147750892937183,-0.025,0.0206666141083803));
#1725=CARTESIAN_POINT('',(-0.0147750892937183,-0.00661018370748286,0.0206666141083803));
#1726=CARTESIAN_POINT('',(-0.0147750892937183,-0.00844717833143015,0.0206666141083803));
#1727=CARTESIAN_POINT('',(-0.0147750892937183,-0.025,0.0147666141083804));
#1728=CARTESIAN_POINT('',(-0.0147750892937183,-0.00661018370748286,0.0147666141083804));
#1729=CARTESIAN_POINT('',(-0.0147750892937183,-0.00844717833143015,0.0147666141083804));
#1730=CARTESIAN_POINT('',(-0.0147750892937183,-0.00844717833143015,0.0177166141083803));
#1731=CARTESIAN_POINT('',(-0.0147750892937183,-0.00661018370748286,0.0177166141083803));
#1732=CARTESIAN_POINT('',(0.124785653427243,-0.03,0.0312379623420708));
#1733=CARTESIAN_POINT('',(0.124785653427243,-0.014,0.0312379623420708));
#1734=CARTESIAN_POINT('',(0.124785653427243,-0.014,0.0312379623420708));
#1735=CARTESIAN_POINT('',(0.124785653427243,-0.03,0.0312379623420708));
#1736=CARTESIAN_POINT('',(0.124785653427243,-0.014,0.0029711389541626));
#1737=CARTESIAN_POINT('',(0.124785653427243,-0.014,-0.0320288610458374));
#1738=CARTESIAN_POINT('',(0.124785653427243,-0.014,-0.0320288610458374));
#1739=CARTESIAN_POINT('',(0.124785653427243,-0.014,0.0029711389541626));
#1740=CARTESIAN_POINT('',(0.124785653427243,-0.01325,-0.0320288610458374));
#1741=CARTESIAN_POINT('',(0.124785653427243,0.0275,-0.0320288610458374));
#1742=CARTESIAN_POINT('',(0.124785653427243,0.0275,-0.0320288610458374));
#1743=CARTESIAN_POINT('',(0.124785653427243,-0.01325,-0.0320288610458374));
#1744=CARTESIAN_POINT('',(0.124785653427243,-0.015,0.0029711389541626));
#1745=CARTESIAN_POINT('',(0.124785653427243,0.0275,0.0029711389541626));
#1746=CARTESIAN_POINT('',(-0.00621434657275677,-0.015,0.0227292028721422));
#1747=CARTESIAN_POINT('',(-0.00621434657275677,-0.0217520902582482,-0.00066663835278757));
#1748=CARTESIAN_POINT('',(-0.00621434657275677,-0.0385041805164964,-0.00882054349569693));
#1749=CARTESIAN_POINT('',(-0.00621434657275677,-0.0342520902582482,-0.000666638352787546));
#1750=CARTESIAN_POINT('',(-0.00621434657275677,-0.0217520902582482,-0.00066663835278757));
#1751=CARTESIAN_POINT('',(-0.00621434657275677,-0.0385041805164964,-0.00882054349569693));
#1752=CARTESIAN_POINT('',(-0.00621434657275677,-0.0342520902582482,-0.000666638352787546));
#1753=CARTESIAN_POINT('',(-0.00521434657275677,0.0275,0.0029711389541626));
#1754=CARTESIAN_POINT('',(-0.00521434657275677,0.0275,0.0029711389541626));
#1755=CARTESIAN_POINT('',(-0.00521434657275677,0.0275,0.0374711389541626));
#1756=CARTESIAN_POINT('',(-0.00521434657275677,0.0275,0.0374711389541626));
#1757=CARTESIAN_POINT('',(0.0595356534272432,0.0275,-0.0315288610458374));
#1758=CARTESIAN_POINT('',(0.124285653427243,0.0275,-0.0315288610458374));
#1759=CARTESIAN_POINT('',(0.124285653427243,0.0275,-0.0315288610458374));
#1760=CARTESIAN_POINT('',(0.0595356534272432,0.0275,-0.0315288610458374));
#1761=CARTESIAN_POINT('',(0.124285653427243,0.0275,0.00297113895416259));
#1762=CARTESIAN_POINT('',(0.124285653427243,0.0275,0.0374711389541626));
#1763=CARTESIAN_POINT('',(0.124285653427243,0.0275,0.0374711389541626));
#1764=CARTESIAN_POINT('',(0.124285653427243,0.0275,0.00297113895416259));
#1765=CARTESIAN_POINT('',(0.0595356534272432,0.0275,0.0374711389541626));
#1766=CARTESIAN_POINT('',(0.0595356534272432,0.0275,0.0374711389541626));
#1767=CARTESIAN_POINT('',(0.0597856534272432,0.0275,0.0029711389541626));
#1768=CARTESIAN_POINT('',(0.,0.,0.));
#1769=CARTESIAN_POINT('',(0.124285653427243,0.0285,0.00272113895416258));
#1770=CARTESIAN_POINT('',(0.124285653427243,0.0275,0.00272113895416258));
#1771=CARTESIAN_POINT('',(0.124285653427243,0.0275,-0.0320288610458374));
#1772=CARTESIAN_POINT('',(0.124285653427243,0.0275,0.0374711389541626));
#1773=CARTESIAN_POINT('',(0.124285653427243,0.0285,-0.0320288610458374));
#1774=CARTESIAN_POINT('',(0.124285653427243,0.0285,-0.0320288610458374));
#1775=CARTESIAN_POINT('',(0.124285653427243,0.0285,0.00272113895416258));
#1776=CARTESIAN_POINT('',(0.124285653427243,0.0285,0.0374711389541626));
#1777=CARTESIAN_POINT('',(0.124285653427243,0.0285,0.0374711389541626));
#1778=CARTESIAN_POINT('',(0.124785653427243,0.0285,-0.0320288610458374));
#1779=CARTESIAN_POINT('',(0.124785653427243,0.0275,-0.0320288610458374));
#1780=CARTESIAN_POINT('',(-0.00521434657275677,0.0275,-0.0320288610458374));
#1781=CARTESIAN_POINT('',(-0.00521434657275677,0.0285,-0.0320288610458374));
#1782=CARTESIAN_POINT('',(-0.00521434657275677,0.0285,-0.0320288610458374));
#1783=CARTESIAN_POINT('',(0.124785653427243,0.0285,-0.0320288610458374));
#1784=CARTESIAN_POINT('',(-0.00521434657275677,0.0285,0.0029711389541626));
#1785=CARTESIAN_POINT('',(-0.00521434657275677,0.0275,0.0029711389541626));
#1786=CARTESIAN_POINT('',(-0.00521434657275677,0.0275,0.0374711389541626));
#1787=CARTESIAN_POINT('',(-0.00521434657275677,0.0285,0.0374711389541626));
#1788=CARTESIAN_POINT('',(-0.00521434657275677,0.0285,0.0374711389541626));
#1789=CARTESIAN_POINT('',(-0.00521434657275677,0.0285,0.0029711389541626));
#1790=CARTESIAN_POINT('',(0.0595356534272432,0.0285,0.0374711389541626));
#1791=CARTESIAN_POINT('',(0.0595356534272432,0.0275,0.0374711389541626));
#1792=CARTESIAN_POINT('',(0.0595356534272432,0.0285,0.0374711389541626));
#1793=CARTESIAN_POINT('',(0.0597856534272432,0.0285,0.0029711389541626));
#1794=CARTESIAN_POINT('',(0.0597856534272432,0.0275,0.0029711389541626));
#1795=MECHANICAL_DESIGN_GEOMETRIC_PRESENTATION_REPRESENTATION('',(#1113),
#1797);
#1796=MECHANICAL_DESIGN_GEOMETRIC_PRESENTATION_REPRESENTATION('',(#1114),
#1798);
#1797=(
GEOMETRIC_REPRESENTATION_CONTEXT(3)
GLOBAL_UNCERTAINTY_ASSIGNED_CONTEXT((#1799))
GLOBAL_UNIT_ASSIGNED_CONTEXT((#1805,#1803,#1801))
REPRESENTATION_CONTEXT('Part 1','TOP_LEVEL_ASSEMBLY_PART')
);
#1798=(
GEOMETRIC_REPRESENTATION_CONTEXT(3)
GLOBAL_UNCERTAINTY_ASSIGNED_CONTEXT((#1800))
GLOBAL_UNIT_ASSIGNED_CONTEXT((#1806,#1804,#1802))
REPRESENTATION_CONTEXT('Part 2','TOP_LEVEL_ASSEMBLY_PART')
);
#1799=UNCERTAINTY_MEASURE_WITH_UNIT(LENGTH_MEASURE(1.E-8),#1805,
'DISTANCE_ACCURACY_VALUE','Maximum Tolerance applied to model');
#1800=UNCERTAINTY_MEASURE_WITH_UNIT(LENGTH_MEASURE(1.E-8),#1806,
'DISTANCE_ACCURACY_VALUE','Maximum Tolerance applied to model');
#1801=(
NAMED_UNIT(*)
SI_UNIT($,.STERADIAN.)
SOLID_ANGLE_UNIT()
);
#1802=(
NAMED_UNIT(*)
SI_UNIT($,.STERADIAN.)
SOLID_ANGLE_UNIT()
);
#1803=(
NAMED_UNIT(*)
PLANE_ANGLE_UNIT()
SI_UNIT($,.RADIAN.)
);
#1804=(
NAMED_UNIT(*)
PLANE_ANGLE_UNIT()
SI_UNIT($,.RADIAN.)
);
#1805=(
LENGTH_UNIT()
NAMED_UNIT(*)
SI_UNIT($,.METRE.)
);
#1806=(
LENGTH_UNIT()
NAMED_UNIT(*)
SI_UNIT($,.METRE.)
);
#1807=PRODUCT_DEFINITION_SHAPE('','',#1809);
#1808=PRODUCT_DEFINITION_SHAPE('','',#1810);
#1809=PRODUCT_DEFINITION('','',#1813,#1811);
#1810=PRODUCT_DEFINITION('','',#1814,#1812);
#1811=PRODUCT_DEFINITION_CONTEXT('',#1825,'design');
#1812=PRODUCT_DEFINITION_CONTEXT('',#1826,'design');
#1813=PRODUCT_DEFINITION_FORMATION_WITH_SPECIFIED_SOURCE('','',#1817,
 .NOT_KNOWN.);
#1814=PRODUCT_DEFINITION_FORMATION_WITH_SPECIFIED_SOURCE('','',#1818,
 .NOT_KNOWN.);
#1815=PRODUCT_RELATED_PRODUCT_CATEGORY('','',(#1817));
#1816=PRODUCT_RELATED_PRODUCT_CATEGORY('','',(#1818));
#1817=PRODUCT('Part 1','Part 1','Part 1',(#1821));
#1818=PRODUCT('Part 2','Part 2','Part 2',(#1822));
#1819=PRODUCT_CATEGORY('','');
#1820=PRODUCT_CATEGORY('','');
#1821=PRODUCT_CONTEXT('',#1825,'mechanical');
#1822=PRODUCT_CONTEXT('',#1826,'mechanical');
#1823=APPLICATION_PROTOCOL_DEFINITION('international standard',
'ap242_managed_model_based_3d_engineering',2020,#1825);
#1824=APPLICATION_PROTOCOL_DEFINITION('international standard',
'ap242_managed_model_based_3d_engineering',2020,#1826);
#1825=APPLICATION_CONTEXT('managed model based 3d engineering');
#1826=APPLICATION_CONTEXT('managed model based 3d engineering');
ENDSEC;
END-ISO-10303-21;
