ISO-10303-21;
HEADER;
/* Generated by software containing ST-Developer
 * from STEP Tools, Inc. (www.steptools.com) 
 */
/* OPTION: using custom renumber hook */

FILE_DESCRIPTION(
/* description */ ('STEP AP242 Edition 2',
'CAx-IF Rec.Pracs.---Representation and Presentation of Product Manufa
cturing Information (PMI)---4.0---2014-10-13',
'CAx-IF Rec.Pracs.---3D Tessellated Geometry---0.4---2014-09-14','2;1',
'CAx-IF Rec.Pracs.---User Defined Attributes---1.5---2016-08-15'),
/* implementation_level */ '2;1');

FILE_NAME(
/* name */ 'remote',
/* time_stamp */ '2026-05-09T17:07:11Z',
/* author */ (''),
/* organization */ (''),
/* preprocessor_version */ 'ST-DEVELOPER v20',
/* originating_system */ 'ONSHAPE BY PTC INC, 1.214',
/* authorisation */ '  ');

FILE_SCHEMA (('AP242_MANAGED_MODEL_BASED_3D_ENGINEERING_MIM_LF { 1 0 10303 442 3 1 4 }'));
ENDSEC;

DATA;
#10=SHAPE_REPRESENTATION_RELATIONSHIP('','',#498,#12);
#11=SHAPE_REPRESENTATION_RELATIONSHIP('','',#499,#13);
#12=ADVANCED_BREP_SHAPE_REPRESENTATION('',(#494),#816);
#13=ADVANCED_BREP_SHAPE_REPRESENTATION('',(#495),#817);
#14=CYLINDRICAL_SURFACE('',#517,0.0011);
#15=CYLINDRICAL_SURFACE('',#518,0.0011);
#16=CYLINDRICAL_SURFACE('',#519,0.0011);
#17=CYLINDRICAL_SURFACE('',#520,0.0011);
#18=CYLINDRICAL_SURFACE('',#521,0.008005);
#19=CYLINDRICAL_SURFACE('',#538,0.0011);
#20=CYLINDRICAL_SURFACE('',#541,0.0011);
#21=CYLINDRICAL_SURFACE('',#544,0.0011);
#22=CYLINDRICAL_SURFACE('',#547,0.0011);
#23=CIRCLE('',#506,0.008005);
#24=CIRCLE('',#507,0.0011);
#25=CIRCLE('',#508,0.0011);
#26=CIRCLE('',#509,0.0011);
#27=CIRCLE('',#510,0.0011);
#28=CIRCLE('',#512,0.008005);
#29=CIRCLE('',#513,0.0011);
#30=CIRCLE('',#514,0.0011);
#31=CIRCLE('',#515,0.0011);
#32=CIRCLE('',#516,0.0011);
#33=CIRCLE('',#532,0.0011);
#34=CIRCLE('',#533,0.0011);
#35=CIRCLE('',#534,0.0011);
#36=CIRCLE('',#535,0.0011);
#37=CIRCLE('',#539,0.0011);
#38=CIRCLE('',#542,0.0011);
#39=CIRCLE('',#545,0.0011);
#40=CIRCLE('',#548,0.0011);
#41=ORIENTED_EDGE('',*,*,#149,.F.);
#42=ORIENTED_EDGE('',*,*,#150,.F.);
#43=ORIENTED_EDGE('',*,*,#151,.T.);
#44=ORIENTED_EDGE('',*,*,#152,.T.);
#45=ORIENTED_EDGE('',*,*,#153,.T.);
#46=ORIENTED_EDGE('',*,*,#154,.F.);
#47=ORIENTED_EDGE('',*,*,#155,.F.);
#48=ORIENTED_EDGE('',*,*,#150,.T.);
#49=ORIENTED_EDGE('',*,*,#156,.T.);
#50=ORIENTED_EDGE('',*,*,#157,.F.);
#51=ORIENTED_EDGE('',*,*,#158,.F.);
#52=ORIENTED_EDGE('',*,*,#154,.T.);
#53=ORIENTED_EDGE('',*,*,#159,.F.);
#54=ORIENTED_EDGE('',*,*,#152,.F.);
#55=ORIENTED_EDGE('',*,*,#160,.T.);
#56=ORIENTED_EDGE('',*,*,#157,.T.);
#57=ORIENTED_EDGE('',*,*,#161,.F.);
#58=ORIENTED_EDGE('',*,*,#162,.F.);
#59=ORIENTED_EDGE('',*,*,#163,.F.);
#60=ORIENTED_EDGE('',*,*,#164,.F.);
#61=ORIENTED_EDGE('',*,*,#165,.F.);
#62=ORIENTED_EDGE('',*,*,#151,.F.);
#63=ORIENTED_EDGE('',*,*,#155,.T.);
#64=ORIENTED_EDGE('',*,*,#158,.T.);
#65=ORIENTED_EDGE('',*,*,#160,.F.);
#66=ORIENTED_EDGE('',*,*,#166,.T.);
#67=ORIENTED_EDGE('',*,*,#167,.T.);
#68=ORIENTED_EDGE('',*,*,#168,.T.);
#69=ORIENTED_EDGE('',*,*,#169,.T.);
#70=ORIENTED_EDGE('',*,*,#170,.T.);
#71=ORIENTED_EDGE('',*,*,#149,.T.);
#72=ORIENTED_EDGE('',*,*,#159,.T.);
#73=ORIENTED_EDGE('',*,*,#156,.F.);
#74=ORIENTED_EDGE('',*,*,#153,.F.);
#75=ORIENTED_EDGE('',*,*,#170,.F.);
#76=ORIENTED_EDGE('',*,*,#165,.T.);
#77=ORIENTED_EDGE('',*,*,#169,.F.);
#78=ORIENTED_EDGE('',*,*,#164,.T.);
#79=ORIENTED_EDGE('',*,*,#168,.F.);
#80=ORIENTED_EDGE('',*,*,#163,.T.);
#81=ORIENTED_EDGE('',*,*,#167,.F.);
#82=ORIENTED_EDGE('',*,*,#162,.T.);
#83=ORIENTED_EDGE('',*,*,#166,.F.);
#84=ORIENTED_EDGE('',*,*,#161,.T.);
#85=ORIENTED_EDGE('',*,*,#171,.F.);
#86=ORIENTED_EDGE('',*,*,#172,.F.);
#87=ORIENTED_EDGE('',*,*,#173,.T.);
#88=ORIENTED_EDGE('',*,*,#174,.T.);
#89=ORIENTED_EDGE('',*,*,#175,.T.);
#90=ORIENTED_EDGE('',*,*,#176,.F.);
#91=ORIENTED_EDGE('',*,*,#177,.F.);
#92=ORIENTED_EDGE('',*,*,#172,.T.);
#93=ORIENTED_EDGE('',*,*,#178,.T.);
#94=ORIENTED_EDGE('',*,*,#179,.F.);
#95=ORIENTED_EDGE('',*,*,#180,.F.);
#96=ORIENTED_EDGE('',*,*,#176,.T.);
#97=ORIENTED_EDGE('',*,*,#181,.F.);
#98=ORIENTED_EDGE('',*,*,#182,.F.);
#99=ORIENTED_EDGE('',*,*,#183,.T.);
#100=ORIENTED_EDGE('',*,*,#184,.T.);
#101=ORIENTED_EDGE('',*,*,#182,.T.);
#102=ORIENTED_EDGE('',*,*,#185,.T.);
#103=ORIENTED_EDGE('',*,*,#186,.F.);
#104=ORIENTED_EDGE('',*,*,#187,.F.);
#105=ORIENTED_EDGE('',*,*,#186,.T.);
#106=ORIENTED_EDGE('',*,*,#188,.T.);
#107=ORIENTED_EDGE('',*,*,#189,.F.);
#108=ORIENTED_EDGE('',*,*,#190,.F.);
#109=ORIENTED_EDGE('',*,*,#191,.F.);
#110=ORIENTED_EDGE('',*,*,#184,.F.);
#111=ORIENTED_EDGE('',*,*,#192,.T.);
#112=ORIENTED_EDGE('',*,*,#189,.T.);
#113=ORIENTED_EDGE('',*,*,#193,.F.);
#114=ORIENTED_EDGE('',*,*,#174,.F.);
#115=ORIENTED_EDGE('',*,*,#194,.T.);
#116=ORIENTED_EDGE('',*,*,#179,.T.);
#117=ORIENTED_EDGE('',*,*,#195,.F.);
#118=ORIENTED_EDGE('',*,*,#196,.F.);
#119=ORIENTED_EDGE('',*,*,#197,.F.);
#120=ORIENTED_EDGE('',*,*,#198,.F.);
#121=ORIENTED_EDGE('',*,*,#183,.F.);
#122=ORIENTED_EDGE('',*,*,#187,.T.);
#123=ORIENTED_EDGE('',*,*,#190,.T.);
#124=ORIENTED_EDGE('',*,*,#192,.F.);
#125=ORIENTED_EDGE('',*,*,#173,.F.);
#126=ORIENTED_EDGE('',*,*,#177,.T.);
#127=ORIENTED_EDGE('',*,*,#180,.T.);
#128=ORIENTED_EDGE('',*,*,#194,.F.);
#129=ORIENTED_EDGE('',*,*,#171,.T.);
#130=ORIENTED_EDGE('',*,*,#193,.T.);
#131=ORIENTED_EDGE('',*,*,#178,.F.);
#132=ORIENTED_EDGE('',*,*,#175,.F.);
#133=ORIENTED_EDGE('',*,*,#185,.F.);
#134=ORIENTED_EDGE('',*,*,#181,.T.);
#135=ORIENTED_EDGE('',*,*,#191,.T.);
#136=ORIENTED_EDGE('',*,*,#188,.F.);
#137=ORIENTED_EDGE('',*,*,#199,.F.);
#138=ORIENTED_EDGE('',*,*,#198,.T.);
#139=ORIENTED_EDGE('',*,*,#199,.T.);
#140=ORIENTED_EDGE('',*,*,#200,.F.);
#141=ORIENTED_EDGE('',*,*,#197,.T.);
#142=ORIENTED_EDGE('',*,*,#200,.T.);
#143=ORIENTED_EDGE('',*,*,#201,.F.);
#144=ORIENTED_EDGE('',*,*,#196,.T.);
#145=ORIENTED_EDGE('',*,*,#201,.T.);
#146=ORIENTED_EDGE('',*,*,#202,.F.);
#147=ORIENTED_EDGE('',*,*,#195,.T.);
#148=ORIENTED_EDGE('',*,*,#202,.T.);
#149=EDGE_CURVE('',#203,#204,#245,.T.);
#150=EDGE_CURVE('',#205,#203,#246,.T.);
#151=EDGE_CURVE('',#205,#206,#247,.T.);
#152=EDGE_CURVE('',#206,#204,#248,.T.);
#153=EDGE_CURVE('',#203,#207,#249,.T.);
#154=EDGE_CURVE('',#208,#207,#250,.T.);
#155=EDGE_CURVE('',#205,#208,#251,.T.);
#156=EDGE_CURVE('',#207,#209,#252,.T.);
#157=EDGE_CURVE('',#210,#209,#253,.T.);
#158=EDGE_CURVE('',#208,#210,#254,.T.);
#159=EDGE_CURVE('',#204,#209,#255,.T.);
#160=EDGE_CURVE('',#206,#210,#256,.T.);
#161=EDGE_CURVE('',#211,#211,#23,.T.);
#162=EDGE_CURVE('',#212,#212,#24,.T.);
#163=EDGE_CURVE('',#213,#213,#25,.T.);
#164=EDGE_CURVE('',#214,#214,#26,.T.);
#165=EDGE_CURVE('',#215,#215,#27,.T.);
#166=EDGE_CURVE('',#216,#216,#28,.T.);
#167=EDGE_CURVE('',#217,#217,#29,.T.);
#168=EDGE_CURVE('',#218,#218,#30,.T.);
#169=EDGE_CURVE('',#219,#219,#31,.T.);
#170=EDGE_CURVE('',#220,#220,#32,.T.);
#171=EDGE_CURVE('',#221,#222,#257,.T.);
#172=EDGE_CURVE('',#223,#221,#258,.T.);
#173=EDGE_CURVE('',#223,#224,#259,.T.);
#174=EDGE_CURVE('',#224,#222,#260,.T.);
#175=EDGE_CURVE('',#221,#225,#261,.T.);
#176=EDGE_CURVE('',#226,#225,#262,.T.);
#177=EDGE_CURVE('',#223,#226,#263,.T.);
#178=EDGE_CURVE('',#225,#227,#264,.T.);
#179=EDGE_CURVE('',#228,#227,#265,.T.);
#180=EDGE_CURVE('',#226,#228,#266,.T.);
#181=EDGE_CURVE('',#229,#230,#267,.T.);
#182=EDGE_CURVE('',#231,#229,#268,.T.);
#183=EDGE_CURVE('',#231,#232,#269,.T.);
#184=EDGE_CURVE('',#232,#230,#270,.T.);
#185=EDGE_CURVE('',#229,#233,#271,.T.);
#186=EDGE_CURVE('',#234,#233,#272,.T.);
#187=EDGE_CURVE('',#231,#234,#273,.T.);
#188=EDGE_CURVE('',#233,#235,#274,.T.);
#189=EDGE_CURVE('',#236,#235,#275,.T.);
#190=EDGE_CURVE('',#234,#236,#276,.T.);
#191=EDGE_CURVE('',#230,#235,#277,.T.);
#192=EDGE_CURVE('',#232,#236,#278,.T.);
#193=EDGE_CURVE('',#222,#227,#279,.T.);
#194=EDGE_CURVE('',#224,#228,#280,.T.);
#195=EDGE_CURVE('',#237,#237,#33,.T.);
#196=EDGE_CURVE('',#238,#238,#34,.T.);
#197=EDGE_CURVE('',#239,#239,#35,.T.);
#198=EDGE_CURVE('',#240,#240,#36,.T.);
#199=EDGE_CURVE('',#241,#241,#37,.T.);
#200=EDGE_CURVE('',#242,#242,#38,.T.);
#201=EDGE_CURVE('',#243,#243,#39,.T.);
#202=EDGE_CURVE('',#244,#244,#40,.T.);
#203=VERTEX_POINT('',#689);
#204=VERTEX_POINT('',#690);
#205=VERTEX_POINT('',#692);
#206=VERTEX_POINT('',#694);
#207=VERTEX_POINT('',#698);
#208=VERTEX_POINT('',#700);
#209=VERTEX_POINT('',#704);
#210=VERTEX_POINT('',#706);
#211=VERTEX_POINT('',#713);
#212=VERTEX_POINT('',#715);
#213=VERTEX_POINT('',#717);
#214=VERTEX_POINT('',#719);
#215=VERTEX_POINT('',#721);
#216=VERTEX_POINT('',#724);
#217=VERTEX_POINT('',#726);
#218=VERTEX_POINT('',#728);
#219=VERTEX_POINT('',#730);
#220=VERTEX_POINT('',#732);
#221=VERTEX_POINT('',#741);
#222=VERTEX_POINT('',#742);
#223=VERTEX_POINT('',#744);
#224=VERTEX_POINT('',#746);
#225=VERTEX_POINT('',#750);
#226=VERTEX_POINT('',#752);
#227=VERTEX_POINT('',#756);
#228=VERTEX_POINT('',#758);
#229=VERTEX_POINT('',#762);
#230=VERTEX_POINT('',#763);
#231=VERTEX_POINT('',#765);
#232=VERTEX_POINT('',#767);
#233=VERTEX_POINT('',#771);
#234=VERTEX_POINT('',#773);
#235=VERTEX_POINT('',#777);
#236=VERTEX_POINT('',#779);
#237=VERTEX_POINT('',#789);
#238=VERTEX_POINT('',#791);
#239=VERTEX_POINT('',#793);
#240=VERTEX_POINT('',#795);
#241=VERTEX_POINT('',#800);
#242=VERTEX_POINT('',#804);
#243=VERTEX_POINT('',#808);
#244=VERTEX_POINT('',#812);
#245=LINE('',#688,#281);
#246=LINE('',#691,#282);
#247=LINE('',#693,#283);
#248=LINE('',#695,#284);
#249=LINE('',#697,#285);
#250=LINE('',#699,#286);
#251=LINE('',#701,#287);
#252=LINE('',#703,#288);
#253=LINE('',#705,#289);
#254=LINE('',#707,#290);
#255=LINE('',#709,#291);
#256=LINE('',#710,#292);
#257=LINE('',#740,#293);
#258=LINE('',#743,#294);
#259=LINE('',#745,#295);
#260=LINE('',#747,#296);
#261=LINE('',#749,#297);
#262=LINE('',#751,#298);
#263=LINE('',#753,#299);
#264=LINE('',#755,#300);
#265=LINE('',#757,#301);
#266=LINE('',#759,#302);
#267=LINE('',#761,#303);
#268=LINE('',#764,#304);
#269=LINE('',#766,#305);
#270=LINE('',#768,#306);
#271=LINE('',#770,#307);
#272=LINE('',#772,#308);
#273=LINE('',#774,#309);
#274=LINE('',#776,#310);
#275=LINE('',#778,#311);
#276=LINE('',#780,#312);
#277=LINE('',#782,#313);
#278=LINE('',#783,#314);
#279=LINE('',#785,#315);
#280=LINE('',#786,#316);
#281=VECTOR('',#554,1.);
#282=VECTOR('',#555,1.);
#283=VECTOR('',#556,1.);
#284=VECTOR('',#557,1.);
#285=VECTOR('',#560,1.);
#286=VECTOR('',#561,1.);
#287=VECTOR('',#562,1.);
#288=VECTOR('',#565,1.);
#289=VECTOR('',#566,1.);
#290=VECTOR('',#567,1.);
#291=VECTOR('',#570,1.);
#292=VECTOR('',#571,1.);
#293=VECTOR('',#610,1.);
#294=VECTOR('',#611,1.);
#295=VECTOR('',#612,1.);
#296=VECTOR('',#613,1.);
#297=VECTOR('',#616,1.);
#298=VECTOR('',#617,1.);
#299=VECTOR('',#618,1.);
#300=VECTOR('',#621,1.);
#301=VECTOR('',#622,1.);
#302=VECTOR('',#623,1.);
#303=VECTOR('',#626,1.);
#304=VECTOR('',#627,1.);
#305=VECTOR('',#628,1.);
#306=VECTOR('',#629,1.);
#307=VECTOR('',#632,1.);
#308=VECTOR('',#633,1.);
#309=VECTOR('',#634,1.);
#310=VECTOR('',#637,1.);
#311=VECTOR('',#638,1.);
#312=VECTOR('',#639,1.);
#313=VECTOR('',#642,1.);
#314=VECTOR('',#643,1.);
#315=VECTOR('',#646,1.);
#316=VECTOR('',#647,1.);
#317=EDGE_LOOP('',(#41,#42,#43,#44));
#318=EDGE_LOOP('',(#45,#46,#47,#48));
#319=EDGE_LOOP('',(#49,#50,#51,#52));
#320=EDGE_LOOP('',(#53,#54,#55,#56));
#321=EDGE_LOOP('',(#57));
#322=EDGE_LOOP('',(#58));
#323=EDGE_LOOP('',(#59));
#324=EDGE_LOOP('',(#60));
#325=EDGE_LOOP('',(#61));
#326=EDGE_LOOP('',(#62,#63,#64,#65));
#327=EDGE_LOOP('',(#66));
#328=EDGE_LOOP('',(#67));
#329=EDGE_LOOP('',(#68));
#330=EDGE_LOOP('',(#69));
#331=EDGE_LOOP('',(#70));
#332=EDGE_LOOP('',(#71,#72,#73,#74));
#333=EDGE_LOOP('',(#75));
#334=EDGE_LOOP('',(#76));
#335=EDGE_LOOP('',(#77));
#336=EDGE_LOOP('',(#78));
#337=EDGE_LOOP('',(#79));
#338=EDGE_LOOP('',(#80));
#339=EDGE_LOOP('',(#81));
#340=EDGE_LOOP('',(#82));
#341=EDGE_LOOP('',(#83));
#342=EDGE_LOOP('',(#84));
#343=EDGE_LOOP('',(#85,#86,#87,#88));
#344=EDGE_LOOP('',(#89,#90,#91,#92));
#345=EDGE_LOOP('',(#93,#94,#95,#96));
#346=EDGE_LOOP('',(#97,#98,#99,#100));
#347=EDGE_LOOP('',(#101,#102,#103,#104));
#348=EDGE_LOOP('',(#105,#106,#107,#108));
#349=EDGE_LOOP('',(#109,#110,#111,#112));
#350=EDGE_LOOP('',(#113,#114,#115,#116));
#351=EDGE_LOOP('',(#117));
#352=EDGE_LOOP('',(#118));
#353=EDGE_LOOP('',(#119));
#354=EDGE_LOOP('',(#120));
#355=EDGE_LOOP('',(#121,#122,#123,#124));
#356=EDGE_LOOP('',(#125,#126,#127,#128));
#357=EDGE_LOOP('',(#129,#130,#131,#132));
#358=EDGE_LOOP('',(#133,#134,#135,#136));
#359=EDGE_LOOP('',(#137));
#360=EDGE_LOOP('',(#138));
#361=EDGE_LOOP('',(#139));
#362=EDGE_LOOP('',(#140));
#363=EDGE_LOOP('',(#141));
#364=EDGE_LOOP('',(#142));
#365=EDGE_LOOP('',(#143));
#366=EDGE_LOOP('',(#144));
#367=EDGE_LOOP('',(#145));
#368=EDGE_LOOP('',(#146));
#369=EDGE_LOOP('',(#147));
#370=EDGE_LOOP('',(#148));
#371=FACE_BOUND('',#317,.T.);
#372=FACE_BOUND('',#318,.T.);
#373=FACE_BOUND('',#319,.T.);
#374=FACE_BOUND('',#320,.T.);
#375=FACE_BOUND('',#321,.T.);
#376=FACE_BOUND('',#322,.T.);
#377=FACE_BOUND('',#323,.T.);
#378=FACE_BOUND('',#324,.T.);
#379=FACE_BOUND('',#325,.T.);
#380=FACE_BOUND('',#326,.T.);
#381=FACE_BOUND('',#327,.T.);
#382=FACE_BOUND('',#328,.T.);
#383=FACE_BOUND('',#329,.T.);
#384=FACE_BOUND('',#330,.T.);
#385=FACE_BOUND('',#331,.T.);
#386=FACE_BOUND('',#332,.T.);
#387=FACE_BOUND('',#333,.T.);
#388=FACE_BOUND('',#334,.T.);
#389=FACE_BOUND('',#335,.T.);
#390=FACE_BOUND('',#336,.T.);
#391=FACE_BOUND('',#337,.T.);
#392=FACE_BOUND('',#338,.T.);
#393=FACE_BOUND('',#339,.T.);
#394=FACE_BOUND('',#340,.T.);
#395=FACE_BOUND('',#341,.T.);
#396=FACE_BOUND('',#342,.T.);
#397=FACE_BOUND('',#343,.T.);
#398=FACE_BOUND('',#344,.T.);
#399=FACE_BOUND('',#345,.T.);
#400=FACE_BOUND('',#346,.T.);
#401=FACE_BOUND('',#347,.T.);
#402=FACE_BOUND('',#348,.T.);
#403=FACE_BOUND('',#349,.T.);
#404=FACE_BOUND('',#350,.T.);
#405=FACE_BOUND('',#351,.T.);
#406=FACE_BOUND('',#352,.T.);
#407=FACE_BOUND('',#353,.T.);
#408=FACE_BOUND('',#354,.T.);
#409=FACE_BOUND('',#355,.T.);
#410=FACE_BOUND('',#356,.T.);
#411=FACE_BOUND('',#357,.T.);
#412=FACE_BOUND('',#358,.T.);
#413=FACE_BOUND('',#359,.T.);
#414=FACE_BOUND('',#360,.T.);
#415=FACE_BOUND('',#361,.T.);
#416=FACE_BOUND('',#362,.T.);
#417=FACE_BOUND('',#363,.T.);
#418=FACE_BOUND('',#364,.T.);
#419=FACE_BOUND('',#365,.T.);
#420=FACE_BOUND('',#366,.T.);
#421=FACE_BOUND('',#367,.T.);
#422=FACE_BOUND('',#368,.T.);
#423=FACE_BOUND('',#369,.T.);
#424=FACE_BOUND('',#370,.T.);
#425=PLANE('',#501);
#426=PLANE('',#502);
#427=PLANE('',#503);
#428=PLANE('',#504);
#429=PLANE('',#505);
#430=PLANE('',#511);
#431=PLANE('',#523);
#432=PLANE('',#524);
#433=PLANE('',#525);
#434=PLANE('',#526);
#435=PLANE('',#527);
#436=PLANE('',#528);
#437=PLANE('',#529);
#438=PLANE('',#530);
#439=PLANE('',#531);
#440=PLANE('',#536);
#441=PLANE('',#537);
#442=PLANE('',#540);
#443=PLANE('',#543);
#444=PLANE('',#546);
#445=PLANE('',#549);
#446=ADVANCED_FACE('',(#371),#425,.T.);
#447=ADVANCED_FACE('',(#372),#426,.F.);
#448=ADVANCED_FACE('',(#373),#427,.F.);
#449=ADVANCED_FACE('',(#374),#428,.T.);
#450=ADVANCED_FACE('',(#375,#376,#377,#378,#379,#380),#429,.T.);
#451=ADVANCED_FACE('',(#381,#382,#383,#384,#385,#386),#430,.F.);
#452=ADVANCED_FACE('',(#387,#388),#14,.F.);
#453=ADVANCED_FACE('',(#389,#390),#15,.F.);
#454=ADVANCED_FACE('',(#391,#392),#16,.F.);
#455=ADVANCED_FACE('',(#393,#394),#17,.F.);
#456=ADVANCED_FACE('',(#395,#396),#18,.F.);
#457=ADVANCED_FACE('',(#397),#431,.T.);
#458=ADVANCED_FACE('',(#398),#432,.F.);
#459=ADVANCED_FACE('',(#399),#433,.F.);
#460=ADVANCED_FACE('',(#400),#434,.T.);
#461=ADVANCED_FACE('',(#401),#435,.F.);
#462=ADVANCED_FACE('',(#402),#436,.F.);
#463=ADVANCED_FACE('',(#403),#437,.T.);
#464=ADVANCED_FACE('',(#404),#438,.T.);
#465=ADVANCED_FACE('',(#405,#406,#407,#408,#409,#410),#439,.T.);
#466=ADVANCED_FACE('',(#411),#440,.F.);
#467=ADVANCED_FACE('',(#412),#441,.T.);
#468=ADVANCED_FACE('',(#413,#414),#19,.F.);
#469=ADVANCED_FACE('',(#415),#442,.T.);
#470=ADVANCED_FACE('',(#416,#417),#20,.F.);
#471=ADVANCED_FACE('',(#418),#443,.T.);
#472=ADVANCED_FACE('',(#419,#420),#21,.F.);
#473=ADVANCED_FACE('',(#421),#444,.T.);
#474=ADVANCED_FACE('',(#422,#423),#22,.F.);
#475=ADVANCED_FACE('',(#424),#445,.T.);
#476=CLOSED_SHELL('',(#446,#447,#448,#449,#450,#451,#452,#453,#454,#455,
#456));
#477=CLOSED_SHELL('',(#457,#458,#459,#460,#461,#462,#463,#464,#465,#466,
#467,#468,#469,#470,#471,#472,#473,#474,#475));
#478=STYLED_ITEM('',(#480),#494);
#479=STYLED_ITEM('',(#481),#495);
#480=PRESENTATION_STYLE_ASSIGNMENT((#482));
#481=PRESENTATION_STYLE_ASSIGNMENT((#483));
#482=SURFACE_STYLE_USAGE(.BOTH.,#484);
#483=SURFACE_STYLE_USAGE(.BOTH.,#485);
#484=SURFACE_SIDE_STYLE('',(#486));
#485=SURFACE_SIDE_STYLE('',(#487));
#486=SURFACE_STYLE_FILL_AREA(#488);
#487=SURFACE_STYLE_FILL_AREA(#489);
#488=FILL_AREA_STYLE('',(#490));
#489=FILL_AREA_STYLE('',(#491));
#490=FILL_AREA_STYLE_COLOUR('',#492);
#491=FILL_AREA_STYLE_COLOUR('',#493);
#492=COLOUR_RGB('',0.647058823529412,0.647058823529412,0.647058823529412);
#493=COLOUR_RGB('',0.615686274509804,0.811764705882353,0.929411764705882);
#494=MANIFOLD_SOLID_BREP('Part 2',#476);
#495=MANIFOLD_SOLID_BREP('Part 1',#477);
#496=SHAPE_DEFINITION_REPRESENTATION(#826,#498);
#497=SHAPE_DEFINITION_REPRESENTATION(#827,#499);
#498=SHAPE_REPRESENTATION('Part 2',(#500),#816);
#499=SHAPE_REPRESENTATION('Part 1',(#522),#817);
#500=AXIS2_PLACEMENT_3D('',#686,#550,#551);
#501=AXIS2_PLACEMENT_3D('',#687,#552,#553);
#502=AXIS2_PLACEMENT_3D('',#696,#558,#559);
#503=AXIS2_PLACEMENT_3D('',#702,#563,#564);
#504=AXIS2_PLACEMENT_3D('',#708,#568,#569);
#505=AXIS2_PLACEMENT_3D('',#711,#572,#573);
#506=AXIS2_PLACEMENT_3D('',#712,#574,#575);
#507=AXIS2_PLACEMENT_3D('',#714,#576,#577);
#508=AXIS2_PLACEMENT_3D('',#716,#578,#579);
#509=AXIS2_PLACEMENT_3D('',#718,#580,#581);
#510=AXIS2_PLACEMENT_3D('',#720,#582,#583);
#511=AXIS2_PLACEMENT_3D('',#722,#584,#585);
#512=AXIS2_PLACEMENT_3D('',#723,#586,#587);
#513=AXIS2_PLACEMENT_3D('',#725,#588,#589);
#514=AXIS2_PLACEMENT_3D('',#727,#590,#591);
#515=AXIS2_PLACEMENT_3D('',#729,#592,#593);
#516=AXIS2_PLACEMENT_3D('',#731,#594,#595);
#517=AXIS2_PLACEMENT_3D('',#733,#596,#597);
#518=AXIS2_PLACEMENT_3D('',#734,#598,#599);
#519=AXIS2_PLACEMENT_3D('',#735,#600,#601);
#520=AXIS2_PLACEMENT_3D('',#736,#602,#603);
#521=AXIS2_PLACEMENT_3D('',#737,#604,#605);
#522=AXIS2_PLACEMENT_3D('',#738,#606,#607);
#523=AXIS2_PLACEMENT_3D('',#739,#608,#609);
#524=AXIS2_PLACEMENT_3D('',#748,#614,#615);
#525=AXIS2_PLACEMENT_3D('',#754,#619,#620);
#526=AXIS2_PLACEMENT_3D('',#760,#624,#625);
#527=AXIS2_PLACEMENT_3D('',#769,#630,#631);
#528=AXIS2_PLACEMENT_3D('',#775,#635,#636);
#529=AXIS2_PLACEMENT_3D('',#781,#640,#641);
#530=AXIS2_PLACEMENT_3D('',#784,#644,#645);
#531=AXIS2_PLACEMENT_3D('',#787,#648,#649);
#532=AXIS2_PLACEMENT_3D('',#788,#650,#651);
#533=AXIS2_PLACEMENT_3D('',#790,#652,#653);
#534=AXIS2_PLACEMENT_3D('',#792,#654,#655);
#535=AXIS2_PLACEMENT_3D('',#794,#656,#657);
#536=AXIS2_PLACEMENT_3D('',#796,#658,#659);
#537=AXIS2_PLACEMENT_3D('',#797,#660,#661);
#538=AXIS2_PLACEMENT_3D('',#798,#662,#663);
#539=AXIS2_PLACEMENT_3D('',#799,#664,#665);
#540=AXIS2_PLACEMENT_3D('',#801,#666,#667);
#541=AXIS2_PLACEMENT_3D('',#802,#668,#669);
#542=AXIS2_PLACEMENT_3D('',#803,#670,#671);
#543=AXIS2_PLACEMENT_3D('',#805,#672,#673);
#544=AXIS2_PLACEMENT_3D('',#806,#674,#675);
#545=AXIS2_PLACEMENT_3D('',#807,#676,#677);
#546=AXIS2_PLACEMENT_3D('',#809,#678,#679);
#547=AXIS2_PLACEMENT_3D('',#810,#680,#681);
#548=AXIS2_PLACEMENT_3D('',#811,#682,#683);
#549=AXIS2_PLACEMENT_3D('',#813,#684,#685);
#550=DIRECTION('',(0.,0.,1.));
#551=DIRECTION('',(1.,0.,0.));
#552=DIRECTION('',(-2.08166817117217E-16,1.,0.));
#553=DIRECTION('',(-1.,-2.08166817117217E-16,0.));
#554=DIRECTION('',(1.,2.08166817117217E-16,0.));
#555=DIRECTION('',(0.,0.,-1.));
#556=DIRECTION('',(1.,2.08166817117217E-16,0.));
#557=DIRECTION('',(0.,0.,-1.));
#558=DIRECTION('',(1.,0.,0.));
#559=DIRECTION('',(0.,0.,-1.));
#560=DIRECTION('',(0.,-1.,0.));
#561=DIRECTION('',(0.,0.,-1.));
#562=DIRECTION('',(0.,-1.,0.));
#563=DIRECTION('',(-2.08166817117217E-16,1.,0.));
#564=DIRECTION('',(-1.,-2.08166817117217E-16,0.));
#565=DIRECTION('',(1.,2.08166817117217E-16,0.));
#566=DIRECTION('',(0.,0.,-1.));
#567=DIRECTION('',(1.,2.08166817117217E-16,0.));
#568=DIRECTION('',(1.,0.,0.));
#569=DIRECTION('',(0.,0.,-1.));
#570=DIRECTION('',(0.,-1.,0.));
#571=DIRECTION('',(0.,-1.,0.));
#572=DIRECTION('',(0.,0.,1.));
#573=DIRECTION('',(1.,0.,0.));
#574=DIRECTION('',(0.,0.,1.));
#575=DIRECTION('',(1.,0.,0.));
#576=DIRECTION('',(0.,0.,1.));
#577=DIRECTION('',(1.,0.,0.));
#578=DIRECTION('',(0.,0.,1.));
#579=DIRECTION('',(1.,0.,0.));
#580=DIRECTION('',(0.,0.,1.));
#581=DIRECTION('',(1.,0.,0.));
#582=DIRECTION('',(0.,0.,1.));
#583=DIRECTION('',(1.,0.,0.));
#584=DIRECTION('',(0.,0.,1.));
#585=DIRECTION('',(1.,0.,0.));
#586=DIRECTION('',(0.,0.,1.));
#587=DIRECTION('',(1.,0.,0.));
#588=DIRECTION('',(0.,0.,1.));
#589=DIRECTION('',(1.,0.,0.));
#590=DIRECTION('',(0.,0.,1.));
#591=DIRECTION('',(1.,0.,0.));
#592=DIRECTION('',(0.,0.,1.));
#593=DIRECTION('',(1.,0.,0.));
#594=DIRECTION('',(0.,0.,1.));
#595=DIRECTION('',(1.,0.,0.));
#596=DIRECTION('',(0.,0.,1.));
#597=DIRECTION('',(1.,0.,0.));
#598=DIRECTION('',(0.,0.,1.));
#599=DIRECTION('',(1.,0.,0.));
#600=DIRECTION('',(0.,0.,1.));
#601=DIRECTION('',(1.,0.,0.));
#602=DIRECTION('',(0.,0.,1.));
#603=DIRECTION('',(1.,0.,0.));
#604=DIRECTION('',(0.,0.,1.));
#605=DIRECTION('',(1.,0.,0.));
#606=DIRECTION('',(0.,0.,1.));
#607=DIRECTION('',(1.,0.,0.));
#608=DIRECTION('',(-2.08166817117217E-16,1.,0.));
#609=DIRECTION('',(-1.,-2.08166817117217E-16,0.));
#610=DIRECTION('',(1.,2.08166817117217E-16,0.));
#611=DIRECTION('',(0.,0.,-1.));
#612=DIRECTION('',(1.,2.08166817117217E-16,0.));
#613=DIRECTION('',(0.,0.,-1.));
#614=DIRECTION('',(1.,0.,0.));
#615=DIRECTION('',(0.,0.,-1.));
#616=DIRECTION('',(0.,-1.,0.));
#617=DIRECTION('',(0.,0.,-1.));
#618=DIRECTION('',(0.,-1.,0.));
#619=DIRECTION('',(-2.08166817117217E-16,1.,0.));
#620=DIRECTION('',(-1.,-2.08166817117217E-16,0.));
#621=DIRECTION('',(1.,2.08166817117217E-16,0.));
#622=DIRECTION('',(0.,0.,-1.));
#623=DIRECTION('',(1.,2.08166817117217E-16,0.));
#624=DIRECTION('',(1.,0.,0.));
#625=DIRECTION('',(0.,0.,-1.));
#626=DIRECTION('',(0.,-1.,0.));
#627=DIRECTION('',(0.,0.,-1.));
#628=DIRECTION('',(0.,-1.,0.));
#629=DIRECTION('',(0.,0.,-1.));
#630=DIRECTION('',(0.,1.,0.));
#631=DIRECTION('',(0.,0.,1.));
#632=DIRECTION('',(1.,0.,0.));
#633=DIRECTION('',(0.,0.,-1.));
#634=DIRECTION('',(1.,0.,0.));
#635=DIRECTION('',(1.,0.,0.));
#636=DIRECTION('',(0.,0.,-1.));
#637=DIRECTION('',(0.,-1.,0.));
#638=DIRECTION('',(0.,0.,-1.));
#639=DIRECTION('',(0.,-1.,0.));
#640=DIRECTION('',(0.,1.,0.));
#641=DIRECTION('',(0.,0.,1.));
#642=DIRECTION('',(1.,0.,0.));
#643=DIRECTION('',(1.,0.,0.));
#644=DIRECTION('',(1.,0.,0.));
#645=DIRECTION('',(0.,0.,-1.));
#646=DIRECTION('',(0.,-1.,0.));
#647=DIRECTION('',(0.,-1.,0.));
#648=DIRECTION('',(0.,0.,1.));
#649=DIRECTION('',(1.,0.,0.));
#650=DIRECTION('',(0.,0.,1.));
#651=DIRECTION('',(1.,0.,0.));
#652=DIRECTION('',(0.,0.,1.));
#653=DIRECTION('',(1.,0.,0.));
#654=DIRECTION('',(0.,0.,1.));
#655=DIRECTION('',(1.,0.,0.));
#656=DIRECTION('',(0.,0.,1.));
#657=DIRECTION('',(1.,0.,0.));
#658=DIRECTION('',(0.,0.,1.));
#659=DIRECTION('',(1.,0.,0.));
#660=DIRECTION('',(0.,0.,1.));
#661=DIRECTION('',(1.,0.,0.));
#662=DIRECTION('',(0.,0.,1.));
#663=DIRECTION('',(1.,0.,0.));
#664=DIRECTION('',(0.,0.,1.));
#665=DIRECTION('',(1.,0.,0.));
#666=DIRECTION('',(0.,0.,1.));
#667=DIRECTION('',(1.,0.,0.));
#668=DIRECTION('',(0.,0.,1.));
#669=DIRECTION('',(1.,0.,0.));
#670=DIRECTION('',(0.,0.,1.));
#671=DIRECTION('',(1.,0.,0.));
#672=DIRECTION('',(0.,0.,1.));
#673=DIRECTION('',(1.,0.,0.));
#674=DIRECTION('',(0.,0.,1.));
#675=DIRECTION('',(1.,0.,0.));
#676=DIRECTION('',(0.,0.,1.));
#677=DIRECTION('',(1.,0.,0.));
#678=DIRECTION('',(0.,0.,1.));
#679=DIRECTION('',(1.,0.,0.));
#680=DIRECTION('',(0.,0.,1.));
#681=DIRECTION('',(1.,0.,0.));
#682=DIRECTION('',(0.,0.,1.));
#683=DIRECTION('',(1.,0.,0.));
#684=DIRECTION('',(0.,0.,1.));
#685=DIRECTION('',(1.,0.,0.));
#686=CARTESIAN_POINT('',(0.,0.,0.));
#687=CARTESIAN_POINT('',(0.0204562824219465,0.0193443488563183,0.045));
#688=CARTESIAN_POINT('',(0.0204562824219465,0.0193443488563183,0.04));
#689=CARTESIAN_POINT('',(-0.00454371757805348,0.0193443488563183,0.04));
#690=CARTESIAN_POINT('',(0.0454562824219465,0.0193443488563183,0.04));
#691=CARTESIAN_POINT('',(-0.00454371757805348,0.0193443488563183,0.045));
#692=CARTESIAN_POINT('',(-0.00454371757805348,0.0193443488563183,0.045));
#693=CARTESIAN_POINT('',(0.0204562824219465,0.0193443488563183,0.045));
#694=CARTESIAN_POINT('',(0.0454562824219465,0.0193443488563183,0.045));
#695=CARTESIAN_POINT('',(0.0454562824219465,0.0193443488563183,0.045));
#696=CARTESIAN_POINT('',(-0.00454371757805348,0.00434434885631825,0.045));
#697=CARTESIAN_POINT('',(-0.00454371757805348,0.00434434885631825,0.04));
#698=CARTESIAN_POINT('',(-0.00454371757805348,-0.0106556511436817,0.04));
#699=CARTESIAN_POINT('',(-0.00454371757805348,-0.0106556511436817,0.045));
#700=CARTESIAN_POINT('',(-0.00454371757805348,-0.0106556511436817,0.045));
#701=CARTESIAN_POINT('',(-0.00454371757805348,0.00434434885631825,0.045));
#702=CARTESIAN_POINT('',(0.0204562824219465,-0.0106556511436817,0.045));
#703=CARTESIAN_POINT('',(0.0204562824219465,-0.0106556511436817,0.04));
#704=CARTESIAN_POINT('',(0.0454562824219465,-0.0106556511436817,0.04));
#705=CARTESIAN_POINT('',(0.0454562824219465,-0.0106556511436817,0.045));
#706=CARTESIAN_POINT('',(0.0454562824219465,-0.0106556511436817,0.045));
#707=CARTESIAN_POINT('',(0.0204562824219465,-0.0106556511436817,0.045));
#708=CARTESIAN_POINT('',(0.0454562824219465,0.00434434885631826,0.045));
#709=CARTESIAN_POINT('',(0.0454562824219465,0.00434434885631826,0.04));
#710=CARTESIAN_POINT('',(0.0454562824219465,0.00434434885631826,0.045));
#711=CARTESIAN_POINT('',(0.0204562824219465,0.00434434885631825,0.045));
#712=CARTESIAN_POINT('',(0.0184612824219465,0.00333934885631825,0.045));
#713=CARTESIAN_POINT('',(0.0264662824219465,0.00333934885631825,0.045));
#714=CARTESIAN_POINT('',(-0.00144371757805348,-0.00755565114368174,0.045));
#715=CARTESIAN_POINT('',(-0.000343717578053476,-0.00755565114368174,0.045));
#716=CARTESIAN_POINT('',(0.0423562824219465,0.0162443488563183,0.045));
#717=CARTESIAN_POINT('',(0.0434562824219465,0.0162443488563183,0.045));
#718=CARTESIAN_POINT('',(0.0423562824219465,-0.00755565114368174,0.045));
#719=CARTESIAN_POINT('',(0.0434562824219465,-0.00755565114368174,0.045));
#720=CARTESIAN_POINT('',(-0.00144371757805348,0.0162443488563183,0.045));
#721=CARTESIAN_POINT('',(-0.000343717578053476,0.0162443488563183,0.045));
#722=CARTESIAN_POINT('',(0.0204562824219465,0.00434434885631825,0.04));
#723=CARTESIAN_POINT('',(0.0184612824219465,0.00333934885631825,0.04));
#724=CARTESIAN_POINT('',(0.0264662824219465,0.00333934885631825,0.04));
#725=CARTESIAN_POINT('',(-0.00144371757805348,-0.00755565114368174,0.04));
#726=CARTESIAN_POINT('',(-0.000343717578053476,-0.00755565114368174,0.04));
#727=CARTESIAN_POINT('',(0.0423562824219465,0.0162443488563183,0.04));
#728=CARTESIAN_POINT('',(0.0434562824219465,0.0162443488563183,0.04));
#729=CARTESIAN_POINT('',(0.0423562824219465,-0.00755565114368174,0.04));
#730=CARTESIAN_POINT('',(0.0434562824219465,-0.00755565114368174,0.04));
#731=CARTESIAN_POINT('',(-0.00144371757805348,0.0162443488563183,0.04));
#732=CARTESIAN_POINT('',(-0.000343717578053476,0.0162443488563183,0.04));
#733=CARTESIAN_POINT('',(-0.00144371757805348,0.0162443488563183,0.04));
#734=CARTESIAN_POINT('',(0.0423562824219465,-0.00755565114368174,0.04));
#735=CARTESIAN_POINT('',(0.0423562824219465,0.0162443488563183,0.04));
#736=CARTESIAN_POINT('',(-0.00144371757805348,-0.00755565114368174,0.04));
#737=CARTESIAN_POINT('',(0.0184612824219465,0.00333934885631825,0.04));
#738=CARTESIAN_POINT('',(0.,0.,0.));
#739=CARTESIAN_POINT('',(0.0204562824219465,0.0193443488563183,0.04));
#740=CARTESIAN_POINT('',(0.0204562824219465,0.0193443488563183,0.));
#741=CARTESIAN_POINT('',(-0.00454371757805348,0.0193443488563183,0.));
#742=CARTESIAN_POINT('',(0.0454562824219465,0.0193443488563183,0.));
#743=CARTESIAN_POINT('',(-0.00454371757805348,0.0193443488563183,0.04));
#744=CARTESIAN_POINT('',(-0.00454371757805348,0.0193443488563183,0.04));
#745=CARTESIAN_POINT('',(0.0204562824219465,0.0193443488563183,0.04));
#746=CARTESIAN_POINT('',(0.0454562824219465,0.0193443488563183,0.04));
#747=CARTESIAN_POINT('',(0.0454562824219465,0.0193443488563183,0.04));
#748=CARTESIAN_POINT('',(-0.00454371757805348,0.00434434885631825,0.04));
#749=CARTESIAN_POINT('',(-0.00454371757805348,0.00434434885631825,0.));
#750=CARTESIAN_POINT('',(-0.00454371757805348,-0.0106556511436817,0.));
#751=CARTESIAN_POINT('',(-0.00454371757805348,-0.0106556511436817,0.04));
#752=CARTESIAN_POINT('',(-0.00454371757805348,-0.0106556511436817,0.04));
#753=CARTESIAN_POINT('',(-0.00454371757805348,0.00434434885631825,0.04));
#754=CARTESIAN_POINT('',(0.0204562824219465,-0.0106556511436817,0.04));
#755=CARTESIAN_POINT('',(0.0204562824219465,-0.0106556511436817,0.));
#756=CARTESIAN_POINT('',(0.0454562824219465,-0.0106556511436817,0.));
#757=CARTESIAN_POINT('',(0.0454562824219465,-0.0106556511436817,0.04));
#758=CARTESIAN_POINT('',(0.0454562824219465,-0.0106556511436817,0.04));
#759=CARTESIAN_POINT('',(0.0204562824219465,-0.0106556511436817,0.04));
#760=CARTESIAN_POINT('',(0.000456282421946527,0.00434434885631825,0.04));
#761=CARTESIAN_POINT('',(0.000456282421946527,0.00434434885631825,0.001));
#762=CARTESIAN_POINT('',(0.000456282421946525,0.0143443488563183,0.001));
#763=CARTESIAN_POINT('',(0.000456282421946529,-0.00565565114368175,0.001));
#764=CARTESIAN_POINT('',(0.000456282421946525,0.0143443488563183,0.04));
#765=CARTESIAN_POINT('',(0.000456282421946525,0.0143443488563183,0.04));
#766=CARTESIAN_POINT('',(0.000456282421946527,0.00434434885631825,0.04));
#767=CARTESIAN_POINT('',(0.000456282421946529,-0.00565565114368175,0.04));
#768=CARTESIAN_POINT('',(0.000456282421946529,-0.00565565114368175,0.04));
#769=CARTESIAN_POINT('',(0.0204562824219465,0.0143443488563183,0.04));
#770=CARTESIAN_POINT('',(0.0204562824219465,0.0143443488563183,0.001));
#771=CARTESIAN_POINT('',(0.0404562824219466,0.0143443488563182,0.001));
#772=CARTESIAN_POINT('',(0.0404562824219466,0.0143443488563182,0.04));
#773=CARTESIAN_POINT('',(0.0404562824219466,0.0143443488563182,0.04));
#774=CARTESIAN_POINT('',(0.0204562824219465,0.0143443488563183,0.04));
#775=CARTESIAN_POINT('',(0.0404562824219466,0.00434434885631825,0.04));
#776=CARTESIAN_POINT('',(0.0404562824219466,0.00434434885631825,0.001));
#777=CARTESIAN_POINT('',(0.0404562824219466,-0.00565565114368175,0.001));
#778=CARTESIAN_POINT('',(0.0404562824219466,-0.00565565114368175,0.04));
#779=CARTESIAN_POINT('',(0.0404562824219466,-0.00565565114368175,0.04));
#780=CARTESIAN_POINT('',(0.0404562824219466,0.00434434885631825,0.04));
#781=CARTESIAN_POINT('',(0.0204562824219465,-0.00565565114368175,0.04));
#782=CARTESIAN_POINT('',(0.0204562824219465,-0.00565565114368175,0.001));
#783=CARTESIAN_POINT('',(0.0204562824219465,-0.00565565114368175,0.04));
#784=CARTESIAN_POINT('',(0.0454562824219465,0.00434434885631826,0.04));
#785=CARTESIAN_POINT('',(0.0454562824219465,0.00434434885631826,0.));
#786=CARTESIAN_POINT('',(0.0454562824219465,0.00434434885631826,0.04));
#787=CARTESIAN_POINT('',(0.0204562824219465,0.00434434885631825,0.04));
#788=CARTESIAN_POINT('',(-0.00144371757805348,0.0162443488563183,0.04));
#789=CARTESIAN_POINT('',(-0.000343717578053476,0.0162443488563183,0.04));
#790=CARTESIAN_POINT('',(0.0423562824219465,-0.00755565114368174,0.04));
#791=CARTESIAN_POINT('',(0.0434562824219465,-0.00755565114368174,0.04));
#792=CARTESIAN_POINT('',(0.0423562824219465,0.0162443488563183,0.04));
#793=CARTESIAN_POINT('',(0.0434562824219465,0.0162443488563183,0.04));
#794=CARTESIAN_POINT('',(-0.00144371757805348,-0.00755565114368175,0.04));
#795=CARTESIAN_POINT('',(-0.000343717578053476,-0.00755565114368175,0.04));
#796=CARTESIAN_POINT('',(0.0204562824219465,0.00434434885631825,0.));
#797=CARTESIAN_POINT('',(0.0204562824219465,0.00434434885631825,0.001));
#798=CARTESIAN_POINT('',(-0.00144371757805348,-0.00755565114368175,0.015));
#799=CARTESIAN_POINT('',(-0.00144371757805348,-0.00755565114368175,0.015));
#800=CARTESIAN_POINT('',(-0.000343717578053476,-0.00755565114368175,0.015));
#801=CARTESIAN_POINT('',(0.0204562824219465,0.00434434885631825,0.015));
#802=CARTESIAN_POINT('',(0.0423562824219465,0.0162443488563183,0.015));
#803=CARTESIAN_POINT('',(0.0423562824219465,0.0162443488563183,0.015));
#804=CARTESIAN_POINT('',(0.0434562824219465,0.0162443488563183,0.015));
#805=CARTESIAN_POINT('',(0.0204562824219465,0.00434434885631825,0.015));
#806=CARTESIAN_POINT('',(0.0423562824219465,-0.00755565114368174,0.015));
#807=CARTESIAN_POINT('',(0.0423562824219465,-0.00755565114368174,0.015));
#808=CARTESIAN_POINT('',(0.0434562824219465,-0.00755565114368174,0.015));
#809=CARTESIAN_POINT('',(0.0204562824219465,0.00434434885631825,0.015));
#810=CARTESIAN_POINT('',(-0.00144371757805348,0.0162443488563183,0.015));
#811=CARTESIAN_POINT('',(-0.00144371757805348,0.0162443488563183,0.015));
#812=CARTESIAN_POINT('',(-0.000343717578053476,0.0162443488563183,0.015));
#813=CARTESIAN_POINT('',(0.0204562824219465,0.00434434885631825,0.015));
#814=MECHANICAL_DESIGN_GEOMETRIC_PRESENTATION_REPRESENTATION('',(#478),
#816);
#815=MECHANICAL_DESIGN_GEOMETRIC_PRESENTATION_REPRESENTATION('',(#479),
#817);
#816=(
GEOMETRIC_REPRESENTATION_CONTEXT(3)
GLOBAL_UNCERTAINTY_ASSIGNED_CONTEXT((#818))
GLOBAL_UNIT_ASSIGNED_CONTEXT((#824,#822,#820))
REPRESENTATION_CONTEXT('Part 2','TOP_LEVEL_ASSEMBLY_PART')
);
#817=(
GEOMETRIC_REPRESENTATION_CONTEXT(3)
GLOBAL_UNCERTAINTY_ASSIGNED_CONTEXT((#819))
GLOBAL_UNIT_ASSIGNED_CONTEXT((#825,#823,#821))
REPRESENTATION_CONTEXT('Part 1','TOP_LEVEL_ASSEMBLY_PART')
);
#818=UNCERTAINTY_MEASURE_WITH_UNIT(LENGTH_MEASURE(1.E-8),#824,
'DISTANCE_ACCURACY_VALUE','Maximum Tolerance applied to model');
#819=UNCERTAINTY_MEASURE_WITH_UNIT(LENGTH_MEASURE(1.E-8),#825,
'DISTANCE_ACCURACY_VALUE','Maximum Tolerance applied to model');
#820=(
NAMED_UNIT(*)
SI_UNIT($,.STERADIAN.)
SOLID_ANGLE_UNIT()
);
#821=(
NAMED_UNIT(*)
SI_UNIT($,.STERADIAN.)
SOLID_ANGLE_UNIT()
);
#822=(
NAMED_UNIT(*)
PLANE_ANGLE_UNIT()
SI_UNIT($,.RADIAN.)
);
#823=(
NAMED_UNIT(*)
PLANE_ANGLE_UNIT()
SI_UNIT($,.RADIAN.)
);
#824=(
LENGTH_UNIT()
NAMED_UNIT(*)
SI_UNIT($,.METRE.)
);
#825=(
LENGTH_UNIT()
NAMED_UNIT(*)
SI_UNIT($,.METRE.)
);
#826=PRODUCT_DEFINITION_SHAPE('','',#828);
#827=PRODUCT_DEFINITION_SHAPE('','',#829);
#828=PRODUCT_DEFINITION('','',#832,#830);
#829=PRODUCT_DEFINITION('','',#833,#831);
#830=PRODUCT_DEFINITION_CONTEXT('',#844,'design');
#831=PRODUCT_DEFINITION_CONTEXT('',#845,'design');
#832=PRODUCT_DEFINITION_FORMATION_WITH_SPECIFIED_SOURCE('','',#836,
 .NOT_KNOWN.);
#833=PRODUCT_DEFINITION_FORMATION_WITH_SPECIFIED_SOURCE('','',#837,
 .NOT_KNOWN.);
#834=PRODUCT_RELATED_PRODUCT_CATEGORY('','',(#836));
#835=PRODUCT_RELATED_PRODUCT_CATEGORY('','',(#837));
#836=PRODUCT('Part 2','Part 2','Part 2',(#840));
#837=PRODUCT('Part 1','Part 1','Part 1',(#841));
#838=PRODUCT_CATEGORY('','');
#839=PRODUCT_CATEGORY('','');
#840=PRODUCT_CONTEXT('',#844,'mechanical');
#841=PRODUCT_CONTEXT('',#845,'mechanical');
#842=APPLICATION_PROTOCOL_DEFINITION('international standard',
'ap242_managed_model_based_3d_engineering',2020,#844);
#843=APPLICATION_PROTOCOL_DEFINITION('international standard',
'ap242_managed_model_based_3d_engineering',2020,#845);
#844=APPLICATION_CONTEXT('managed model based 3d engineering');
#845=APPLICATION_CONTEXT('managed model based 3d engineering');
ENDSEC;
END-ISO-10303-21;
