ISO-10303-21;
HEADER;
/* Generated by software containing ST-Developer
 * from STEP Tools, Inc. (www.steptools.com) 
 */
/* OPTION: using custom renumber hook */

FILE_DESCRIPTION(
/* description */ ('STEP AP242 Edition 2',
'CAx-IF Rec.Pracs.---Representation and Presentation of Product Manufa
cturing Information (PMI)---4.0---2014-10-13',
'CAx-IF Rec.Pracs.---3D Tessellated Geometry---0.4---2014-09-14','2;1',
'CAx-IF Rec.Pracs.---User Defined Attributes---1.5---2016-08-15'),
/* implementation_level */ '2;1');

FILE_NAME(
/* name */ 'Part Studio 2',
/* time_stamp */ '2026-05-09T17:06:04Z',
/* author */ (''),
/* organization */ (''),
/* preprocessor_version */ 'ST-DEVELOPER v20',
/* originating_system */ 'ONSHAPE BY PTC INC, 1.214',
/* authorisation */ '  ');

FILE_SCHEMA (('AP242_MANAGED_MODEL_BASED_3D_ENGINEERING_MIM_LF { 1 0 10303 442 3 1 4 }'));
ENDSEC;

DATA;
#10=SHAPE_REPRESENTATION_RELATIONSHIP('','',#705,#12);
#11=SHAPE_REPRESENTATION_RELATIONSHIP('','',#706,#13);
#12=ADVANCED_BREP_SHAPE_REPRESENTATION('',(#701),#1184);
#13=ADVANCED_BREP_SHAPE_REPRESENTATION('',(#702),#1185);
#14=PLANE('',#717);
#15=PLANE('',#719);
#16=PLANE('',#720);
#17=PLANE('',#722);
#18=PLANE('',#730);
#19=PLANE('',#731);
#20=PLANE('',#732);
#21=PLANE('',#734);
#22=PLANE('',#735);
#23=PLANE('',#736);
#24=PLANE('',#737);
#25=PLANE('',#738);
#26=PLANE('',#739);
#27=PLANE('',#741);
#28=PLANE('',#743);
#29=PLANE('',#748);
#30=PLANE('',#749);
#31=PLANE('',#750);
#32=PLANE('',#755);
#33=PLANE('',#757);
#34=PLANE('',#759);
#35=PLANE('',#760);
#36=PLANE('',#761);
#37=PLANE('',#762);
#38=PLANE('',#765);
#39=PLANE('',#766);
#40=PLANE('',#767);
#41=PLANE('',#768);
#42=PLANE('',#769);
#43=PLANE('',#773);
#44=PLANE('',#775);
#45=PLANE('',#778);
#46=PLANE('',#781);
#47=LINE('',#995,#105);
#48=LINE('',#1011,#106);
#49=LINE('',#1016,#107);
#50=LINE('',#1018,#108);
#51=LINE('',#1020,#109);
#52=LINE('',#1021,#110);
#53=LINE('',#1022,#111);
#54=LINE('',#1027,#112);
#55=LINE('',#1029,#113);
#56=LINE('',#1034,#114);
#57=LINE('',#1036,#115);
#58=LINE('',#1049,#116);
#59=LINE('',#1052,#117);
#60=LINE('',#1054,#118);
#61=LINE('',#1056,#119);
#62=LINE('',#1061,#120);
#63=LINE('',#1063,#121);
#64=LINE('',#1065,#122);
#65=LINE('',#1066,#123);
#66=LINE('',#1067,#124);
#67=LINE('',#1069,#125);
#68=LINE('',#1070,#126);
#69=LINE('',#1071,#127);
#70=LINE('',#1073,#128);
#71=LINE('',#1074,#129);
#72=LINE('',#1075,#130);
#73=LINE('',#1077,#131);
#74=LINE('',#1078,#132);
#75=LINE('',#1083,#133);
#76=LINE('',#1092,#134);
#77=LINE('',#1105,#135);
#78=LINE('',#1108,#136);
#79=LINE('',#1110,#137);
#80=LINE('',#1112,#138);
#81=LINE('',#1114,#139);
#82=LINE('',#1116,#140);
#83=LINE('',#1118,#141);
#84=LINE('',#1122,#142);
#85=LINE('',#1124,#143);
#86=LINE('',#1126,#144);
#87=LINE('',#1128,#145);
#88=LINE('',#1130,#146);
#89=LINE('',#1132,#147);
#90=LINE('',#1134,#148);
#91=LINE('',#1136,#149);
#92=LINE('',#1138,#150);
#93=LINE('',#1140,#151);
#94=LINE('',#1142,#152);
#95=LINE('',#1144,#153);
#96=LINE('',#1148,#154);
#97=LINE('',#1150,#155);
#98=LINE('',#1152,#156);
#99=LINE('',#1154,#157);
#100=LINE('',#1156,#158);
#101=LINE('',#1158,#159);
#102=LINE('',#1160,#160);
#103=LINE('',#1162,#161);
#104=LINE('',#1164,#162);
#105=VECTOR('',#788,1.);
#106=VECTOR('',#803,1.);
#107=VECTOR('',#808,1.);
#108=VECTOR('',#809,1.);
#109=VECTOR('',#812,1.);
#110=VECTOR('',#813,1.);
#111=VECTOR('',#814,1.);
#112=VECTOR('',#819,1.);
#113=VECTOR('',#820,1.);
#114=VECTOR('',#825,1.);
#115=VECTOR('',#826,1.);
#116=VECTOR('',#843,1.);
#117=VECTOR('',#844,1.);
#118=VECTOR('',#845,1.);
#119=VECTOR('',#846,1.);
#120=VECTOR('',#851,1.);
#121=VECTOR('',#852,1.);
#122=VECTOR('',#855,1.);
#123=VECTOR('',#856,1.);
#124=VECTOR('',#857,1.);
#125=VECTOR('',#860,1.);
#126=VECTOR('',#861,1.);
#127=VECTOR('',#862,1.);
#128=VECTOR('',#865,1.);
#129=VECTOR('',#866,1.);
#130=VECTOR('',#867,1.);
#131=VECTOR('',#870,1.);
#132=VECTOR('',#871,1.);
#133=VECTOR('',#880,1.);
#134=VECTOR('',#895,1.);
#135=VECTOR('',#914,1.);
#136=VECTOR('',#915,1.);
#137=VECTOR('',#916,1.);
#138=VECTOR('',#917,1.);
#139=VECTOR('',#918,1.);
#140=VECTOR('',#919,1.);
#141=VECTOR('',#920,1.);
#142=VECTOR('',#923,1.);
#143=VECTOR('',#924,1.);
#144=VECTOR('',#927,1.);
#145=VECTOR('',#928,1.);
#146=VECTOR('',#929,1.);
#147=VECTOR('',#932,1.);
#148=VECTOR('',#933,1.);
#149=VECTOR('',#936,1.);
#150=VECTOR('',#937,1.);
#151=VECTOR('',#940,1.);
#152=VECTOR('',#941,1.);
#153=VECTOR('',#944,1.);
#154=VECTOR('',#949,1.);
#155=VECTOR('',#950,1.);
#156=VECTOR('',#953,1.);
#157=VECTOR('',#954,1.);
#158=VECTOR('',#957,1.);
#159=VECTOR('',#958,1.);
#160=VECTOR('',#961,1.);
#161=VECTOR('',#962,1.);
#162=VECTOR('',#965,1.);
#163=ORIENTED_EDGE('',*,*,#341,.T.);
#164=ORIENTED_EDGE('',*,*,#342,.T.);
#165=ORIENTED_EDGE('',*,*,#343,.F.);
#166=ORIENTED_EDGE('',*,*,#344,.F.);
#167=ORIENTED_EDGE('',*,*,#345,.F.);
#168=ORIENTED_EDGE('',*,*,#346,.F.);
#169=ORIENTED_EDGE('',*,*,#347,.F.);
#170=ORIENTED_EDGE('',*,*,#348,.F.);
#171=ORIENTED_EDGE('',*,*,#349,.F.);
#172=ORIENTED_EDGE('',*,*,#350,.F.);
#173=ORIENTED_EDGE('',*,*,#351,.F.);
#174=ORIENTED_EDGE('',*,*,#352,.T.);
#175=ORIENTED_EDGE('',*,*,#353,.F.);
#176=ORIENTED_EDGE('',*,*,#354,.T.);
#177=ORIENTED_EDGE('',*,*,#344,.T.);
#178=ORIENTED_EDGE('',*,*,#355,.F.);
#179=ORIENTED_EDGE('',*,*,#348,.T.);
#180=ORIENTED_EDGE('',*,*,#356,.T.);
#181=ORIENTED_EDGE('',*,*,#346,.T.);
#182=ORIENTED_EDGE('',*,*,#357,.F.);
#183=ORIENTED_EDGE('',*,*,#358,.F.);
#184=ORIENTED_EDGE('',*,*,#359,.F.);
#185=ORIENTED_EDGE('',*,*,#360,.F.);
#186=ORIENTED_EDGE('',*,*,#361,.F.);
#187=ORIENTED_EDGE('',*,*,#362,.T.);
#188=ORIENTED_EDGE('',*,*,#363,.T.);
#189=ORIENTED_EDGE('',*,*,#364,.F.);
#190=ORIENTED_EDGE('',*,*,#365,.F.);
#191=ORIENTED_EDGE('',*,*,#366,.T.);
#192=ORIENTED_EDGE('',*,*,#364,.T.);
#193=ORIENTED_EDGE('',*,*,#366,.F.);
#194=ORIENTED_EDGE('',*,*,#365,.T.);
#195=ORIENTED_EDGE('',*,*,#367,.T.);
#196=ORIENTED_EDGE('',*,*,#368,.T.);
#197=ORIENTED_EDGE('',*,*,#369,.F.);
#198=ORIENTED_EDGE('',*,*,#370,.F.);
#199=ORIENTED_EDGE('',*,*,#371,.F.);
#200=ORIENTED_EDGE('',*,*,#372,.T.);
#201=ORIENTED_EDGE('',*,*,#373,.T.);
#202=ORIENTED_EDGE('',*,*,#368,.F.);
#203=ORIENTED_EDGE('',*,*,#374,.F.);
#204=ORIENTED_EDGE('',*,*,#358,.T.);
#205=ORIENTED_EDGE('',*,*,#375,.T.);
#206=ORIENTED_EDGE('',*,*,#353,.T.);
#207=ORIENTED_EDGE('',*,*,#376,.T.);
#208=ORIENTED_EDGE('',*,*,#369,.T.);
#209=ORIENTED_EDGE('',*,*,#376,.F.);
#210=ORIENTED_EDGE('',*,*,#352,.F.);
#211=ORIENTED_EDGE('',*,*,#377,.F.);
#212=ORIENTED_EDGE('',*,*,#354,.F.);
#213=ORIENTED_EDGE('',*,*,#378,.F.);
#214=ORIENTED_EDGE('',*,*,#373,.F.);
#215=ORIENTED_EDGE('',*,*,#379,.T.);
#216=ORIENTED_EDGE('',*,*,#370,.T.);
#217=ORIENTED_EDGE('',*,*,#379,.F.);
#218=ORIENTED_EDGE('',*,*,#372,.F.);
#219=ORIENTED_EDGE('',*,*,#380,.F.);
#220=ORIENTED_EDGE('',*,*,#356,.F.);
#221=ORIENTED_EDGE('',*,*,#381,.F.);
#222=ORIENTED_EDGE('',*,*,#362,.F.);
#223=ORIENTED_EDGE('',*,*,#382,.T.);
#224=ORIENTED_EDGE('',*,*,#367,.F.);
#225=ORIENTED_EDGE('',*,*,#382,.F.);
#226=ORIENTED_EDGE('',*,*,#361,.T.);
#227=ORIENTED_EDGE('',*,*,#383,.T.);
#228=ORIENTED_EDGE('',*,*,#355,.T.);
#229=ORIENTED_EDGE('',*,*,#384,.T.);
#230=ORIENTED_EDGE('',*,*,#359,.T.);
#231=ORIENTED_EDGE('',*,*,#374,.T.);
#232=ORIENTED_EDGE('',*,*,#363,.F.);
#233=ORIENTED_EDGE('',*,*,#385,.F.);
#234=ORIENTED_EDGE('',*,*,#381,.T.);
#235=ORIENTED_EDGE('',*,*,#347,.T.);
#236=ORIENTED_EDGE('',*,*,#380,.T.);
#237=ORIENTED_EDGE('',*,*,#343,.T.);
#238=ORIENTED_EDGE('',*,*,#386,.F.);
#239=ORIENTED_EDGE('',*,*,#349,.T.);
#240=ORIENTED_EDGE('',*,*,#383,.F.);
#241=ORIENTED_EDGE('',*,*,#387,.F.);
#242=ORIENTED_EDGE('',*,*,#384,.F.);
#243=ORIENTED_EDGE('',*,*,#388,.F.);
#244=ORIENTED_EDGE('',*,*,#378,.T.);
#245=ORIENTED_EDGE('',*,*,#345,.T.);
#246=ORIENTED_EDGE('',*,*,#377,.T.);
#247=ORIENTED_EDGE('',*,*,#389,.F.);
#248=ORIENTED_EDGE('',*,*,#351,.T.);
#249=ORIENTED_EDGE('',*,*,#390,.T.);
#250=ORIENTED_EDGE('',*,*,#357,.T.);
#251=ORIENTED_EDGE('',*,*,#387,.T.);
#252=ORIENTED_EDGE('',*,*,#360,.T.);
#253=ORIENTED_EDGE('',*,*,#385,.T.);
#254=ORIENTED_EDGE('',*,*,#371,.T.);
#255=ORIENTED_EDGE('',*,*,#388,.T.);
#256=ORIENTED_EDGE('',*,*,#341,.F.);
#257=ORIENTED_EDGE('',*,*,#391,.T.);
#258=ORIENTED_EDGE('',*,*,#389,.T.);
#259=ORIENTED_EDGE('',*,*,#375,.F.);
#260=ORIENTED_EDGE('',*,*,#390,.F.);
#261=ORIENTED_EDGE('',*,*,#386,.T.);
#262=ORIENTED_EDGE('',*,*,#342,.F.);
#263=ORIENTED_EDGE('',*,*,#391,.F.);
#264=ORIENTED_EDGE('',*,*,#350,.T.);
#265=ORIENTED_EDGE('',*,*,#392,.F.);
#266=ORIENTED_EDGE('',*,*,#393,.T.);
#267=ORIENTED_EDGE('',*,*,#394,.F.);
#268=ORIENTED_EDGE('',*,*,#392,.T.);
#269=ORIENTED_EDGE('',*,*,#395,.T.);
#270=ORIENTED_EDGE('',*,*,#396,.T.);
#271=ORIENTED_EDGE('',*,*,#397,.T.);
#272=ORIENTED_EDGE('',*,*,#398,.F.);
#273=ORIENTED_EDGE('',*,*,#399,.F.);
#274=ORIENTED_EDGE('',*,*,#400,.F.);
#275=ORIENTED_EDGE('',*,*,#401,.T.);
#276=ORIENTED_EDGE('',*,*,#402,.F.);
#277=ORIENTED_EDGE('',*,*,#403,.T.);
#278=ORIENTED_EDGE('',*,*,#404,.T.);
#279=ORIENTED_EDGE('',*,*,#393,.F.);
#280=ORIENTED_EDGE('',*,*,#396,.F.);
#281=ORIENTED_EDGE('',*,*,#405,.F.);
#282=ORIENTED_EDGE('',*,*,#406,.T.);
#283=ORIENTED_EDGE('',*,*,#407,.T.);
#284=ORIENTED_EDGE('',*,*,#395,.F.);
#285=ORIENTED_EDGE('',*,*,#408,.F.);
#286=ORIENTED_EDGE('',*,*,#409,.T.);
#287=ORIENTED_EDGE('',*,*,#405,.T.);
#288=ORIENTED_EDGE('',*,*,#404,.F.);
#289=ORIENTED_EDGE('',*,*,#410,.F.);
#290=ORIENTED_EDGE('',*,*,#411,.T.);
#291=ORIENTED_EDGE('',*,*,#408,.T.);
#292=ORIENTED_EDGE('',*,*,#403,.F.);
#293=ORIENTED_EDGE('',*,*,#412,.F.);
#294=ORIENTED_EDGE('',*,*,#413,.T.);
#295=ORIENTED_EDGE('',*,*,#410,.T.);
#296=ORIENTED_EDGE('',*,*,#402,.T.);
#297=ORIENTED_EDGE('',*,*,#414,.F.);
#298=ORIENTED_EDGE('',*,*,#415,.F.);
#299=ORIENTED_EDGE('',*,*,#412,.T.);
#300=ORIENTED_EDGE('',*,*,#401,.F.);
#301=ORIENTED_EDGE('',*,*,#416,.F.);
#302=ORIENTED_EDGE('',*,*,#417,.T.);
#303=ORIENTED_EDGE('',*,*,#414,.T.);
#304=ORIENTED_EDGE('',*,*,#400,.T.);
#305=ORIENTED_EDGE('',*,*,#418,.F.);
#306=ORIENTED_EDGE('',*,*,#419,.F.);
#307=ORIENTED_EDGE('',*,*,#416,.T.);
#308=ORIENTED_EDGE('',*,*,#399,.T.);
#309=ORIENTED_EDGE('',*,*,#420,.F.);
#310=ORIENTED_EDGE('',*,*,#421,.F.);
#311=ORIENTED_EDGE('',*,*,#418,.T.);
#312=ORIENTED_EDGE('',*,*,#398,.T.);
#313=ORIENTED_EDGE('',*,*,#422,.F.);
#314=ORIENTED_EDGE('',*,*,#423,.F.);
#315=ORIENTED_EDGE('',*,*,#420,.T.);
#316=ORIENTED_EDGE('',*,*,#397,.F.);
#317=ORIENTED_EDGE('',*,*,#407,.F.);
#318=ORIENTED_EDGE('',*,*,#424,.T.);
#319=ORIENTED_EDGE('',*,*,#422,.T.);
#320=ORIENTED_EDGE('',*,*,#425,.F.);
#321=ORIENTED_EDGE('',*,*,#426,.T.);
#322=ORIENTED_EDGE('',*,*,#427,.F.);
#323=ORIENTED_EDGE('',*,*,#425,.T.);
#324=ORIENTED_EDGE('',*,*,#406,.F.);
#325=ORIENTED_EDGE('',*,*,#409,.F.);
#326=ORIENTED_EDGE('',*,*,#411,.F.);
#327=ORIENTED_EDGE('',*,*,#413,.F.);
#328=ORIENTED_EDGE('',*,*,#415,.T.);
#329=ORIENTED_EDGE('',*,*,#417,.F.);
#330=ORIENTED_EDGE('',*,*,#419,.T.);
#331=ORIENTED_EDGE('',*,*,#421,.T.);
#332=ORIENTED_EDGE('',*,*,#423,.T.);
#333=ORIENTED_EDGE('',*,*,#424,.F.);
#334=ORIENTED_EDGE('',*,*,#426,.F.);
#335=ORIENTED_EDGE('',*,*,#428,.F.);
#336=ORIENTED_EDGE('',*,*,#394,.T.);
#337=ORIENTED_EDGE('',*,*,#428,.T.);
#338=ORIENTED_EDGE('',*,*,#427,.T.);
#339=ORIENTED_EDGE('',*,*,#429,.T.);
#340=ORIENTED_EDGE('',*,*,#429,.F.);
#341=EDGE_CURVE('',#430,#431,#489,.T.);
#342=EDGE_CURVE('',#431,#432,#47,.T.);
#343=EDGE_CURVE('',#433,#432,#490,.T.);
#344=EDGE_CURVE('',#434,#433,#491,.T.);
#345=EDGE_CURVE('',#435,#434,#492,.T.);
#346=EDGE_CURVE('',#436,#435,#493,.T.);
#347=EDGE_CURVE('',#437,#436,#494,.T.);
#348=EDGE_CURVE('',#438,#437,#495,.T.);
#349=EDGE_CURVE('',#439,#438,#496,.T.);
#350=EDGE_CURVE('',#430,#439,#48,.T.);
#351=EDGE_CURVE('',#440,#441,#497,.T.);
#352=EDGE_CURVE('',#440,#442,#49,.T.);
#353=EDGE_CURVE('',#441,#442,#50,.T.);
#354=EDGE_CURVE('',#435,#434,#51,.T.);
#355=EDGE_CURVE('',#438,#433,#52,.T.);
#356=EDGE_CURVE('',#437,#436,#53,.T.);
#357=EDGE_CURVE('',#443,#444,#498,.T.);
#358=EDGE_CURVE('',#445,#443,#54,.T.);
#359=EDGE_CURVE('',#444,#445,#55,.T.);
#360=EDGE_CURVE('',#446,#447,#499,.T.);
#361=EDGE_CURVE('',#448,#446,#56,.T.);
#362=EDGE_CURVE('',#448,#447,#57,.T.);
#363=EDGE_CURVE('',#449,#449,#500,.T.);
#364=EDGE_CURVE('',#450,#450,#501,.T.);
#365=EDGE_CURVE('',#451,#451,#502,.T.);
#366=EDGE_CURVE('',#452,#452,#503,.T.);
#367=EDGE_CURVE('',#453,#454,#58,.T.);
#368=EDGE_CURVE('',#454,#455,#59,.T.);
#369=EDGE_CURVE('',#456,#455,#60,.T.);
#370=EDGE_CURVE('',#453,#456,#61,.T.);
#371=EDGE_CURVE('',#457,#458,#504,.T.);
#372=EDGE_CURVE('',#457,#459,#62,.T.);
#373=EDGE_CURVE('',#459,#458,#63,.T.);
#374=EDGE_CURVE('',#445,#454,#64,.T.);
#375=EDGE_CURVE('',#443,#441,#65,.T.);
#376=EDGE_CURVE('',#442,#455,#66,.T.);
#377=EDGE_CURVE('',#434,#440,#67,.T.);
#378=EDGE_CURVE('',#458,#435,#68,.T.);
#379=EDGE_CURVE('',#459,#456,#69,.T.);
#380=EDGE_CURVE('',#436,#457,#70,.T.);
#381=EDGE_CURVE('',#447,#437,#71,.T.);
#382=EDGE_CURVE('',#448,#453,#72,.T.);
#383=EDGE_CURVE('',#446,#438,#73,.T.);
#384=EDGE_CURVE('',#433,#444,#74,.T.);
#385=EDGE_CURVE('',#447,#457,#505,.T.);
#386=EDGE_CURVE('',#439,#432,#75,.T.);
#387=EDGE_CURVE('',#444,#446,#506,.T.);
#388=EDGE_CURVE('',#458,#440,#507,.T.);
#389=EDGE_CURVE('',#460,#460,#508,.T.);
#390=EDGE_CURVE('',#441,#443,#509,.T.);
#391=EDGE_CURVE('',#430,#431,#76,.T.);
#392=EDGE_CURVE('',#461,#461,#510,.T.);
#393=EDGE_CURVE('',#462,#462,#511,.T.);
#394=EDGE_CURVE('',#463,#463,#512,.T.);
#395=EDGE_CURVE('',#464,#465,#77,.T.);
#396=EDGE_CURVE('',#465,#466,#78,.T.);
#397=EDGE_CURVE('',#466,#467,#79,.T.);
#398=EDGE_CURVE('',#468,#467,#80,.T.);
#399=EDGE_CURVE('',#469,#468,#81,.T.);
#400=EDGE_CURVE('',#470,#469,#82,.T.);
#401=EDGE_CURVE('',#470,#471,#83,.T.);
#402=EDGE_CURVE('',#472,#471,#513,.T.);
#403=EDGE_CURVE('',#472,#473,#84,.T.);
#404=EDGE_CURVE('',#473,#464,#85,.T.);
#405=EDGE_CURVE('',#474,#465,#86,.T.);
#406=EDGE_CURVE('',#474,#475,#87,.T.);
#407=EDGE_CURVE('',#475,#466,#88,.T.);
#408=EDGE_CURVE('',#476,#464,#89,.T.);
#409=EDGE_CURVE('',#476,#474,#90,.T.);
#410=EDGE_CURVE('',#477,#473,#91,.T.);
#411=EDGE_CURVE('',#477,#476,#92,.T.);
#412=EDGE_CURVE('',#478,#472,#93,.T.);
#413=EDGE_CURVE('',#478,#477,#94,.T.);
#414=EDGE_CURVE('',#479,#471,#95,.T.);
#415=EDGE_CURVE('',#478,#479,#514,.T.);
#416=EDGE_CURVE('',#480,#470,#96,.T.);
#417=EDGE_CURVE('',#480,#479,#97,.T.);
#418=EDGE_CURVE('',#481,#469,#98,.T.);
#419=EDGE_CURVE('',#480,#481,#99,.T.);
#420=EDGE_CURVE('',#482,#468,#100,.T.);
#421=EDGE_CURVE('',#481,#482,#101,.T.);
#422=EDGE_CURVE('',#483,#467,#102,.T.);
#423=EDGE_CURVE('',#482,#483,#103,.T.);
#424=EDGE_CURVE('',#475,#483,#104,.T.);
#425=EDGE_CURVE('',#484,#484,#515,.T.);
#426=EDGE_CURVE('',#485,#485,#516,.T.);
#427=EDGE_CURVE('',#486,#486,#517,.T.);
#428=EDGE_CURVE('',#487,#487,#518,.T.);
#429=EDGE_CURVE('',#488,#488,#519,.T.);
#430=VERTEX_POINT('',#993);
#431=VERTEX_POINT('',#994);
#432=VERTEX_POINT('',#996);
#433=VERTEX_POINT('',#998);
#434=VERTEX_POINT('',#1000);
#435=VERTEX_POINT('',#1002);
#436=VERTEX_POINT('',#1004);
#437=VERTEX_POINT('',#1006);
#438=VERTEX_POINT('',#1008);
#439=VERTEX_POINT('',#1010);
#440=VERTEX_POINT('',#1014);
#441=VERTEX_POINT('',#1015);
#442=VERTEX_POINT('',#1017);
#443=VERTEX_POINT('',#1025);
#444=VERTEX_POINT('',#1026);
#445=VERTEX_POINT('',#1028);
#446=VERTEX_POINT('',#1032);
#447=VERTEX_POINT('',#1033);
#448=VERTEX_POINT('',#1035);
#449=VERTEX_POINT('',#1039);
#450=VERTEX_POINT('',#1041);
#451=VERTEX_POINT('',#1044);
#452=VERTEX_POINT('',#1046);
#453=VERTEX_POINT('',#1050);
#454=VERTEX_POINT('',#1051);
#455=VERTEX_POINT('',#1053);
#456=VERTEX_POINT('',#1055);
#457=VERTEX_POINT('',#1059);
#458=VERTEX_POINT('',#1060);
#459=VERTEX_POINT('',#1062);
#460=VERTEX_POINT('',#1089);
#461=VERTEX_POINT('',#1098);
#462=VERTEX_POINT('',#1100);
#463=VERTEX_POINT('',#1103);
#464=VERTEX_POINT('',#1106);
#465=VERTEX_POINT('',#1107);
#466=VERTEX_POINT('',#1109);
#467=VERTEX_POINT('',#1111);
#468=VERTEX_POINT('',#1113);
#469=VERTEX_POINT('',#1115);
#470=VERTEX_POINT('',#1117);
#471=VERTEX_POINT('',#1119);
#472=VERTEX_POINT('',#1121);
#473=VERTEX_POINT('',#1123);
#474=VERTEX_POINT('',#1127);
#475=VERTEX_POINT('',#1129);
#476=VERTEX_POINT('',#1133);
#477=VERTEX_POINT('',#1137);
#478=VERTEX_POINT('',#1141);
#479=VERTEX_POINT('',#1145);
#480=VERTEX_POINT('',#1149);
#481=VERTEX_POINT('',#1153);
#482=VERTEX_POINT('',#1157);
#483=VERTEX_POINT('',#1161);
#484=VERTEX_POINT('',#1167);
#485=VERTEX_POINT('',#1169);
#486=VERTEX_POINT('',#1172);
#487=VERTEX_POINT('',#1176);
#488=VERTEX_POINT('',#1180);
#489=CIRCLE('',#709,0.00405);
#490=CIRCLE('',#710,0.00405);
#491=CIRCLE('',#711,0.00405);
#492=CIRCLE('',#712,0.00405);
#493=CIRCLE('',#713,0.00405);
#494=CIRCLE('',#714,0.00405);
#495=CIRCLE('',#715,0.00405);
#496=CIRCLE('',#716,0.00405);
#497=CIRCLE('',#718,0.00465);
#498=CIRCLE('',#721,0.00465);
#499=CIRCLE('',#723,0.00465);
#500=CIRCLE('',#725,0.00255);
#501=CIRCLE('',#726,0.00255);
#502=CIRCLE('',#728,0.00305);
#503=CIRCLE('',#729,0.00305);
#504=CIRCLE('',#733,0.00465);
#505=CIRCLE('',#740,0.00465);
#506=CIRCLE('',#742,0.00465);
#507=CIRCLE('',#744,0.00465);
#508=CIRCLE('',#746,0.00465);
#509=CIRCLE('',#747,0.00465);
#510=CIRCLE('',#753,0.007);
#511=CIRCLE('',#754,0.007);
#512=CIRCLE('',#756,0.0025);
#513=CIRCLE('',#758,0.0065);
#514=CIRCLE('',#764,0.0065);
#515=CIRCLE('',#771,0.007);
#516=CIRCLE('',#772,0.007);
#517=CIRCLE('',#774,0.0025);
#518=CIRCLE('',#777,0.0025);
#519=CIRCLE('',#780,0.0025);
#520=EDGE_LOOP('',(#163,#164,#165,#166,#167,#168,#169,#170,#171,#172));
#521=EDGE_LOOP('',(#173,#174,#175));
#522=EDGE_LOOP('',(#176,#177,#178,#179,#180,#181));
#523=EDGE_LOOP('',(#182,#183,#184));
#524=EDGE_LOOP('',(#185,#186,#187));
#525=EDGE_LOOP('',(#188));
#526=EDGE_LOOP('',(#189));
#527=EDGE_LOOP('',(#190));
#528=EDGE_LOOP('',(#191));
#529=EDGE_LOOP('',(#192));
#530=EDGE_LOOP('',(#193));
#531=EDGE_LOOP('',(#194));
#532=EDGE_LOOP('',(#195,#196,#197,#198));
#533=EDGE_LOOP('',(#199,#200,#201));
#534=EDGE_LOOP('',(#202,#203,#204,#205,#206,#207));
#535=EDGE_LOOP('',(#208,#209,#210,#211,#212,#213,#214,#215));
#536=EDGE_LOOP('',(#216,#217,#218,#219,#220,#221,#222,#223));
#537=EDGE_LOOP('',(#224,#225,#226,#227,#228,#229,#230,#231));
#538=EDGE_LOOP('',(#232));
#539=EDGE_LOOP('',(#233,#234,#235,#236));
#540=EDGE_LOOP('',(#237,#238,#239,#240,#241,#242));
#541=EDGE_LOOP('',(#243,#244,#245,#246));
#542=EDGE_LOOP('',(#247));
#543=EDGE_LOOP('',(#248,#249,#250,#251,#252,#253,#254,#255));
#544=EDGE_LOOP('',(#256,#257));
#545=EDGE_LOOP('',(#258));
#546=EDGE_LOOP('',(#259,#260));
#547=EDGE_LOOP('',(#261,#262,#263,#264));
#548=EDGE_LOOP('',(#265));
#549=EDGE_LOOP('',(#266));
#550=EDGE_LOOP('',(#267));
#551=EDGE_LOOP('',(#268));
#552=EDGE_LOOP('',(#269,#270,#271,#272,#273,#274,#275,#276,#277,#278));
#553=EDGE_LOOP('',(#279));
#554=EDGE_LOOP('',(#280,#281,#282,#283));
#555=EDGE_LOOP('',(#284,#285,#286,#287));
#556=EDGE_LOOP('',(#288,#289,#290,#291));
#557=EDGE_LOOP('',(#292,#293,#294,#295));
#558=EDGE_LOOP('',(#296,#297,#298,#299));
#559=EDGE_LOOP('',(#300,#301,#302,#303));
#560=EDGE_LOOP('',(#304,#305,#306,#307));
#561=EDGE_LOOP('',(#308,#309,#310,#311));
#562=EDGE_LOOP('',(#312,#313,#314,#315));
#563=EDGE_LOOP('',(#316,#317,#318,#319));
#564=EDGE_LOOP('',(#320));
#565=EDGE_LOOP('',(#321));
#566=EDGE_LOOP('',(#322));
#567=EDGE_LOOP('',(#323));
#568=EDGE_LOOP('',(#324,#325,#326,#327,#328,#329,#330,#331,#332,#333));
#569=EDGE_LOOP('',(#334));
#570=EDGE_LOOP('',(#335));
#571=EDGE_LOOP('',(#336));
#572=EDGE_LOOP('',(#337));
#573=EDGE_LOOP('',(#338));
#574=EDGE_LOOP('',(#339));
#575=EDGE_LOOP('',(#340));
#576=FACE_BOUND('',#520,.T.);
#577=FACE_BOUND('',#521,.T.);
#578=FACE_BOUND('',#522,.T.);
#579=FACE_BOUND('',#523,.T.);
#580=FACE_BOUND('',#524,.T.);
#581=FACE_BOUND('',#525,.T.);
#582=FACE_BOUND('',#526,.T.);
#583=FACE_BOUND('',#527,.T.);
#584=FACE_BOUND('',#528,.T.);
#585=FACE_BOUND('',#529,.T.);
#586=FACE_BOUND('',#530,.T.);
#587=FACE_BOUND('',#531,.T.);
#588=FACE_BOUND('',#532,.T.);
#589=FACE_BOUND('',#533,.T.);
#590=FACE_BOUND('',#534,.T.);
#591=FACE_BOUND('',#535,.T.);
#592=FACE_BOUND('',#536,.T.);
#593=FACE_BOUND('',#537,.T.);
#594=FACE_BOUND('',#538,.T.);
#595=FACE_BOUND('',#539,.T.);
#596=FACE_BOUND('',#540,.T.);
#597=FACE_BOUND('',#541,.T.);
#598=FACE_BOUND('',#542,.T.);
#599=FACE_BOUND('',#543,.T.);
#600=FACE_BOUND('',#544,.T.);
#601=FACE_BOUND('',#545,.T.);
#602=FACE_BOUND('',#546,.T.);
#603=FACE_BOUND('',#547,.T.);
#604=FACE_BOUND('',#548,.T.);
#605=FACE_BOUND('',#549,.T.);
#606=FACE_BOUND('',#550,.T.);
#607=FACE_BOUND('',#551,.T.);
#608=FACE_BOUND('',#552,.T.);
#609=FACE_BOUND('',#553,.T.);
#610=FACE_BOUND('',#554,.T.);
#611=FACE_BOUND('',#555,.T.);
#612=FACE_BOUND('',#556,.T.);
#613=FACE_BOUND('',#557,.T.);
#614=FACE_BOUND('',#558,.T.);
#615=FACE_BOUND('',#559,.T.);
#616=FACE_BOUND('',#560,.T.);
#617=FACE_BOUND('',#561,.T.);
#618=FACE_BOUND('',#562,.T.);
#619=FACE_BOUND('',#563,.T.);
#620=FACE_BOUND('',#564,.T.);
#621=FACE_BOUND('',#565,.T.);
#622=FACE_BOUND('',#566,.T.);
#623=FACE_BOUND('',#567,.T.);
#624=FACE_BOUND('',#568,.T.);
#625=FACE_BOUND('',#569,.T.);
#626=FACE_BOUND('',#570,.T.);
#627=FACE_BOUND('',#571,.T.);
#628=FACE_BOUND('',#572,.T.);
#629=FACE_BOUND('',#573,.T.);
#630=FACE_BOUND('',#574,.T.);
#631=FACE_BOUND('',#575,.T.);
#632=CYLINDRICAL_SURFACE('',#708,0.00405);
#633=CYLINDRICAL_SURFACE('',#724,0.00255);
#634=CYLINDRICAL_SURFACE('',#727,0.00305);
#635=CYLINDRICAL_SURFACE('',#745,0.00465);
#636=CYLINDRICAL_SURFACE('',#752,0.007);
#637=CYLINDRICAL_SURFACE('',#763,0.0065);
#638=CYLINDRICAL_SURFACE('',#770,0.007);
#639=CYLINDRICAL_SURFACE('',#776,0.0025);
#640=CYLINDRICAL_SURFACE('',#779,0.0025);
#641=ADVANCED_FACE('',(#576),#632,.F.);
#642=ADVANCED_FACE('',(#577),#14,.T.);
#643=ADVANCED_FACE('',(#578),#15,.T.);
#644=ADVANCED_FACE('',(#579),#16,.T.);
#645=ADVANCED_FACE('',(#580),#17,.T.);
#646=ADVANCED_FACE('',(#581,#582),#633,.F.);
#647=ADVANCED_FACE('',(#583,#584),#634,.T.);
#648=ADVANCED_FACE('',(#585,#586),#18,.F.);
#649=ADVANCED_FACE('',(#587,#588),#19,.F.);
#650=ADVANCED_FACE('',(#589),#20,.T.);
#651=ADVANCED_FACE('',(#590),#21,.T.);
#652=ADVANCED_FACE('',(#591),#22,.F.);
#653=ADVANCED_FACE('',(#592),#23,.F.);
#654=ADVANCED_FACE('',(#593),#24,.T.);
#655=ADVANCED_FACE('',(#594),#25,.F.);
#656=ADVANCED_FACE('',(#595),#26,.F.);
#657=ADVANCED_FACE('',(#596),#27,.F.);
#658=ADVANCED_FACE('',(#597),#28,.F.);
#659=ADVANCED_FACE('',(#598,#599),#635,.T.);
#660=ADVANCED_FACE('',(#600,#601),#29,.T.);
#661=ADVANCED_FACE('',(#602),#30,.F.);
#662=ADVANCED_FACE('',(#603),#31,.F.);
#663=ADVANCED_FACE('',(#604,#605),#636,.T.);
#664=ADVANCED_FACE('',(#606,#607),#32,.T.);
#665=ADVANCED_FACE('',(#608,#609),#33,.F.);
#666=ADVANCED_FACE('',(#610),#34,.T.);
#667=ADVANCED_FACE('',(#611),#35,.T.);
#668=ADVANCED_FACE('',(#612),#36,.T.);
#669=ADVANCED_FACE('',(#613),#37,.T.);
#670=ADVANCED_FACE('',(#614),#637,.T.);
#671=ADVANCED_FACE('',(#615),#38,.T.);
#672=ADVANCED_FACE('',(#616),#39,.F.);
#673=ADVANCED_FACE('',(#617),#40,.F.);
#674=ADVANCED_FACE('',(#618),#41,.F.);
#675=ADVANCED_FACE('',(#619),#42,.T.);
#676=ADVANCED_FACE('',(#620,#621),#638,.T.);
#677=ADVANCED_FACE('',(#622,#623),#43,.T.);
#678=ADVANCED_FACE('',(#624,#625),#44,.F.);
#679=ADVANCED_FACE('',(#626,#627),#639,.T.);
#680=ADVANCED_FACE('',(#628),#45,.T.);
#681=ADVANCED_FACE('',(#629,#630),#640,.T.);
#682=ADVANCED_FACE('',(#631),#46,.F.);
#683=CLOSED_SHELL('',(#641,#642,#643,#644,#645,#646,#647,#648,#649,#650,
#651,#652,#653,#654,#655,#656,#657,#658,#659,#660,#661,#662));
#684=CLOSED_SHELL('',(#663,#664,#665,#666,#667,#668,#669,#670,#671,#672,
#673,#674,#675,#676,#677,#678,#679,#680,#681,#682));
#685=STYLED_ITEM('',(#687),#701);
#686=STYLED_ITEM('',(#688),#702);
#687=PRESENTATION_STYLE_ASSIGNMENT((#689));
#688=PRESENTATION_STYLE_ASSIGNMENT((#690));
#689=SURFACE_STYLE_USAGE(.BOTH.,#691);
#690=SURFACE_STYLE_USAGE(.BOTH.,#692);
#691=SURFACE_SIDE_STYLE('',(#693));
#692=SURFACE_SIDE_STYLE('',(#694));
#693=SURFACE_STYLE_FILL_AREA(#695);
#694=SURFACE_STYLE_FILL_AREA(#696);
#695=FILL_AREA_STYLE('',(#697));
#696=FILL_AREA_STYLE('',(#698));
#697=FILL_AREA_STYLE_COLOUR('',#699);
#698=FILL_AREA_STYLE_COLOUR('',#700);
#699=COLOUR_RGB('',0.647058823529412,0.647058823529412,0.647058823529412);
#700=COLOUR_RGB('',0.615686274509804,0.811764705882353,0.929411764705882);
#701=MANIFOLD_SOLID_BREP('Part 2',#683);
#702=MANIFOLD_SOLID_BREP('pulley',#684);
#703=SHAPE_DEFINITION_REPRESENTATION(#1194,#705);
#704=SHAPE_DEFINITION_REPRESENTATION(#1195,#706);
#705=SHAPE_REPRESENTATION('Part 2',(#707),#1184);
#706=SHAPE_REPRESENTATION('pulley',(#751),#1185);
#707=AXIS2_PLACEMENT_3D('',#990,#782,#783);
#708=AXIS2_PLACEMENT_3D('',#991,#784,#785);
#709=AXIS2_PLACEMENT_3D('',#992,#786,#787);
#710=AXIS2_PLACEMENT_3D('',#997,#789,#790);
#711=AXIS2_PLACEMENT_3D('',#999,#791,#792);
#712=AXIS2_PLACEMENT_3D('',#1001,#793,#794);
#713=AXIS2_PLACEMENT_3D('',#1003,#795,#796);
#714=AXIS2_PLACEMENT_3D('',#1005,#797,#798);
#715=AXIS2_PLACEMENT_3D('',#1007,#799,#800);
#716=AXIS2_PLACEMENT_3D('',#1009,#801,#802);
#717=AXIS2_PLACEMENT_3D('',#1012,#804,#805);
#718=AXIS2_PLACEMENT_3D('',#1013,#806,#807);
#719=AXIS2_PLACEMENT_3D('',#1019,#810,#811);
#720=AXIS2_PLACEMENT_3D('',#1023,#815,#816);
#721=AXIS2_PLACEMENT_3D('',#1024,#817,#818);
#722=AXIS2_PLACEMENT_3D('',#1030,#821,#822);
#723=AXIS2_PLACEMENT_3D('',#1031,#823,#824);
#724=AXIS2_PLACEMENT_3D('',#1037,#827,#828);
#725=AXIS2_PLACEMENT_3D('',#1038,#829,#830);
#726=AXIS2_PLACEMENT_3D('',#1040,#831,#832);
#727=AXIS2_PLACEMENT_3D('',#1042,#833,#834);
#728=AXIS2_PLACEMENT_3D('',#1043,#835,#836);
#729=AXIS2_PLACEMENT_3D('',#1045,#837,#838);
#730=AXIS2_PLACEMENT_3D('',#1047,#839,#840);
#731=AXIS2_PLACEMENT_3D('',#1048,#841,#842);
#732=AXIS2_PLACEMENT_3D('',#1057,#847,#848);
#733=AXIS2_PLACEMENT_3D('',#1058,#849,#850);
#734=AXIS2_PLACEMENT_3D('',#1064,#853,#854);
#735=AXIS2_PLACEMENT_3D('',#1068,#858,#859);
#736=AXIS2_PLACEMENT_3D('',#1072,#863,#864);
#737=AXIS2_PLACEMENT_3D('',#1076,#868,#869);
#738=AXIS2_PLACEMENT_3D('',#1079,#872,#873);
#739=AXIS2_PLACEMENT_3D('',#1080,#874,#875);
#740=AXIS2_PLACEMENT_3D('',#1081,#876,#877);
#741=AXIS2_PLACEMENT_3D('',#1082,#878,#879);
#742=AXIS2_PLACEMENT_3D('',#1084,#881,#882);
#743=AXIS2_PLACEMENT_3D('',#1085,#883,#884);
#744=AXIS2_PLACEMENT_3D('',#1086,#885,#886);
#745=AXIS2_PLACEMENT_3D('',#1087,#887,#888);
#746=AXIS2_PLACEMENT_3D('',#1088,#889,#890);
#747=AXIS2_PLACEMENT_3D('',#1090,#891,#892);
#748=AXIS2_PLACEMENT_3D('',#1091,#893,#894);
#749=AXIS2_PLACEMENT_3D('',#1093,#896,#897);
#750=AXIS2_PLACEMENT_3D('',#1094,#898,#899);
#751=AXIS2_PLACEMENT_3D('',#1095,#900,#901);
#752=AXIS2_PLACEMENT_3D('',#1096,#902,#903);
#753=AXIS2_PLACEMENT_3D('',#1097,#904,#905);
#754=AXIS2_PLACEMENT_3D('',#1099,#906,#907);
#755=AXIS2_PLACEMENT_3D('',#1101,#908,#909);
#756=AXIS2_PLACEMENT_3D('',#1102,#910,#911);
#757=AXIS2_PLACEMENT_3D('',#1104,#912,#913);
#758=AXIS2_PLACEMENT_3D('',#1120,#921,#922);
#759=AXIS2_PLACEMENT_3D('',#1125,#925,#926);
#760=AXIS2_PLACEMENT_3D('',#1131,#930,#931);
#761=AXIS2_PLACEMENT_3D('',#1135,#934,#935);
#762=AXIS2_PLACEMENT_3D('',#1139,#938,#939);
#763=AXIS2_PLACEMENT_3D('',#1143,#942,#943);
#764=AXIS2_PLACEMENT_3D('',#1146,#945,#946);
#765=AXIS2_PLACEMENT_3D('',#1147,#947,#948);
#766=AXIS2_PLACEMENT_3D('',#1151,#951,#952);
#767=AXIS2_PLACEMENT_3D('',#1155,#955,#956);
#768=AXIS2_PLACEMENT_3D('',#1159,#959,#960);
#769=AXIS2_PLACEMENT_3D('',#1163,#963,#964);
#770=AXIS2_PLACEMENT_3D('',#1165,#966,#967);
#771=AXIS2_PLACEMENT_3D('',#1166,#968,#969);
#772=AXIS2_PLACEMENT_3D('',#1168,#970,#971);
#773=AXIS2_PLACEMENT_3D('',#1170,#972,#973);
#774=AXIS2_PLACEMENT_3D('',#1171,#974,#975);
#775=AXIS2_PLACEMENT_3D('',#1173,#976,#977);
#776=AXIS2_PLACEMENT_3D('',#1174,#978,#979);
#777=AXIS2_PLACEMENT_3D('',#1175,#980,#981);
#778=AXIS2_PLACEMENT_3D('',#1177,#982,#983);
#779=AXIS2_PLACEMENT_3D('',#1178,#984,#985);
#780=AXIS2_PLACEMENT_3D('',#1179,#986,#987);
#781=AXIS2_PLACEMENT_3D('',#1181,#988,#989);
#782=DIRECTION('',(0.,0.,1.));
#783=DIRECTION('',(1.,0.,0.));
#784=DIRECTION('',(0.,1.,0.));
#785=DIRECTION('',(0.,0.,1.));
#786=DIRECTION('',(0.,-1.,0.));
#787=DIRECTION('',(0.,0.,-1.));
#788=DIRECTION('',(0.,1.,0.));
#789=DIRECTION('',(0.,-1.,0.));
#790=DIRECTION('',(0.,0.,-1.));
#791=DIRECTION('',(0.,-1.,0.));
#792=DIRECTION('',(0.,0.,-1.));
#793=DIRECTION('',(0.,-1.,0.));
#794=DIRECTION('',(0.,0.,-1.));
#795=DIRECTION('',(0.,-1.,0.));
#796=DIRECTION('',(0.,0.,-1.));
#797=DIRECTION('',(0.,-1.,0.));
#798=DIRECTION('',(0.,0.,-1.));
#799=DIRECTION('',(0.,-1.,0.));
#800=DIRECTION('',(0.,0.,-1.));
#801=DIRECTION('',(0.,-1.,0.));
#802=DIRECTION('',(0.,0.,-1.));
#803=DIRECTION('',(0.,1.,0.));
#804=DIRECTION('',(0.,-1.,0.));
#805=DIRECTION('',(1.,0.,0.));
#806=DIRECTION('',(0.,-1.,0.));
#807=DIRECTION('',(0.,0.,-1.));
#808=DIRECTION('',(1.,0.,0.));
#809=DIRECTION('',(0.,0.,-1.));
#810=DIRECTION('',(0.,-1.,0.));
#811=DIRECTION('',(1.,0.,0.));
#812=DIRECTION('',(1.,0.,0.));
#813=DIRECTION('',(1.,0.,0.));
#814=DIRECTION('',(0.,0.,-1.));
#815=DIRECTION('',(0.,-1.,0.));
#816=DIRECTION('',(1.,0.,0.));
#817=DIRECTION('',(0.,-1.,0.));
#818=DIRECTION('',(0.,0.,-1.));
#819=DIRECTION('',(0.,0.,-1.));
#820=DIRECTION('',(1.,0.,0.));
#821=DIRECTION('',(0.,-1.,0.));
#822=DIRECTION('',(1.,0.,0.));
#823=DIRECTION('',(0.,-1.,0.));
#824=DIRECTION('',(0.,0.,-1.));
#825=DIRECTION('',(1.,0.,0.));
#826=DIRECTION('',(0.,0.,-1.));
#827=DIRECTION('',(0.,1.,0.));
#828=DIRECTION('',(0.,0.,1.));
#829=DIRECTION('',(0.,-1.,0.));
#830=DIRECTION('',(0.,0.,-1.));
#831=DIRECTION('',(0.,-1.,0.));
#832=DIRECTION('',(0.,0.,-1.));
#833=DIRECTION('',(0.,1.,0.));
#834=DIRECTION('',(0.,0.,1.));
#835=DIRECTION('',(0.,-1.,0.));
#836=DIRECTION('',(0.,0.,-1.));
#837=DIRECTION('',(0.,-1.,0.));
#838=DIRECTION('',(0.,0.,-1.));
#839=DIRECTION('',(0.,-1.,0.));
#840=DIRECTION('',(1.,0.,0.));
#841=DIRECTION('',(0.,-1.,0.));
#842=DIRECTION('',(1.,0.,0.));
#843=DIRECTION('',(1.,0.,0.));
#844=DIRECTION('',(0.,0.,-1.));
#845=DIRECTION('',(1.,0.,0.));
#846=DIRECTION('',(0.,0.,-1.));
#847=DIRECTION('',(0.,-1.,0.));
#848=DIRECTION('',(1.,0.,0.));
#849=DIRECTION('',(0.,-1.,0.));
#850=DIRECTION('',(0.,0.,-1.));
#851=DIRECTION('',(0.,0.,-1.));
#852=DIRECTION('',(1.,0.,0.));
#853=DIRECTION('',(1.,0.,0.));
#854=DIRECTION('',(0.,0.,-1.));
#855=DIRECTION('',(0.,1.,0.));
#856=DIRECTION('',(0.,0.,-1.));
#857=DIRECTION('',(0.,1.,0.));
#858=DIRECTION('',(0.,0.,1.));
#859=DIRECTION('',(1.,0.,0.));
#860=DIRECTION('',(1.,0.,0.));
#861=DIRECTION('',(1.,0.,0.));
#862=DIRECTION('',(0.,1.,0.));
#863=DIRECTION('',(1.,0.,0.));
#864=DIRECTION('',(0.,0.,-1.));
#865=DIRECTION('',(0.,0.,-1.));
#866=DIRECTION('',(0.,0.,-1.));
#867=DIRECTION('',(0.,1.,0.));
#868=DIRECTION('',(0.,0.,1.));
#869=DIRECTION('',(1.,0.,0.));
#870=DIRECTION('',(1.,0.,0.));
#871=DIRECTION('',(1.,0.,0.));
#872=DIRECTION('',(0.,-1.,0.));
#873=DIRECTION('',(1.,0.,0.));
#874=DIRECTION('',(0.,-1.,0.));
#875=DIRECTION('',(1.,0.,0.));
#876=DIRECTION('',(0.,-1.,0.));
#877=DIRECTION('',(0.,0.,-1.));
#878=DIRECTION('',(0.,-1.,0.));
#879=DIRECTION('',(1.,0.,0.));
#880=DIRECTION('',(1.,0.,0.));
#881=DIRECTION('',(0.,-1.,0.));
#882=DIRECTION('',(0.,0.,-1.));
#883=DIRECTION('',(0.,-1.,0.));
#884=DIRECTION('',(1.,0.,0.));
#885=DIRECTION('',(0.,-1.,0.));
#886=DIRECTION('',(0.,0.,-1.));
#887=DIRECTION('',(0.,1.,0.));
#888=DIRECTION('',(0.,0.,1.));
#889=DIRECTION('',(0.,-1.,0.));
#890=DIRECTION('',(0.,0.,-1.));
#891=DIRECTION('',(0.,-1.,0.));
#892=DIRECTION('',(0.,0.,-1.));
#893=DIRECTION('',(0.,-1.,0.));
#894=DIRECTION('',(1.,0.,0.));
#895=DIRECTION('',(1.,0.,0.));
#896=DIRECTION('',(0.,-1.,0.));
#897=DIRECTION('',(1.,0.,0.));
#898=DIRECTION('',(0.,0.,1.));
#899=DIRECTION('',(1.,0.,0.));
#900=DIRECTION('',(0.,0.,1.));
#901=DIRECTION('',(1.,0.,0.));
#902=DIRECTION('',(0.,1.,0.));
#903=DIRECTION('',(0.,0.,1.));
#904=DIRECTION('',(0.,-1.,0.));
#905=DIRECTION('',(0.,0.,-1.));
#906=DIRECTION('',(0.,-1.,0.));
#907=DIRECTION('',(0.,0.,-1.));
#908=DIRECTION('',(0.,-1.,0.));
#909=DIRECTION('',(1.,0.,0.));
#910=DIRECTION('',(0.,-1.,0.));
#911=DIRECTION('',(0.,0.,-1.));
#912=DIRECTION('',(0.,-1.,0.));
#913=DIRECTION('',(1.,0.,0.));
#914=DIRECTION('',(1.,0.,0.));
#915=DIRECTION('',(0.,0.,-1.));
#916=DIRECTION('',(-1.,0.,0.));
#917=DIRECTION('',(-8.9681043912456E-17,0.,-1.));
#918=DIRECTION('',(-1.,0.,0.));
#919=DIRECTION('',(0.384675502772407,0.,-0.923051871547204));
#920=DIRECTION('',(0.,0.,1.));
#921=DIRECTION('',(0.,1.,0.));
#922=DIRECTION('',(0.,0.,1.));
#923=DIRECTION('',(0.,0.,-1.));
#924=DIRECTION('',(-0.5762352548763,0.,-0.817283874206292));
#925=DIRECTION('',(-1.,0.,0.));
#926=DIRECTION('',(0.,0.,1.));
#927=DIRECTION('',(0.,-1.,0.));
#928=DIRECTION('',(0.,0.,-1.));
#929=DIRECTION('',(0.,-1.,0.));
#930=DIRECTION('',(0.,0.,-1.));
#931=DIRECTION('',(-1.,0.,0.));
#932=DIRECTION('',(0.,-1.,0.));
#933=DIRECTION('',(1.,0.,0.));
#934=DIRECTION('',(-0.817283874206292,0.,0.5762352548763));
#935=DIRECTION('',(0.5762352548763,0.,0.817283874206292));
#936=DIRECTION('',(0.,-1.,0.));
#937=DIRECTION('',(-0.5762352548763,0.,-0.817283874206292));
#938=DIRECTION('',(-1.,0.,0.));
#939=DIRECTION('',(0.,0.,1.));
#940=DIRECTION('',(0.,-1.,0.));
#941=DIRECTION('',(0.,0.,-1.));
#942=DIRECTION('',(0.,-1.,0.));
#943=DIRECTION('',(0.,0.,-1.));
#944=DIRECTION('',(0.,-1.,0.));
#945=DIRECTION('',(0.,1.,0.));
#946=DIRECTION('',(0.,0.,1.));
#947=DIRECTION('',(1.,0.,0.));
#948=DIRECTION('',(0.,0.,-1.));
#949=DIRECTION('',(0.,-1.,0.));
#950=DIRECTION('',(0.,0.,1.));
#951=DIRECTION('',(-0.923051871547204,0.,-0.384675502772407));
#952=DIRECTION('',(-0.384675502772407,0.,0.923051871547204));
#953=DIRECTION('',(0.,-1.,0.));
#954=DIRECTION('',(0.384675502772407,0.,-0.923051871547204));
#955=DIRECTION('',(0.,0.,1.));
#956=DIRECTION('',(1.,0.,0.));
#957=DIRECTION('',(0.,-1.,0.));
#958=DIRECTION('',(-1.,0.,0.));
#959=DIRECTION('',(-1.,0.,8.9681043912456E-17));
#960=DIRECTION('',(8.9681043912456E-17,0.,1.));
#961=DIRECTION('',(0.,-1.,0.));
#962=DIRECTION('',(-8.9681043912456E-17,0.,-1.));
#963=DIRECTION('',(0.,0.,1.));
#964=DIRECTION('',(1.,0.,0.));
#965=DIRECTION('',(-1.,0.,0.));
#966=DIRECTION('',(0.,-1.,0.));
#967=DIRECTION('',(0.,0.,-1.));
#968=DIRECTION('',(0.,1.,0.));
#969=DIRECTION('',(0.,0.,1.));
#970=DIRECTION('',(0.,1.,0.));
#971=DIRECTION('',(0.,0.,1.));
#972=DIRECTION('',(0.,1.,0.));
#973=DIRECTION('',(-1.,0.,0.));
#974=DIRECTION('',(0.,1.,0.));
#975=DIRECTION('',(0.,0.,1.));
#976=DIRECTION('',(0.,1.,0.));
#977=DIRECTION('',(-1.,0.,0.));
#978=DIRECTION('',(0.,1.,0.));
#979=DIRECTION('',(0.,0.,1.));
#980=DIRECTION('',(0.,-1.,0.));
#981=DIRECTION('',(0.,0.,-1.));
#982=DIRECTION('',(0.,-1.,0.));
#983=DIRECTION('',(1.,0.,0.));
#984=DIRECTION('',(0.,-1.,0.));
#985=DIRECTION('',(0.,0.,-1.));
#986=DIRECTION('',(0.,-1.,0.));
#987=DIRECTION('',(0.,0.,-1.));
#988=DIRECTION('',(0.,-1.,0.));
#989=DIRECTION('',(1.,0.,0.));
#990=CARTESIAN_POINT('',(0.,0.,0.));
#991=CARTESIAN_POINT('',(-0.0496617369353771,-0.0135,-0.021131869405508));
#992=CARTESIAN_POINT('',(-0.0496617369353771,-0.0135,-0.021131869405508));
#993=CARTESIAN_POINT('',(-0.0522073213476487,-0.0135,-0.017981869405508));
#994=CARTESIAN_POINT('',(-0.0471161525231056,-0.0135,-0.017981869405508));
#995=CARTESIAN_POINT('',(-0.0471161525231056,-0.0135,-0.017981869405508));
#996=CARTESIAN_POINT('',(-0.0471161525231056,-0.0085,-0.017981869405508));
#997=CARTESIAN_POINT('',(-0.0496617369353771,-0.0085,-0.021131869405508));
#998=CARTESIAN_POINT('',(-0.0467882171820372,-0.0085,-0.018277857452631));
#999=CARTESIAN_POINT('',(-0.0496617369353771,-0.0085,-0.021131869405508));
#1000=CARTESIAN_POINT('',(-0.0477672945228046,-0.0085,-0.0247114766389132));
#1001=CARTESIAN_POINT('',(-0.0496617369353771,-0.0085,-0.021131869405508));
#1002=CARTESIAN_POINT('',(-0.0515561793479497,-0.0085,-0.0247114766389132));
#1003=CARTESIAN_POINT('',(-0.0496617369353771,-0.0085,-0.021131869405508));
#1004=CARTESIAN_POINT('',(-0.0536444522440434,-0.0085,-0.021867042017971));
#1005=CARTESIAN_POINT('',(-0.0496617369353771,-0.0085,-0.021131869405508));
#1006=CARTESIAN_POINT('',(-0.0536444522440434,-0.0085,-0.020396696793045));
#1007=CARTESIAN_POINT('',(-0.0496617369353771,-0.0085,-0.021131869405508));
#1008=CARTESIAN_POINT('',(-0.0525352566887171,-0.0085,-0.018277857452631));
#1009=CARTESIAN_POINT('',(-0.0496617369353771,-0.0085,-0.021131869405508));
#1010=CARTESIAN_POINT('',(-0.0522073213476487,-0.0085,-0.017981869405508));
#1011=CARTESIAN_POINT('',(-0.0522073213476487,-0.0135,-0.017981869405508));
#1012=CARTESIAN_POINT('',(-0.0494279321283102,-0.0085,-0.0214946670457721));
#1013=CARTESIAN_POINT('',(-0.0496617369353771,-0.0085,-0.021131869405508));
#1014=CARTESIAN_POINT('',(-0.0466937557941712,-0.0085,-0.0247114766389132));
#1015=CARTESIAN_POINT('',(-0.0452114120125771,-0.0085,-0.0224798709194184));
#1016=CARTESIAN_POINT('',(-0.0494279321283102,-0.0085,-0.0247114766389132));
#1017=CARTESIAN_POINT('',(-0.0452114120125771,-0.0085,-0.0247114766389132));
#1018=CARTESIAN_POINT('',(-0.0452114120125771,-0.0085,-0.0214946670457721));
#1019=CARTESIAN_POINT('',(-0.0494279321283102,-0.0085,-0.0214946670457721));
#1020=CARTESIAN_POINT('',(-0.0494279321283102,-0.0085,-0.0247114766389132));
#1021=CARTESIAN_POINT('',(-0.0494279321283102,-0.0085,-0.018277857452631));
#1022=CARTESIAN_POINT('',(-0.0536444522440434,-0.0085,-0.0214946670457721));
#1023=CARTESIAN_POINT('',(-0.0494279321283102,-0.0085,-0.0214946670457721));
#1024=CARTESIAN_POINT('',(-0.0496617369353771,-0.0085,-0.021131869405508));
#1025=CARTESIAN_POINT('',(-0.0452114120125771,-0.0085,-0.0197838678915977));
#1026=CARTESIAN_POINT('',(-0.0459906177909152,-0.0085,-0.018277857452631));
#1027=CARTESIAN_POINT('',(-0.0452114120125771,-0.0085,-0.0214946670457721));
#1028=CARTESIAN_POINT('',(-0.0452114120125771,-0.0085,-0.018277857452631));
#1029=CARTESIAN_POINT('',(-0.0494279321283102,-0.0085,-0.018277857452631));
#1030=CARTESIAN_POINT('',(-0.0494279321283102,-0.0085,-0.0214946670457721));
#1031=CARTESIAN_POINT('',(-0.0496617369353771,-0.0085,-0.021131869405508));
#1032=CARTESIAN_POINT('',(-0.0533328560798391,-0.0085,-0.018277857452631));
#1033=CARTESIAN_POINT('',(-0.0536444522440434,-0.0085,-0.0187317696638066));
#1034=CARTESIAN_POINT('',(-0.0494279321283102,-0.0085,-0.018277857452631));
#1035=CARTESIAN_POINT('',(-0.0536444522440434,-0.0085,-0.018277857452631));
#1036=CARTESIAN_POINT('',(-0.0536444522440434,-0.0085,-0.0214946670457721));
#1037=CARTESIAN_POINT('',(-0.0500934049487114,-0.008,-0.0215853359550237));
#1038=CARTESIAN_POINT('',(-0.0500934049487114,-0.008,-0.0215853359550237));
#1039=CARTESIAN_POINT('',(-0.0500934049487114,-0.008,-0.0241353359550237));
#1040=CARTESIAN_POINT('',(-0.0500934049487114,0.,-0.0215853359550237));
#1041=CARTESIAN_POINT('',(-0.0500934049487114,0.,-0.0241353359550237));
#1042=CARTESIAN_POINT('',(-0.0500934049487114,-0.008,-0.0215853359550237));
#1043=CARTESIAN_POINT('',(-0.0500934049487114,-0.008,-0.0215853359550237));
#1044=CARTESIAN_POINT('',(-0.0500934049487114,-0.008,-0.0246353359550237));
#1045=CARTESIAN_POINT('',(-0.0500934049487114,0.,-0.0215853359550237));
#1046=CARTESIAN_POINT('',(-0.0500934049487114,0.,-0.0246353359550237));
#1047=CARTESIAN_POINT('',(-0.0500934049487114,0.,-0.0215853359550237));
#1048=CARTESIAN_POINT('',(-0.0494279321283102,-0.008,-0.0214946670457721));
#1049=CARTESIAN_POINT('',(-0.0494279321283102,-0.008,-0.018277857452631));
#1050=CARTESIAN_POINT('',(-0.0536444522440434,-0.008,-0.018277857452631));
#1051=CARTESIAN_POINT('',(-0.0452114120125771,-0.008,-0.018277857452631));
#1052=CARTESIAN_POINT('',(-0.0452114120125771,-0.008,-0.0214946670457721));
#1053=CARTESIAN_POINT('',(-0.0452114120125771,-0.008,-0.0247114766389132));
#1054=CARTESIAN_POINT('',(-0.0494279321283102,-0.008,-0.0247114766389132));
#1055=CARTESIAN_POINT('',(-0.0536444522440434,-0.008,-0.0247114766389132));
#1056=CARTESIAN_POINT('',(-0.0536444522440434,-0.008,-0.0214946670457721));
#1057=CARTESIAN_POINT('',(-0.0494279321283102,-0.0085,-0.0214946670457721));
#1058=CARTESIAN_POINT('',(-0.0496617369353771,-0.0085,-0.021131869405508));
#1059=CARTESIAN_POINT('',(-0.0536444522440434,-0.0085,-0.0235319691472095));
#1060=CARTESIAN_POINT('',(-0.052629718076583,-0.0085,-0.0247114766389132));
#1061=CARTESIAN_POINT('',(-0.0536444522440434,-0.0085,-0.0214946670457721));
#1062=CARTESIAN_POINT('',(-0.0536444522440434,-0.0085,-0.0247114766389132));
#1063=CARTESIAN_POINT('',(-0.0494279321283102,-0.0085,-0.0247114766389132));
#1064=CARTESIAN_POINT('',(-0.0452114120125771,-0.0085,-0.0214946670457721));
#1065=CARTESIAN_POINT('',(-0.0452114120125771,-0.0085,-0.018277857452631));
#1066=CARTESIAN_POINT('',(-0.0452114120125771,-0.0085,-0.0214946670457721));
#1067=CARTESIAN_POINT('',(-0.0452114120125771,-0.0085,-0.0247114766389132));
#1068=CARTESIAN_POINT('',(-0.0494279321283102,-0.0085,-0.0247114766389132));
#1069=CARTESIAN_POINT('',(-0.0494279321283102,-0.0085,-0.0247114766389132));
#1070=CARTESIAN_POINT('',(-0.0494279321283102,-0.0085,-0.0247114766389132));
#1071=CARTESIAN_POINT('',(-0.0536444522440434,-0.0085,-0.0247114766389132));
#1072=CARTESIAN_POINT('',(-0.0536444522440434,-0.0085,-0.0214946670457721));
#1073=CARTESIAN_POINT('',(-0.0536444522440434,-0.0085,-0.0214946670457721));
#1074=CARTESIAN_POINT('',(-0.0536444522440434,-0.0085,-0.0214946670457721));
#1075=CARTESIAN_POINT('',(-0.0536444522440434,-0.0085,-0.018277857452631));
#1076=CARTESIAN_POINT('',(-0.0494279321283102,-0.0085,-0.018277857452631));
#1077=CARTESIAN_POINT('',(-0.0494279321283102,-0.0085,-0.018277857452631));
#1078=CARTESIAN_POINT('',(-0.0494279321283102,-0.0085,-0.018277857452631));
#1079=CARTESIAN_POINT('',(-0.0494279321283102,-0.008,-0.0214946670457721));
#1080=CARTESIAN_POINT('',(-0.0496617369353771,-0.0085,-0.021131869405508));
#1081=CARTESIAN_POINT('',(-0.0496617369353771,-0.0085,-0.021131869405508));
#1082=CARTESIAN_POINT('',(-0.0496617369353771,-0.0085,-0.021131869405508));
#1083=CARTESIAN_POINT('',(-0.0496617369353771,-0.0085,-0.017981869405508));
#1084=CARTESIAN_POINT('',(-0.0496617369353771,-0.0085,-0.021131869405508));
#1085=CARTESIAN_POINT('',(-0.0496617369353771,-0.0085,-0.021131869405508));
#1086=CARTESIAN_POINT('',(-0.0496617369353771,-0.0085,-0.021131869405508));
#1087=CARTESIAN_POINT('',(-0.0496617369353771,-0.0135,-0.021131869405508));
#1088=CARTESIAN_POINT('',(-0.0496617369353771,-0.0135,-0.021131869405508));
#1089=CARTESIAN_POINT('',(-0.0496617369353771,-0.0135,-0.025781869405508));
#1090=CARTESIAN_POINT('',(-0.0496617369353771,-0.0085,-0.021131869405508));
#1091=CARTESIAN_POINT('',(-0.0496617369353771,-0.0135,-0.021131869405508));
#1092=CARTESIAN_POINT('',(-0.0496617369353771,-0.0135,-0.017981869405508));
#1093=CARTESIAN_POINT('',(-0.0496617369353771,-0.0085,-0.021131869405508));
#1094=CARTESIAN_POINT('',(-0.0496617369353771,-0.0135,-0.017981869405508));
#1095=CARTESIAN_POINT('',(0.,0.,0.));
#1096=CARTESIAN_POINT('',(0.,-0.002,4.28626379701574E-19));
#1097=CARTESIAN_POINT('',(0.,-0.002,4.28626379701574E-19));
#1098=CARTESIAN_POINT('',(0.,-0.002,-0.007));
#1099=CARTESIAN_POINT('',(0.,0.,4.28626379701574E-19));
#1100=CARTESIAN_POINT('',(0.,0.,-0.007));
#1101=CARTESIAN_POINT('',(0.,-0.002,0.));
#1102=CARTESIAN_POINT('',(0.,-0.002,1.53080849893419E-19));
#1103=CARTESIAN_POINT('',(0.,-0.002,-0.0025));
#1104=CARTESIAN_POINT('',(0.,0.,0.));
#1105=CARTESIAN_POINT('',(0.000567218848788752,0.,0.0058687231503427));
#1106=CARTESIAN_POINT('',(0.000461622839793563,0.,0.0058687231503427));
#1107=CARTESIAN_POINT('',(0.000672814857783941,0.,0.0058687231503427));
#1108=CARTESIAN_POINT('',(0.000672814857783941,0.,0.00571336527355015));
#1109=CARTESIAN_POINT('',(0.000672814857783941,0.,0.0055580073967576));
#1110=CARTESIAN_POINT('',(0.000272814857783941,0.,0.0055580073967576));
#1111=CARTESIAN_POINT('',(-0.000127185142216059,0.,0.0055580073967576));
#1112=CARTESIAN_POINT('',(-0.000127185142216059,0.,0.00570912659168243));
#1113=CARTESIAN_POINT('',(-0.000127185142216059,0.,0.00586024578660727));
#1114=CARTESIAN_POINT('',(-6.35925711080296E-5,0.,0.00586024578660727));
#1115=CARTESIAN_POINT('',(0.,0.,0.00586024578660727));
#1116=CARTESIAN_POINT('',(-6.35925711080296E-5,0.,0.00601283996365964));
#1117=CARTESIAN_POINT('',(-0.000127185142216059,0.,0.00616543414071202));
#1118=CARTESIAN_POINT('',(-0.000127185142216059,0.,0.00648192013384236));
#1119=CARTESIAN_POINT('',(-0.000127185142216059,0.,0.00649875556853768));
#1120=CARTESIAN_POINT('',(-9.30245463992563E-17,0.,-1.27025126528402E-15));
#1121=CARTESIAN_POINT('',(0.000672814857783941,0.,0.00646508469914704));
#1122=CARTESIAN_POINT('',(0.000672814857783941,0.,0.00631667246910587));
#1123=CARTESIAN_POINT('',(0.000672814857783941,0.,0.00616826023906469));
#1124=CARTESIAN_POINT('',(0.000567218848788752,0.,0.0060184916947037));
#1125=CARTESIAN_POINT('',(0.000672814857783941,0.001,0.00571336527355015));
#1126=CARTESIAN_POINT('',(0.000672814857783941,0.001,0.0058687231503427));
#1127=CARTESIAN_POINT('',(0.000672814857783941,0.001,0.0058687231503427));
#1128=CARTESIAN_POINT('',(0.000672814857783941,0.001,0.00571336527355015));
#1129=CARTESIAN_POINT('',(0.000672814857783941,0.001,0.0055580073967576));
#1130=CARTESIAN_POINT('',(0.000672814857783941,0.001,0.0055580073967576));
#1131=CARTESIAN_POINT('',(0.000567218848788752,0.001,0.0058687231503427));
#1132=CARTESIAN_POINT('',(0.000461622839793563,0.001,0.0058687231503427));
#1133=CARTESIAN_POINT('',(0.000461622839793563,0.001,0.0058687231503427));
#1134=CARTESIAN_POINT('',(0.000567218848788752,0.001,0.0058687231503427));
#1135=CARTESIAN_POINT('',(0.000567218848788752,0.001,0.0060184916947037));
#1136=CARTESIAN_POINT('',(0.000672814857783941,0.001,0.00616826023906469));
#1137=CARTESIAN_POINT('',(0.000672814857783941,0.001,0.00616826023906469));
#1138=CARTESIAN_POINT('',(0.000567218848788752,0.001,0.0060184916947037));
#1139=CARTESIAN_POINT('',(0.000672814857783941,0.001,0.00631667246910587));
#1140=CARTESIAN_POINT('',(0.000672814857783941,0.001,0.00646508469914704));
#1141=CARTESIAN_POINT('',(0.000672814857783941,0.001,0.00646508469914704));
#1142=CARTESIAN_POINT('',(0.000672814857783941,0.001,0.00631667246910587));
#1143=CARTESIAN_POINT('',(-9.30245463992563E-17,0.001,-1.27025126528402E-15));
#1144=CARTESIAN_POINT('',(-0.000127185142216059,0.001,0.00649875556853768));
#1145=CARTESIAN_POINT('',(-0.000127185142216059,0.001,0.00649875556853768));
#1146=CARTESIAN_POINT('',(-9.30245463992563E-17,0.001,-1.27025126528402E-15));
#1147=CARTESIAN_POINT('',(-0.000127185142216059,0.001,0.00648192013384236));
#1148=CARTESIAN_POINT('',(-0.000127185142216059,0.001,0.00616543414071202));
#1149=CARTESIAN_POINT('',(-0.000127185142216059,0.001,0.00616543414071202));
#1150=CARTESIAN_POINT('',(-0.000127185142216059,0.001,0.00648192013384236));
#1151=CARTESIAN_POINT('',(-6.35925711080296E-5,0.001,0.00601283996365964));
#1152=CARTESIAN_POINT('',(0.,0.001,0.00586024578660727));
#1153=CARTESIAN_POINT('',(0.,0.001,0.00586024578660727));
#1154=CARTESIAN_POINT('',(-6.35925711080296E-5,0.001,0.00601283996365964));
#1155=CARTESIAN_POINT('',(-6.35925711080296E-5,0.001,0.00586024578660727));
#1156=CARTESIAN_POINT('',(-0.000127185142216059,0.001,0.00586024578660727));
#1157=CARTESIAN_POINT('',(-0.000127185142216059,0.001,0.00586024578660727));
#1158=CARTESIAN_POINT('',(-6.35925711080296E-5,0.001,0.00586024578660727));
#1159=CARTESIAN_POINT('',(-0.000127185142216059,0.001,0.00570912659168243));
#1160=CARTESIAN_POINT('',(-0.000127185142216059,0.001,0.0055580073967576));
#1161=CARTESIAN_POINT('',(-0.000127185142216059,0.001,0.0055580073967576));
#1162=CARTESIAN_POINT('',(-0.000127185142216059,0.001,0.00570912659168243));
#1163=CARTESIAN_POINT('',(0.000272814857783941,0.001,0.0055580073967576));
#1164=CARTESIAN_POINT('',(0.000272814857783941,0.001,0.0055580073967576));
#1165=CARTESIAN_POINT('',(-9.28077059647592E-17,0.003,-1.26982263890431E-15));
#1166=CARTESIAN_POINT('',(-9.28077059647592E-17,0.003,-1.26982263890431E-15));
#1167=CARTESIAN_POINT('',(-9.28077059647592E-17,0.003,0.00699999999999873));
#1168=CARTESIAN_POINT('',(-9.28077059647592E-17,0.001,-1.26982263890431E-15));
#1169=CARTESIAN_POINT('',(-9.28077059647592E-17,0.001,0.00699999999999873));
#1170=CARTESIAN_POINT('',(-9.36750677027476E-17,0.003,-1.26981758441502E-15));
#1171=CARTESIAN_POINT('',(0.,0.003,1.53080849893419E-19));
#1172=CARTESIAN_POINT('',(0.,0.003,0.0025));
#1173=CARTESIAN_POINT('',(-9.36750677027476E-17,0.001,-1.26981758441502E-15));
#1174=CARTESIAN_POINT('',(0.,-0.009,1.53080849893419E-19));
#1175=CARTESIAN_POINT('',(0.,-0.009,1.53080849893419E-19));
#1176=CARTESIAN_POINT('',(0.,-0.009,-0.0025));
#1177=CARTESIAN_POINT('',(0.,-0.009,0.));
#1178=CARTESIAN_POINT('',(0.,0.01,1.53080849893419E-19));
#1179=CARTESIAN_POINT('',(0.,0.01,1.53080849893419E-19));
#1180=CARTESIAN_POINT('',(0.,0.01,-0.0025));
#1181=CARTESIAN_POINT('',(0.,0.01,0.));
#1182=MECHANICAL_DESIGN_GEOMETRIC_PRESENTATION_REPRESENTATION('',(#685),
#1184);
#1183=MECHANICAL_DESIGN_GEOMETRIC_PRESENTATION_REPRESENTATION('',(#686),
#1185);
#1184=(
GEOMETRIC_REPRESENTATION_CONTEXT(3)
GLOBAL_UNCERTAINTY_ASSIGNED_CONTEXT((#1186))
GLOBAL_UNIT_ASSIGNED_CONTEXT((#1192,#1190,#1188))
REPRESENTATION_CONTEXT('Part 2','TOP_LEVEL_ASSEMBLY_PART')
);
#1185=(
GEOMETRIC_REPRESENTATION_CONTEXT(3)
GLOBAL_UNCERTAINTY_ASSIGNED_CONTEXT((#1187))
GLOBAL_UNIT_ASSIGNED_CONTEXT((#1193,#1191,#1189))
REPRESENTATION_CONTEXT('pulley','TOP_LEVEL_ASSEMBLY_PART')
);
#1186=UNCERTAINTY_MEASURE_WITH_UNIT(LENGTH_MEASURE(1.E-8),#1192,
'DISTANCE_ACCURACY_VALUE','Maximum Tolerance applied to model');
#1187=UNCERTAINTY_MEASURE_WITH_UNIT(LENGTH_MEASURE(1.E-8),#1193,
'DISTANCE_ACCURACY_VALUE','Maximum Tolerance applied to model');
#1188=(
NAMED_UNIT(*)
SI_UNIT($,.STERADIAN.)
SOLID_ANGLE_UNIT()
);
#1189=(
NAMED_UNIT(*)
SI_UNIT($,.STERADIAN.)
SOLID_ANGLE_UNIT()
);
#1190=(
NAMED_UNIT(*)
PLANE_ANGLE_UNIT()
SI_UNIT($,.RADIAN.)
);
#1191=(
NAMED_UNIT(*)
PLANE_ANGLE_UNIT()
SI_UNIT($,.RADIAN.)
);
#1192=(
LENGTH_UNIT()
NAMED_UNIT(*)
SI_UNIT($,.METRE.)
);
#1193=(
LENGTH_UNIT()
NAMED_UNIT(*)
SI_UNIT($,.METRE.)
);
#1194=PRODUCT_DEFINITION_SHAPE('','',#1196);
#1195=PRODUCT_DEFINITION_SHAPE('','',#1197);
#1196=PRODUCT_DEFINITION('','',#1200,#1198);
#1197=PRODUCT_DEFINITION('','',#1201,#1199);
#1198=PRODUCT_DEFINITION_CONTEXT('',#1212,'design');
#1199=PRODUCT_DEFINITION_CONTEXT('',#1213,'design');
#1200=PRODUCT_DEFINITION_FORMATION_WITH_SPECIFIED_SOURCE('','',#1204,
 .NOT_KNOWN.);
#1201=PRODUCT_DEFINITION_FORMATION_WITH_SPECIFIED_SOURCE('','',#1205,
 .NOT_KNOWN.);
#1202=PRODUCT_RELATED_PRODUCT_CATEGORY('','',(#1204));
#1203=PRODUCT_RELATED_PRODUCT_CATEGORY('','',(#1205));
#1204=PRODUCT('Part 2','Part 2','Part 2',(#1208));
#1205=PRODUCT('pulley','pulley','pulley',(#1209));
#1206=PRODUCT_CATEGORY('','');
#1207=PRODUCT_CATEGORY('','');
#1208=PRODUCT_CONTEXT('',#1212,'mechanical');
#1209=PRODUCT_CONTEXT('',#1213,'mechanical');
#1210=APPLICATION_PROTOCOL_DEFINITION('international standard',
'ap242_managed_model_based_3d_engineering',2020,#1212);
#1211=APPLICATION_PROTOCOL_DEFINITION('international standard',
'ap242_managed_model_based_3d_engineering',2020,#1213);
#1212=APPLICATION_CONTEXT('managed model based 3d engineering');
#1213=APPLICATION_CONTEXT('managed model based 3d engineering');
ENDSEC;
END-ISO-10303-21;
