ISO-10303-21;
HEADER;
/* Generated by software containing ST-Developer
 * from STEP Tools, Inc. (www.steptools.com) 
 */
/* OPTION: using custom renumber hook */

FILE_DESCRIPTION(
/* description */ ('STEP AP242 Edition 2',
'CAx-IF Rec.Pracs.---Representation and Presentation of Product Manufa
cturing Information (PMI)---4.0---2014-10-13',
'CAx-IF Rec.Pracs.---3D Tessellated Geometry---0.4---2014-09-14','2;1',
'CAx-IF Rec.Pracs.---User Defined Attributes---1.5---2016-08-15'),
/* implementation_level */ '2;1');

FILE_NAME(
/* name */ 'Part Studio 3',
/* time_stamp */ '2026-07-22T08:07:08Z',
/* author */ (''),
/* organization */ (''),
/* preprocessor_version */ 'ST-DEVELOPER v20',
/* originating_system */ 'ONSHAPE BY PTC INC, 1.218',
/* authorisation */ '  ');

FILE_SCHEMA (('AP242_MANAGED_MODEL_BASED_3D_ENGINEERING_MIM_LF { 1 0 10303 442 3 1 4 }'));
ENDSEC;

DATA;
#10=SHAPE_REPRESENTATION_RELATIONSHIP('','',#664,#11);
#11=ADVANCED_BREP_SHAPE_REPRESENTATION('',(#662),#1082);
#12=SPHERICAL_SURFACE('',#695,0.001);
#13=ELLIPSE('',#694,0.00141421356237309,0.001);
#14=ELLIPSE('',#698,0.00141421356237309,0.001);
#15=ELLIPSE('',#700,0.00141421356237309,0.001);
#16=CYLINDRICAL_SURFACE('',#681,0.00223227489119315);
#17=CYLINDRICAL_SURFACE('',#690,0.001);
#18=CYLINDRICAL_SURFACE('',#692,0.001);
#19=CYLINDRICAL_SURFACE('',#697,0.001);
#20=CYLINDRICAL_SURFACE('',#699,0.001);
#21=CYLINDRICAL_SURFACE('',#701,0.001);
#22=CYLINDRICAL_SURFACE('',#718,0.00105);
#23=CYLINDRICAL_SURFACE('',#719,0.00105);
#24=CYLINDRICAL_SURFACE('',#720,0.00105);
#25=CYLINDRICAL_SURFACE('',#721,0.00105);
#26=TOROIDAL_SURFACE('',#677,0.0038570398464799,0.00234536740683466);
#27=CIRCLE('',#671,0.00234536740683466);
#28=CIRCLE('',#673,0.00105);
#29=CIRCLE('',#674,0.00105);
#30=CIRCLE('',#675,0.00105);
#31=CIRCLE('',#676,0.00105);
#32=CIRCLE('',#678,0.00234536740683466);
#33=CIRCLE('',#680,0.00223227489119315);
#34=CIRCLE('',#682,0.00223227489119315);
#35=CIRCLE('',#689,0.001);
#36=CIRCLE('',#691,0.001);
#37=CIRCLE('',#693,0.001);
#38=CIRCLE('',#696,0.001);
#39=CIRCLE('',#704,0.00105);
#40=CIRCLE('',#708,0.00105);
#41=CIRCLE('',#712,0.00105);
#42=CIRCLE('',#716,0.00105);
#43=ORIENTED_EDGE('',*,*,#211,.F.);
#44=ORIENTED_EDGE('',*,*,#212,.T.);
#45=ORIENTED_EDGE('',*,*,#213,.F.);
#46=ORIENTED_EDGE('',*,*,#214,.F.);
#47=ORIENTED_EDGE('',*,*,#215,.T.);
#48=ORIENTED_EDGE('',*,*,#216,.T.);
#49=ORIENTED_EDGE('',*,*,#217,.T.);
#50=ORIENTED_EDGE('',*,*,#218,.F.);
#51=ORIENTED_EDGE('',*,*,#219,.F.);
#52=ORIENTED_EDGE('',*,*,#220,.F.);
#53=ORIENTED_EDGE('',*,*,#221,.T.);
#54=ORIENTED_EDGE('',*,*,#222,.F.);
#55=ORIENTED_EDGE('',*,*,#223,.T.);
#56=ORIENTED_EDGE('',*,*,#214,.T.);
#57=ORIENTED_EDGE('',*,*,#224,.F.);
#58=ORIENTED_EDGE('',*,*,#225,.T.);
#59=ORIENTED_EDGE('',*,*,#222,.T.);
#60=ORIENTED_EDGE('',*,*,#226,.T.);
#61=ORIENTED_EDGE('',*,*,#227,.F.);
#62=ORIENTED_EDGE('',*,*,#228,.T.);
#63=ORIENTED_EDGE('',*,*,#229,.T.);
#64=ORIENTED_EDGE('',*,*,#230,.F.);
#65=ORIENTED_EDGE('',*,*,#231,.F.);
#66=ORIENTED_EDGE('',*,*,#232,.F.);
#67=ORIENTED_EDGE('',*,*,#233,.T.);
#68=ORIENTED_EDGE('',*,*,#234,.F.);
#69=ORIENTED_EDGE('',*,*,#235,.T.);
#70=ORIENTED_EDGE('',*,*,#216,.F.);
#71=ORIENTED_EDGE('',*,*,#236,.F.);
#72=ORIENTED_EDGE('',*,*,#231,.T.);
#73=ORIENTED_EDGE('',*,*,#237,.F.);
#74=ORIENTED_EDGE('',*,*,#238,.T.);
#75=ORIENTED_EDGE('',*,*,#239,.F.);
#76=ORIENTED_EDGE('',*,*,#223,.F.);
#77=ORIENTED_EDGE('',*,*,#232,.T.);
#78=ORIENTED_EDGE('',*,*,#236,.T.);
#79=ORIENTED_EDGE('',*,*,#215,.F.);
#80=ORIENTED_EDGE('',*,*,#240,.T.);
#81=ORIENTED_EDGE('',*,*,#241,.T.);
#82=ORIENTED_EDGE('',*,*,#242,.T.);
#83=ORIENTED_EDGE('',*,*,#243,.T.);
#84=ORIENTED_EDGE('',*,*,#219,.T.);
#85=ORIENTED_EDGE('',*,*,#244,.T.);
#86=ORIENTED_EDGE('',*,*,#245,.T.);
#87=ORIENTED_EDGE('',*,*,#211,.T.);
#88=ORIENTED_EDGE('',*,*,#246,.F.);
#89=ORIENTED_EDGE('',*,*,#247,.T.);
#90=ORIENTED_EDGE('',*,*,#233,.F.);
#91=ORIENTED_EDGE('',*,*,#248,.F.);
#92=ORIENTED_EDGE('',*,*,#249,.T.);
#93=ORIENTED_EDGE('',*,*,#228,.F.);
#94=ORIENTED_EDGE('',*,*,#250,.F.);
#95=ORIENTED_EDGE('',*,*,#251,.F.);
#96=ORIENTED_EDGE('',*,*,#252,.F.);
#97=ORIENTED_EDGE('',*,*,#239,.T.);
#98=ORIENTED_EDGE('',*,*,#253,.F.);
#99=ORIENTED_EDGE('',*,*,#252,.T.);
#100=ORIENTED_EDGE('',*,*,#254,.F.);
#101=ORIENTED_EDGE('',*,*,#253,.T.);
#102=ORIENTED_EDGE('',*,*,#255,.F.);
#103=ORIENTED_EDGE('',*,*,#256,.T.);
#104=ORIENTED_EDGE('',*,*,#257,.T.);
#105=ORIENTED_EDGE('',*,*,#258,.F.);
#106=ORIENTED_EDGE('',*,*,#259,.F.);
#107=ORIENTED_EDGE('',*,*,#260,.T.);
#108=ORIENTED_EDGE('',*,*,#255,.T.);
#109=ORIENTED_EDGE('',*,*,#261,.T.);
#110=ORIENTED_EDGE('',*,*,#262,.T.);
#111=ORIENTED_EDGE('',*,*,#263,.T.);
#112=ORIENTED_EDGE('',*,*,#259,.T.);
#113=ORIENTED_EDGE('',*,*,#264,.T.);
#114=ORIENTED_EDGE('',*,*,#265,.T.);
#115=ORIENTED_EDGE('',*,*,#266,.T.);
#116=ORIENTED_EDGE('',*,*,#267,.F.);
#117=ORIENTED_EDGE('',*,*,#257,.F.);
#118=ORIENTED_EDGE('',*,*,#268,.T.);
#119=ORIENTED_EDGE('',*,*,#269,.T.);
#120=ORIENTED_EDGE('',*,*,#270,.T.);
#121=ORIENTED_EDGE('',*,*,#271,.T.);
#122=ORIENTED_EDGE('',*,*,#254,.T.);
#123=ORIENTED_EDGE('',*,*,#267,.T.);
#124=ORIENTED_EDGE('',*,*,#272,.T.);
#125=ORIENTED_EDGE('',*,*,#264,.F.);
#126=ORIENTED_EDGE('',*,*,#261,.F.);
#127=ORIENTED_EDGE('',*,*,#258,.T.);
#128=ORIENTED_EDGE('',*,*,#272,.F.);
#129=ORIENTED_EDGE('',*,*,#266,.F.);
#130=ORIENTED_EDGE('',*,*,#273,.F.);
#131=ORIENTED_EDGE('',*,*,#262,.F.);
#132=ORIENTED_EDGE('',*,*,#274,.F.);
#133=ORIENTED_EDGE('',*,*,#265,.F.);
#134=ORIENTED_EDGE('',*,*,#275,.F.);
#135=ORIENTED_EDGE('',*,*,#271,.F.);
#136=ORIENTED_EDGE('',*,*,#273,.T.);
#137=ORIENTED_EDGE('',*,*,#274,.T.);
#138=ORIENTED_EDGE('',*,*,#276,.F.);
#139=ORIENTED_EDGE('',*,*,#275,.T.);
#140=ORIENTED_EDGE('',*,*,#256,.F.);
#141=ORIENTED_EDGE('',*,*,#277,.F.);
#142=ORIENTED_EDGE('',*,*,#268,.F.);
#143=ORIENTED_EDGE('',*,*,#276,.T.);
#144=ORIENTED_EDGE('',*,*,#270,.F.);
#145=ORIENTED_EDGE('',*,*,#278,.F.);
#146=ORIENTED_EDGE('',*,*,#263,.F.);
#147=ORIENTED_EDGE('',*,*,#277,.T.);
#148=ORIENTED_EDGE('',*,*,#260,.F.);
#149=ORIENTED_EDGE('',*,*,#278,.T.);
#150=ORIENTED_EDGE('',*,*,#269,.F.);
#151=ORIENTED_EDGE('',*,*,#218,.T.);
#152=ORIENTED_EDGE('',*,*,#279,.F.);
#153=ORIENTED_EDGE('',*,*,#280,.F.);
#154=ORIENTED_EDGE('',*,*,#246,.T.);
#155=ORIENTED_EDGE('',*,*,#281,.F.);
#156=ORIENTED_EDGE('',*,*,#217,.F.);
#157=ORIENTED_EDGE('',*,*,#235,.F.);
#158=ORIENTED_EDGE('',*,*,#282,.T.);
#159=ORIENTED_EDGE('',*,*,#279,.T.);
#160=ORIENTED_EDGE('',*,*,#247,.F.);
#161=ORIENTED_EDGE('',*,*,#280,.T.);
#162=ORIENTED_EDGE('',*,*,#282,.F.);
#163=ORIENTED_EDGE('',*,*,#234,.T.);
#164=ORIENTED_EDGE('',*,*,#212,.F.);
#165=ORIENTED_EDGE('',*,*,#245,.F.);
#166=ORIENTED_EDGE('',*,*,#283,.T.);
#167=ORIENTED_EDGE('',*,*,#284,.T.);
#168=ORIENTED_EDGE('',*,*,#285,.T.);
#169=ORIENTED_EDGE('',*,*,#213,.T.);
#170=ORIENTED_EDGE('',*,*,#284,.F.);
#171=ORIENTED_EDGE('',*,*,#286,.F.);
#172=ORIENTED_EDGE('',*,*,#224,.T.);
#173=ORIENTED_EDGE('',*,*,#283,.F.);
#174=ORIENTED_EDGE('',*,*,#244,.F.);
#175=ORIENTED_EDGE('',*,*,#225,.F.);
#176=ORIENTED_EDGE('',*,*,#286,.T.);
#177=ORIENTED_EDGE('',*,*,#229,.F.);
#178=ORIENTED_EDGE('',*,*,#249,.F.);
#179=ORIENTED_EDGE('',*,*,#287,.T.);
#180=ORIENTED_EDGE('',*,*,#288,.T.);
#181=ORIENTED_EDGE('',*,*,#289,.F.);
#182=ORIENTED_EDGE('',*,*,#230,.T.);
#183=ORIENTED_EDGE('',*,*,#288,.F.);
#184=ORIENTED_EDGE('',*,*,#290,.F.);
#185=ORIENTED_EDGE('',*,*,#237,.T.);
#186=ORIENTED_EDGE('',*,*,#287,.F.);
#187=ORIENTED_EDGE('',*,*,#248,.T.);
#188=ORIENTED_EDGE('',*,*,#238,.F.);
#189=ORIENTED_EDGE('',*,*,#290,.T.);
#190=ORIENTED_EDGE('',*,*,#227,.T.);
#191=ORIENTED_EDGE('',*,*,#291,.F.);
#192=ORIENTED_EDGE('',*,*,#292,.F.);
#193=ORIENTED_EDGE('',*,*,#250,.T.);
#194=ORIENTED_EDGE('',*,*,#293,.F.);
#195=ORIENTED_EDGE('',*,*,#226,.F.);
#196=ORIENTED_EDGE('',*,*,#221,.F.);
#197=ORIENTED_EDGE('',*,*,#294,.T.);
#198=ORIENTED_EDGE('',*,*,#291,.T.);
#199=ORIENTED_EDGE('',*,*,#251,.T.);
#200=ORIENTED_EDGE('',*,*,#292,.T.);
#201=ORIENTED_EDGE('',*,*,#294,.F.);
#202=ORIENTED_EDGE('',*,*,#220,.T.);
#203=ORIENTED_EDGE('',*,*,#293,.T.);
#204=ORIENTED_EDGE('',*,*,#240,.F.);
#205=ORIENTED_EDGE('',*,*,#289,.T.);
#206=ORIENTED_EDGE('',*,*,#243,.F.);
#207=ORIENTED_EDGE('',*,*,#285,.F.);
#208=ORIENTED_EDGE('',*,*,#242,.F.);
#209=ORIENTED_EDGE('',*,*,#281,.T.);
#210=ORIENTED_EDGE('',*,*,#241,.F.);
#211=EDGE_CURVE('',#295,#296,#353,.T.);
#212=EDGE_CURVE('',#295,#297,#354,.T.);
#213=EDGE_CURVE('',#298,#297,#355,.T.);
#214=EDGE_CURVE('',#299,#298,#356,.T.);
#215=EDGE_CURVE('',#299,#300,#357,.T.);
#216=EDGE_CURVE('',#300,#301,#358,.T.);
#217=EDGE_CURVE('',#301,#302,#359,.T.);
#218=EDGE_CURVE('',#296,#302,#360,.T.);
#219=EDGE_CURVE('',#303,#304,#361,.T.);
#220=EDGE_CURVE('',#305,#303,#362,.T.);
#221=EDGE_CURVE('',#305,#306,#363,.T.);
#222=EDGE_CURVE('',#307,#306,#364,.T.);
#223=EDGE_CURVE('',#307,#299,#365,.T.);
#224=EDGE_CURVE('',#308,#298,#366,.T.);
#225=EDGE_CURVE('',#308,#304,#367,.T.);
#226=EDGE_CURVE('',#306,#309,#368,.T.);
#227=EDGE_CURVE('',#310,#309,#369,.T.);
#228=EDGE_CURVE('',#310,#311,#370,.T.);
#229=EDGE_CURVE('',#311,#312,#371,.T.);
#230=EDGE_CURVE('',#313,#312,#372,.T.);
#231=EDGE_CURVE('',#314,#313,#373,.T.);
#232=EDGE_CURVE('',#307,#314,#374,.T.);
#233=EDGE_CURVE('',#315,#316,#375,.T.);
#234=EDGE_CURVE('',#317,#316,#376,.T.);
#235=EDGE_CURVE('',#317,#301,#377,.T.);
#236=EDGE_CURVE('',#314,#300,#378,.T.);
#237=EDGE_CURVE('',#318,#313,#379,.T.);
#238=EDGE_CURVE('',#318,#315,#380,.T.);
#239=EDGE_CURVE('',#319,#319,#27,.T.);
#240=EDGE_CURVE('',#320,#320,#28,.T.);
#241=EDGE_CURVE('',#321,#321,#29,.T.);
#242=EDGE_CURVE('',#322,#322,#30,.T.);
#243=EDGE_CURVE('',#323,#323,#31,.T.);
#244=EDGE_CURVE('',#304,#324,#381,.T.);
#245=EDGE_CURVE('',#324,#295,#382,.T.);
#246=EDGE_CURVE('',#325,#296,#383,.T.);
#247=EDGE_CURVE('',#325,#316,#384,.T.);
#248=EDGE_CURVE('',#326,#315,#385,.T.);
#249=EDGE_CURVE('',#326,#311,#386,.T.);
#250=EDGE_CURVE('',#327,#310,#387,.T.);
#251=EDGE_CURVE('',#303,#327,#388,.T.);
#252=EDGE_CURVE('',#328,#328,#32,.T.);
#253=EDGE_CURVE('',#329,#329,#33,.T.);
#254=EDGE_CURVE('',#330,#330,#34,.T.);
#255=EDGE_CURVE('',#331,#332,#389,.T.);
#256=EDGE_CURVE('',#331,#333,#390,.T.);
#257=EDGE_CURVE('',#333,#334,#391,.T.);
#258=EDGE_CURVE('',#332,#334,#392,.T.);
#259=EDGE_CURVE('',#335,#336,#393,.T.);
#260=EDGE_CURVE('',#335,#331,#394,.F.);
#261=EDGE_CURVE('',#332,#336,#395,.T.);
#262=EDGE_CURVE('',#337,#338,#396,.F.);
#263=EDGE_CURVE('',#338,#335,#397,.F.);
#264=EDGE_CURVE('',#336,#337,#398,.T.);
#265=EDGE_CURVE('',#333,#339,#399,.T.);
#266=EDGE_CURVE('',#339,#340,#400,.T.);
#267=EDGE_CURVE('',#334,#340,#401,.T.);
#268=EDGE_CURVE('',#341,#342,#402,.F.);
#269=EDGE_CURVE('',#342,#343,#403,.T.);
#270=EDGE_CURVE('',#343,#344,#404,.T.);
#271=EDGE_CURVE('',#344,#341,#405,.F.);
#272=EDGE_CURVE('',#340,#337,#35,.F.);
#273=EDGE_CURVE('',#338,#339,#36,.T.);
#274=EDGE_CURVE('',#339,#344,#37,.T.);
#275=EDGE_CURVE('',#341,#333,#13,.F.);
#276=EDGE_CURVE('',#338,#344,#38,.F.);
#277=EDGE_CURVE('',#342,#331,#14,.F.);
#278=EDGE_CURVE('',#335,#343,#15,.T.);
#279=EDGE_CURVE('',#345,#302,#406,.T.);
#280=EDGE_CURVE('',#325,#345,#407,.T.);
#281=EDGE_CURVE('',#346,#346,#39,.T.);
#282=EDGE_CURVE('',#317,#345,#408,.T.);
#283=EDGE_CURVE('',#324,#347,#409,.T.);
#284=EDGE_CURVE('',#347,#297,#410,.T.);
#285=EDGE_CURVE('',#348,#348,#40,.T.);
#286=EDGE_CURVE('',#308,#347,#411,.T.);
#287=EDGE_CURVE('',#326,#349,#412,.T.);
#288=EDGE_CURVE('',#349,#312,#413,.T.);
#289=EDGE_CURVE('',#350,#350,#41,.T.);
#290=EDGE_CURVE('',#318,#349,#414,.T.);
#291=EDGE_CURVE('',#351,#309,#415,.T.);
#292=EDGE_CURVE('',#327,#351,#416,.T.);
#293=EDGE_CURVE('',#352,#352,#42,.T.);
#294=EDGE_CURVE('',#305,#351,#417,.T.);
#295=VERTEX_POINT('',#904);
#296=VERTEX_POINT('',#905);
#297=VERTEX_POINT('',#907);
#298=VERTEX_POINT('',#909);
#299=VERTEX_POINT('',#911);
#300=VERTEX_POINT('',#913);
#301=VERTEX_POINT('',#915);
#302=VERTEX_POINT('',#917);
#303=VERTEX_POINT('',#921);
#304=VERTEX_POINT('',#922);
#305=VERTEX_POINT('',#924);
#306=VERTEX_POINT('',#926);
#307=VERTEX_POINT('',#928);
#308=VERTEX_POINT('',#931);
#309=VERTEX_POINT('',#935);
#310=VERTEX_POINT('',#937);
#311=VERTEX_POINT('',#939);
#312=VERTEX_POINT('',#941);
#313=VERTEX_POINT('',#943);
#314=VERTEX_POINT('',#945);
#315=VERTEX_POINT('',#949);
#316=VERTEX_POINT('',#950);
#317=VERTEX_POINT('',#952);
#318=VERTEX_POINT('',#956);
#319=VERTEX_POINT('',#960);
#320=VERTEX_POINT('',#963);
#321=VERTEX_POINT('',#965);
#322=VERTEX_POINT('',#967);
#323=VERTEX_POINT('',#969);
#324=VERTEX_POINT('',#971);
#325=VERTEX_POINT('',#974);
#326=VERTEX_POINT('',#977);
#327=VERTEX_POINT('',#980);
#328=VERTEX_POINT('',#984);
#329=VERTEX_POINT('',#987);
#330=VERTEX_POINT('',#990);
#331=VERTEX_POINT('',#993);
#332=VERTEX_POINT('',#994);
#333=VERTEX_POINT('',#996);
#334=VERTEX_POINT('',#998);
#335=VERTEX_POINT('',#1002);
#336=VERTEX_POINT('',#1003);
#337=VERTEX_POINT('',#1008);
#338=VERTEX_POINT('',#1009);
#339=VERTEX_POINT('',#1014);
#340=VERTEX_POINT('',#1016);
#341=VERTEX_POINT('',#1020);
#342=VERTEX_POINT('',#1021);
#343=VERTEX_POINT('',#1023);
#344=VERTEX_POINT('',#1025);
#345=VERTEX_POINT('',#1043);
#346=VERTEX_POINT('',#1047);
#347=VERTEX_POINT('',#1052);
#348=VERTEX_POINT('',#1056);
#349=VERTEX_POINT('',#1061);
#350=VERTEX_POINT('',#1065);
#351=VERTEX_POINT('',#1070);
#352=VERTEX_POINT('',#1074);
#353=LINE('',#903,#418);
#354=LINE('',#906,#419);
#355=LINE('',#908,#420);
#356=LINE('',#910,#421);
#357=LINE('',#912,#422);
#358=LINE('',#914,#423);
#359=LINE('',#916,#424);
#360=LINE('',#918,#425);
#361=LINE('',#920,#426);
#362=LINE('',#923,#427);
#363=LINE('',#925,#428);
#364=LINE('',#927,#429);
#365=LINE('',#929,#430);
#366=LINE('',#930,#431);
#367=LINE('',#932,#432);
#368=LINE('',#934,#433);
#369=LINE('',#936,#434);
#370=LINE('',#938,#435);
#371=LINE('',#940,#436);
#372=LINE('',#942,#437);
#373=LINE('',#944,#438);
#374=LINE('',#946,#439);
#375=LINE('',#948,#440);
#376=LINE('',#951,#441);
#377=LINE('',#953,#442);
#378=LINE('',#954,#443);
#379=LINE('',#955,#444);
#380=LINE('',#957,#445);
#381=LINE('',#970,#446);
#382=LINE('',#972,#447);
#383=LINE('',#973,#448);
#384=LINE('',#975,#449);
#385=LINE('',#976,#450);
#386=LINE('',#978,#451);
#387=LINE('',#979,#452);
#388=LINE('',#981,#453);
#389=LINE('',#992,#454);
#390=LINE('',#995,#455);
#391=LINE('',#997,#456);
#392=LINE('',#999,#457);
#393=LINE('',#1001,#458);
#394=LINE('',#1004,#459);
#395=LINE('',#1005,#460);
#396=LINE('',#1007,#461);
#397=LINE('',#1010,#462);
#398=LINE('',#1011,#463);
#399=LINE('',#1013,#464);
#400=LINE('',#1015,#465);
#401=LINE('',#1017,#466);
#402=LINE('',#1019,#467);
#403=LINE('',#1022,#468);
#404=LINE('',#1024,#469);
#405=LINE('',#1026,#470);
#406=LINE('',#1042,#471);
#407=LINE('',#1044,#472);
#408=LINE('',#1048,#473);
#409=LINE('',#1051,#474);
#410=LINE('',#1053,#475);
#411=LINE('',#1057,#476);
#412=LINE('',#1060,#477);
#413=LINE('',#1062,#478);
#414=LINE('',#1066,#479);
#415=LINE('',#1069,#480);
#416=LINE('',#1071,#481);
#417=LINE('',#1075,#482);
#418=VECTOR('',#726,1.);
#419=VECTOR('',#727,1.);
#420=VECTOR('',#728,1.);
#421=VECTOR('',#729,1.);
#422=VECTOR('',#730,1.);
#423=VECTOR('',#731,1.);
#424=VECTOR('',#732,1.);
#425=VECTOR('',#733,1.);
#426=VECTOR('',#736,1.);
#427=VECTOR('',#737,1.);
#428=VECTOR('',#738,1.);
#429=VECTOR('',#739,1.);
#430=VECTOR('',#740,1.);
#431=VECTOR('',#741,1.);
#432=VECTOR('',#742,1.);
#433=VECTOR('',#745,1.);
#434=VECTOR('',#746,1.);
#435=VECTOR('',#747,1.);
#436=VECTOR('',#748,1.);
#437=VECTOR('',#749,1.);
#438=VECTOR('',#750,1.);
#439=VECTOR('',#751,1.);
#440=VECTOR('',#754,1.);
#441=VECTOR('',#755,1.);
#442=VECTOR('',#756,1.);
#443=VECTOR('',#757,1.);
#444=VECTOR('',#758,1.);
#445=VECTOR('',#759,1.);
#446=VECTOR('',#774,1.);
#447=VECTOR('',#775,1.);
#448=VECTOR('',#776,1.);
#449=VECTOR('',#777,1.);
#450=VECTOR('',#778,1.);
#451=VECTOR('',#779,1.);
#452=VECTOR('',#780,1.);
#453=VECTOR('',#781,1.);
#454=VECTOR('',#796,1.);
#455=VECTOR('',#797,1.);
#456=VECTOR('',#798,1.);
#457=VECTOR('',#799,1.);
#458=VECTOR('',#802,1.);
#459=VECTOR('',#803,1.);
#460=VECTOR('',#804,1.);
#461=VECTOR('',#807,1.);
#462=VECTOR('',#808,1.);
#463=VECTOR('',#809,1.);
#464=VECTOR('',#812,1.);
#465=VECTOR('',#813,1.);
#466=VECTOR('',#814,1.);
#467=VECTOR('',#817,1.);
#468=VECTOR('',#818,1.);
#469=VECTOR('',#819,1.);
#470=VECTOR('',#820,1.);
#471=VECTOR('',#851,1.);
#472=VECTOR('',#852,1.);
#473=VECTOR('',#857,1.);
#474=VECTOR('',#862,1.);
#475=VECTOR('',#863,1.);
#476=VECTOR('',#868,1.);
#477=VECTOR('',#873,1.);
#478=VECTOR('',#874,1.);
#479=VECTOR('',#879,1.);
#480=VECTOR('',#884,1.);
#481=VECTOR('',#885,1.);
#482=VECTOR('',#890,1.);
#483=EDGE_LOOP('',(#43,#44,#45,#46,#47,#48,#49,#50));
#484=EDGE_LOOP('',(#51,#52,#53,#54,#55,#56,#57,#58));
#485=EDGE_LOOP('',(#59,#60,#61,#62,#63,#64,#65,#66));
#486=EDGE_LOOP('',(#67,#68,#69,#70,#71,#72,#73,#74));
#487=EDGE_LOOP('',(#75));
#488=EDGE_LOOP('',(#76,#77,#78,#79));
#489=EDGE_LOOP('',(#80));
#490=EDGE_LOOP('',(#81));
#491=EDGE_LOOP('',(#82));
#492=EDGE_LOOP('',(#83));
#493=EDGE_LOOP('',(#84,#85,#86,#87,#88,#89,#90,#91,#92,#93,#94,#95));
#494=EDGE_LOOP('',(#96));
#495=EDGE_LOOP('',(#97));
#496=EDGE_LOOP('',(#98));
#497=EDGE_LOOP('',(#99));
#498=EDGE_LOOP('',(#100));
#499=EDGE_LOOP('',(#101));
#500=EDGE_LOOP('',(#102,#103,#104,#105));
#501=EDGE_LOOP('',(#106,#107,#108,#109));
#502=EDGE_LOOP('',(#110,#111,#112,#113));
#503=EDGE_LOOP('',(#114,#115,#116,#117));
#504=EDGE_LOOP('',(#118,#119,#120,#121));
#505=EDGE_LOOP('',(#122));
#506=EDGE_LOOP('',(#123,#124,#125,#126,#127));
#507=EDGE_LOOP('',(#128,#129,#130,#131));
#508=EDGE_LOOP('',(#132,#133,#134,#135));
#509=EDGE_LOOP('',(#136,#137,#138));
#510=EDGE_LOOP('',(#139,#140,#141,#142));
#511=EDGE_LOOP('',(#143,#144,#145,#146));
#512=EDGE_LOOP('',(#147,#148,#149,#150));
#513=EDGE_LOOP('',(#151,#152,#153,#154));
#514=EDGE_LOOP('',(#155));
#515=EDGE_LOOP('',(#156,#157,#158,#159));
#516=EDGE_LOOP('',(#160,#161,#162,#163));
#517=EDGE_LOOP('',(#164,#165,#166,#167));
#518=EDGE_LOOP('',(#168));
#519=EDGE_LOOP('',(#169,#170,#171,#172));
#520=EDGE_LOOP('',(#173,#174,#175,#176));
#521=EDGE_LOOP('',(#177,#178,#179,#180));
#522=EDGE_LOOP('',(#181));
#523=EDGE_LOOP('',(#182,#183,#184,#185));
#524=EDGE_LOOP('',(#186,#187,#188,#189));
#525=EDGE_LOOP('',(#190,#191,#192,#193));
#526=EDGE_LOOP('',(#194));
#527=EDGE_LOOP('',(#195,#196,#197,#198));
#528=EDGE_LOOP('',(#199,#200,#201,#202));
#529=EDGE_LOOP('',(#203));
#530=EDGE_LOOP('',(#204));
#531=EDGE_LOOP('',(#205));
#532=EDGE_LOOP('',(#206));
#533=EDGE_LOOP('',(#207));
#534=EDGE_LOOP('',(#208));
#535=EDGE_LOOP('',(#209));
#536=EDGE_LOOP('',(#210));
#537=FACE_BOUND('',#483,.T.);
#538=FACE_BOUND('',#484,.T.);
#539=FACE_BOUND('',#485,.T.);
#540=FACE_BOUND('',#486,.T.);
#541=FACE_BOUND('',#487,.T.);
#542=FACE_BOUND('',#488,.T.);
#543=FACE_BOUND('',#489,.T.);
#544=FACE_BOUND('',#490,.T.);
#545=FACE_BOUND('',#491,.T.);
#546=FACE_BOUND('',#492,.T.);
#547=FACE_BOUND('',#493,.T.);
#548=FACE_BOUND('',#494,.T.);
#549=FACE_BOUND('',#495,.T.);
#550=FACE_BOUND('',#496,.T.);
#551=FACE_BOUND('',#497,.T.);
#552=FACE_BOUND('',#498,.T.);
#553=FACE_BOUND('',#499,.T.);
#554=FACE_BOUND('',#500,.T.);
#555=FACE_BOUND('',#501,.T.);
#556=FACE_BOUND('',#502,.T.);
#557=FACE_BOUND('',#503,.T.);
#558=FACE_BOUND('',#504,.T.);
#559=FACE_BOUND('',#505,.T.);
#560=FACE_BOUND('',#506,.T.);
#561=FACE_BOUND('',#507,.T.);
#562=FACE_BOUND('',#508,.T.);
#563=FACE_BOUND('',#509,.T.);
#564=FACE_BOUND('',#510,.T.);
#565=FACE_BOUND('',#511,.T.);
#566=FACE_BOUND('',#512,.T.);
#567=FACE_BOUND('',#513,.T.);
#568=FACE_BOUND('',#514,.T.);
#569=FACE_BOUND('',#515,.T.);
#570=FACE_BOUND('',#516,.T.);
#571=FACE_BOUND('',#517,.T.);
#572=FACE_BOUND('',#518,.T.);
#573=FACE_BOUND('',#519,.T.);
#574=FACE_BOUND('',#520,.T.);
#575=FACE_BOUND('',#521,.T.);
#576=FACE_BOUND('',#522,.T.);
#577=FACE_BOUND('',#523,.T.);
#578=FACE_BOUND('',#524,.T.);
#579=FACE_BOUND('',#525,.T.);
#580=FACE_BOUND('',#526,.T.);
#581=FACE_BOUND('',#527,.T.);
#582=FACE_BOUND('',#528,.T.);
#583=FACE_BOUND('',#529,.T.);
#584=FACE_BOUND('',#530,.T.);
#585=FACE_BOUND('',#531,.T.);
#586=FACE_BOUND('',#532,.T.);
#587=FACE_BOUND('',#533,.T.);
#588=FACE_BOUND('',#534,.T.);
#589=FACE_BOUND('',#535,.T.);
#590=FACE_BOUND('',#536,.T.);
#591=PLANE('',#666);
#592=PLANE('',#667);
#593=PLANE('',#668);
#594=PLANE('',#669);
#595=PLANE('',#670);
#596=PLANE('',#672);
#597=PLANE('',#679);
#598=PLANE('',#683);
#599=PLANE('',#684);
#600=PLANE('',#685);
#601=PLANE('',#686);
#602=PLANE('',#687);
#603=PLANE('',#688);
#604=PLANE('',#702);
#605=PLANE('',#703);
#606=PLANE('',#705);
#607=PLANE('',#706);
#608=PLANE('',#707);
#609=PLANE('',#709);
#610=PLANE('',#710);
#611=PLANE('',#711);
#612=PLANE('',#713);
#613=PLANE('',#714);
#614=PLANE('',#715);
#615=PLANE('',#717);
#616=ADVANCED_FACE('',(#537),#591,.T.);
#617=ADVANCED_FACE('',(#538),#592,.T.);
#618=ADVANCED_FACE('',(#539),#593,.F.);
#619=ADVANCED_FACE('',(#540),#594,.F.);
#620=ADVANCED_FACE('',(#541,#542),#595,.T.);
#621=ADVANCED_FACE('',(#543,#544,#545,#546,#547),#596,.F.);
#622=ADVANCED_FACE('',(#548,#549),#26,.T.);
#623=ADVANCED_FACE('',(#550,#551),#597,.T.);
#624=ADVANCED_FACE('',(#552,#553),#16,.T.);
#625=ADVANCED_FACE('',(#554),#598,.T.);
#626=ADVANCED_FACE('',(#555),#599,.F.);
#627=ADVANCED_FACE('',(#556),#600,.F.);
#628=ADVANCED_FACE('',(#557),#601,.T.);
#629=ADVANCED_FACE('',(#558),#602,.T.);
#630=ADVANCED_FACE('',(#559,#560),#603,.F.);
#631=ADVANCED_FACE('',(#561),#17,.T.);
#632=ADVANCED_FACE('',(#562),#18,.T.);
#633=ADVANCED_FACE('',(#563),#12,.T.);
#634=ADVANCED_FACE('',(#564),#19,.T.);
#635=ADVANCED_FACE('',(#565),#20,.T.);
#636=ADVANCED_FACE('',(#566),#21,.T.);
#637=ADVANCED_FACE('',(#567),#604,.F.);
#638=ADVANCED_FACE('',(#568,#569),#605,.T.);
#639=ADVANCED_FACE('',(#570),#606,.T.);
#640=ADVANCED_FACE('',(#571),#607,.T.);
#641=ADVANCED_FACE('',(#572,#573),#608,.F.);
#642=ADVANCED_FACE('',(#574),#609,.T.);
#643=ADVANCED_FACE('',(#575),#610,.T.);
#644=ADVANCED_FACE('',(#576,#577),#611,.F.);
#645=ADVANCED_FACE('',(#578),#612,.T.);
#646=ADVANCED_FACE('',(#579),#613,.F.);
#647=ADVANCED_FACE('',(#580,#581),#614,.T.);
#648=ADVANCED_FACE('',(#582),#615,.T.);
#649=ADVANCED_FACE('',(#583,#584),#22,.F.);
#650=ADVANCED_FACE('',(#585,#586),#23,.F.);
#651=ADVANCED_FACE('',(#587,#588),#24,.F.);
#652=ADVANCED_FACE('',(#589,#590),#25,.F.);
#653=CLOSED_SHELL('',(#616,#617,#618,#619,#620,#621,#622,#623,#624,#625,
#626,#627,#628,#629,#630,#631,#632,#633,#634,#635,#636,#637,#638,#639,#640,
#641,#642,#643,#644,#645,#646,#647,#648,#649,#650,#651,#652));
#654=STYLED_ITEM('',(#655),#662);
#655=PRESENTATION_STYLE_ASSIGNMENT((#656));
#656=SURFACE_STYLE_USAGE(.BOTH.,#657);
#657=SURFACE_SIDE_STYLE('',(#658));
#658=SURFACE_STYLE_FILL_AREA(#659);
#659=FILL_AREA_STYLE('',(#660));
#660=FILL_AREA_STYLE_COLOUR('',#661);
#661=COLOUR_RGB('',0.615686274509804,0.811764705882353,0.929411764705882);
#662=MANIFOLD_SOLID_BREP('Part 1',#653);
#663=SHAPE_DEFINITION_REPRESENTATION(#1087,#664);
#664=SHAPE_REPRESENTATION('Part 1',(#665),#1082);
#665=AXIS2_PLACEMENT_3D('',#901,#722,#723);
#666=AXIS2_PLACEMENT_3D('',#902,#724,#725);
#667=AXIS2_PLACEMENT_3D('',#919,#734,#735);
#668=AXIS2_PLACEMENT_3D('',#933,#743,#744);
#669=AXIS2_PLACEMENT_3D('',#947,#752,#753);
#670=AXIS2_PLACEMENT_3D('',#958,#760,#761);
#671=AXIS2_PLACEMENT_3D('',#959,#762,#763);
#672=AXIS2_PLACEMENT_3D('',#961,#764,#765);
#673=AXIS2_PLACEMENT_3D('',#962,#766,#767);
#674=AXIS2_PLACEMENT_3D('',#964,#768,#769);
#675=AXIS2_PLACEMENT_3D('',#966,#770,#771);
#676=AXIS2_PLACEMENT_3D('',#968,#772,#773);
#677=AXIS2_PLACEMENT_3D('',#982,#782,#783);
#678=AXIS2_PLACEMENT_3D('',#983,#784,#785);
#679=AXIS2_PLACEMENT_3D('',#985,#786,#787);
#680=AXIS2_PLACEMENT_3D('',#986,#788,#789);
#681=AXIS2_PLACEMENT_3D('',#988,#790,#791);
#682=AXIS2_PLACEMENT_3D('',#989,#792,#793);
#683=AXIS2_PLACEMENT_3D('',#991,#794,#795);
#684=AXIS2_PLACEMENT_3D('',#1000,#800,#801);
#685=AXIS2_PLACEMENT_3D('',#1006,#805,#806);
#686=AXIS2_PLACEMENT_3D('',#1012,#810,#811);
#687=AXIS2_PLACEMENT_3D('',#1018,#815,#816);
#688=AXIS2_PLACEMENT_3D('',#1027,#821,#822);
#689=AXIS2_PLACEMENT_3D('',#1028,#823,#824);
#690=AXIS2_PLACEMENT_3D('',#1029,#825,#826);
#691=AXIS2_PLACEMENT_3D('',#1030,#827,#828);
#692=AXIS2_PLACEMENT_3D('',#1031,#829,#830);
#693=AXIS2_PLACEMENT_3D('',#1032,#831,#832);
#694=AXIS2_PLACEMENT_3D('',#1033,#833,#834);
#695=AXIS2_PLACEMENT_3D('',#1034,#835,#836);
#696=AXIS2_PLACEMENT_3D('',#1035,#837,#838);
#697=AXIS2_PLACEMENT_3D('',#1036,#839,#840);
#698=AXIS2_PLACEMENT_3D('',#1037,#841,#842);
#699=AXIS2_PLACEMENT_3D('',#1038,#843,#844);
#700=AXIS2_PLACEMENT_3D('',#1039,#845,#846);
#701=AXIS2_PLACEMENT_3D('',#1040,#847,#848);
#702=AXIS2_PLACEMENT_3D('',#1041,#849,#850);
#703=AXIS2_PLACEMENT_3D('',#1045,#853,#854);
#704=AXIS2_PLACEMENT_3D('',#1046,#855,#856);
#705=AXIS2_PLACEMENT_3D('',#1049,#858,#859);
#706=AXIS2_PLACEMENT_3D('',#1050,#860,#861);
#707=AXIS2_PLACEMENT_3D('',#1054,#864,#865);
#708=AXIS2_PLACEMENT_3D('',#1055,#866,#867);
#709=AXIS2_PLACEMENT_3D('',#1058,#869,#870);
#710=AXIS2_PLACEMENT_3D('',#1059,#871,#872);
#711=AXIS2_PLACEMENT_3D('',#1063,#875,#876);
#712=AXIS2_PLACEMENT_3D('',#1064,#877,#878);
#713=AXIS2_PLACEMENT_3D('',#1067,#880,#881);
#714=AXIS2_PLACEMENT_3D('',#1068,#882,#883);
#715=AXIS2_PLACEMENT_3D('',#1072,#886,#887);
#716=AXIS2_PLACEMENT_3D('',#1073,#888,#889);
#717=AXIS2_PLACEMENT_3D('',#1076,#891,#892);
#718=AXIS2_PLACEMENT_3D('',#1077,#893,#894);
#719=AXIS2_PLACEMENT_3D('',#1078,#895,#896);
#720=AXIS2_PLACEMENT_3D('',#1079,#897,#898);
#721=AXIS2_PLACEMENT_3D('',#1080,#899,#900);
#722=DIRECTION('',(0.,0.,1.));
#723=DIRECTION('',(1.,0.,0.));
#724=DIRECTION('',(1.,0.,0.));
#725=DIRECTION('',(0.,0.,-1.));
#726=DIRECTION('',(0.,0.,-1.));
#727=DIRECTION('',(0.,-1.,0.));
#728=DIRECTION('',(0.,0.,-1.));
#729=DIRECTION('',(0.,1.,0.));
#730=DIRECTION('',(0.,0.,-1.));
#731=DIRECTION('',(0.,1.,0.));
#732=DIRECTION('',(0.,0.,1.));
#733=DIRECTION('',(0.,-1.,0.));
#734=DIRECTION('',(0.,0.,1.));
#735=DIRECTION('',(1.,0.,0.));
#736=DIRECTION('',(1.,0.,0.));
#737=DIRECTION('',(0.,1.,0.));
#738=DIRECTION('',(1.,0.,0.));
#739=DIRECTION('',(0.,1.,0.));
#740=DIRECTION('',(1.,0.,0.));
#741=DIRECTION('',(-1.,0.,0.));
#742=DIRECTION('',(0.,1.,0.));
#743=DIRECTION('',(1.,0.,0.));
#744=DIRECTION('',(0.,0.,-1.));
#745=DIRECTION('',(0.,0.,-1.));
#746=DIRECTION('',(0.,-1.,0.));
#747=DIRECTION('',(0.,0.,-1.));
#748=DIRECTION('',(0.,-1.,0.));
#749=DIRECTION('',(0.,0.,1.));
#750=DIRECTION('',(0.,1.,0.));
#751=DIRECTION('',(0.,0.,-1.));
#752=DIRECTION('',(0.,0.,1.));
#753=DIRECTION('',(1.,0.,0.));
#754=DIRECTION('',(1.,0.,0.));
#755=DIRECTION('',(0.,1.,0.));
#756=DIRECTION('',(-1.,0.,0.));
#757=DIRECTION('',(1.,0.,0.));
#758=DIRECTION('',(1.,0.,0.));
#759=DIRECTION('',(0.,1.,0.));
#760=DIRECTION('',(0.,-1.,0.));
#761=DIRECTION('',(1.,0.,0.));
#762=DIRECTION('',(0.,-1.,0.));
#763=DIRECTION('',(0.,0.,-1.));
#764=DIRECTION('',(0.,-1.,0.));
#765=DIRECTION('',(1.,0.,0.));
#766=DIRECTION('',(0.,-1.,0.));
#767=DIRECTION('',(0.,0.,-1.));
#768=DIRECTION('',(0.,-1.,0.));
#769=DIRECTION('',(0.,0.,-1.));
#770=DIRECTION('',(0.,-1.,0.));
#771=DIRECTION('',(0.,0.,-1.));
#772=DIRECTION('',(0.,-1.,0.));
#773=DIRECTION('',(0.,0.,-1.));
#774=DIRECTION('',(0.,0.,-1.));
#775=DIRECTION('',(-1.,0.,0.));
#776=DIRECTION('',(-1.,0.,0.));
#777=DIRECTION('',(0.,0.,-1.));
#778=DIRECTION('',(0.,0.,-1.));
#779=DIRECTION('',(1.,0.,0.));
#780=DIRECTION('',(1.,0.,0.));
#781=DIRECTION('',(0.,0.,-1.));
#782=DIRECTION('',(1.,0.,0.));
#783=DIRECTION('',(0.,0.,-1.));
#784=DIRECTION('',(0.,0.17364817766693,0.984807753012208));
#785=DIRECTION('',(0.,-0.984807753012208,0.17364817766693));
#786=DIRECTION('',(0.,0.17364817766693,0.984807753012208));
#787=DIRECTION('',(1.,0.,0.));
#788=DIRECTION('',(0.,0.17364817766693,0.984807753012208));
#789=DIRECTION('',(0.,-0.984807753012208,0.17364817766693));
#790=DIRECTION('',(0.,-0.17364817766693,-0.984807753012208));
#791=DIRECTION('',(0.,0.984807753012208,-0.17364817766693));
#792=DIRECTION('',(0.,0.17364817766693,0.984807753012208));
#793=DIRECTION('',(0.,-0.984807753012208,0.17364817766693));
#794=DIRECTION('',(-1.,-1.88663487276341E-16,3.32664630813672E-17));
#795=DIRECTION('',(1.88663487276341E-16,-1.,0.));
#796=DIRECTION('',(0.,-0.17364817766693,-0.984807753012208));
#797=DIRECTION('',(-1.91573925671565E-16,0.984807753012208,-0.17364817766693));
#798=DIRECTION('',(0.,-0.17364817766693,-0.984807753012208));
#799=DIRECTION('',(-1.91573925671565E-16,0.984807753012208,-0.17364817766693));
#800=DIRECTION('',(0.,0.984807753012208,-0.17364817766693));
#801=DIRECTION('',(0.,0.17364817766693,0.984807753012208));
#802=DIRECTION('',(0.,-0.17364817766693,-0.984807753012208));
#803=DIRECTION('',(1.,0.,0.));
#804=DIRECTION('',(1.,0.,0.));
#805=DIRECTION('',(-1.,-1.88663487276341E-16,3.32664630813672E-17));
#806=DIRECTION('',(1.88663487276341E-16,-1.,0.));
#807=DIRECTION('',(0.,-0.17364817766693,-0.984807753012208));
#808=DIRECTION('',(-1.91573925671565E-16,0.984807753012208,-0.17364817766693));
#809=DIRECTION('',(-1.91573925671565E-16,0.984807753012208,-0.17364817766693));
#810=DIRECTION('',(0.,0.984807753012208,-0.17364817766693));
#811=DIRECTION('',(0.,0.17364817766693,0.984807753012208));
#812=DIRECTION('',(1.,0.,0.));
#813=DIRECTION('',(0.,-0.17364817766693,-0.984807753012208));
#814=DIRECTION('',(1.,0.,0.));
#815=DIRECTION('',(0.,0.17364817766693,0.984807753012208));
#816=DIRECTION('',(1.,0.,0.));
#817=DIRECTION('',(-1.91573925671565E-16,0.984807753012208,-0.17364817766693));
#818=DIRECTION('',(1.,0.,0.));
#819=DIRECTION('',(-1.91573925671565E-16,0.984807753012208,-0.17364817766693));
#820=DIRECTION('',(1.,0.,0.));
#821=DIRECTION('',(0.,0.17364817766693,0.984807753012208));
#822=DIRECTION('',(1.,0.,0.));
#823=DIRECTION('',(0.,0.17364817766693,0.984807753012208));
#824=DIRECTION('',(0.,-0.984807753012208,0.17364817766693));
#825=DIRECTION('',(0.,0.17364817766693,0.984807753012208));
#826=DIRECTION('',(0.,-0.984807753012208,0.17364817766693));
#827=DIRECTION('',(0.,0.173648177666931,0.984807753012208));
#828=DIRECTION('',(0.,-0.984807753012208,0.173648177666931));
#829=DIRECTION('',(1.,0.,0.));
#830=DIRECTION('',(0.,0.,-1.));
#831=DIRECTION('',(1.,0.,0.));
#832=DIRECTION('',(0.,0.,-1.));
#833=DIRECTION('',(0.707106781186548,0.696364240320019,-0.122787803968973));
#834=DIRECTION('',(0.707106781186548,-0.696364240320019,0.122787803968973));
#835=DIRECTION('',(0.,0.984807753012208,-0.173648177666931));
#836=DIRECTION('',(0.,0.173648177666931,0.984807753012208));
#837=DIRECTION('',(-8.54184564237123E-16,0.984807753012208,-0.17364817766693));
#838=DIRECTION('',(0.,0.17364817766693,0.984807753012208));
#839=DIRECTION('',(-1.91573925671565E-16,0.984807753012208,-0.17364817766693));
#840=DIRECTION('',(0.,0.17364817766693,0.984807753012208));
#841=DIRECTION('',(-0.707106781186548,0.696364240320019,-0.122787803968973));
#842=DIRECTION('',(0.707106781186548,0.696364240320019,-0.122787803968973));
#843=DIRECTION('',(1.91573925671565E-16,-0.984807753012208,0.17364817766693));
#844=DIRECTION('',(0.,-0.17364817766693,-0.984807753012208));
#845=DIRECTION('',(-0.707106781186548,-0.696364240320019,0.122787803968973));
#846=DIRECTION('',(0.707106781186548,-0.696364240320019,0.122787803968973));
#847=DIRECTION('',(-1.,0.,0.));
#848=DIRECTION('',(0.,0.,1.));
#849=DIRECTION('',(0.,0.,-1.));
#850=DIRECTION('',(-1.,0.,0.));
#851=DIRECTION('',(-1.,0.,0.));
#852=DIRECTION('',(0.,-1.,0.));
#853=DIRECTION('',(0.,-1.,0.));
#854=DIRECTION('',(0.,0.,-1.));
#855=DIRECTION('',(0.,-1.,0.));
#856=DIRECTION('',(0.,0.,-1.));
#857=DIRECTION('',(0.,0.,1.));
#858=DIRECTION('',(1.,0.,0.));
#859=DIRECTION('',(0.,1.,0.));
#860=DIRECTION('',(0.,0.,-1.));
#861=DIRECTION('',(-1.,0.,0.));
#862=DIRECTION('',(0.,-1.,0.));
#863=DIRECTION('',(-1.,0.,0.));
#864=DIRECTION('',(0.,1.,0.));
#865=DIRECTION('',(0.,0.,1.));
#866=DIRECTION('',(0.,1.,0.));
#867=DIRECTION('',(0.,0.,1.));
#868=DIRECTION('',(0.,0.,-1.));
#869=DIRECTION('',(1.,0.,0.));
#870=DIRECTION('',(0.,1.,0.));
#871=DIRECTION('',(0.,0.,1.));
#872=DIRECTION('',(1.,0.,0.));
#873=DIRECTION('',(0.,-1.,0.));
#874=DIRECTION('',(1.,0.,0.));
#875=DIRECTION('',(0.,1.,0.));
#876=DIRECTION('',(0.,0.,1.));
#877=DIRECTION('',(0.,-1.,0.));
#878=DIRECTION('',(0.,0.,-1.));
#879=DIRECTION('',(0.,0.,1.));
#880=DIRECTION('',(-1.,0.,0.));
#881=DIRECTION('',(0.,-1.,0.));
#882=DIRECTION('',(0.,0.,1.));
#883=DIRECTION('',(1.,0.,0.));
#884=DIRECTION('',(1.,0.,0.));
#885=DIRECTION('',(0.,-1.,0.));
#886=DIRECTION('',(0.,-1.,0.));
#887=DIRECTION('',(0.,0.,-1.));
#888=DIRECTION('',(0.,-1.,0.));
#889=DIRECTION('',(0.,0.,-1.));
#890=DIRECTION('',(0.,0.,-1.));
#891=DIRECTION('',(-1.,0.,0.));
#892=DIRECTION('',(0.,-1.,0.));
#893=DIRECTION('',(0.,-1.,0.));
#894=DIRECTION('',(0.,0.,-1.));
#895=DIRECTION('',(0.,-1.,0.));
#896=DIRECTION('',(0.,0.,-1.));
#897=DIRECTION('',(0.,-1.,0.));
#898=DIRECTION('',(0.,0.,-1.));
#899=DIRECTION('',(0.,-1.,0.));
#900=DIRECTION('',(0.,0.,-1.));
#901=CARTESIAN_POINT('',(0.,0.,0.));
#902=CARTESIAN_POINT('',(0.0153756365180016,-0.006,0.0110971990507096));
#903=CARTESIAN_POINT('',(0.0153756365180016,0.,0.0110971990507096));
#904=CARTESIAN_POINT('',(0.0153756365180016,0.,0.0124606499448419));
#905=CARTESIAN_POINT('',(0.0153756365180016,0.,0.0100271198898554));
#906=CARTESIAN_POINT('',(0.0153756365180016,-0.00100280647166073,0.0124606499448419));
#907=CARTESIAN_POINT('',(0.0153756365180016,-0.00200561294332147,0.0124606499448419));
#908=CARTESIAN_POINT('',(0.0153756365180016,-0.00200561294332147,0.0137175917625427));
#909=CARTESIAN_POINT('',(0.0153756365180016,-0.00200561294332147,0.0149745335802436));
#910=CARTESIAN_POINT('',(0.0153756365180016,-0.006,0.0149745335802436));
#911=CARTESIAN_POINT('',(0.0153756365180016,-0.006,0.0149745335802436));
#912=CARTESIAN_POINT('',(0.0153756365180016,-0.006,0.0110971990507096));
#913=CARTESIAN_POINT('',(0.0153756365180016,-0.006,0.00721986452117562));
#914=CARTESIAN_POINT('',(0.0153756365180016,-0.006,0.00721986452117562));
#915=CARTESIAN_POINT('',(0.0153756365180016,-0.00200561294332147,0.00721986452117562));
#916=CARTESIAN_POINT('',(0.0153756365180016,-0.00200561294332147,0.0086234922055155));
#917=CARTESIAN_POINT('',(0.0153756365180016,-0.00200561294332147,0.0100271198898554));
#918=CARTESIAN_POINT('',(0.0153756365180016,-0.00100280647166073,0.0100271198898554));
#919=CARTESIAN_POINT('',(0.00147071247920394,-0.006,0.0149745335802436));
#920=CARTESIAN_POINT('',(0.00147071247920394,0.,0.0149745335802436));
#921=CARTESIAN_POINT('',(-0.0224342115595937,0.,0.0149745335802436));
#922=CARTESIAN_POINT('',(0.0253756365180016,0.,0.0149745335802436));
#923=CARTESIAN_POINT('',(-0.0224342115595937,-0.006,0.0149745335802436));
#924=CARTESIAN_POINT('',(-0.0224342115595937,-0.00267509184777737,0.0149745335802436));
#925=CARTESIAN_POINT('',(-0.0224342115595937,-0.00267509184777737,0.0149745335802436));
#926=CARTESIAN_POINT('',(-0.0124342115595937,-0.00267509184777737,0.0149745335802436));
#927=CARTESIAN_POINT('',(-0.0124342115595937,-0.006,0.0149745335802436));
#928=CARTESIAN_POINT('',(-0.0124342115595937,-0.006,0.0149745335802436));
#929=CARTESIAN_POINT('',(0.00147071247920394,-0.006,0.0149745335802436));
#930=CARTESIAN_POINT('',(0.0253756365180016,-0.00200561294332147,0.0149745335802436));
#931=CARTESIAN_POINT('',(0.0253756365180016,-0.00200561294332147,0.0149745335802436));
#932=CARTESIAN_POINT('',(0.0253756365180016,-0.006,0.0149745335802436));
#933=CARTESIAN_POINT('',(-0.0124342115595937,-0.006,0.0110971990507096));
#934=CARTESIAN_POINT('',(-0.0124342115595937,-0.00267509184777737,0.0137879457324743));
#935=CARTESIAN_POINT('',(-0.0124342115595937,-0.00267509184777737,0.0126013578847051));
#936=CARTESIAN_POINT('',(-0.0124342115595937,-0.00133754592388868,0.0126013578847051));
#937=CARTESIAN_POINT('',(-0.0124342115595937,0.,0.0126013578847051));
#938=CARTESIAN_POINT('',(-0.0124342115595937,0.,0.0110971990507096));
#939=CARTESIAN_POINT('',(-0.0124342115595937,0.,0.00981380324810743));
#940=CARTESIAN_POINT('',(-0.0124342115595937,-0.00133754592388868,0.00981380324810743));
#941=CARTESIAN_POINT('',(-0.0124342115595937,-0.00267509184777737,0.00981380324810743));
#942=CARTESIAN_POINT('',(-0.0124342115595937,-0.00267509184777737,0.00851683388464153));
#943=CARTESIAN_POINT('',(-0.0124342115595937,-0.00267509184777737,0.00721986452117562));
#944=CARTESIAN_POINT('',(-0.0124342115595937,-0.006,0.00721986452117562));
#945=CARTESIAN_POINT('',(-0.0124342115595937,-0.006,0.00721986452117562));
#946=CARTESIAN_POINT('',(-0.0124342115595937,-0.006,0.0110971990507096));
#947=CARTESIAN_POINT('',(0.00147071247920394,-0.006,0.00721986452117562));
#948=CARTESIAN_POINT('',(0.00147071247920394,0.,0.00721986452117562));
#949=CARTESIAN_POINT('',(-0.0224342115595937,0.,0.00721986452117562));
#950=CARTESIAN_POINT('',(0.0253756365180016,0.,0.00721986452117562));
#951=CARTESIAN_POINT('',(0.0253756365180016,-0.006,0.00721986452117562));
#952=CARTESIAN_POINT('',(0.0253756365180016,-0.00200561294332147,0.00721986452117562));
#953=CARTESIAN_POINT('',(0.0253756365180016,-0.00200561294332147,0.00721986452117562));
#954=CARTESIAN_POINT('',(0.00147071247920394,-0.006,0.00721986452117562));
#955=CARTESIAN_POINT('',(-0.0224342115595937,-0.00267509184777737,0.00721986452117562));
#956=CARTESIAN_POINT('',(-0.0224342115595937,-0.00267509184777737,0.00721986452117562));
#957=CARTESIAN_POINT('',(-0.0224342115595937,-0.006,0.00721986452117562));
#958=CARTESIAN_POINT('',(0.00147071247920394,-0.006,0.0110971990507096));
#959=CARTESIAN_POINT('',(0.,-0.006,0.0111174937337637));
#960=CARTESIAN_POINT('',(0.,-0.006,0.00877212632692904));
#961=CARTESIAN_POINT('',(0.00147071247920394,0.,0.0110971990507096));
#962=CARTESIAN_POINT('',(-0.0201102010637188,0.,0.0137513578847051));
#963=CARTESIAN_POINT('',(-0.0201102010637188,0.,0.0127013578847051));
#964=CARTESIAN_POINT('',(0.0198211837559939,0.,0.00836986452117562));
#965=CARTESIAN_POINT('',(0.0198211837559939,0.,0.00731986452117562));
#966=CARTESIAN_POINT('',(0.0205049235373735,0.,0.0136106499448419));
#967=CARTESIAN_POINT('',(0.0205049235373735,0.,0.0125606499448419));
#968=CARTESIAN_POINT('',(-0.0182163835936415,0.,0.00866380324810743));
#969=CARTESIAN_POINT('',(-0.0182163835936415,0.,0.00761380324810743));
#970=CARTESIAN_POINT('',(0.0253756365180016,0.,0.0110971990507096));
#971=CARTESIAN_POINT('',(0.0253756365180016,0.,0.0124606499448419));
#972=CARTESIAN_POINT('',(0.0253756365180016,0.,0.0124606499448419));
#973=CARTESIAN_POINT('',(0.0253756365180016,0.,0.0100271198898554));
#974=CARTESIAN_POINT('',(0.0253756365180016,0.,0.0100271198898554));
#975=CARTESIAN_POINT('',(0.0253756365180016,0.,0.0110971990507096));
#976=CARTESIAN_POINT('',(-0.0224342115595937,0.,0.0110971990507096));
#977=CARTESIAN_POINT('',(-0.0224342115595937,0.,0.00981380324810743));
#978=CARTESIAN_POINT('',(-0.0224342115595937,0.,0.00981380324810743));
#979=CARTESIAN_POINT('',(-0.0224342115595937,0.,0.0126013578847051));
#980=CARTESIAN_POINT('',(-0.0224342115595937,0.,0.0126013578847051));
#981=CARTESIAN_POINT('',(-0.0224342115595937,0.,0.0110971990507096));
#982=CARTESIAN_POINT('',(0.,-0.006,0.0149745335802436));
#983=CARTESIAN_POINT('',(0.,-0.00979844274449042,0.0156443015207736));
#984=CARTESIAN_POINT('',(0.,-0.0121081787504033,0.0160515702969298));
#985=CARTESIAN_POINT('',(0.00147071247920394,-0.00981842910570701,0.0156478256555023));
#986=CARTESIAN_POINT('',(0.,-0.00979844274449042,0.0156443015207736));
#987=CARTESIAN_POINT('',(0.,-0.0119968043641919,0.0160319319876809));
#988=CARTESIAN_POINT('',(0.,-0.00806196096782111,0.0254923790508956));
#989=CARTESIAN_POINT('',(0.,-0.00806196096782111,0.0254923790508956));
#990=CARTESIAN_POINT('',(0.,-0.0102603225875226,0.025880009517803));
#991=CARTESIAN_POINT('',(-0.00228087090434306,-0.00719556214131965,0.030416742621158));
#992=CARTESIAN_POINT('',(-0.00228087090434305,-0.00942494842455932,0.0308098435733145));
#993=CARTESIAN_POINT('',(-0.00228087090434305,-0.00959859660222625,0.0298250358203023));
#994=CARTESIAN_POINT('',(-0.00228087090434305,-0.010293189312894,0.0258858048082535));
#995=CARTESIAN_POINT('',(-0.00228087090434306,-0.00736921031898658,0.0294319348681458));
#996=CARTESIAN_POINT('',(-0.00228087090434306,-0.00513982403574692,0.0290388339159893));
#997=CARTESIAN_POINT('',(-0.00228087090434306,-0.00496617585807999,0.0300236416690015));
#998=CARTESIAN_POINT('',(-0.00228087090434306,-0.00583441674641464,0.0250996029039404));
#999=CARTESIAN_POINT('',(-0.00228087090434306,-0.00806380302965431,0.0254927038560969));
#1000=CARTESIAN_POINT('',(5.09884320060291E-6,-0.00942494842455932,0.0308098435733145));
#1001=CARTESIAN_POINT('',(0.00229106859074426,-0.00942494842455932,0.0308098435733145));
#1002=CARTESIAN_POINT('',(0.00229106859074426,-0.00959859660222625,0.0298250358203023));
#1003=CARTESIAN_POINT('',(0.00229106859074426,-0.010293189312894,0.0258858048082535));
#1004=CARTESIAN_POINT('',(-0.00228087090434305,-0.00959859660222625,0.0298250358203023));
#1005=CARTESIAN_POINT('',(5.09884320060291E-6,-0.010293189312894,0.0258858048082535));
#1006=CARTESIAN_POINT('',(0.00229106859074426,-0.00719556214131965,0.030416742621158));
#1007=CARTESIAN_POINT('',(0.00229106859074426,-0.0059509836110922,0.0301972898466684));
#1008=CARTESIAN_POINT('',(0.00229106859074426,-0.00681922449942685,0.0252732510816074));
#1009=CARTESIAN_POINT('',(0.00229106859074426,-0.00612463178875913,0.0292124820936562));
#1010=CARTESIAN_POINT('',(0.00229106859074426,-0.00959859660222625,0.0298250358203023));
#1011=CARTESIAN_POINT('',(0.00229106859074426,-0.00806380302965431,0.0254927038560969));
#1012=CARTESIAN_POINT('',(5.09884320060204E-6,-0.00496617585807999,0.0300236416690015));
#1013=CARTESIAN_POINT('',(5.09884320060204E-6,-0.00513982403574692,0.0290388339159893));
#1014=CARTESIAN_POINT('',(0.00129106859074426,-0.00513982403574692,0.0290388339159893));
#1015=CARTESIAN_POINT('',(0.00129106859074426,-0.00583441674641464,0.0250996029039404));
#1016=CARTESIAN_POINT('',(0.00129106859074426,-0.00583441674641464,0.0250996029039404));
#1017=CARTESIAN_POINT('',(5.09884320060204E-6,-0.00583441674641464,0.0250996029039404));
#1018=CARTESIAN_POINT('',(5.09884320060248E-6,-0.00719556214131965,0.030416742621158));
#1019=CARTESIAN_POINT('',(-0.00128087090434306,-0.00719556214131965,0.030416742621158));
#1020=CARTESIAN_POINT('',(-0.00128087090434306,-0.0059509836110922,0.0301972898466684));
#1021=CARTESIAN_POINT('',(-0.00128087090434306,-0.00844014067154711,0.0306361953956476));
#1022=CARTESIAN_POINT('',(0.00229106859074426,-0.00844014067154711,0.0306361953956476));
#1023=CARTESIAN_POINT('',(0.00129106859074426,-0.00844014067154711,0.0306361953956476));
#1024=CARTESIAN_POINT('',(0.00129106859074426,-0.00496617585807999,0.0300236416690015));
#1025=CARTESIAN_POINT('',(0.00129106859074426,-0.0059509836110922,0.0301972898466684));
#1026=CARTESIAN_POINT('',(5.09884320060248E-6,-0.0059509836110922,0.0301972898466684));
#1027=CARTESIAN_POINT('',(5.09884320060248E-6,-0.00806380302965431,0.0254927038560969));
#1028=CARTESIAN_POINT('',(0.00129106859074426,-0.00681922449942685,0.0252732510816074));
#1029=CARTESIAN_POINT('',(0.00129106859074426,-0.0059509836110922,0.0301972898466684));
#1030=CARTESIAN_POINT('',(0.00129106859074426,-0.00612463178875913,0.0292124820936562));
#1031=CARTESIAN_POINT('',(5.09884320060204E-6,-0.00612463178875913,0.0292124820936562));
#1032=CARTESIAN_POINT('',(0.00129106859074426,-0.00612463178875913,0.0292124820936562));
#1033=CARTESIAN_POINT('',(-0.00128087090434306,-0.00612463178875913,0.0292124820936562));
#1034=CARTESIAN_POINT('',(0.00129106859074426,-0.00612463178875913,0.0292124820936562));
#1035=CARTESIAN_POINT('',(0.00129106859074426,-0.00612463178875913,0.0292124820936562));
#1036=CARTESIAN_POINT('',(-0.00128087090434306,-0.00736921031898658,0.0294319348681458));
#1037=CARTESIAN_POINT('',(-0.00128087090434306,-0.00861378884921404,0.0296513876426354));
#1038=CARTESIAN_POINT('',(0.00129106859074426,-0.00736921031898658,0.0294319348681458));
#1039=CARTESIAN_POINT('',(0.00129106859074426,-0.00861378884921404,0.0296513876426354));
#1040=CARTESIAN_POINT('',(5.09884320060248E-6,-0.00861378884921404,0.0296513876426354));
#1041=CARTESIAN_POINT('',(0.0253756365180016,-0.00100280647166073,0.0100271198898554));
#1042=CARTESIAN_POINT('',(0.0253756365180016,-0.00200561294332147,0.0100271198898554));
#1043=CARTESIAN_POINT('',(0.0253756365180016,-0.00200561294332147,0.0100271198898554));
#1044=CARTESIAN_POINT('',(0.0253756365180016,-0.00100280647166073,0.0100271198898554));
#1045=CARTESIAN_POINT('',(0.0253756365180016,-0.00200561294332147,0.0086234922055155));
#1046=CARTESIAN_POINT('',(0.0198211837559939,-0.00200561294332147,0.00836986452117562));
#1047=CARTESIAN_POINT('',(0.0198211837559939,-0.00200561294332147,0.00731986452117562));
#1048=CARTESIAN_POINT('',(0.0253756365180016,-0.00200561294332147,0.0086234922055155));
#1049=CARTESIAN_POINT('',(0.0253756365180016,-0.003,0.0110971990507096));
#1050=CARTESIAN_POINT('',(0.0253756365180016,-0.00100280647166073,0.0124606499448419));
#1051=CARTESIAN_POINT('',(0.0253756365180016,-0.00100280647166073,0.0124606499448419));
#1052=CARTESIAN_POINT('',(0.0253756365180016,-0.00200561294332147,0.0124606499448419));
#1053=CARTESIAN_POINT('',(0.0253756365180016,-0.00200561294332147,0.0124606499448419));
#1054=CARTESIAN_POINT('',(0.0253756365180016,-0.00200561294332147,0.0137175917625427));
#1055=CARTESIAN_POINT('',(0.0205049235373735,-0.00200561294332147,0.0136106499448419));
#1056=CARTESIAN_POINT('',(0.0205049235373735,-0.00200561294332147,0.0146606499448419));
#1057=CARTESIAN_POINT('',(0.0253756365180016,-0.00200561294332147,0.0137175917625427));
#1058=CARTESIAN_POINT('',(0.0253756365180016,-0.003,0.0110971990507096));
#1059=CARTESIAN_POINT('',(-0.0224342115595937,-0.00133754592388868,0.00981380324810743));
#1060=CARTESIAN_POINT('',(-0.0224342115595937,-0.00133754592388868,0.00981380324810743));
#1061=CARTESIAN_POINT('',(-0.0224342115595937,-0.00267509184777737,0.00981380324810743));
#1062=CARTESIAN_POINT('',(-0.0224342115595937,-0.00267509184777737,0.00981380324810743));
#1063=CARTESIAN_POINT('',(-0.0224342115595937,-0.00267509184777737,0.00851683388464153));
#1064=CARTESIAN_POINT('',(-0.0182163835936415,-0.00267509184777737,0.00866380324810743));
#1065=CARTESIAN_POINT('',(-0.0182163835936415,-0.00267509184777737,0.00761380324810743));
#1066=CARTESIAN_POINT('',(-0.0224342115595937,-0.00267509184777737,0.00851683388464153));
#1067=CARTESIAN_POINT('',(-0.0224342115595937,-0.003,0.0110971990507096));
#1068=CARTESIAN_POINT('',(-0.0224342115595937,-0.00133754592388868,0.0126013578847051));
#1069=CARTESIAN_POINT('',(-0.0224342115595937,-0.00267509184777737,0.0126013578847051));
#1070=CARTESIAN_POINT('',(-0.0224342115595937,-0.00267509184777737,0.0126013578847051));
#1071=CARTESIAN_POINT('',(-0.0224342115595937,-0.00133754592388868,0.0126013578847051));
#1072=CARTESIAN_POINT('',(-0.0224342115595937,-0.00267509184777737,0.0137879457324743));
#1073=CARTESIAN_POINT('',(-0.0201102010637188,-0.00267509184777737,0.0137513578847051));
#1074=CARTESIAN_POINT('',(-0.0201102010637188,-0.00267509184777737,0.0127013578847051));
#1075=CARTESIAN_POINT('',(-0.0224342115595937,-0.00267509184777737,0.0137879457324743));
#1076=CARTESIAN_POINT('',(-0.0224342115595937,-0.003,0.0110971990507096));
#1077=CARTESIAN_POINT('',(-0.0201102010637188,0.0223249081522226,0.0137513578847051));
#1078=CARTESIAN_POINT('',(-0.0182163835936415,0.0223249081522226,0.00866380324810743));
#1079=CARTESIAN_POINT('',(0.0205049235373735,0.0223249081522226,0.0136106499448419));
#1080=CARTESIAN_POINT('',(0.0198211837559939,0.0223249081522226,0.00836986452117562));
#1081=MECHANICAL_DESIGN_GEOMETRIC_PRESENTATION_REPRESENTATION('',(#654),
#1082);
#1082=(
GEOMETRIC_REPRESENTATION_CONTEXT(3)
GLOBAL_UNCERTAINTY_ASSIGNED_CONTEXT((#1083))
GLOBAL_UNIT_ASSIGNED_CONTEXT((#1086,#1085,#1084))
REPRESENTATION_CONTEXT('Part 1','TOP_LEVEL_ASSEMBLY_PART')
);
#1083=UNCERTAINTY_MEASURE_WITH_UNIT(LENGTH_MEASURE(1.E-8),#1086,
'DISTANCE_ACCURACY_VALUE','Maximum Tolerance applied to model');
#1084=(
NAMED_UNIT(*)
SI_UNIT($,.STERADIAN.)
SOLID_ANGLE_UNIT()
);
#1085=(
NAMED_UNIT(*)
PLANE_ANGLE_UNIT()
SI_UNIT($,.RADIAN.)
);
#1086=(
LENGTH_UNIT()
NAMED_UNIT(*)
SI_UNIT($,.METRE.)
);
#1087=PRODUCT_DEFINITION_SHAPE('','',#1088);
#1088=PRODUCT_DEFINITION('','',#1090,#1089);
#1089=PRODUCT_DEFINITION_CONTEXT('',#1096,'design');
#1090=PRODUCT_DEFINITION_FORMATION_WITH_SPECIFIED_SOURCE('','',#1092,
 .NOT_KNOWN.);
#1091=PRODUCT_RELATED_PRODUCT_CATEGORY('','',(#1092));
#1092=PRODUCT('Part 1','Part 1','Part 1',(#1094));
#1093=PRODUCT_CATEGORY('','');
#1094=PRODUCT_CONTEXT('',#1096,'mechanical');
#1095=APPLICATION_PROTOCOL_DEFINITION('international standard',
'ap242_managed_model_based_3d_engineering',2020,#1096);
#1096=APPLICATION_CONTEXT('managed model based 3d engineering');
ENDSEC;
END-ISO-10303-21;
