ISO-10303-21;
HEADER;
/* Generated by software containing ST-Developer
 * from STEP Tools, Inc. (www.steptools.com) 
 */
/* OPTION: using custom renumber hook */

FILE_DESCRIPTION(
/* description */ ('STEP AP242 Edition 2',
'CAx-IF Rec.Pracs.---Representation and Presentation of Product Manufa
cturing Information (PMI)---4.0---2014-10-13',
'CAx-IF Rec.Pracs.---3D Tessellated Geometry---0.4---2014-09-14','2;1',
'CAx-IF Rec.Pracs.---User Defined Attributes---1.5---2016-08-15'),
/* implementation_level */ '2;1');

FILE_NAME(
/* name */ 'remote',
/* time_stamp */ '2026-07-22T08:06:38Z',
/* author */ (''),
/* organization */ (''),
/* preprocessor_version */ 'ST-DEVELOPER v20',
/* originating_system */ 'ONSHAPE BY PTC INC, 1.218',
/* authorisation */ '  ');

FILE_SCHEMA (('AP242_MANAGED_MODEL_BASED_3D_ENGINEERING_MIM_LF { 1 0 10303 442 3 1 4 }'));
ENDSEC;

DATA;
#10=SHAPE_REPRESENTATION_RELATIONSHIP('','',#570,#12);
#11=SHAPE_REPRESENTATION_RELATIONSHIP('','',#571,#13);
#12=ADVANCED_BREP_SHAPE_REPRESENTATION('',(#566),#928);
#13=ADVANCED_BREP_SHAPE_REPRESENTATION('',(#567),#929);
#14=CYLINDRICAL_SURFACE('',#589,0.0018);
#15=CYLINDRICAL_SURFACE('',#590,0.0018);
#16=CYLINDRICAL_SURFACE('',#591,0.0018);
#17=CYLINDRICAL_SURFACE('',#592,0.0018);
#18=CYLINDRICAL_SURFACE('',#593,0.008005);
#19=CYLINDRICAL_SURFACE('',#610,0.0018);
#20=CYLINDRICAL_SURFACE('',#615,0.0018);
#21=CYLINDRICAL_SURFACE('',#618,0.0018);
#22=CYLINDRICAL_SURFACE('',#619,0.0018);
#23=CIRCLE('',#578,0.008005);
#24=CIRCLE('',#579,0.0018);
#25=CIRCLE('',#580,0.0018);
#26=CIRCLE('',#581,0.0018);
#27=CIRCLE('',#582,0.0018);
#28=CIRCLE('',#584,0.008005);
#29=CIRCLE('',#585,0.0018);
#30=CIRCLE('',#586,0.0018);
#31=CIRCLE('',#587,0.0018);
#32=CIRCLE('',#588,0.0018);
#33=CIRCLE('',#604,0.0018);
#34=CIRCLE('',#605,0.0018);
#35=CIRCLE('',#606,0.0018);
#36=CIRCLE('',#607,0.0018);
#37=CIRCLE('',#611,0.0018);
#38=CIRCLE('',#614,0.0018);
#39=CIRCLE('',#617,0.0018);
#40=CIRCLE('',#620,0.0018);
#41=ORIENTED_EDGE('',*,*,#181,.F.);
#42=ORIENTED_EDGE('',*,*,#182,.F.);
#43=ORIENTED_EDGE('',*,*,#183,.T.);
#44=ORIENTED_EDGE('',*,*,#184,.T.);
#45=ORIENTED_EDGE('',*,*,#185,.T.);
#46=ORIENTED_EDGE('',*,*,#186,.F.);
#47=ORIENTED_EDGE('',*,*,#187,.F.);
#48=ORIENTED_EDGE('',*,*,#182,.T.);
#49=ORIENTED_EDGE('',*,*,#188,.T.);
#50=ORIENTED_EDGE('',*,*,#189,.F.);
#51=ORIENTED_EDGE('',*,*,#190,.F.);
#52=ORIENTED_EDGE('',*,*,#186,.T.);
#53=ORIENTED_EDGE('',*,*,#191,.F.);
#54=ORIENTED_EDGE('',*,*,#184,.F.);
#55=ORIENTED_EDGE('',*,*,#192,.T.);
#56=ORIENTED_EDGE('',*,*,#189,.T.);
#57=ORIENTED_EDGE('',*,*,#193,.F.);
#58=ORIENTED_EDGE('',*,*,#194,.F.);
#59=ORIENTED_EDGE('',*,*,#195,.F.);
#60=ORIENTED_EDGE('',*,*,#196,.F.);
#61=ORIENTED_EDGE('',*,*,#197,.F.);
#62=ORIENTED_EDGE('',*,*,#183,.F.);
#63=ORIENTED_EDGE('',*,*,#187,.T.);
#64=ORIENTED_EDGE('',*,*,#190,.T.);
#65=ORIENTED_EDGE('',*,*,#192,.F.);
#66=ORIENTED_EDGE('',*,*,#198,.T.);
#67=ORIENTED_EDGE('',*,*,#199,.T.);
#68=ORIENTED_EDGE('',*,*,#200,.T.);
#69=ORIENTED_EDGE('',*,*,#201,.T.);
#70=ORIENTED_EDGE('',*,*,#202,.T.);
#71=ORIENTED_EDGE('',*,*,#181,.T.);
#72=ORIENTED_EDGE('',*,*,#191,.T.);
#73=ORIENTED_EDGE('',*,*,#188,.F.);
#74=ORIENTED_EDGE('',*,*,#185,.F.);
#75=ORIENTED_EDGE('',*,*,#202,.F.);
#76=ORIENTED_EDGE('',*,*,#197,.T.);
#77=ORIENTED_EDGE('',*,*,#201,.F.);
#78=ORIENTED_EDGE('',*,*,#196,.T.);
#79=ORIENTED_EDGE('',*,*,#200,.F.);
#80=ORIENTED_EDGE('',*,*,#195,.T.);
#81=ORIENTED_EDGE('',*,*,#199,.F.);
#82=ORIENTED_EDGE('',*,*,#194,.T.);
#83=ORIENTED_EDGE('',*,*,#198,.F.);
#84=ORIENTED_EDGE('',*,*,#193,.T.);
#85=ORIENTED_EDGE('',*,*,#203,.F.);
#86=ORIENTED_EDGE('',*,*,#204,.F.);
#87=ORIENTED_EDGE('',*,*,#205,.T.);
#88=ORIENTED_EDGE('',*,*,#206,.T.);
#89=ORIENTED_EDGE('',*,*,#207,.T.);
#90=ORIENTED_EDGE('',*,*,#208,.F.);
#91=ORIENTED_EDGE('',*,*,#209,.F.);
#92=ORIENTED_EDGE('',*,*,#204,.T.);
#93=ORIENTED_EDGE('',*,*,#210,.T.);
#94=ORIENTED_EDGE('',*,*,#211,.F.);
#95=ORIENTED_EDGE('',*,*,#212,.F.);
#96=ORIENTED_EDGE('',*,*,#208,.T.);
#97=ORIENTED_EDGE('',*,*,#213,.F.);
#98=ORIENTED_EDGE('',*,*,#214,.T.);
#99=ORIENTED_EDGE('',*,*,#215,.F.);
#100=ORIENTED_EDGE('',*,*,#216,.T.);
#101=ORIENTED_EDGE('',*,*,#217,.T.);
#102=ORIENTED_EDGE('',*,*,#218,.F.);
#103=ORIENTED_EDGE('',*,*,#219,.F.);
#104=ORIENTED_EDGE('',*,*,#220,.T.);
#105=ORIENTED_EDGE('',*,*,#221,.F.);
#106=ORIENTED_EDGE('',*,*,#222,.T.);
#107=ORIENTED_EDGE('',*,*,#223,.F.);
#108=ORIENTED_EDGE('',*,*,#219,.T.);
#109=ORIENTED_EDGE('',*,*,#224,.T.);
#110=ORIENTED_EDGE('',*,*,#225,.F.);
#111=ORIENTED_EDGE('',*,*,#226,.F.);
#112=ORIENTED_EDGE('',*,*,#227,.T.);
#113=ORIENTED_EDGE('',*,*,#228,.F.);
#114=ORIENTED_EDGE('',*,*,#229,.T.);
#115=ORIENTED_EDGE('',*,*,#230,.F.);
#116=ORIENTED_EDGE('',*,*,#231,.T.);
#117=ORIENTED_EDGE('',*,*,#232,.F.);
#118=ORIENTED_EDGE('',*,*,#225,.T.);
#119=ORIENTED_EDGE('',*,*,#233,.T.);
#120=ORIENTED_EDGE('',*,*,#234,.F.);
#121=ORIENTED_EDGE('',*,*,#235,.F.);
#122=ORIENTED_EDGE('',*,*,#236,.T.);
#123=ORIENTED_EDGE('',*,*,#234,.T.);
#124=ORIENTED_EDGE('',*,*,#237,.F.);
#125=ORIENTED_EDGE('',*,*,#217,.F.);
#126=ORIENTED_EDGE('',*,*,#238,.T.);
#127=ORIENTED_EDGE('',*,*,#239,.F.);
#128=ORIENTED_EDGE('',*,*,#240,.T.);
#129=ORIENTED_EDGE('',*,*,#241,.F.);
#130=ORIENTED_EDGE('',*,*,#206,.F.);
#131=ORIENTED_EDGE('',*,*,#242,.T.);
#132=ORIENTED_EDGE('',*,*,#211,.T.);
#133=ORIENTED_EDGE('',*,*,#243,.F.);
#134=ORIENTED_EDGE('',*,*,#221,.T.);
#135=ORIENTED_EDGE('',*,*,#244,.F.);
#136=ORIENTED_EDGE('',*,*,#230,.T.);
#137=ORIENTED_EDGE('',*,*,#245,.F.);
#138=ORIENTED_EDGE('',*,*,#240,.F.);
#139=ORIENTED_EDGE('',*,*,#246,.F.);
#140=ORIENTED_EDGE('',*,*,#214,.F.);
#141=ORIENTED_EDGE('',*,*,#205,.F.);
#142=ORIENTED_EDGE('',*,*,#209,.T.);
#143=ORIENTED_EDGE('',*,*,#212,.T.);
#144=ORIENTED_EDGE('',*,*,#242,.F.);
#145=ORIENTED_EDGE('',*,*,#203,.T.);
#146=ORIENTED_EDGE('',*,*,#241,.T.);
#147=ORIENTED_EDGE('',*,*,#210,.F.);
#148=ORIENTED_EDGE('',*,*,#207,.F.);
#149=ORIENTED_EDGE('',*,*,#224,.F.);
#150=ORIENTED_EDGE('',*,*,#218,.T.);
#151=ORIENTED_EDGE('',*,*,#237,.T.);
#152=ORIENTED_EDGE('',*,*,#233,.F.);
#153=ORIENTED_EDGE('',*,*,#215,.T.);
#154=ORIENTED_EDGE('',*,*,#246,.T.);
#155=ORIENTED_EDGE('',*,*,#239,.T.);
#156=ORIENTED_EDGE('',*,*,#247,.F.);
#157=ORIENTED_EDGE('',*,*,#247,.T.);
#158=ORIENTED_EDGE('',*,*,#238,.F.);
#159=ORIENTED_EDGE('',*,*,#216,.F.);
#160=ORIENTED_EDGE('',*,*,#228,.T.);
#161=ORIENTED_EDGE('',*,*,#236,.F.);
#162=ORIENTED_EDGE('',*,*,#248,.T.);
#163=ORIENTED_EDGE('',*,*,#248,.F.);
#164=ORIENTED_EDGE('',*,*,#235,.T.);
#165=ORIENTED_EDGE('',*,*,#245,.T.);
#166=ORIENTED_EDGE('',*,*,#229,.F.);
#167=ORIENTED_EDGE('',*,*,#226,.T.);
#168=ORIENTED_EDGE('',*,*,#232,.T.);
#169=ORIENTED_EDGE('',*,*,#249,.T.);
#170=ORIENTED_EDGE('',*,*,#249,.F.);
#171=ORIENTED_EDGE('',*,*,#231,.F.);
#172=ORIENTED_EDGE('',*,*,#244,.T.);
#173=ORIENTED_EDGE('',*,*,#227,.F.);
#174=ORIENTED_EDGE('',*,*,#213,.T.);
#175=ORIENTED_EDGE('',*,*,#250,.F.);
#176=ORIENTED_EDGE('',*,*,#222,.F.);
#177=ORIENTED_EDGE('',*,*,#243,.T.);
#178=ORIENTED_EDGE('',*,*,#223,.T.);
#179=ORIENTED_EDGE('',*,*,#250,.T.);
#180=ORIENTED_EDGE('',*,*,#220,.F.);
#181=EDGE_CURVE('',#251,#252,#301,.T.);
#182=EDGE_CURVE('',#253,#251,#302,.T.);
#183=EDGE_CURVE('',#253,#254,#303,.T.);
#184=EDGE_CURVE('',#254,#252,#304,.T.);
#185=EDGE_CURVE('',#251,#255,#305,.T.);
#186=EDGE_CURVE('',#256,#255,#306,.T.);
#187=EDGE_CURVE('',#253,#256,#307,.T.);
#188=EDGE_CURVE('',#255,#257,#308,.T.);
#189=EDGE_CURVE('',#258,#257,#309,.T.);
#190=EDGE_CURVE('',#256,#258,#310,.T.);
#191=EDGE_CURVE('',#252,#257,#311,.T.);
#192=EDGE_CURVE('',#254,#258,#312,.T.);
#193=EDGE_CURVE('',#259,#259,#23,.T.);
#194=EDGE_CURVE('',#260,#260,#24,.T.);
#195=EDGE_CURVE('',#261,#261,#25,.T.);
#196=EDGE_CURVE('',#262,#262,#26,.T.);
#197=EDGE_CURVE('',#263,#263,#27,.T.);
#198=EDGE_CURVE('',#264,#264,#28,.T.);
#199=EDGE_CURVE('',#265,#265,#29,.T.);
#200=EDGE_CURVE('',#266,#266,#30,.T.);
#201=EDGE_CURVE('',#267,#267,#31,.T.);
#202=EDGE_CURVE('',#268,#268,#32,.T.);
#203=EDGE_CURVE('',#269,#270,#313,.T.);
#204=EDGE_CURVE('',#271,#269,#314,.T.);
#205=EDGE_CURVE('',#271,#272,#315,.T.);
#206=EDGE_CURVE('',#272,#270,#316,.T.);
#207=EDGE_CURVE('',#269,#273,#317,.T.);
#208=EDGE_CURVE('',#274,#273,#318,.T.);
#209=EDGE_CURVE('',#271,#274,#319,.T.);
#210=EDGE_CURVE('',#273,#275,#320,.T.);
#211=EDGE_CURVE('',#276,#275,#321,.T.);
#212=EDGE_CURVE('',#274,#276,#322,.T.);
#213=EDGE_CURVE('',#277,#278,#323,.F.);
#214=EDGE_CURVE('',#277,#279,#324,.T.);
#215=EDGE_CURVE('',#280,#279,#325,.T.);
#216=EDGE_CURVE('',#280,#281,#326,.T.);
#217=EDGE_CURVE('',#281,#282,#327,.T.);
#218=EDGE_CURVE('',#283,#282,#328,.T.);
#219=EDGE_CURVE('',#284,#283,#329,.T.);
#220=EDGE_CURVE('',#284,#278,#330,.T.);
#221=EDGE_CURVE('',#285,#286,#331,.T.);
#222=EDGE_CURVE('',#285,#287,#332,.F.);
#223=EDGE_CURVE('',#284,#287,#333,.T.);
#224=EDGE_CURVE('',#283,#288,#334,.T.);
#225=EDGE_CURVE('',#289,#288,#335,.T.);
#226=EDGE_CURVE('',#290,#289,#336,.T.);
#227=EDGE_CURVE('',#290,#286,#337,.T.);
#228=EDGE_CURVE('',#291,#292,#338,.T.);
#229=EDGE_CURVE('',#291,#293,#339,.T.);
#230=EDGE_CURVE('',#294,#293,#340,.T.);
#231=EDGE_CURVE('',#294,#295,#341,.F.);
#232=EDGE_CURVE('',#289,#295,#342,.T.);
#233=EDGE_CURVE('',#288,#296,#343,.T.);
#234=EDGE_CURVE('',#292,#296,#344,.T.);
#235=EDGE_CURVE('',#297,#298,#345,.T.);
#236=EDGE_CURVE('',#297,#292,#346,.T.);
#237=EDGE_CURVE('',#282,#296,#347,.T.);
#238=EDGE_CURVE('',#281,#299,#348,.T.);
#239=EDGE_CURVE('',#300,#299,#349,.F.);
#240=EDGE_CURVE('',#300,#298,#350,.T.);
#241=EDGE_CURVE('',#270,#275,#351,.T.);
#242=EDGE_CURVE('',#272,#276,#352,.T.);
#243=EDGE_CURVE('',#285,#277,#33,.T.);
#244=EDGE_CURVE('',#294,#286,#34,.T.);
#245=EDGE_CURVE('',#298,#293,#35,.T.);
#246=EDGE_CURVE('',#279,#300,#36,.T.);
#247=EDGE_CURVE('',#280,#299,#37,.T.);
#248=EDGE_CURVE('',#297,#291,#38,.T.);
#249=EDGE_CURVE('',#295,#290,#39,.T.);
#250=EDGE_CURVE('',#287,#278,#40,.T.);
#251=VERTEX_POINT('',#777);
#252=VERTEX_POINT('',#778);
#253=VERTEX_POINT('',#780);
#254=VERTEX_POINT('',#782);
#255=VERTEX_POINT('',#786);
#256=VERTEX_POINT('',#788);
#257=VERTEX_POINT('',#792);
#258=VERTEX_POINT('',#794);
#259=VERTEX_POINT('',#801);
#260=VERTEX_POINT('',#803);
#261=VERTEX_POINT('',#805);
#262=VERTEX_POINT('',#807);
#263=VERTEX_POINT('',#809);
#264=VERTEX_POINT('',#812);
#265=VERTEX_POINT('',#814);
#266=VERTEX_POINT('',#816);
#267=VERTEX_POINT('',#818);
#268=VERTEX_POINT('',#820);
#269=VERTEX_POINT('',#829);
#270=VERTEX_POINT('',#830);
#271=VERTEX_POINT('',#832);
#272=VERTEX_POINT('',#834);
#273=VERTEX_POINT('',#838);
#274=VERTEX_POINT('',#840);
#275=VERTEX_POINT('',#844);
#276=VERTEX_POINT('',#846);
#277=VERTEX_POINT('',#850);
#278=VERTEX_POINT('',#851);
#279=VERTEX_POINT('',#853);
#280=VERTEX_POINT('',#855);
#281=VERTEX_POINT('',#857);
#282=VERTEX_POINT('',#859);
#283=VERTEX_POINT('',#861);
#284=VERTEX_POINT('',#863);
#285=VERTEX_POINT('',#867);
#286=VERTEX_POINT('',#868);
#287=VERTEX_POINT('',#870);
#288=VERTEX_POINT('',#873);
#289=VERTEX_POINT('',#875);
#290=VERTEX_POINT('',#877);
#291=VERTEX_POINT('',#881);
#292=VERTEX_POINT('',#882);
#293=VERTEX_POINT('',#884);
#294=VERTEX_POINT('',#886);
#295=VERTEX_POINT('',#888);
#296=VERTEX_POINT('',#891);
#297=VERTEX_POINT('',#895);
#298=VERTEX_POINT('',#896);
#299=VERTEX_POINT('',#900);
#300=VERTEX_POINT('',#902);
#301=LINE('',#776,#353);
#302=LINE('',#779,#354);
#303=LINE('',#781,#355);
#304=LINE('',#783,#356);
#305=LINE('',#785,#357);
#306=LINE('',#787,#358);
#307=LINE('',#789,#359);
#308=LINE('',#791,#360);
#309=LINE('',#793,#361);
#310=LINE('',#795,#362);
#311=LINE('',#797,#363);
#312=LINE('',#798,#364);
#313=LINE('',#828,#365);
#314=LINE('',#831,#366);
#315=LINE('',#833,#367);
#316=LINE('',#835,#368);
#317=LINE('',#837,#369);
#318=LINE('',#839,#370);
#319=LINE('',#841,#371);
#320=LINE('',#843,#372);
#321=LINE('',#845,#373);
#322=LINE('',#847,#374);
#323=LINE('',#849,#375);
#324=LINE('',#852,#376);
#325=LINE('',#854,#377);
#326=LINE('',#856,#378);
#327=LINE('',#858,#379);
#328=LINE('',#860,#380);
#329=LINE('',#862,#381);
#330=LINE('',#864,#382);
#331=LINE('',#866,#383);
#332=LINE('',#869,#384);
#333=LINE('',#871,#385);
#334=LINE('',#872,#386);
#335=LINE('',#874,#387);
#336=LINE('',#876,#388);
#337=LINE('',#878,#389);
#338=LINE('',#880,#390);
#339=LINE('',#883,#391);
#340=LINE('',#885,#392);
#341=LINE('',#887,#393);
#342=LINE('',#889,#394);
#343=LINE('',#890,#395);
#344=LINE('',#892,#396);
#345=LINE('',#894,#397);
#346=LINE('',#897,#398);
#347=LINE('',#898,#399);
#348=LINE('',#899,#400);
#349=LINE('',#901,#401);
#350=LINE('',#903,#402);
#351=LINE('',#905,#403);
#352=LINE('',#906,#404);
#353=VECTOR('',#626,1.);
#354=VECTOR('',#627,1.);
#355=VECTOR('',#628,1.);
#356=VECTOR('',#629,1.);
#357=VECTOR('',#632,1.);
#358=VECTOR('',#633,1.);
#359=VECTOR('',#634,1.);
#360=VECTOR('',#637,1.);
#361=VECTOR('',#638,1.);
#362=VECTOR('',#639,1.);
#363=VECTOR('',#642,1.);
#364=VECTOR('',#643,1.);
#365=VECTOR('',#682,1.);
#366=VECTOR('',#683,1.);
#367=VECTOR('',#684,1.);
#368=VECTOR('',#685,1.);
#369=VECTOR('',#688,1.);
#370=VECTOR('',#689,1.);
#371=VECTOR('',#690,1.);
#372=VECTOR('',#693,1.);
#373=VECTOR('',#694,1.);
#374=VECTOR('',#695,1.);
#375=VECTOR('',#698,1.);
#376=VECTOR('',#699,1.);
#377=VECTOR('',#700,1.);
#378=VECTOR('',#701,1.);
#379=VECTOR('',#702,1.);
#380=VECTOR('',#703,1.);
#381=VECTOR('',#704,1.);
#382=VECTOR('',#705,1.);
#383=VECTOR('',#708,1.);
#384=VECTOR('',#709,1.);
#385=VECTOR('',#710,1.);
#386=VECTOR('',#711,1.);
#387=VECTOR('',#712,1.);
#388=VECTOR('',#713,1.);
#389=VECTOR('',#714,1.);
#390=VECTOR('',#717,1.);
#391=VECTOR('',#718,1.);
#392=VECTOR('',#719,1.);
#393=VECTOR('',#720,1.);
#394=VECTOR('',#721,1.);
#395=VECTOR('',#722,1.);
#396=VECTOR('',#723,1.);
#397=VECTOR('',#726,1.);
#398=VECTOR('',#727,1.);
#399=VECTOR('',#728,1.);
#400=VECTOR('',#729,1.);
#401=VECTOR('',#730,1.);
#402=VECTOR('',#731,1.);
#403=VECTOR('',#734,1.);
#404=VECTOR('',#735,1.);
#405=EDGE_LOOP('',(#41,#42,#43,#44));
#406=EDGE_LOOP('',(#45,#46,#47,#48));
#407=EDGE_LOOP('',(#49,#50,#51,#52));
#408=EDGE_LOOP('',(#53,#54,#55,#56));
#409=EDGE_LOOP('',(#57));
#410=EDGE_LOOP('',(#58));
#411=EDGE_LOOP('',(#59));
#412=EDGE_LOOP('',(#60));
#413=EDGE_LOOP('',(#61));
#414=EDGE_LOOP('',(#62,#63,#64,#65));
#415=EDGE_LOOP('',(#66));
#416=EDGE_LOOP('',(#67));
#417=EDGE_LOOP('',(#68));
#418=EDGE_LOOP('',(#69));
#419=EDGE_LOOP('',(#70));
#420=EDGE_LOOP('',(#71,#72,#73,#74));
#421=EDGE_LOOP('',(#75));
#422=EDGE_LOOP('',(#76));
#423=EDGE_LOOP('',(#77));
#424=EDGE_LOOP('',(#78));
#425=EDGE_LOOP('',(#79));
#426=EDGE_LOOP('',(#80));
#427=EDGE_LOOP('',(#81));
#428=EDGE_LOOP('',(#82));
#429=EDGE_LOOP('',(#83));
#430=EDGE_LOOP('',(#84));
#431=EDGE_LOOP('',(#85,#86,#87,#88));
#432=EDGE_LOOP('',(#89,#90,#91,#92));
#433=EDGE_LOOP('',(#93,#94,#95,#96));
#434=EDGE_LOOP('',(#97,#98,#99,#100,#101,#102,#103,#104));
#435=EDGE_LOOP('',(#105,#106,#107,#108,#109,#110,#111,#112));
#436=EDGE_LOOP('',(#113,#114,#115,#116,#117,#118,#119,#120));
#437=EDGE_LOOP('',(#121,#122,#123,#124,#125,#126,#127,#128));
#438=EDGE_LOOP('',(#129,#130,#131,#132));
#439=EDGE_LOOP('',(#133,#134,#135,#136,#137,#138,#139,#140));
#440=EDGE_LOOP('',(#141,#142,#143,#144));
#441=EDGE_LOOP('',(#145,#146,#147,#148));
#442=EDGE_LOOP('',(#149,#150,#151,#152));
#443=EDGE_LOOP('',(#153,#154,#155,#156));
#444=EDGE_LOOP('',(#157,#158,#159));
#445=EDGE_LOOP('',(#160,#161,#162));
#446=EDGE_LOOP('',(#163,#164,#165,#166));
#447=EDGE_LOOP('',(#167,#168,#169));
#448=EDGE_LOOP('',(#170,#171,#172,#173));
#449=EDGE_LOOP('',(#174,#175,#176,#177));
#450=EDGE_LOOP('',(#178,#179,#180));
#451=FACE_BOUND('',#405,.T.);
#452=FACE_BOUND('',#406,.T.);
#453=FACE_BOUND('',#407,.T.);
#454=FACE_BOUND('',#408,.T.);
#455=FACE_BOUND('',#409,.T.);
#456=FACE_BOUND('',#410,.T.);
#457=FACE_BOUND('',#411,.T.);
#458=FACE_BOUND('',#412,.T.);
#459=FACE_BOUND('',#413,.T.);
#460=FACE_BOUND('',#414,.T.);
#461=FACE_BOUND('',#415,.T.);
#462=FACE_BOUND('',#416,.T.);
#463=FACE_BOUND('',#417,.T.);
#464=FACE_BOUND('',#418,.T.);
#465=FACE_BOUND('',#419,.T.);
#466=FACE_BOUND('',#420,.T.);
#467=FACE_BOUND('',#421,.T.);
#468=FACE_BOUND('',#422,.T.);
#469=FACE_BOUND('',#423,.T.);
#470=FACE_BOUND('',#424,.T.);
#471=FACE_BOUND('',#425,.T.);
#472=FACE_BOUND('',#426,.T.);
#473=FACE_BOUND('',#427,.T.);
#474=FACE_BOUND('',#428,.T.);
#475=FACE_BOUND('',#429,.T.);
#476=FACE_BOUND('',#430,.T.);
#477=FACE_BOUND('',#431,.T.);
#478=FACE_BOUND('',#432,.T.);
#479=FACE_BOUND('',#433,.T.);
#480=FACE_BOUND('',#434,.T.);
#481=FACE_BOUND('',#435,.T.);
#482=FACE_BOUND('',#436,.T.);
#483=FACE_BOUND('',#437,.T.);
#484=FACE_BOUND('',#438,.T.);
#485=FACE_BOUND('',#439,.T.);
#486=FACE_BOUND('',#440,.T.);
#487=FACE_BOUND('',#441,.T.);
#488=FACE_BOUND('',#442,.T.);
#489=FACE_BOUND('',#443,.T.);
#490=FACE_BOUND('',#444,.T.);
#491=FACE_BOUND('',#445,.T.);
#492=FACE_BOUND('',#446,.T.);
#493=FACE_BOUND('',#447,.T.);
#494=FACE_BOUND('',#448,.T.);
#495=FACE_BOUND('',#449,.T.);
#496=FACE_BOUND('',#450,.T.);
#497=PLANE('',#573);
#498=PLANE('',#574);
#499=PLANE('',#575);
#500=PLANE('',#576);
#501=PLANE('',#577);
#502=PLANE('',#583);
#503=PLANE('',#595);
#504=PLANE('',#596);
#505=PLANE('',#597);
#506=PLANE('',#598);
#507=PLANE('',#599);
#508=PLANE('',#600);
#509=PLANE('',#601);
#510=PLANE('',#602);
#511=PLANE('',#603);
#512=PLANE('',#608);
#513=PLANE('',#609);
#514=PLANE('',#612);
#515=PLANE('',#613);
#516=PLANE('',#616);
#517=PLANE('',#621);
#518=ADVANCED_FACE('',(#451),#497,.T.);
#519=ADVANCED_FACE('',(#452),#498,.F.);
#520=ADVANCED_FACE('',(#453),#499,.F.);
#521=ADVANCED_FACE('',(#454),#500,.T.);
#522=ADVANCED_FACE('',(#455,#456,#457,#458,#459,#460),#501,.T.);
#523=ADVANCED_FACE('',(#461,#462,#463,#464,#465,#466),#502,.F.);
#524=ADVANCED_FACE('',(#467,#468),#14,.F.);
#525=ADVANCED_FACE('',(#469,#470),#15,.F.);
#526=ADVANCED_FACE('',(#471,#472),#16,.F.);
#527=ADVANCED_FACE('',(#473,#474),#17,.F.);
#528=ADVANCED_FACE('',(#475,#476),#18,.F.);
#529=ADVANCED_FACE('',(#477),#503,.T.);
#530=ADVANCED_FACE('',(#478),#504,.F.);
#531=ADVANCED_FACE('',(#479),#505,.F.);
#532=ADVANCED_FACE('',(#480),#506,.T.);
#533=ADVANCED_FACE('',(#481),#507,.F.);
#534=ADVANCED_FACE('',(#482),#508,.F.);
#535=ADVANCED_FACE('',(#483),#509,.T.);
#536=ADVANCED_FACE('',(#484),#510,.T.);
#537=ADVANCED_FACE('',(#485,#486),#511,.T.);
#538=ADVANCED_FACE('',(#487),#512,.F.);
#539=ADVANCED_FACE('',(#488),#513,.T.);
#540=ADVANCED_FACE('',(#489),#19,.F.);
#541=ADVANCED_FACE('',(#490),#514,.T.);
#542=ADVANCED_FACE('',(#491),#515,.T.);
#543=ADVANCED_FACE('',(#492),#20,.F.);
#544=ADVANCED_FACE('',(#493),#516,.T.);
#545=ADVANCED_FACE('',(#494),#21,.F.);
#546=ADVANCED_FACE('',(#495),#22,.F.);
#547=ADVANCED_FACE('',(#496),#517,.T.);
#548=CLOSED_SHELL('',(#518,#519,#520,#521,#522,#523,#524,#525,#526,#527,
#528));
#549=CLOSED_SHELL('',(#529,#530,#531,#532,#533,#534,#535,#536,#537,#538,
#539,#540,#541,#542,#543,#544,#545,#546,#547));
#550=STYLED_ITEM('',(#552),#566);
#551=STYLED_ITEM('',(#553),#567);
#552=PRESENTATION_STYLE_ASSIGNMENT((#554));
#553=PRESENTATION_STYLE_ASSIGNMENT((#555));
#554=SURFACE_STYLE_USAGE(.BOTH.,#556);
#555=SURFACE_STYLE_USAGE(.BOTH.,#557);
#556=SURFACE_SIDE_STYLE('',(#558));
#557=SURFACE_SIDE_STYLE('',(#559));
#558=SURFACE_STYLE_FILL_AREA(#560);
#559=SURFACE_STYLE_FILL_AREA(#561);
#560=FILL_AREA_STYLE('',(#562));
#561=FILL_AREA_STYLE('',(#563));
#562=FILL_AREA_STYLE_COLOUR('',#564);
#563=FILL_AREA_STYLE_COLOUR('',#565);
#564=COLOUR_RGB('',0.647058823529412,0.647058823529412,0.647058823529412);
#565=COLOUR_RGB('',0.615686274509804,0.811764705882353,0.929411764705882);
#566=MANIFOLD_SOLID_BREP('Part 2',#548);
#567=MANIFOLD_SOLID_BREP('Part 1',#549);
#568=SHAPE_DEFINITION_REPRESENTATION(#938,#570);
#569=SHAPE_DEFINITION_REPRESENTATION(#939,#571);
#570=SHAPE_REPRESENTATION('Part 2',(#572),#928);
#571=SHAPE_REPRESENTATION('Part 1',(#594),#929);
#572=AXIS2_PLACEMENT_3D('',#774,#622,#623);
#573=AXIS2_PLACEMENT_3D('',#775,#624,#625);
#574=AXIS2_PLACEMENT_3D('',#784,#630,#631);
#575=AXIS2_PLACEMENT_3D('',#790,#635,#636);
#576=AXIS2_PLACEMENT_3D('',#796,#640,#641);
#577=AXIS2_PLACEMENT_3D('',#799,#644,#645);
#578=AXIS2_PLACEMENT_3D('',#800,#646,#647);
#579=AXIS2_PLACEMENT_3D('',#802,#648,#649);
#580=AXIS2_PLACEMENT_3D('',#804,#650,#651);
#581=AXIS2_PLACEMENT_3D('',#806,#652,#653);
#582=AXIS2_PLACEMENT_3D('',#808,#654,#655);
#583=AXIS2_PLACEMENT_3D('',#810,#656,#657);
#584=AXIS2_PLACEMENT_3D('',#811,#658,#659);
#585=AXIS2_PLACEMENT_3D('',#813,#660,#661);
#586=AXIS2_PLACEMENT_3D('',#815,#662,#663);
#587=AXIS2_PLACEMENT_3D('',#817,#664,#665);
#588=AXIS2_PLACEMENT_3D('',#819,#666,#667);
#589=AXIS2_PLACEMENT_3D('',#821,#668,#669);
#590=AXIS2_PLACEMENT_3D('',#822,#670,#671);
#591=AXIS2_PLACEMENT_3D('',#823,#672,#673);
#592=AXIS2_PLACEMENT_3D('',#824,#674,#675);
#593=AXIS2_PLACEMENT_3D('',#825,#676,#677);
#594=AXIS2_PLACEMENT_3D('',#826,#678,#679);
#595=AXIS2_PLACEMENT_3D('',#827,#680,#681);
#596=AXIS2_PLACEMENT_3D('',#836,#686,#687);
#597=AXIS2_PLACEMENT_3D('',#842,#691,#692);
#598=AXIS2_PLACEMENT_3D('',#848,#696,#697);
#599=AXIS2_PLACEMENT_3D('',#865,#706,#707);
#600=AXIS2_PLACEMENT_3D('',#879,#715,#716);
#601=AXIS2_PLACEMENT_3D('',#893,#724,#725);
#602=AXIS2_PLACEMENT_3D('',#904,#732,#733);
#603=AXIS2_PLACEMENT_3D('',#907,#736,#737);
#604=AXIS2_PLACEMENT_3D('',#908,#738,#739);
#605=AXIS2_PLACEMENT_3D('',#909,#740,#741);
#606=AXIS2_PLACEMENT_3D('',#910,#742,#743);
#607=AXIS2_PLACEMENT_3D('',#911,#744,#745);
#608=AXIS2_PLACEMENT_3D('',#912,#746,#747);
#609=AXIS2_PLACEMENT_3D('',#913,#748,#749);
#610=AXIS2_PLACEMENT_3D('',#914,#750,#751);
#611=AXIS2_PLACEMENT_3D('',#915,#752,#753);
#612=AXIS2_PLACEMENT_3D('',#916,#754,#755);
#613=AXIS2_PLACEMENT_3D('',#917,#756,#757);
#614=AXIS2_PLACEMENT_3D('',#918,#758,#759);
#615=AXIS2_PLACEMENT_3D('',#919,#760,#761);
#616=AXIS2_PLACEMENT_3D('',#920,#762,#763);
#617=AXIS2_PLACEMENT_3D('',#921,#764,#765);
#618=AXIS2_PLACEMENT_3D('',#922,#766,#767);
#619=AXIS2_PLACEMENT_3D('',#923,#768,#769);
#620=AXIS2_PLACEMENT_3D('',#924,#770,#771);
#621=AXIS2_PLACEMENT_3D('',#925,#772,#773);
#622=DIRECTION('',(0.,0.,1.));
#623=DIRECTION('',(1.,0.,0.));
#624=DIRECTION('',(-2.08166817117217E-16,1.,0.));
#625=DIRECTION('',(-1.,-2.08166817117217E-16,0.));
#626=DIRECTION('',(1.,2.08166817117217E-16,0.));
#627=DIRECTION('',(0.,0.,-1.));
#628=DIRECTION('',(1.,2.08166817117217E-16,0.));
#629=DIRECTION('',(0.,0.,-1.));
#630=DIRECTION('',(1.,0.,0.));
#631=DIRECTION('',(0.,0.,-1.));
#632=DIRECTION('',(0.,-1.,0.));
#633=DIRECTION('',(0.,0.,-1.));
#634=DIRECTION('',(0.,-1.,0.));
#635=DIRECTION('',(-2.08166817117217E-16,1.,0.));
#636=DIRECTION('',(-1.,-2.08166817117217E-16,0.));
#637=DIRECTION('',(1.,2.08166817117217E-16,0.));
#638=DIRECTION('',(0.,0.,-1.));
#639=DIRECTION('',(1.,2.08166817117217E-16,0.));
#640=DIRECTION('',(1.,0.,0.));
#641=DIRECTION('',(0.,0.,-1.));
#642=DIRECTION('',(0.,-1.,0.));
#643=DIRECTION('',(0.,-1.,0.));
#644=DIRECTION('',(0.,0.,1.));
#645=DIRECTION('',(1.,0.,0.));
#646=DIRECTION('',(0.,0.,1.));
#647=DIRECTION('',(1.,0.,0.));
#648=DIRECTION('',(0.,0.,1.));
#649=DIRECTION('',(1.,0.,0.));
#650=DIRECTION('',(0.,0.,1.));
#651=DIRECTION('',(1.,0.,0.));
#652=DIRECTION('',(0.,0.,1.));
#653=DIRECTION('',(1.,0.,0.));
#654=DIRECTION('',(0.,0.,1.));
#655=DIRECTION('',(1.,0.,0.));
#656=DIRECTION('',(0.,0.,1.));
#657=DIRECTION('',(1.,0.,0.));
#658=DIRECTION('',(0.,0.,1.));
#659=DIRECTION('',(1.,0.,0.));
#660=DIRECTION('',(0.,0.,1.));
#661=DIRECTION('',(1.,0.,0.));
#662=DIRECTION('',(0.,0.,1.));
#663=DIRECTION('',(1.,0.,0.));
#664=DIRECTION('',(0.,0.,1.));
#665=DIRECTION('',(1.,0.,0.));
#666=DIRECTION('',(0.,0.,1.));
#667=DIRECTION('',(1.,0.,0.));
#668=DIRECTION('',(0.,0.,1.));
#669=DIRECTION('',(1.,0.,0.));
#670=DIRECTION('',(0.,0.,1.));
#671=DIRECTION('',(1.,0.,0.));
#672=DIRECTION('',(0.,0.,1.));
#673=DIRECTION('',(1.,0.,0.));
#674=DIRECTION('',(0.,0.,1.));
#675=DIRECTION('',(1.,0.,0.));
#676=DIRECTION('',(0.,0.,1.));
#677=DIRECTION('',(1.,0.,0.));
#678=DIRECTION('',(0.,0.,1.));
#679=DIRECTION('',(1.,0.,0.));
#680=DIRECTION('',(-2.08166817117217E-16,1.,0.));
#681=DIRECTION('',(-1.,-2.08166817117217E-16,0.));
#682=DIRECTION('',(1.,2.08166817117217E-16,0.));
#683=DIRECTION('',(0.,0.,-1.));
#684=DIRECTION('',(1.,2.08166817117217E-16,0.));
#685=DIRECTION('',(0.,0.,-1.));
#686=DIRECTION('',(1.,0.,0.));
#687=DIRECTION('',(0.,0.,-1.));
#688=DIRECTION('',(0.,-1.,0.));
#689=DIRECTION('',(0.,0.,-1.));
#690=DIRECTION('',(0.,-1.,0.));
#691=DIRECTION('',(-2.08166817117217E-16,1.,0.));
#692=DIRECTION('',(-1.,-2.08166817117217E-16,0.));
#693=DIRECTION('',(1.,2.08166817117217E-16,0.));
#694=DIRECTION('',(0.,0.,-1.));
#695=DIRECTION('',(1.,2.08166817117217E-16,0.));
#696=DIRECTION('',(1.,0.,0.));
#697=DIRECTION('',(0.,0.,-1.));
#698=DIRECTION('',(0.,0.,1.));
#699=DIRECTION('',(0.,-1.,0.));
#700=DIRECTION('',(0.,0.,1.));
#701=DIRECTION('',(0.,-1.,0.));
#702=DIRECTION('',(0.,0.,-1.));
#703=DIRECTION('',(0.,-1.,0.));
#704=DIRECTION('',(0.,0.,-1.));
#705=DIRECTION('',(0.,-1.,0.));
#706=DIRECTION('',(0.,1.,0.));
#707=DIRECTION('',(0.,0.,1.));
#708=DIRECTION('',(1.,0.,0.));
#709=DIRECTION('',(0.,0.,1.));
#710=DIRECTION('',(1.,0.,0.));
#711=DIRECTION('',(1.,0.,0.));
#712=DIRECTION('',(0.,0.,-1.));
#713=DIRECTION('',(1.,0.,0.));
#714=DIRECTION('',(0.,0.,1.));
#715=DIRECTION('',(1.,0.,0.));
#716=DIRECTION('',(0.,0.,-1.));
#717=DIRECTION('',(0.,-1.,0.));
#718=DIRECTION('',(0.,0.,1.));
#719=DIRECTION('',(0.,-1.,0.));
#720=DIRECTION('',(0.,0.,1.));
#721=DIRECTION('',(0.,-1.,0.));
#722=DIRECTION('',(0.,-1.,0.));
#723=DIRECTION('',(0.,0.,-1.));
#724=DIRECTION('',(0.,1.,0.));
#725=DIRECTION('',(0.,0.,1.));
#726=DIRECTION('',(0.,0.,1.));
#727=DIRECTION('',(1.,0.,0.));
#728=DIRECTION('',(1.,0.,0.));
#729=DIRECTION('',(1.,0.,0.));
#730=DIRECTION('',(0.,0.,1.));
#731=DIRECTION('',(1.,0.,0.));
#732=DIRECTION('',(1.,0.,0.));
#733=DIRECTION('',(0.,0.,-1.));
#734=DIRECTION('',(0.,-1.,0.));
#735=DIRECTION('',(0.,-1.,0.));
#736=DIRECTION('',(0.,0.,1.));
#737=DIRECTION('',(1.,0.,0.));
#738=DIRECTION('',(0.,0.,1.));
#739=DIRECTION('',(1.,0.,0.));
#740=DIRECTION('',(0.,0.,1.));
#741=DIRECTION('',(1.,0.,0.));
#742=DIRECTION('',(0.,0.,1.));
#743=DIRECTION('',(1.,0.,0.));
#744=DIRECTION('',(0.,0.,1.));
#745=DIRECTION('',(1.,0.,0.));
#746=DIRECTION('',(0.,0.,1.));
#747=DIRECTION('',(1.,0.,0.));
#748=DIRECTION('',(0.,0.,1.));
#749=DIRECTION('',(1.,0.,0.));
#750=DIRECTION('',(0.,0.,1.));
#751=DIRECTION('',(1.,0.,0.));
#752=DIRECTION('',(0.,0.,1.));
#753=DIRECTION('',(1.,0.,0.));
#754=DIRECTION('',(0.,0.,1.));
#755=DIRECTION('',(1.,0.,0.));
#756=DIRECTION('',(0.,0.,1.));
#757=DIRECTION('',(1.,0.,0.));
#758=DIRECTION('',(0.,0.,1.));
#759=DIRECTION('',(1.,0.,0.));
#760=DIRECTION('',(0.,0.,1.));
#761=DIRECTION('',(1.,0.,0.));
#762=DIRECTION('',(0.,0.,1.));
#763=DIRECTION('',(1.,0.,0.));
#764=DIRECTION('',(0.,0.,1.));
#765=DIRECTION('',(1.,0.,0.));
#766=DIRECTION('',(0.,0.,1.));
#767=DIRECTION('',(1.,0.,0.));
#768=DIRECTION('',(0.,0.,1.));
#769=DIRECTION('',(1.,0.,0.));
#770=DIRECTION('',(0.,0.,1.));
#771=DIRECTION('',(1.,0.,0.));
#772=DIRECTION('',(0.,0.,1.));
#773=DIRECTION('',(1.,0.,0.));
#774=CARTESIAN_POINT('',(0.,0.,0.));
#775=CARTESIAN_POINT('',(0.0204562824219465,0.0193443488563183,0.045));
#776=CARTESIAN_POINT('',(0.0204562824219465,0.0193443488563183,0.04));
#777=CARTESIAN_POINT('',(-0.00454371757805348,0.0193443488563183,0.04));
#778=CARTESIAN_POINT('',(0.0454562824219465,0.0193443488563183,0.04));
#779=CARTESIAN_POINT('',(-0.00454371757805348,0.0193443488563183,0.045));
#780=CARTESIAN_POINT('',(-0.00454371757805348,0.0193443488563183,0.045));
#781=CARTESIAN_POINT('',(0.0204562824219465,0.0193443488563183,0.045));
#782=CARTESIAN_POINT('',(0.0454562824219465,0.0193443488563183,0.045));
#783=CARTESIAN_POINT('',(0.0454562824219465,0.0193443488563183,0.045));
#784=CARTESIAN_POINT('',(-0.00454371757805348,0.00434434885631825,0.045));
#785=CARTESIAN_POINT('',(-0.00454371757805348,0.00434434885631825,0.04));
#786=CARTESIAN_POINT('',(-0.00454371757805348,-0.0106556511436817,0.04));
#787=CARTESIAN_POINT('',(-0.00454371757805348,-0.0106556511436817,0.045));
#788=CARTESIAN_POINT('',(-0.00454371757805348,-0.0106556511436817,0.045));
#789=CARTESIAN_POINT('',(-0.00454371757805348,0.00434434885631825,0.045));
#790=CARTESIAN_POINT('',(0.0204562824219465,-0.0106556511436817,0.045));
#791=CARTESIAN_POINT('',(0.0204562824219465,-0.0106556511436817,0.04));
#792=CARTESIAN_POINT('',(0.0454562824219465,-0.0106556511436817,0.04));
#793=CARTESIAN_POINT('',(0.0454562824219465,-0.0106556511436817,0.045));
#794=CARTESIAN_POINT('',(0.0454562824219465,-0.0106556511436817,0.045));
#795=CARTESIAN_POINT('',(0.0204562824219465,-0.0106556511436817,0.045));
#796=CARTESIAN_POINT('',(0.0454562824219465,0.00434434885631826,0.045));
#797=CARTESIAN_POINT('',(0.0454562824219465,0.00434434885631826,0.04));
#798=CARTESIAN_POINT('',(0.0454562824219465,0.00434434885631826,0.045));
#799=CARTESIAN_POINT('',(0.0204562824219465,0.00434434885631825,0.045));
#800=CARTESIAN_POINT('',(0.0184612824219465,0.00333934885631825,0.045));
#801=CARTESIAN_POINT('',(0.0264662824219465,0.00333934885631825,0.045));
#802=CARTESIAN_POINT('',(-0.000743717578053476,-0.00685565114368174,0.045));
#803=CARTESIAN_POINT('',(0.00105628242194652,-0.00685565114368174,0.045));
#804=CARTESIAN_POINT('',(0.0416562824219465,0.0155443488563183,0.045));
#805=CARTESIAN_POINT('',(0.0434562824219466,0.0155443488563183,0.045));
#806=CARTESIAN_POINT('',(0.0416562824219465,-0.00685565114368174,0.045));
#807=CARTESIAN_POINT('',(0.0434562824219466,-0.00685565114368174,0.045));
#808=CARTESIAN_POINT('',(-0.000743717578053476,0.0155443488563183,0.045));
#809=CARTESIAN_POINT('',(0.00105628242194652,0.0155443488563183,0.045));
#810=CARTESIAN_POINT('',(0.0204562824219465,0.00434434885631825,0.04));
#811=CARTESIAN_POINT('',(0.0184612824219465,0.00333934885631825,0.04));
#812=CARTESIAN_POINT('',(0.0264662824219465,0.00333934885631825,0.04));
#813=CARTESIAN_POINT('',(-0.000743717578053476,-0.00685565114368174,0.04));
#814=CARTESIAN_POINT('',(0.00105628242194652,-0.00685565114368174,0.04));
#815=CARTESIAN_POINT('',(0.0416562824219465,0.0155443488563183,0.04));
#816=CARTESIAN_POINT('',(0.0434562824219466,0.0155443488563183,0.04));
#817=CARTESIAN_POINT('',(0.0416562824219465,-0.00685565114368174,0.04));
#818=CARTESIAN_POINT('',(0.0434562824219466,-0.00685565114368174,0.04));
#819=CARTESIAN_POINT('',(-0.000743717578053476,0.0155443488563183,0.04));
#820=CARTESIAN_POINT('',(0.00105628242194652,0.0155443488563183,0.04));
#821=CARTESIAN_POINT('',(-0.000743717578053476,0.0155443488563183,0.04));
#822=CARTESIAN_POINT('',(0.0416562824219465,-0.00685565114368174,0.04));
#823=CARTESIAN_POINT('',(0.0416562824219465,0.0155443488563183,0.04));
#824=CARTESIAN_POINT('',(-0.000743717578053476,-0.00685565114368174,0.04));
#825=CARTESIAN_POINT('',(0.0184612824219465,0.00333934885631825,0.04));
#826=CARTESIAN_POINT('',(0.,0.,0.));
#827=CARTESIAN_POINT('',(0.0204562824219465,0.0193443488563183,0.04));
#828=CARTESIAN_POINT('',(0.0204562824219465,0.0193443488563183,0.));
#829=CARTESIAN_POINT('',(-0.00454371757805348,0.0193443488563183,0.));
#830=CARTESIAN_POINT('',(0.0454562824219465,0.0193443488563183,0.));
#831=CARTESIAN_POINT('',(-0.00454371757805348,0.0193443488563183,0.04));
#832=CARTESIAN_POINT('',(-0.00454371757805348,0.0193443488563183,0.04));
#833=CARTESIAN_POINT('',(0.0204562824219465,0.0193443488563183,0.04));
#834=CARTESIAN_POINT('',(0.0454562824219465,0.0193443488563183,0.04));
#835=CARTESIAN_POINT('',(0.0454562824219465,0.0193443488563183,0.04));
#836=CARTESIAN_POINT('',(-0.00454371757805348,0.00434434885631825,0.04));
#837=CARTESIAN_POINT('',(-0.00454371757805348,0.00434434885631825,0.));
#838=CARTESIAN_POINT('',(-0.00454371757805348,-0.0106556511436817,0.));
#839=CARTESIAN_POINT('',(-0.00454371757805348,-0.0106556511436817,0.04));
#840=CARTESIAN_POINT('',(-0.00454371757805348,-0.0106556511436817,0.04));
#841=CARTESIAN_POINT('',(-0.00454371757805348,0.00434434885631825,0.04));
#842=CARTESIAN_POINT('',(0.0204562824219465,-0.0106556511436817,0.04));
#843=CARTESIAN_POINT('',(0.0204562824219465,-0.0106556511436817,0.));
#844=CARTESIAN_POINT('',(0.0454562824219465,-0.0106556511436817,0.));
#845=CARTESIAN_POINT('',(0.0454562824219465,-0.0106556511436817,0.04));
#846=CARTESIAN_POINT('',(0.0454562824219465,-0.0106556511436817,0.04));
#847=CARTESIAN_POINT('',(0.0204562824219465,-0.0106556511436817,0.04));
#848=CARTESIAN_POINT('',(0.000456282421946527,0.00434434885631825,0.04));
#849=CARTESIAN_POINT('',(0.000456282421946527,0.0142027080698184,0.015));
#850=CARTESIAN_POINT('',(0.000456282421946527,0.0142027080698184,0.04));
#851=CARTESIAN_POINT('',(0.000456282421946527,0.0142027080698184,0.015));
#852=CARTESIAN_POINT('',(0.000456282421946527,0.00434434885631825,0.04));
#853=CARTESIAN_POINT('',(0.000456282421946527,-0.00551401035718188,0.04));
#854=CARTESIAN_POINT('',(0.000456282421946527,-0.00551401035718188,0.015));
#855=CARTESIAN_POINT('',(0.000456282421946527,-0.00551401035718188,0.015));
#856=CARTESIAN_POINT('',(0.000456282421946527,0.00434434885631825,0.015));
#857=CARTESIAN_POINT('',(0.000456282421946529,-0.00565565114368175,0.015));
#858=CARTESIAN_POINT('',(0.000456282421946529,-0.00565565114368175,0.04));
#859=CARTESIAN_POINT('',(0.000456282421946529,-0.00565565114368175,0.001));
#860=CARTESIAN_POINT('',(0.000456282421946527,0.00434434885631825,0.001));
#861=CARTESIAN_POINT('',(0.000456282421946525,0.0143443488563183,0.001));
#862=CARTESIAN_POINT('',(0.000456282421946525,0.0143443488563183,0.04));
#863=CARTESIAN_POINT('',(0.000456282421946525,0.0143443488563183,0.015));
#864=CARTESIAN_POINT('',(0.000456282421946527,0.00434434885631825,0.015));
#865=CARTESIAN_POINT('',(0.0204562824219465,0.0143443488563183,0.04));
#866=CARTESIAN_POINT('',(0.0204562824219465,0.0143443488563183,0.04));
#867=CARTESIAN_POINT('',(0.000597923208446402,0.0143443488563183,0.04));
#868=CARTESIAN_POINT('',(0.0403146416354467,0.0143443488563182,0.04));
#869=CARTESIAN_POINT('',(0.000597923208446402,0.0143443488563183,0.015));
#870=CARTESIAN_POINT('',(0.000597923208446402,0.0143443488563183,0.015));
#871=CARTESIAN_POINT('',(0.0204562824219465,0.0143443488563183,0.015));
#872=CARTESIAN_POINT('',(0.0204562824219465,0.0143443488563183,0.001));
#873=CARTESIAN_POINT('',(0.0404562824219466,0.0143443488563182,0.001));
#874=CARTESIAN_POINT('',(0.0404562824219466,0.0143443488563182,0.04));
#875=CARTESIAN_POINT('',(0.0404562824219466,0.0143443488563182,0.015));
#876=CARTESIAN_POINT('',(0.0204562824219465,0.0143443488563183,0.015));
#877=CARTESIAN_POINT('',(0.0403146416354467,0.0143443488563183,0.015));
#878=CARTESIAN_POINT('',(0.0403146416354467,0.0143443488563183,0.015));
#879=CARTESIAN_POINT('',(0.0404562824219466,0.00434434885631825,0.04));
#880=CARTESIAN_POINT('',(0.0404562824219466,0.00434434885631825,0.015));
#881=CARTESIAN_POINT('',(0.0404562824219466,-0.00551401035718186,0.015));
#882=CARTESIAN_POINT('',(0.0404562824219466,-0.00565565114368175,0.015));
#883=CARTESIAN_POINT('',(0.0404562824219466,-0.00551401035718186,0.015));
#884=CARTESIAN_POINT('',(0.0404562824219466,-0.00551401035718186,0.04));
#885=CARTESIAN_POINT('',(0.0404562824219466,0.00434434885631825,0.04));
#886=CARTESIAN_POINT('',(0.0404562824219466,0.0142027080698184,0.04));
#887=CARTESIAN_POINT('',(0.0404562824219466,0.0142027080698184,0.015));
#888=CARTESIAN_POINT('',(0.0404562824219466,0.0142027080698184,0.015));
#889=CARTESIAN_POINT('',(0.0404562824219466,0.00434434885631825,0.015));
#890=CARTESIAN_POINT('',(0.0404562824219466,0.00434434885631825,0.001));
#891=CARTESIAN_POINT('',(0.0404562824219466,-0.00565565114368175,0.001));
#892=CARTESIAN_POINT('',(0.0404562824219466,-0.00565565114368175,0.04));
#893=CARTESIAN_POINT('',(0.0204562824219465,-0.00565565114368175,0.04));
#894=CARTESIAN_POINT('',(0.0403146416354467,-0.00565565114368175,0.015));
#895=CARTESIAN_POINT('',(0.0403146416354467,-0.00565565114368175,0.015));
#896=CARTESIAN_POINT('',(0.0403146416354467,-0.00565565114368175,0.04));
#897=CARTESIAN_POINT('',(0.0204562824219465,-0.00565565114368175,0.015));
#898=CARTESIAN_POINT('',(0.0204562824219465,-0.00565565114368175,0.001));
#899=CARTESIAN_POINT('',(0.0204562824219465,-0.00565565114368175,0.015));
#900=CARTESIAN_POINT('',(0.000597923208446395,-0.00565565114368175,0.015));
#901=CARTESIAN_POINT('',(0.000597923208446395,-0.00565565114368175,0.015));
#902=CARTESIAN_POINT('',(0.000597923208446395,-0.00565565114368175,0.04));
#903=CARTESIAN_POINT('',(0.0204562824219465,-0.00565565114368175,0.04));
#904=CARTESIAN_POINT('',(0.0454562824219465,0.00434434885631826,0.04));
#905=CARTESIAN_POINT('',(0.0454562824219465,0.00434434885631826,0.));
#906=CARTESIAN_POINT('',(0.0454562824219465,0.00434434885631826,0.04));
#907=CARTESIAN_POINT('',(0.0204562824219465,0.00434434885631825,0.04));
#908=CARTESIAN_POINT('',(-0.000743717578053476,0.0155443488563183,0.04));
#909=CARTESIAN_POINT('',(0.0416562824219465,0.0155443488563183,0.04));
#910=CARTESIAN_POINT('',(0.0416562824219465,-0.00685565114368174,0.04));
#911=CARTESIAN_POINT('',(-0.000743717578053476,-0.00685565114368175,0.04));
#912=CARTESIAN_POINT('',(0.0204562824219465,0.00434434885631825,0.));
#913=CARTESIAN_POINT('',(0.0204562824219465,0.00434434885631825,0.001));
#914=CARTESIAN_POINT('',(-0.000743717578053476,-0.00685565114368175,0.015));
#915=CARTESIAN_POINT('',(-0.000743717578053476,-0.00685565114368175,0.015));
#916=CARTESIAN_POINT('',(0.0204562824219465,0.00434434885631825,0.015));
#917=CARTESIAN_POINT('',(0.0204562824219465,0.00434434885631825,0.015));
#918=CARTESIAN_POINT('',(0.0416562824219465,-0.00685565114368174,0.015));
#919=CARTESIAN_POINT('',(0.0416562824219465,-0.00685565114368174,0.015));
#920=CARTESIAN_POINT('',(0.0204562824219465,0.00434434885631825,0.015));
#921=CARTESIAN_POINT('',(0.0416562824219465,0.0155443488563183,0.015));
#922=CARTESIAN_POINT('',(0.0416562824219465,0.0155443488563183,0.015));
#923=CARTESIAN_POINT('',(-0.000743717578053476,0.0155443488563183,0.015));
#924=CARTESIAN_POINT('',(-0.000743717578053476,0.0155443488563183,0.015));
#925=CARTESIAN_POINT('',(0.0204562824219465,0.00434434885631825,0.015));
#926=MECHANICAL_DESIGN_GEOMETRIC_PRESENTATION_REPRESENTATION('',(#550),
#928);
#927=MECHANICAL_DESIGN_GEOMETRIC_PRESENTATION_REPRESENTATION('',(#551),
#929);
#928=(
GEOMETRIC_REPRESENTATION_CONTEXT(3)
GLOBAL_UNCERTAINTY_ASSIGNED_CONTEXT((#930))
GLOBAL_UNIT_ASSIGNED_CONTEXT((#936,#934,#932))
REPRESENTATION_CONTEXT('Part 2','TOP_LEVEL_ASSEMBLY_PART')
);
#929=(
GEOMETRIC_REPRESENTATION_CONTEXT(3)
GLOBAL_UNCERTAINTY_ASSIGNED_CONTEXT((#931))
GLOBAL_UNIT_ASSIGNED_CONTEXT((#937,#935,#933))
REPRESENTATION_CONTEXT('Part 1','TOP_LEVEL_ASSEMBLY_PART')
);
#930=UNCERTAINTY_MEASURE_WITH_UNIT(LENGTH_MEASURE(1.E-8),#936,
'DISTANCE_ACCURACY_VALUE','Maximum Tolerance applied to model');
#931=UNCERTAINTY_MEASURE_WITH_UNIT(LENGTH_MEASURE(1.E-8),#937,
'DISTANCE_ACCURACY_VALUE','Maximum Tolerance applied to model');
#932=(
NAMED_UNIT(*)
SI_UNIT($,.STERADIAN.)
SOLID_ANGLE_UNIT()
);
#933=(
NAMED_UNIT(*)
SI_UNIT($,.STERADIAN.)
SOLID_ANGLE_UNIT()
);
#934=(
NAMED_UNIT(*)
PLANE_ANGLE_UNIT()
SI_UNIT($,.RADIAN.)
);
#935=(
NAMED_UNIT(*)
PLANE_ANGLE_UNIT()
SI_UNIT($,.RADIAN.)
);
#936=(
LENGTH_UNIT()
NAMED_UNIT(*)
SI_UNIT($,.METRE.)
);
#937=(
LENGTH_UNIT()
NAMED_UNIT(*)
SI_UNIT($,.METRE.)
);
#938=PRODUCT_DEFINITION_SHAPE('','',#940);
#939=PRODUCT_DEFINITION_SHAPE('','',#941);
#940=PRODUCT_DEFINITION('','',#944,#942);
#941=PRODUCT_DEFINITION('','',#945,#943);
#942=PRODUCT_DEFINITION_CONTEXT('',#956,'design');
#943=PRODUCT_DEFINITION_CONTEXT('',#957,'design');
#944=PRODUCT_DEFINITION_FORMATION_WITH_SPECIFIED_SOURCE('','',#948,
 .NOT_KNOWN.);
#945=PRODUCT_DEFINITION_FORMATION_WITH_SPECIFIED_SOURCE('','',#949,
 .NOT_KNOWN.);
#946=PRODUCT_RELATED_PRODUCT_CATEGORY('','',(#948));
#947=PRODUCT_RELATED_PRODUCT_CATEGORY('','',(#949));
#948=PRODUCT('Part 2','Part 2','Part 2',(#952));
#949=PRODUCT('Part 1','Part 1','Part 1',(#953));
#950=PRODUCT_CATEGORY('','');
#951=PRODUCT_CATEGORY('','');
#952=PRODUCT_CONTEXT('',#956,'mechanical');
#953=PRODUCT_CONTEXT('',#957,'mechanical');
#954=APPLICATION_PROTOCOL_DEFINITION('international standard',
'ap242_managed_model_based_3d_engineering',2020,#956);
#955=APPLICATION_PROTOCOL_DEFINITION('international standard',
'ap242_managed_model_based_3d_engineering',2020,#957);
#956=APPLICATION_CONTEXT('managed model based 3d engineering');
#957=APPLICATION_CONTEXT('managed model based 3d engineering');
ENDSEC;
END-ISO-10303-21;
